<?xml version="1.0" encoding="us-ascii" standalone="no"?><svg xmlns="http://www.w3.org/2000/svg" xmlns:xlink="http://www.w3.org/1999/xlink" contentStyleType="text/css" height="800px" preserveAspectRatio="none" style="width:591px;height:800px;background:#FFFFFF;" version="1.1" viewBox="0 0 591 800" width="591px" zoomAndPan="magnify"><defs/><g><text fill="#000000" font-family="sans-serif" font-size="14" font-weight="bold" lengthAdjust="spacing" textLength="329" x="129.5" y="32.9951">Online Studying Platform BPMN Diagram</text><ellipse cx="300" cy="57.2969" fill="#222222" rx="10" ry="10" style="stroke:#222222;stroke-width:1.0;"/><rect fill="#F1F1F1" height="33.9688" rx="12.5" ry="12.5" style="stroke:#181818;stroke-width:0.5;" width="52" x="274" y="87.2969"/><text fill="#000000" font-family="sans-serif" font-size="12" lengthAdjust="spacing" textLength="32" x="284" y="108.4355">Login</text><polygon fill="#F1F1F1" points="32,141.2656,195,141.2656,207,153.2656,195,165.2656,32,165.2656,20,153.2656,32,141.2656" style="stroke:#181818;stroke-width:0.5;"/><text fill="#000000" font-family="sans-serif" font-size="11" lengthAdjust="spacing" textLength="21" x="117.5" y="175.4761">yes</text><text fill="#000000" font-family="sans-serif" font-size="11" lengthAdjust="spacing" textLength="163" x="32" y="157.0737">User Type == Basic Learner</text><rect fill="#F1F1F1" height="33.9688" rx="12.5" ry="12.5" style="stroke:#181818;stroke-width:0.5;" width="116" x="55.5" y="198.0703"/><text fill="#000000" font-family="sans-serif" font-size="12" lengthAdjust="spacing" textLength="96" x="65.5" y="219.209">Search Courses</text><rect fill="#F1F1F1" height="33.9688" rx="12.5" ry="12.5" style="stroke:#181818;stroke-width:0.5;" width="53" x="87" y="255.4414"/><text fill="#000000" font-family="sans-serif" font-size="12" lengthAdjust="spacing" textLength="33" x="97" y="276.5801">Enroll</text><rect fill="#F1F1F1" height="33.9688" rx="12.5" ry="12.5" style="stroke:#181818;stroke-width:0.5;" width="118" x="54.5" y="312.8125"/><text fill="#000000" font-family="sans-serif" font-size="12" lengthAdjust="spacing" textLength="98" x="64.5" y="333.9512">Do Assignments</text><polygon fill="#F1F1F1" points="239,141.2656,422,141.2656,434,153.2656,422,165.2656,239,165.2656,227,153.2656,239,141.2656" style="stroke:#181818;stroke-width:0.5;"/><text fill="#000000" font-family="sans-serif" font-size="11" lengthAdjust="spacing" textLength="21" x="334.5" y="175.4761">yes</text><text fill="#000000" font-family="sans-serif" font-size="11" lengthAdjust="spacing" textLength="183" x="239" y="157.0737">User Type == Premium Learner</text><text fill="#000000" font-family="sans-serif" font-size="11" lengthAdjust="spacing" textLength="137" x="434" y="150.6714">User Type == Instructor</text><rect fill="#F1F1F1" height="33.9688" rx="12.5" ry="12.5" style="stroke:#181818;stroke-width:0.5;" width="116" x="272.5" y="198.0703"/><text fill="#000000" font-family="sans-serif" font-size="12" lengthAdjust="spacing" textLength="96" x="282.5" y="219.209">Search Courses</text><rect fill="#F1F1F1" height="33.9688" rx="12.5" ry="12.5" style="stroke:#181818;stroke-width:0.5;" width="53" x="304" y="255.4414"/><text fill="#000000" font-family="sans-serif" font-size="12" lengthAdjust="spacing" textLength="33" x="314" y="276.5801">Enroll</text><rect fill="#F1F1F1" height="33.9688" rx="12.5" ry="12.5" style="stroke:#181818;stroke-width:0.5;" width="118" x="271.5" y="312.8125"/><text fill="#000000" font-family="sans-serif" font-size="12" lengthAdjust="spacing" textLength="98" x="281.5" y="333.9512">Do Assignments</text><rect fill="#F1F1F1" height="33.9688" rx="12.5" ry="12.5" style="stroke:#181818;stroke-width:0.5;" width="193" x="234" y="370.1836"/><text fill="#000000" font-family="sans-serif" font-size="12" lengthAdjust="spacing" textLength="173" x="244" y="391.3223">Create and Join Communities</text><rect fill="#F1F1F1" height="33.9688" rx="12.5" ry="12.5" style="stroke:#181818;stroke-width:0.5;" width="107" x="463.5" y="194.668"/><text fill="#000000" font-family="sans-serif" font-size="12" lengthAdjust="spacing" textLength="87" x="473.5" y="215.8066">Create Course</text><rect fill="#F1F1F1" height="33.9688" rx="12.5" ry="12.5" style="stroke:#181818;stroke-width:0.5;" width="53" x="490.5" y="252.0391"/><text fill="#000000" font-family="sans-serif" font-size="12" lengthAdjust="spacing" textLength="33" x="500.5" y="273.1777">Enroll</text><rect fill="#F1F1F1" height="33.9688" rx="12.5" ry="12.5" style="stroke:#181818;stroke-width:0.5;" width="91" x="471.5" y="309.4102"/><text fill="#000000" font-family="sans-serif" font-size="12" lengthAdjust="spacing" textLength="71" x="481.5" y="330.5488">Post Videos</text><rect fill="#F1F1F1" height="33.9688" rx="12.5" ry="12.5" style="stroke:#181818;stroke-width:0.5;" width="126" x="454" y="366.7813"/><text fill="#000000" font-family="sans-serif" font-size="12" lengthAdjust="spacing" textLength="106" x="464" y="387.9199">Post Assignments</text><rect fill="#F1F1F1" height="33.9688" rx="12.5" ry="12.5" style="stroke:#181818;stroke-width:0.5;" width="116" x="242" y="444.1523"/><text fill="#000000" font-family="sans-serif" font-size="12" lengthAdjust="spacing" textLength="96" x="252" y="465.291">Search Courses</text><rect fill="#F1F1F1" height="33.9688" rx="12.5" ry="12.5" style="stroke:#181818;stroke-width:0.5;" width="53" x="273.5" y="498.1211"/><text fill="#000000" font-family="sans-serif" font-size="12" lengthAdjust="spacing" textLength="33" x="283.5" y="519.2598">Enroll</text><rect fill="#F1F1F1" height="33.9688" rx="12.5" ry="12.5" style="stroke:#181818;stroke-width:0.5;" width="118" x="241" y="552.0898"/><text fill="#000000" font-family="sans-serif" font-size="12" lengthAdjust="spacing" textLength="98" x="251" y="573.2285">Do Assignments</text><rect fill="#F1F1F1" height="33.9688" rx="12.5" ry="12.5" style="stroke:#181818;stroke-width:0.5;" width="193" x="203.5" y="606.0586"/><text fill="#000000" font-family="sans-serif" font-size="12" lengthAdjust="spacing" textLength="173" x="213.5" y="627.1973">Create and Join Communities</text><rect fill="#F1F1F1" height="33.9688" rx="12.5" ry="12.5" style="stroke:#181818;stroke-width:0.5;" width="91" x="254.5" y="660.0273"/><text fill="#000000" font-family="sans-serif" font-size="12" lengthAdjust="spacing" textLength="71" x="264.5" y="681.166">Post Videos</text><rect fill="#F1F1F1" height="33.9688" rx="12.5" ry="12.5" style="stroke:#181818;stroke-width:0.5;" width="126" x="237" y="713.9961"/><text fill="#000000" font-family="sans-serif" font-size="12" lengthAdjust="spacing" textLength="106" x="247" y="735.1348">Post Assignments</text><ellipse cx="300" cy="778.9648" fill="none" rx="11" ry="11" style="stroke:#222222;stroke-width:1.0;"/><ellipse cx="300" cy="778.9648" fill="#222222" rx="6" ry="6" style="stroke:#111111;stroke-width:1.0;"/><line style="stroke:#181818;stroke-width:1.0;" x1="300" x2="300" y1="67.2969" y2="87.2969"/><polygon fill="#181818" points="296,77.2969,300,87.2969,304,77.2969,300,81.2969" style="stroke:#181818;stroke-width:1.0;"/><line style="stroke:#181818;stroke-width:1.0;" x1="113.5" x2="113.5" y1="232.0391" y2="255.4414"/><polygon fill="#181818" points="109.5,245.4414,113.5,255.4414,117.5,245.4414,113.5,249.4414" style="stroke:#181818;stroke-width:1.0;"/><line style="stroke:#181818;stroke-width:1.0;" x1="113.5" x2="113.5" y1="289.4102" y2="312.8125"/><polygon fill="#181818" points="109.5,302.8125,113.5,312.8125,117.5,302.8125,113.5,306.8125" style="stroke:#181818;stroke-width:1.0;"/><line style="stroke:#181818;stroke-width:1.0;" x1="330.5" x2="330.5" y1="232.0391" y2="255.4414"/><polygon fill="#181818" points="326.5,245.4414,330.5,255.4414,334.5,245.4414,330.5,249.4414" style="stroke:#181818;stroke-width:1.0;"/><line style="stroke:#181818;stroke-width:1.0;" x1="330.5" x2="330.5" y1="289.4102" y2="312.8125"/><polygon fill="#181818" points="326.5,302.8125,330.5,312.8125,334.5,302.8125,330.5,306.8125" style="stroke:#181818;stroke-width:1.0;"/><line style="stroke:#181818;stroke-width:1.0;" x1="330.5" x2="330.5" y1="346.7813" y2="370.1836"/><polygon fill="#181818" points="326.5,360.1836,330.5,370.1836,334.5,360.1836,330.5,364.1836" style="stroke:#181818;stroke-width:1.0;"/><line style="stroke:#181818;stroke-width:1.0;" x1="517" x2="517" y1="228.6367" y2="252.0391"/><polygon fill="#181818" points="513,242.0391,517,252.0391,521,242.0391,517,246.0391" style="stroke:#181818;stroke-width:1.0;"/><line style="stroke:#181818;stroke-width:1.0;" x1="517" x2="517" y1="286.0078" y2="309.4102"/><polygon fill="#181818" points="513,299.4102,517,309.4102,521,299.4102,517,303.4102" style="stroke:#181818;stroke-width:1.0;"/><line style="stroke:#181818;stroke-width:1.0;" x1="517" x2="517" y1="343.3789" y2="366.7813"/><polygon fill="#181818" points="513,356.7813,517,366.7813,521,356.7813,517,360.7813" style="stroke:#181818;stroke-width:1.0;"/><line style="stroke:#181818;stroke-width:1.0;" x1="113.5" x2="113.5" y1="165.2656" y2="198.0703"/><polygon fill="#181818" points="109.5,188.0703,113.5,198.0703,117.5,188.0703,113.5,192.0703" style="stroke:#181818;stroke-width:1.0;"/><line style="stroke:#181818;stroke-width:1.0;" x1="113.5" x2="113.5" y1="346.7813" y2="424.1523"/><polygon fill="#181818" points="109.5,414.1523,113.5,424.1523,117.5,414.1523,113.5,418.1523" style="stroke:#181818;stroke-width:1.0;"/><line style="stroke:#181818;stroke-width:1.0;" x1="330.5" x2="330.5" y1="165.2656" y2="198.0703"/><polygon fill="#181818" points="326.5,188.0703,330.5,198.0703,334.5,188.0703,330.5,192.0703" style="stroke:#181818;stroke-width:1.0;"/><line style="stroke:#181818;stroke-width:1.0;" x1="330.5" x2="330.5" y1="404.1523" y2="424.1523"/><polygon fill="#181818" points="326.5,414.1523,330.5,424.1523,334.5,414.1523,330.5,418.1523" style="stroke:#181818;stroke-width:1.0;"/><line style="stroke:#181818;stroke-width:1.0;" x1="207" x2="227" y1="153.2656" y2="153.2656"/><polygon fill="#181818" points="217,149.2656,227,153.2656,217,157.2656,221,153.2656" style="stroke:#181818;stroke-width:1.0;"/><line style="stroke:#181818;stroke-width:1.0;" x1="300" x2="300" y1="121.2656" y2="126.2656"/><line style="stroke:#181818;stroke-width:1.0;" x1="300" x2="113.5" y1="126.2656" y2="126.2656"/><line style="stroke:#181818;stroke-width:1.0;" x1="113.5" x2="113.5" y1="126.2656" y2="141.2656"/><polygon fill="#181818" points="109.5,131.2656,113.5,141.2656,117.5,131.2656,113.5,135.2656" style="stroke:#181818;stroke-width:1.0;"/><line style="stroke:#181818;stroke-width:1.0;" x1="434" x2="517" y1="153.2656" y2="153.2656"/><line style="stroke:#181818;stroke-width:1.0;" x1="517" x2="517" y1="153.2656" y2="194.668"/><polygon fill="#181818" points="513,184.668,517,194.668,521,184.668,517,188.668" style="stroke:#181818;stroke-width:1.0;"/><line style="stroke:#181818;stroke-width:1.0;" x1="517" x2="517" y1="400.75" y2="424.1523"/><polygon fill="#181818" points="513,414.1523,517,424.1523,521,414.1523,517,418.1523" style="stroke:#181818;stroke-width:1.0;"/><line style="stroke:#181818;stroke-width:1.0;" x1="113.5" x2="517" y1="424.1523" y2="424.1523"/><line style="stroke:#181818;stroke-width:1.0;" x1="300" x2="300" y1="424.1523" y2="444.1523"/><polygon fill="#181818" points="296,434.1523,300,444.1523,304,434.1523,300,438.1523" style="stroke:#181818;stroke-width:1.0;"/><line style="stroke:#181818;stroke-width:1.0;" x1="300" x2="300" y1="478.1211" y2="498.1211"/><polygon fill="#181818" points="296,488.1211,300,498.1211,304,488.1211,300,492.1211" style="stroke:#181818;stroke-width:1.0;"/><line style="stroke:#181818;stroke-width:1.0;" x1="300" x2="300" y1="532.0898" y2="552.0898"/><polygon fill="#181818" points="296,542.0898,300,552.0898,304,542.0898,300,546.0898" style="stroke:#181818;stroke-width:1.0;"/><line style="stroke:#181818;stroke-width:1.0;" x1="300" x2="300" y1="586.0586" y2="606.0586"/><polygon fill="#181818" points="296,596.0586,300,606.0586,304,596.0586,300,600.0586" style="stroke:#181818;stroke-width:1.0;"/><line style="stroke:#181818;stroke-width:1.0;" x1="300" x2="300" y1="640.0273" y2="660.0273"/><polygon fill="#181818" points="296,650.0273,300,660.0273,304,650.0273,300,654.0273" style="stroke:#181818;stroke-width:1.0;"/><line style="stroke:#181818;stroke-width:1.0;" x1="300" x2="300" y1="693.9961" y2="713.9961"/><polygon fill="#181818" points="296,703.9961,300,713.9961,304,703.9961,300,707.9961" style="stroke:#181818;stroke-width:1.0;"/><line style="stroke:#181818;stroke-width:1.0;" x1="300" x2="300" y1="747.9648" y2="767.9648"/><polygon fill="#181818" points="296,757.9648,300,767.9648,304,757.9648,300,761.9648" style="stroke:#181818;stroke-width:1.0;"/><!--SRC=[hO_BJiD034NtynLtsVn2goveom9K85A1_IXnKaipdifs5lbx0eX726B5phwMVOwTFH4U9B4GJZwq8qkFEaNlYcRiwhjx73Zs6dC8vb4zh8-bPza4xh1wCb8yZXV2TejTD6vmfAX2Mi7F95YDP5K0rgSfRixObq6DRFCQNOkMbDxAGy6L6VUIINoQKZB20b0hPHxo_o2cQAyKdH2bnMrXcJPp7eITwKDXphyHSnqQBrfzMt_d_SJLnHpFt5Anhtx-exJSXONrvv65yT- -S-8lFFDoUG40]--></g></svg>