<?xml version="1.0" encoding="us-ascii" standalone="no"?><svg xmlns="http://www.w3.org/2000/svg" xmlns:xlink="http://www.w3.org/1999/xlink" contentStyleType="text/css" height="952px" preserveAspectRatio="none" style="width:914px;height:952px;background:#FFFFFF;" version="1.1" viewBox="0 0 914 952" width="914px" zoomAndPan="magnify"><defs/><g><line style="stroke:#181818;stroke-width:0.5;stroke-dasharray:5.0,5.0;" x1="23" x2="23" y1="81.2969" y2="871.75"/><line style="stroke:#181818;stroke-width:0.5;stroke-dasharray:5.0,5.0;" x1="196" x2="196" y1="81.2969" y2="871.75"/><line style="stroke:#181818;stroke-width:0.5;stroke-dasharray:5.0,5.0;" x1="352" x2="352" y1="81.2969" y2="871.75"/><line style="stroke:#181818;stroke-width:0.5;stroke-dasharray:5.0,5.0;" x1="480.5" x2="480.5" y1="81.2969" y2="871.75"/><line style="stroke:#181818;stroke-width:0.5;stroke-dasharray:5.0,5.0;" x1="578.5" x2="578.5" y1="81.2969" y2="871.75"/><line style="stroke:#181818;stroke-width:0.5;stroke-dasharray:5.0,5.0;" x1="674.5" x2="674.5" y1="81.2969" y2="871.75"/><line style="stroke:#181818;stroke-width:0.5;stroke-dasharray:5.0,5.0;" x1="757.5" x2="757.5" y1="81.2969" y2="871.75"/><line style="stroke:#181818;stroke-width:0.5;stroke-dasharray:5.0,5.0;" x1="823.5" x2="823.5" y1="81.2969" y2="871.75"/><line style="stroke:#181818;stroke-width:0.5;stroke-dasharray:5.0,5.0;" x1="880.5" x2="880.5" y1="81.2969" y2="871.75"/><text fill="#000000" font-family="sans-serif" font-size="14" lengthAdjust="spacing" textLength="31" x="5" y="77.9951">User</text><ellipse cx="23.5" cy="13.5" fill="#E2E2F0" rx="8" ry="8" style="stroke:#181818;stroke-width:0.5;"/><path d="M23.5,21.5 L23.5,48.5 M10.5,29.5 L36.5,29.5 M23.5,48.5 L10.5,63.5 M23.5,48.5 L36.5,63.5 " fill="none" style="stroke:#181818;stroke-width:0.5;"/><text fill="#000000" font-family="sans-serif" font-size="14" lengthAdjust="spacing" textLength="31" x="5" y="883.7451">User</text><ellipse cx="23.5" cy="895.5469" fill="#E2E2F0" rx="8" ry="8" style="stroke:#181818;stroke-width:0.5;"/><path d="M23.5,903.5469 L23.5,930.5469 M10.5,911.5469 L36.5,911.5469 M23.5,930.5469 L10.5,945.5469 M23.5,930.5469 L36.5,945.5469 " fill="none" style="stroke:#181818;stroke-width:0.5;"/><rect fill="#E2E2F0" height="30.2969" rx="2.5" ry="2.5" style="stroke:#181818;stroke-width:0.5;" width="63" x="165" y="50"/><text fill="#000000" font-family="sans-serif" font-size="14" lengthAdjust="spacing" textLength="49" x="172" y="69.9951">Course</text><rect fill="#E2E2F0" height="30.2969" rx="2.5" ry="2.5" style="stroke:#181818;stroke-width:0.5;" width="63" x="165" y="870.75"/><text fill="#000000" font-family="sans-serif" font-size="14" lengthAdjust="spacing" textLength="49" x="172" y="890.7451">Course</text><rect fill="#E2E2F0" height="30.2969" rx="2.5" ry="2.5" style="stroke:#181818;stroke-width:0.5;" width="45" x="330" y="50"/><text fill="#000000" font-family="sans-serif" font-size="14" lengthAdjust="spacing" textLength="31" x="337" y="69.9951">Quiz</text><rect fill="#E2E2F0" height="30.2969" rx="2.5" ry="2.5" style="stroke:#181818;stroke-width:0.5;" width="45" x="330" y="870.75"/><text fill="#000000" font-family="sans-serif" font-size="14" lengthAdjust="spacing" textLength="31" x="337" y="890.7451">Quiz</text><rect fill="#E2E2F0" height="30.2969" rx="2.5" ry="2.5" style="stroke:#181818;stroke-width:0.5;" width="78" x="441.5" y="50"/><text fill="#000000" font-family="sans-serif" font-size="14" lengthAdjust="spacing" textLength="64" x="448.5" y="69.9951">Question</text><rect fill="#E2E2F0" height="30.2969" rx="2.5" ry="2.5" style="stroke:#181818;stroke-width:0.5;" width="78" x="441.5" y="870.75"/><text fill="#000000" font-family="sans-serif" font-size="14" lengthAdjust="spacing" textLength="64" x="448.5" y="890.7451">Question</text><rect fill="#E2E2F0" height="30.2969" rx="2.5" ry="2.5" style="stroke:#181818;stroke-width:0.5;" width="99" x="529.5" y="50"/><text fill="#000000" font-family="sans-serif" font-size="14" lengthAdjust="spacing" textLength="85" x="536.5" y="69.9951">Assignment</text><rect fill="#E2E2F0" height="30.2969" rx="2.5" ry="2.5" style="stroke:#181818;stroke-width:0.5;" width="99" x="529.5" y="870.75"/><text fill="#000000" font-family="sans-serif" font-size="14" lengthAdjust="spacing" textLength="85" x="536.5" y="890.7451">Assignment</text><rect fill="#E2E2F0" height="30.2969" rx="2.5" ry="2.5" style="stroke:#181818;stroke-width:0.5;" width="72" x="638.5" y="50"/><text fill="#000000" font-family="sans-serif" font-size="14" lengthAdjust="spacing" textLength="58" x="645.5" y="69.9951">Material</text><rect fill="#E2E2F0" height="30.2969" rx="2.5" ry="2.5" style="stroke:#181818;stroke-width:0.5;" width="72" x="638.5" y="870.75"/><text fill="#000000" font-family="sans-serif" font-size="14" lengthAdjust="spacing" textLength="58" x="645.5" y="890.7451">Material</text><rect fill="#E2E2F0" height="30.2969" rx="2.5" ry="2.5" style="stroke:#181818;stroke-width:0.5;" width="74" x="720.5" y="50"/><text fill="#000000" font-family="sans-serif" font-size="14" lengthAdjust="spacing" textLength="60" x="727.5" y="69.9951">Content</text><rect fill="#E2E2F0" height="30.2969" rx="2.5" ry="2.5" style="stroke:#181818;stroke-width:0.5;" width="74" x="720.5" y="870.75"/><text fill="#000000" font-family="sans-serif" font-size="14" lengthAdjust="spacing" textLength="60" x="727.5" y="890.7451">Content</text><rect fill="#E2E2F0" height="30.2969" rx="2.5" ry="2.5" style="stroke:#181818;stroke-width:0.5;" width="39" x="804.5" y="50"/><text fill="#000000" font-family="sans-serif" font-size="14" lengthAdjust="spacing" textLength="25" x="811.5" y="69.9951">File</text><rect fill="#E2E2F0" height="30.2969" rx="2.5" ry="2.5" style="stroke:#181818;stroke-width:0.5;" width="39" x="804.5" y="870.75"/><text fill="#000000" font-family="sans-serif" font-size="14" lengthAdjust="spacing" textLength="25" x="811.5" y="890.7451">File</text><rect fill="#E2E2F0" height="30.2969" rx="2.5" ry="2.5" style="stroke:#181818;stroke-width:0.5;" width="55" x="853.5" y="50"/><text fill="#000000" font-family="sans-serif" font-size="14" lengthAdjust="spacing" textLength="41" x="860.5" y="69.9951">Video</text><rect fill="#E2E2F0" height="30.2969" rx="2.5" ry="2.5" style="stroke:#181818;stroke-width:0.5;" width="55" x="853.5" y="870.75"/><text fill="#000000" font-family="sans-serif" font-size="14" lengthAdjust="spacing" textLength="41" x="860.5" y="890.7451">Video</text><polygon fill="#181818" points="184.5,108.4297,194.5,112.4297,184.5,116.4297,188.5,112.4297" style="stroke:#181818;stroke-width:1.0;"/><line style="stroke:#181818;stroke-width:1.0;" x1="23.5" x2="190.5" y1="112.4297" y2="112.4297"/><text fill="#000000" font-family="sans-serif" font-size="13" lengthAdjust="spacing" textLength="29" x="30.5" y="107.3638">init()</text><polygon fill="#181818" points="184.5,137.5625,194.5,141.5625,184.5,145.5625,188.5,141.5625" style="stroke:#181818;stroke-width:1.0;"/><line style="stroke:#181818;stroke-width:1.0;" x1="23.5" x2="190.5" y1="141.5625" y2="141.5625"/><text fill="#000000" font-family="sans-serif" font-size="13" lengthAdjust="spacing" textLength="136" x="30.5" y="136.4966">sendCertificate(User)</text><polygon fill="#181818" points="34.5,166.6953,24.5,170.6953,34.5,174.6953,30.5,170.6953" style="stroke:#181818;stroke-width:1.0;"/><line style="stroke:#181818;stroke-width:1.0;stroke-dasharray:2.0,2.0;" x1="28.5" x2="195.5" y1="170.6953" y2="170.6953"/><text fill="#000000" font-family="sans-serif" font-size="13" lengthAdjust="spacing" textLength="98" x="40.5" y="165.6294">Certificate sent</text><polygon fill="#181818" points="184.5,195.8281,194.5,199.8281,184.5,203.8281,188.5,199.8281" style="stroke:#181818;stroke-width:1.0;"/><line style="stroke:#181818;stroke-width:1.0;" x1="23.5" x2="190.5" y1="199.8281" y2="199.8281"/><text fill="#000000" font-family="sans-serif" font-size="13" lengthAdjust="spacing" textLength="118" x="30.5" y="194.7622">incrementNrUser()</text><polygon fill="#181818" points="184.5,224.9609,194.5,228.9609,184.5,232.9609,188.5,228.9609" style="stroke:#181818;stroke-width:1.0;"/><line style="stroke:#181818;stroke-width:1.0;" x1="23.5" x2="190.5" y1="228.9609" y2="228.9609"/><text fill="#000000" font-family="sans-serif" font-size="13" lengthAdjust="spacing" textLength="119" x="30.5" y="223.895">generateContent()</text><polygon fill="#181818" points="184.5,254.0938,194.5,258.0938,184.5,262.0938,188.5,258.0938" style="stroke:#181818;stroke-width:1.0;"/><line style="stroke:#181818;stroke-width:1.0;" x1="23.5" x2="190.5" y1="258.0938" y2="258.0938"/><text fill="#000000" font-family="sans-serif" font-size="13" lengthAdjust="spacing" textLength="149" x="30.5" y="253.0278">hasEnoughPoints(User)</text><polygon fill="#181818" points="340.5,283.2266,350.5,287.2266,340.5,291.2266,344.5,287.2266" style="stroke:#181818;stroke-width:1.0;"/><line style="stroke:#181818;stroke-width:1.0;" x1="196.5" x2="346.5" y1="287.2266" y2="287.2266"/><text fill="#000000" font-family="sans-serif" font-size="13" lengthAdjust="spacing" textLength="29" x="203.5" y="282.1606">init()</text><polygon fill="#181818" points="340.5,312.3594,350.5,316.3594,340.5,320.3594,344.5,316.3594" style="stroke:#181818;stroke-width:1.0;"/><line style="stroke:#181818;stroke-width:1.0;" x1="196.5" x2="346.5" y1="316.3594" y2="316.3594"/><text fill="#000000" font-family="sans-serif" font-size="13" lengthAdjust="spacing" textLength="132" x="203.5" y="311.2935">generateQuestions()</text><polygon fill="#181818" points="207.5,341.4922,197.5,345.4922,207.5,349.4922,203.5,345.4922" style="stroke:#181818;stroke-width:1.0;"/><line style="stroke:#181818;stroke-width:1.0;stroke-dasharray:2.0,2.0;" x1="201.5" x2="351.5" y1="345.4922" y2="345.4922"/><text fill="#000000" font-family="sans-serif" font-size="13" lengthAdjust="spacing" textLength="82" x="213.5" y="340.4263">submitQuiz()</text><polygon fill="#181818" points="340.5,370.625,350.5,374.625,340.5,378.625,344.5,374.625" style="stroke:#181818;stroke-width:1.0;"/><line style="stroke:#181818;stroke-width:1.0;stroke-dasharray:2.0,2.0;" x1="196.5" x2="346.5" y1="374.625" y2="374.625"/><text fill="#000000" font-family="sans-serif" font-size="13" lengthAdjust="spacing" textLength="97" x="203.5" y="369.5591">Quiz submitted</text><polygon fill="#181818" points="340.5,399.7578,350.5,403.7578,340.5,407.7578,344.5,403.7578" style="stroke:#181818;stroke-width:1.0;"/><line style="stroke:#181818;stroke-width:1.0;" x1="196.5" x2="346.5" y1="403.7578" y2="403.7578"/><text fill="#000000" font-family="sans-serif" font-size="13" lengthAdjust="spacing" textLength="110" x="203.5" y="398.6919">displayAnswers()</text><polygon fill="#181818" points="340.5,428.8906,350.5,432.8906,340.5,436.8906,344.5,432.8906" style="stroke:#181818;stroke-width:1.0;"/><line style="stroke:#181818;stroke-width:1.0;stroke-dasharray:2.0,2.0;" x1="196.5" x2="346.5" y1="432.8906" y2="432.8906"/><text fill="#000000" font-family="sans-serif" font-size="13" lengthAdjust="spacing" textLength="120" x="203.5" y="427.8247">Answers displayed</text><line style="stroke:#181818;stroke-width:1.0;stroke-dasharray:2.0,2.0;" x1="352.5" x2="394.5" y1="462.0234" y2="462.0234"/><line style="stroke:#181818;stroke-width:1.0;stroke-dasharray:2.0,2.0;" x1="394.5" x2="394.5" y1="462.0234" y2="475.0234"/><line style="stroke:#181818;stroke-width:1.0;stroke-dasharray:2.0,2.0;" x1="353.5" x2="394.5" y1="475.0234" y2="475.0234"/><polygon fill="#181818" points="363.5,471.0234,353.5,475.0234,363.5,479.0234,359.5,475.0234" style="stroke:#181818;stroke-width:1.0;"/><text fill="#000000" font-family="sans-serif" font-size="13" lengthAdjust="spacing" textLength="106" x="359.5" y="456.9575">calculatePoints()</text><polygon fill="#181818" points="468.5,500.1563,478.5,504.1563,468.5,508.1563,472.5,504.1563" style="stroke:#181818;stroke-width:1.0;"/><line style="stroke:#181818;stroke-width:1.0;" x1="352.5" x2="474.5" y1="504.1563" y2="504.1563"/><text fill="#000000" font-family="sans-serif" font-size="13" lengthAdjust="spacing" textLength="79" x="359.5" y="499.0903">getAnswer()</text><polygon fill="#181818" points="363.5,529.2891,353.5,533.2891,363.5,537.2891,359.5,533.2891" style="stroke:#181818;stroke-width:1.0;"/><line style="stroke:#181818;stroke-width:1.0;stroke-dasharray:2.0,2.0;" x1="357.5" x2="479.5" y1="533.2891" y2="533.2891"/><text fill="#000000" font-family="sans-serif" font-size="13" lengthAdjust="spacing" textLength="48" x="369.5" y="528.2231">Answer</text><polygon fill="#181818" points="468.5,558.4219,478.5,562.4219,468.5,566.4219,472.5,562.4219" style="stroke:#181818;stroke-width:1.0;"/><line style="stroke:#181818;stroke-width:1.0;" x1="352.5" x2="474.5" y1="562.4219" y2="562.4219"/><text fill="#000000" font-family="sans-serif" font-size="13" lengthAdjust="spacing" textLength="88" x="359.5" y="557.356">getQuestion()</text><polygon fill="#181818" points="363.5,587.5547,353.5,591.5547,363.5,595.5547,359.5,591.5547" style="stroke:#181818;stroke-width:1.0;"/><line style="stroke:#181818;stroke-width:1.0;stroke-dasharray:2.0,2.0;" x1="357.5" x2="479.5" y1="591.5547" y2="591.5547"/><text fill="#000000" font-family="sans-serif" font-size="13" lengthAdjust="spacing" textLength="57" x="369.5" y="586.4888">Question</text><polygon fill="#181818" points="468.5,616.6875,478.5,620.6875,468.5,624.6875,472.5,620.6875" style="stroke:#181818;stroke-width:1.0;"/><line style="stroke:#181818;stroke-width:1.0;" x1="352.5" x2="474.5" y1="620.6875" y2="620.6875"/><text fill="#000000" font-family="sans-serif" font-size="13" lengthAdjust="spacing" textLength="70" x="359.5" y="615.6216">getPoints()</text><polygon fill="#181818" points="363.5,645.8203,353.5,649.8203,363.5,653.8203,359.5,649.8203" style="stroke:#181818;stroke-width:1.0;"/><line style="stroke:#181818;stroke-width:1.0;stroke-dasharray:2.0,2.0;" x1="357.5" x2="479.5" y1="649.8203" y2="649.8203"/><text fill="#000000" font-family="sans-serif" font-size="13" lengthAdjust="spacing" textLength="39" x="369.5" y="644.7544">Points</text><polygon fill="#181818" points="468.5,674.9531,478.5,678.9531,468.5,682.9531,472.5,678.9531" style="stroke:#181818;stroke-width:1.0;"/><line style="stroke:#181818;stroke-width:1.0;" x1="352.5" x2="474.5" y1="678.9531" y2="678.9531"/><text fill="#000000" font-family="sans-serif" font-size="13" lengthAdjust="spacing" textLength="104" x="359.5" y="673.8872">isCorrect(String)</text><polygon fill="#181818" points="363.5,704.0859,353.5,708.0859,363.5,712.0859,359.5,708.0859" style="stroke:#181818;stroke-width:1.0;"/><line style="stroke:#181818;stroke-width:1.0;stroke-dasharray:2.0,2.0;" x1="357.5" x2="479.5" y1="708.0859" y2="708.0859"/><text fill="#000000" font-family="sans-serif" font-size="13" lengthAdjust="spacing" textLength="77" x="369.5" y="703.02">Correctness</text><polygon fill="#181818" points="567,733.2188,577,737.2188,567,741.2188,571,737.2188" style="stroke:#181818;stroke-width:1.0;"/><line style="stroke:#181818;stroke-width:1.0;" x1="196.5" x2="573" y1="737.2188" y2="737.2188"/><text fill="#000000" font-family="sans-serif" font-size="13" lengthAdjust="spacing" textLength="29" x="203.5" y="732.1528">init()</text><polygon fill="#181818" points="662.5,762.3516,672.5,766.3516,662.5,770.3516,666.5,766.3516" style="stroke:#181818;stroke-width:1.0;"/><line style="stroke:#181818;stroke-width:1.0;" x1="196.5" x2="668.5" y1="766.3516" y2="766.3516"/><text fill="#000000" font-family="sans-serif" font-size="13" lengthAdjust="spacing" textLength="42" x="203.5" y="761.2856">open()</text><polygon fill="#181818" points="745.5,791.4844,755.5,795.4844,745.5,799.4844,749.5,795.4844" style="stroke:#181818;stroke-width:1.0;"/><line style="stroke:#181818;stroke-width:1.0;" x1="674.5" x2="751.5" y1="795.4844" y2="795.4844"/><text fill="#000000" font-family="sans-serif" font-size="13" lengthAdjust="spacing" textLength="42" x="681.5" y="790.4185">open()</text><polygon fill="#181818" points="812,820.6172,822,824.6172,812,828.6172,816,824.6172" style="stroke:#181818;stroke-width:1.0;"/><line style="stroke:#181818;stroke-width:1.0;" x1="757.5" x2="818" y1="824.6172" y2="824.6172"/><text fill="#000000" font-family="sans-serif" font-size="13" lengthAdjust="spacing" textLength="42" x="764.5" y="819.5513">open()</text><polygon fill="#181818" points="869,849.75,879,853.75,869,857.75,873,853.75" style="stroke:#181818;stroke-width:1.0;"/><line style="stroke:#181818;stroke-width:1.0;" x1="757.5" x2="875" y1="853.75" y2="853.75"/><text fill="#000000" font-family="sans-serif" font-size="13" lengthAdjust="spacing" textLength="42" x="764.5" y="848.6841">open()</text><!--SRC=[RLFDJiCm3BxtANeSXxx0X2PD4zn0J0Zk8JMTfSwfObS8dfwa-LdQvPZln_QNE4gBiUq7WssQILb1ZPCYQKzcjWmhw3pZtmO05ZIq0e_CED0LI5RmYnAmgCPD4vAjy1d7TTjFxC4qZH-nxGvni7sBXB9xk8CPg3-1St-ZTYrtde-gnwxBiaBYBL8fhotu5A_MKvLE0n1OvuyXAegBuYSoyt1vCqZ2SPOcq5xeRpGdsSAfVhfbTXhFj5qPT_wwedWuiMNA1GWIWVwkGuyyZUhtIFm3bci58fMKhaQU89JGQjJpwAQC4Lsye3ZaxV1991HQMWIqg16ukYyTwiwyW5Ll7gdY35p5XtmoreAMtRjOfA7gZX82vl8vRwkV7xLWqm_OjsO27wX9IDYPPOjkP0Gyvxz49Wfy-Hc9-0S0]--></g></svg>