<?xml version="1.0" encoding="us-ascii" standalone="no"?><svg xmlns="http://www.w3.org/2000/svg" xmlns:xlink="http://www.w3.org/1999/xlink" contentStyleType="text/css" height="752px" preserveAspectRatio="none" style="width:645px;height:752px;background:#FFFFFF;" version="1.1" viewBox="0 0 645 752" width="645px" zoomAndPan="magnify"><defs/><g><rect fill="#FFFFFF" height="307.7969" style="stroke:#181818;stroke-width:1.0;" width="10" x="191.5" y="112.4297"/><rect fill="#FFFFFF" height="29.1328" style="stroke:#181818;stroke-width:1.0;" width="10" x="191.5" y="449.3594"/><rect fill="#FFFFFF" height="29.1328" style="stroke:#181818;stroke-width:1.0;" width="10" x="191.5" y="507.625"/><rect fill="#FFFFFF" height="30" style="stroke:#181818;stroke-width:1.0;" width="10" x="334.5" y="183.6953"/><rect fill="#FFFFFF" height="30" style="stroke:#181818;stroke-width:1.0;" width="10" x="412" y="242.8281"/><rect fill="#FFFFFF" height="29.1328" style="stroke:#181818;stroke-width:1.0;" width="10" x="412" y="565.8906"/><rect fill="#FFFFFF" height="30" style="stroke:#181818;stroke-width:1.0;" width="10" x="498.5" y="301.9609"/><rect fill="#FFFFFF" height="30" style="stroke:#181818;stroke-width:1.0;" width="10" x="598.5" y="361.0938"/><rect fill="#FFFFFF" height="29.1328" style="stroke:#181818;stroke-width:1.0;" width="10" x="598.5" y="624.1563"/><line style="stroke:#181818;stroke-width:0.5;stroke-dasharray:5.0,5.0;" x1="23" x2="23" y1="81.2969" y2="671.2891"/><line style="stroke:#181818;stroke-width:0.5;stroke-dasharray:5.0,5.0;" x1="196" x2="196" y1="81.2969" y2="671.2891"/><line style="stroke:#181818;stroke-width:0.5;stroke-dasharray:5.0,5.0;" x1="339.5" x2="339.5" y1="81.2969" y2="671.2891"/><line style="stroke:#181818;stroke-width:0.5;stroke-dasharray:5.0,5.0;" x1="416.5" x2="416.5" y1="81.2969" y2="671.2891"/><line style="stroke:#181818;stroke-width:0.5;stroke-dasharray:5.0,5.0;" x1="503.5" x2="503.5" y1="81.2969" y2="671.2891"/><line style="stroke:#181818;stroke-width:0.5;stroke-dasharray:5.0,5.0;" x1="603.5" x2="603.5" y1="81.2969" y2="671.2891"/><text fill="#000000" font-family="sans-serif" font-size="14" lengthAdjust="spacing" textLength="31" x="5" y="77.9951">User</text><ellipse cx="23.5" cy="13.5" fill="#E2E2F0" rx="8" ry="8" style="stroke:#181818;stroke-width:0.5;"/><path d="M23.5,21.5 L23.5,48.5 M10.5,29.5 L36.5,29.5 M23.5,48.5 L10.5,63.5 M23.5,48.5 L36.5,63.5 " fill="none" style="stroke:#181818;stroke-width:0.5;"/><text fill="#000000" font-family="sans-serif" font-size="14" lengthAdjust="spacing" textLength="31" x="5" y="683.2842">User</text><ellipse cx="23.5" cy="695.0859" fill="#E2E2F0" rx="8" ry="8" style="stroke:#181818;stroke-width:0.5;"/><path d="M23.5,703.0859 L23.5,730.0859 M10.5,711.0859 L36.5,711.0859 M23.5,730.0859 L10.5,745.0859 M23.5,730.0859 L36.5,745.0859 " fill="none" style="stroke:#181818;stroke-width:0.5;"/><rect fill="#E2E2F0" height="30.2969" rx="2.5" ry="2.5" style="stroke:#181818;stroke-width:0.5;" width="63" x="165" y="50"/><text fill="#000000" font-family="sans-serif" font-size="14" lengthAdjust="spacing" textLength="49" x="172" y="69.9951">Course</text><rect fill="#E2E2F0" height="30.2969" rx="2.5" ry="2.5" style="stroke:#181818;stroke-width:0.5;" width="63" x="165" y="670.2891"/><text fill="#000000" font-family="sans-serif" font-size="14" lengthAdjust="spacing" textLength="49" x="172" y="690.2842">Course</text><rect fill="#E2E2F0" height="30.2969" rx="2.5" ry="2.5" style="stroke:#181818;stroke-width:0.5;" width="90" x="294.5" y="50"/><text fill="#000000" font-family="sans-serif" font-size="14" lengthAdjust="spacing" textLength="76" x="301.5" y="69.9951">Classname</text><rect fill="#E2E2F0" height="30.2969" rx="2.5" ry="2.5" style="stroke:#181818;stroke-width:0.5;" width="90" x="294.5" y="670.2891"/><text fill="#000000" font-family="sans-serif" font-size="14" lengthAdjust="spacing" textLength="76" x="301.5" y="690.2842">Classname</text><rect fill="#E2E2F0" height="30.2969" rx="2.5" ry="2.5" style="stroke:#181818;stroke-width:0.5;" width="45" x="394.5" y="50"/><text fill="#000000" font-family="sans-serif" font-size="14" lengthAdjust="spacing" textLength="31" x="401.5" y="69.9951">Quiz</text><rect fill="#E2E2F0" height="30.2969" rx="2.5" ry="2.5" style="stroke:#181818;stroke-width:0.5;" width="45" x="394.5" y="670.2891"/><text fill="#000000" font-family="sans-serif" font-size="14" lengthAdjust="spacing" textLength="31" x="401.5" y="690.2842">Quiz</text><rect fill="#E2E2F0" height="30.2969" rx="2.5" ry="2.5" style="stroke:#181818;stroke-width:0.5;" width="108" x="449.5" y="50"/><text fill="#000000" font-family="sans-serif" font-size="14" lengthAdjust="spacing" textLength="94" x="456.5" y="69.9951">Assignement</text><rect fill="#E2E2F0" height="30.2969" rx="2.5" ry="2.5" style="stroke:#181818;stroke-width:0.5;" width="108" x="449.5" y="670.2891"/><text fill="#000000" font-family="sans-serif" font-size="14" lengthAdjust="spacing" textLength="94" x="456.5" y="690.2842">Assignement</text><rect fill="#E2E2F0" height="30.2969" rx="2.5" ry="2.5" style="stroke:#181818;stroke-width:0.5;" width="72" x="567.5" y="50"/><text fill="#000000" font-family="sans-serif" font-size="14" lengthAdjust="spacing" textLength="58" x="574.5" y="69.9951">Material</text><rect fill="#E2E2F0" height="30.2969" rx="2.5" ry="2.5" style="stroke:#181818;stroke-width:0.5;" width="72" x="567.5" y="670.2891"/><text fill="#000000" font-family="sans-serif" font-size="14" lengthAdjust="spacing" textLength="58" x="574.5" y="690.2842">Material</text><rect fill="#FFFFFF" height="307.7969" style="stroke:#181818;stroke-width:1.0;" width="10" x="191.5" y="112.4297"/><rect fill="#FFFFFF" height="29.1328" style="stroke:#181818;stroke-width:1.0;" width="10" x="191.5" y="449.3594"/><rect fill="#FFFFFF" height="29.1328" style="stroke:#181818;stroke-width:1.0;" width="10" x="191.5" y="507.625"/><rect fill="#FFFFFF" height="30" style="stroke:#181818;stroke-width:1.0;" width="10" x="334.5" y="183.6953"/><rect fill="#FFFFFF" height="30" style="stroke:#181818;stroke-width:1.0;" width="10" x="412" y="242.8281"/><rect fill="#FFFFFF" height="29.1328" style="stroke:#181818;stroke-width:1.0;" width="10" x="412" y="565.8906"/><rect fill="#FFFFFF" height="30" style="stroke:#181818;stroke-width:1.0;" width="10" x="498.5" y="301.9609"/><rect fill="#FFFFFF" height="30" style="stroke:#181818;stroke-width:1.0;" width="10" x="598.5" y="361.0938"/><rect fill="#FFFFFF" height="29.1328" style="stroke:#181818;stroke-width:1.0;" width="10" x="598.5" y="624.1563"/><polygon fill="#181818" points="179.5,108.4297,189.5,112.4297,179.5,116.4297,183.5,112.4297" style="stroke:#181818;stroke-width:1.0;"/><line style="stroke:#181818;stroke-width:1.0;" x1="23.5" x2="185.5" y1="112.4297" y2="112.4297"/><text fill="#000000" font-family="sans-serif" font-size="13" lengthAdjust="spacing" textLength="74" x="30.5" y="107.3638">initCourse()</text><line style="stroke:#181818;stroke-width:1.0;" x1="201.5" x2="243.5" y1="141.5625" y2="141.5625"/><line style="stroke:#181818;stroke-width:1.0;" x1="243.5" x2="243.5" y1="141.5625" y2="154.5625"/><line style="stroke:#181818;stroke-width:1.0;" x1="202.5" x2="243.5" y1="154.5625" y2="154.5625"/><polygon fill="#181818" points="212.5,150.5625,202.5,154.5625,212.5,158.5625,208.5,154.5625" style="stroke:#181818;stroke-width:1.0;"/><text fill="#000000" font-family="sans-serif" font-size="13" lengthAdjust="spacing" textLength="119" x="208.5" y="136.4966">generateContent()</text><polygon fill="#181818" points="322.5,179.6953,332.5,183.6953,322.5,187.6953,326.5,183.6953" style="stroke:#181818;stroke-width:1.0;"/><line style="stroke:#181818;stroke-width:1.0;" x1="201.5" x2="328.5" y1="183.6953" y2="183.6953"/><text fill="#000000" font-family="sans-serif" font-size="13" lengthAdjust="spacing" textLength="100" x="208.5" y="178.6294">initClassname()</text><polygon fill="#181818" points="400,238.8281,410,242.8281,400,246.8281,404,242.8281" style="stroke:#181818;stroke-width:1.0;"/><line style="stroke:#181818;stroke-width:1.0;" x1="201.5" x2="406" y1="242.8281" y2="242.8281"/><text fill="#000000" font-family="sans-serif" font-size="13" lengthAdjust="spacing" textLength="57" x="208.5" y="237.7622">initQuiz()</text><polygon fill="#181818" points="486.5,297.9609,496.5,301.9609,486.5,305.9609,490.5,301.9609" style="stroke:#181818;stroke-width:1.0;"/><line style="stroke:#181818;stroke-width:1.0;" x1="201.5" x2="492.5" y1="301.9609" y2="301.9609"/><text fill="#000000" font-family="sans-serif" font-size="13" lengthAdjust="spacing" textLength="113" x="208.5" y="296.895">initAssignement()</text><polygon fill="#181818" points="586.5,357.0938,596.5,361.0938,586.5,365.0938,590.5,361.0938" style="stroke:#181818;stroke-width:1.0;"/><line style="stroke:#181818;stroke-width:1.0;" x1="201.5" x2="592.5" y1="361.0938" y2="361.0938"/><text fill="#000000" font-family="sans-serif" font-size="13" lengthAdjust="spacing" textLength="79" x="208.5" y="356.0278">initMaterial()</text><polygon fill="#181818" points="327.5,416.2266,337.5,420.2266,327.5,424.2266,331.5,420.2266" style="stroke:#181818;stroke-width:1.0;"/><line style="stroke:#181818;stroke-width:1.0;stroke-dasharray:2.0,2.0;" x1="196.5" x2="333.5" y1="420.2266" y2="420.2266"/><text fill="#000000" font-family="sans-serif" font-size="13" lengthAdjust="spacing" textLength="34" x="203.5" y="415.1606">Done</text><polygon fill="#181818" points="179.5,445.3594,189.5,449.3594,179.5,453.3594,183.5,449.3594" style="stroke:#181818;stroke-width:1.0;"/><line style="stroke:#181818;stroke-width:1.0;" x1="23.5" x2="185.5" y1="449.3594" y2="449.3594"/><text fill="#000000" font-family="sans-serif" font-size="13" lengthAdjust="spacing" textLength="149" x="30.5" y="444.2935">hasEnoughPoints(User)</text><polygon fill="#181818" points="34.5,474.4922,24.5,478.4922,34.5,482.4922,30.5,478.4922" style="stroke:#181818;stroke-width:1.0;"/><line style="stroke:#181818;stroke-width:1.0;stroke-dasharray:2.0,2.0;" x1="28.5" x2="195.5" y1="478.4922" y2="478.4922"/><text fill="#000000" font-family="sans-serif" font-size="13" lengthAdjust="spacing" textLength="40" x="40.5" y="473.4263">Result</text><polygon fill="#181818" points="179.5,503.625,189.5,507.625,179.5,511.625,183.5,507.625" style="stroke:#181818;stroke-width:1.0;"/><line style="stroke:#181818;stroke-width:1.0;" x1="23.5" x2="185.5" y1="507.625" y2="507.625"/><text fill="#000000" font-family="sans-serif" font-size="13" lengthAdjust="spacing" textLength="136" x="30.5" y="502.5591">sendCertificate(User)</text><polygon fill="#181818" points="34.5,532.7578,24.5,536.7578,34.5,540.7578,30.5,536.7578" style="stroke:#181818;stroke-width:1.0;"/><line style="stroke:#181818;stroke-width:1.0;stroke-dasharray:2.0,2.0;" x1="28.5" x2="195.5" y1="536.7578" y2="536.7578"/><text fill="#000000" font-family="sans-serif" font-size="13" lengthAdjust="spacing" textLength="99" x="40.5" y="531.6919">Certificate Sent</text><polygon fill="#181818" points="400,561.8906,410,565.8906,400,569.8906,404,565.8906" style="stroke:#181818;stroke-width:1.0;"/><line style="stroke:#181818;stroke-width:1.0;" x1="23.5" x2="406" y1="565.8906" y2="565.8906"/><text fill="#000000" font-family="sans-serif" font-size="13" lengthAdjust="spacing" textLength="136" x="30.5" y="560.8247">submitQuiz(answers)</text><polygon fill="#181818" points="34.5,591.0234,24.5,595.0234,34.5,599.0234,30.5,595.0234" style="stroke:#181818;stroke-width:1.0;"/><line style="stroke:#181818;stroke-width:1.0;stroke-dasharray:2.0,2.0;" x1="28.5" x2="416" y1="595.0234" y2="595.0234"/><text fill="#000000" font-family="sans-serif" font-size="13" lengthAdjust="spacing" textLength="40" x="40.5" y="589.9575">Result</text><polygon fill="#181818" points="586.5,620.1563,596.5,624.1563,586.5,628.1563,590.5,624.1563" style="stroke:#181818;stroke-width:1.0;"/><line style="stroke:#181818;stroke-width:1.0;" x1="23.5" x2="592.5" y1="624.1563" y2="624.1563"/><text fill="#000000" font-family="sans-serif" font-size="13" lengthAdjust="spacing" textLength="42" x="30.5" y="619.0903">open()</text><polygon fill="#181818" points="34.5,649.2891,24.5,653.2891,34.5,657.2891,30.5,653.2891" style="stroke:#181818;stroke-width:1.0;"/><line style="stroke:#181818;stroke-width:1.0;stroke-dasharray:2.0,2.0;" x1="28.5" x2="602.5" y1="653.2891" y2="653.2891"/><text fill="#000000" font-family="sans-serif" font-size="13" lengthAdjust="spacing" textLength="118" x="40.5" y="648.2231">Content Displayed</text><!--SRC=[ZL91JiGm3Bpt5Jak1pwm1oJKvOW4h7X0Q4tNKkjKSGA2rvCqJUkKWlRI9DFnE9w9RfonwfN1LjMehSC6HqrErSPRXXBgDJFfeKIVFNuNm3qpTWG3a2lmH-t0ekwhAdPJjtTpZwD2GfVsXvjADmu_0ZNV82sItW613OpQa0jDGetWv3lEglbO22zpjB03hc9njAGJTr9Y6bfKJ-UrK5YGwWKWPQHLGat2gsZsBodcavHR71PQ2vQ5IfDEXaeRakc_8hfeVY3ZkykJGN9yYF__pYeKHi9HlG3xtbtJW87Q6i9hUSScyAvj84hKUMFZjbMAa_tRC0UgYJ_1yZRN-FbtXecroAwvc15eDu-yaHTFZrUTaCTUVq6x5zeF]--></g></svg>