<?xml version="1.0" encoding="us-ascii" standalone="no"?><svg xmlns="http://www.w3.org/2000/svg" xmlns:xlink="http://www.w3.org/1999/xlink" contentStyleType="text/css" height="1934px" preserveAspectRatio="none" style="width:1371px;height:1934px;background:#FFFFFF;" version="1.1" viewBox="0 0 1371 1934" width="1371px" zoomAndPan="magnify"><defs/><g><rect fill="#FFFFFF" height="29.1328" style="stroke:#181818;stroke-width:1.0;" width="10" x="243.5" y="287.2266"/><rect fill="#FFFFFF" height="408.3281" style="stroke:#181818;stroke-width:1.0;" width="10" x="243.5" y="345.4922"/><rect fill="#FFFFFF" height="29.1328" style="stroke:#181818;stroke-width:1.0;" width="10" x="759.5" y="170.6953"/><rect fill="#FFFFFF" height="71.2656" style="stroke:#181818;stroke-width:1.0;" width="10" x="759.5" y="782.9531"/><rect fill="#FFFFFF" height="71.2656" style="stroke:#181818;stroke-width:1.0;" width="10" x="759.5" y="883.3516"/><rect fill="#FFFFFF" height="71.2656" style="stroke:#181818;stroke-width:1.0;" width="10" x="759.5" y="983.75"/><rect fill="#FFFFFF" height="71.2656" style="stroke:#181818;stroke-width:1.0;" width="10" x="759.5" y="1084.1484"/><rect fill="#FFFFFF" height="71.2656" style="stroke:#181818;stroke-width:1.0;" width="10" x="759.5" y="1184.5469"/><rect fill="#FFFFFF" height="71.2656" style="stroke:#181818;stroke-width:1.0;" width="10" x="759.5" y="1284.9453"/><rect fill="#FFFFFF" height="1732.375" style="stroke:#181818;stroke-width:1.0;" width="10" x="1120" y="112.4297"/><rect fill="#FFFFFF" height="87.3984" style="stroke:#181818;stroke-width:1.0;" width="10" x="1282" y="141.5625"/><line style="stroke:#181818;stroke-width:0.5;stroke-dasharray:5.0,5.0;" x1="23" x2="23" y1="81.2969" y2="1853.8047"/><line style="stroke:#181818;stroke-width:0.5;stroke-dasharray:5.0,5.0;" x1="248" x2="248" y1="81.2969" y2="1853.8047"/><line style="stroke:#181818;stroke-width:0.5;stroke-dasharray:5.0,5.0;" x1="764.5" x2="764.5" y1="81.2969" y2="1853.8047"/><line style="stroke:#181818;stroke-width:0.5;stroke-dasharray:5.0,5.0;" x1="1043" x2="1043" y1="81.2969" y2="1853.8047"/><line style="stroke:#181818;stroke-width:0.5;stroke-dasharray:5.0,5.0;" x1="1125" x2="1125" y1="81.2969" y2="1853.8047"/><line style="stroke:#181818;stroke-width:0.5;stroke-dasharray:5.0,5.0;" x1="1287" x2="1287" y1="81.2969" y2="1853.8047"/><text fill="#000000" font-family="sans-serif" font-size="14" lengthAdjust="spacing" textLength="31" x="5" y="77.9951">User</text><ellipse cx="23.5" cy="13.5" fill="#E2E2F0" rx="8" ry="8" style="stroke:#181818;stroke-width:0.5;"/><path d="M23.5,21.5 L23.5,48.5 M10.5,29.5 L36.5,29.5 M23.5,48.5 L10.5,63.5 M23.5,48.5 L36.5,63.5 " fill="none" style="stroke:#181818;stroke-width:0.5;"/><text fill="#000000" font-family="sans-serif" font-size="14" lengthAdjust="spacing" textLength="31" x="5" y="1865.7998">User</text><ellipse cx="23.5" cy="1877.6016" fill="#E2E2F0" rx="8" ry="8" style="stroke:#181818;stroke-width:0.5;"/><path d="M23.5,1885.6016 L23.5,1912.6016 M10.5,1893.6016 L36.5,1893.6016 M23.5,1912.6016 L10.5,1927.6016 M23.5,1912.6016 L36.5,1927.6016 " fill="none" style="stroke:#181818;stroke-width:0.5;"/><rect fill="#E2E2F0" height="30.2969" rx="2.5" ry="2.5" style="stroke:#181818;stroke-width:0.5;" width="85" x="206" y="50"/><text fill="#000000" font-family="sans-serif" font-size="14" lengthAdjust="spacing" textLength="71" x="213" y="69.9951">Instructor</text><rect fill="#E2E2F0" height="30.2969" rx="2.5" ry="2.5" style="stroke:#181818;stroke-width:0.5;" width="85" x="206" y="1852.8047"/><text fill="#000000" font-family="sans-serif" font-size="14" lengthAdjust="spacing" textLength="71" x="213" y="1872.7998">Instructor</text><rect fill="#E2E2F0" height="30.2969" rx="2.5" ry="2.5" style="stroke:#181818;stroke-width:0.5;" width="78" x="725.5" y="50"/><text fill="#000000" font-family="sans-serif" font-size="14" lengthAdjust="spacing" textLength="64" x="732.5" y="69.9951">Premium</text><rect fill="#E2E2F0" height="30.2969" rx="2.5" ry="2.5" style="stroke:#181818;stroke-width:0.5;" width="78" x="725.5" y="1852.8047"/><text fill="#000000" font-family="sans-serif" font-size="14" lengthAdjust="spacing" textLength="64" x="732.5" y="1872.7998">Premium</text><rect fill="#E2E2F0" height="30.2969" rx="2.5" ry="2.5" style="stroke:#181818;stroke-width:0.5;" width="69" x="1009" y="50"/><text fill="#000000" font-family="sans-serif" font-size="14" lengthAdjust="spacing" textLength="55" x="1016" y="69.9951">Learner</text><rect fill="#E2E2F0" height="30.2969" rx="2.5" ry="2.5" style="stroke:#181818;stroke-width:0.5;" width="69" x="1009" y="1852.8047"/><text fill="#000000" font-family="sans-serif" font-size="14" lengthAdjust="spacing" textLength="55" x="1016" y="1872.7998">Learner</text><rect fill="#E2E2F0" height="30.2969" rx="2.5" ry="2.5" style="stroke:#181818;stroke-width:0.5;" width="74" x="1088" y="50"/><text fill="#000000" font-family="sans-serif" font-size="14" lengthAdjust="spacing" textLength="60" x="1095" y="69.9951">Upgrade</text><rect fill="#E2E2F0" height="30.2969" rx="2.5" ry="2.5" style="stroke:#181818;stroke-width:0.5;" width="74" x="1088" y="1852.8047"/><text fill="#000000" font-family="sans-serif" font-size="14" lengthAdjust="spacing" textLength="60" x="1095" y="1872.7998">Upgrade</text><rect fill="#E2E2F0" height="30.2969" rx="2.5" ry="2.5" style="stroke:#181818;stroke-width:0.5;" width="156" x="1209" y="50"/><text fill="#000000" font-family="sans-serif" font-size="14" lengthAdjust="spacing" textLength="142" x="1216" y="69.9951">UpgradeToPremium</text><rect fill="#E2E2F0" height="30.2969" rx="2.5" ry="2.5" style="stroke:#181818;stroke-width:0.5;" width="156" x="1209" y="1852.8047"/><text fill="#000000" font-family="sans-serif" font-size="14" lengthAdjust="spacing" textLength="142" x="1216" y="1872.7998">UpgradeToPremium</text><rect fill="#FFFFFF" height="29.1328" style="stroke:#181818;stroke-width:1.0;" width="10" x="243.5" y="287.2266"/><rect fill="#FFFFFF" height="408.3281" style="stroke:#181818;stroke-width:1.0;" width="10" x="243.5" y="345.4922"/><rect fill="#FFFFFF" height="29.1328" style="stroke:#181818;stroke-width:1.0;" width="10" x="759.5" y="170.6953"/><rect fill="#FFFFFF" height="71.2656" style="stroke:#181818;stroke-width:1.0;" width="10" x="759.5" y="782.9531"/><rect fill="#FFFFFF" height="71.2656" style="stroke:#181818;stroke-width:1.0;" width="10" x="759.5" y="883.3516"/><rect fill="#FFFFFF" height="71.2656" style="stroke:#181818;stroke-width:1.0;" width="10" x="759.5" y="983.75"/><rect fill="#FFFFFF" height="71.2656" style="stroke:#181818;stroke-width:1.0;" width="10" x="759.5" y="1084.1484"/><rect fill="#FFFFFF" height="71.2656" style="stroke:#181818;stroke-width:1.0;" width="10" x="759.5" y="1184.5469"/><rect fill="#FFFFFF" height="71.2656" style="stroke:#181818;stroke-width:1.0;" width="10" x="759.5" y="1284.9453"/><rect fill="#FFFFFF" height="1732.375" style="stroke:#181818;stroke-width:1.0;" width="10" x="1120" y="112.4297"/><rect fill="#FFFFFF" height="87.3984" style="stroke:#181818;stroke-width:1.0;" width="10" x="1282" y="141.5625"/><polygon fill="#181818" points="752.5,108.4297,762.5,112.4297,752.5,116.4297,756.5,112.4297" style="stroke:#181818;stroke-width:1.0;"/><line style="stroke:#181818;stroke-width:1.0;" x1="23.5" x2="758.5" y1="112.4297" y2="112.4297"/><text fill="#000000" font-family="sans-serif" font-size="13" lengthAdjust="spacing" textLength="93" x="30.5" y="107.3638">Upgrade(User)</text><polygon fill="#181818" points="1270,137.5625,1280,141.5625,1270,145.5625,1274,141.5625" style="stroke:#181818;stroke-width:1.0;"/><line style="stroke:#181818;stroke-width:1.0;" x1="1130" x2="1276" y1="141.5625" y2="141.5625"/><text fill="#000000" font-family="sans-serif" font-size="13" lengthAdjust="spacing" textLength="128" x="1137" y="136.4966">UpgradeToPremium</text><polygon fill="#181818" points="780.5,166.6953,770.5,170.6953,780.5,174.6953,776.5,170.6953" style="stroke:#181818;stroke-width:1.0;"/><line style="stroke:#181818;stroke-width:1.0;" x1="774.5" x2="1281" y1="170.6953" y2="170.6953"/><text fill="#000000" font-family="sans-serif" font-size="13" lengthAdjust="spacing" textLength="431" x="786.5" y="165.6294">register(String, String, String, String, String, Gender, int, CreditCard)</text><polygon fill="#181818" points="34.5,195.8281,24.5,199.8281,34.5,203.8281,30.5,199.8281" style="stroke:#181818;stroke-width:1.0;"/><line style="stroke:#181818;stroke-width:1.0;" x1="28.5" x2="763.5" y1="199.8281" y2="199.8281"/><text fill="#000000" font-family="sans-serif" font-size="13" lengthAdjust="spacing" textLength="148" x="40.5" y="194.7622">Registration successful</text><polygon fill="#181818" points="1141,224.9609,1131,228.9609,1141,232.9609,1137,228.9609" style="stroke:#181818;stroke-width:1.0;"/><line style="stroke:#181818;stroke-width:1.0;stroke-dasharray:2.0,2.0;" x1="1135" x2="1286" y1="228.9609" y2="228.9609"/><text fill="#000000" font-family="sans-serif" font-size="13" lengthAdjust="spacing" textLength="128" x="1147" y="223.895">UpgradeToPremium</text><polygon fill="#181818" points="34.5,254.0938,24.5,258.0938,34.5,262.0938,30.5,258.0938" style="stroke:#181818;stroke-width:1.0;"/><line style="stroke:#181818;stroke-width:1.0;stroke-dasharray:2.0,2.0;" x1="28.5" x2="1119" y1="258.0938" y2="258.0938"/><text fill="#000000" font-family="sans-serif" font-size="13" lengthAdjust="spacing" textLength="141" x="40.5" y="253.0278">Upgraded to Premium</text><polygon fill="#181818" points="231.5,283.2266,241.5,287.2266,231.5,291.2266,235.5,287.2266" style="stroke:#181818;stroke-width:1.0;"/><line style="stroke:#181818;stroke-width:1.0;" x1="23.5" x2="237.5" y1="287.2266" y2="287.2266"/><text fill="#000000" font-family="sans-serif" font-size="13" lengthAdjust="spacing" textLength="59" x="30.5" y="282.1606">register()</text><polygon fill="#181818" points="34.5,312.3594,24.5,316.3594,34.5,320.3594,30.5,316.3594" style="stroke:#181818;stroke-width:1.0;"/><line style="stroke:#181818;stroke-width:1.0;" x1="28.5" x2="247.5" y1="316.3594" y2="316.3594"/><text fill="#000000" font-family="sans-serif" font-size="13" lengthAdjust="spacing" textLength="148" x="40.5" y="311.2935">Registration successful</text><polygon fill="#181818" points="231.5,341.4922,241.5,345.4922,231.5,349.4922,235.5,345.4922" style="stroke:#181818;stroke-width:1.0;"/><line style="stroke:#181818;stroke-width:1.0;" x1="23.5" x2="237.5" y1="345.4922" y2="345.4922"/><text fill="#000000" font-family="sans-serif" font-size="13" lengthAdjust="spacing" textLength="96" x="30.5" y="340.4263">createCourse()</text><line style="stroke:#181818;stroke-width:1.0;" x1="253.5" x2="295.5" y1="374.625" y2="374.625"/><line style="stroke:#181818;stroke-width:1.0;" x1="295.5" x2="295.5" y1="374.625" y2="387.625"/><line style="stroke:#181818;stroke-width:1.0;" x1="254.5" x2="295.5" y1="387.625" y2="387.625"/><polygon fill="#181818" points="264.5,383.625,254.5,387.625,264.5,391.625,260.5,387.625" style="stroke:#181818;stroke-width:1.0;"/><text fill="#000000" font-family="sans-serif" font-size="13" lengthAdjust="spacing" textLength="492" x="260.5" y="369.5591">register(String, String, String, String, String, int, Gender, CreditCard, Resume)</text><line style="stroke:#181818;stroke-width:1.0;" x1="253.5" x2="295.5" y1="416.7578" y2="416.7578"/><line style="stroke:#181818;stroke-width:1.0;" x1="295.5" x2="295.5" y1="416.7578" y2="429.7578"/><line style="stroke:#181818;stroke-width:1.0;" x1="254.5" x2="295.5" y1="429.7578" y2="429.7578"/><polygon fill="#181818" points="264.5,425.7578,254.5,429.7578,264.5,433.7578,260.5,429.7578" style="stroke:#181818;stroke-width:1.0;"/><text fill="#000000" font-family="sans-serif" font-size="13" lengthAdjust="spacing" textLength="87" x="260.5" y="411.6919">addResume()</text><line style="stroke:#181818;stroke-width:1.0;" x1="253.5" x2="295.5" y1="458.8906" y2="458.8906"/><line style="stroke:#181818;stroke-width:1.0;" x1="295.5" x2="295.5" y1="458.8906" y2="471.8906"/><line style="stroke:#181818;stroke-width:1.0;" x1="254.5" x2="295.5" y1="471.8906" y2="471.8906"/><polygon fill="#181818" points="264.5,467.8906,254.5,471.8906,264.5,475.8906,260.5,471.8906" style="stroke:#181818;stroke-width:1.0;"/><text fill="#000000" font-family="sans-serif" font-size="13" lengthAdjust="spacing" textLength="96" x="260.5" y="453.8247">createCourse()</text><line style="stroke:#181818;stroke-width:1.0;" x1="253.5" x2="295.5" y1="501.0234" y2="501.0234"/><line style="stroke:#181818;stroke-width:1.0;" x1="295.5" x2="295.5" y1="501.0234" y2="514.0234"/><line style="stroke:#181818;stroke-width:1.0;" x1="254.5" x2="295.5" y1="514.0234" y2="514.0234"/><polygon fill="#181818" points="264.5,510.0234,254.5,514.0234,264.5,518.0234,260.5,514.0234" style="stroke:#181818;stroke-width:1.0;"/><text fill="#000000" font-family="sans-serif" font-size="13" lengthAdjust="spacing" textLength="124" x="260.5" y="495.9575">editCourse(Course)</text><line style="stroke:#181818;stroke-width:1.0;" x1="253.5" x2="295.5" y1="543.1563" y2="543.1563"/><line style="stroke:#181818;stroke-width:1.0;" x1="295.5" x2="295.5" y1="543.1563" y2="556.1563"/><line style="stroke:#181818;stroke-width:1.0;" x1="254.5" x2="295.5" y1="556.1563" y2="556.1563"/><polygon fill="#181818" points="264.5,552.1563,254.5,556.1563,264.5,560.1563,260.5,556.1563" style="stroke:#181818;stroke-width:1.0;"/><text fill="#000000" font-family="sans-serif" font-size="13" lengthAdjust="spacing" textLength="140" x="260.5" y="538.0903">deleteCourse(Course)</text><line style="stroke:#181818;stroke-width:1.0;" x1="253.5" x2="295.5" y1="585.2891" y2="585.2891"/><line style="stroke:#181818;stroke-width:1.0;" x1="295.5" x2="295.5" y1="585.2891" y2="598.2891"/><line style="stroke:#181818;stroke-width:1.0;" x1="254.5" x2="295.5" y1="598.2891" y2="598.2891"/><polygon fill="#181818" points="264.5,594.2891,254.5,598.2891,264.5,602.2891,260.5,598.2891" style="stroke:#181818;stroke-width:1.0;"/><text fill="#000000" font-family="sans-serif" font-size="13" lengthAdjust="spacing" textLength="222" x="260.5" y="580.2231">giveCertificate(Course, Certificate)</text><line style="stroke:#181818;stroke-width:1.0;" x1="253.5" x2="295.5" y1="627.4219" y2="627.4219"/><line style="stroke:#181818;stroke-width:1.0;" x1="295.5" x2="295.5" y1="627.4219" y2="640.4219"/><line style="stroke:#181818;stroke-width:1.0;" x1="254.5" x2="295.5" y1="640.4219" y2="640.4219"/><polygon fill="#181818" points="264.5,636.4219,254.5,640.4219,264.5,644.4219,260.5,640.4219" style="stroke:#181818;stroke-width:1.0;"/><text fill="#000000" font-family="sans-serif" font-size="13" lengthAdjust="spacing" textLength="172" x="260.5" y="622.356">createAssignment(Course)</text><line style="stroke:#181818;stroke-width:1.0;" x1="253.5" x2="295.5" y1="669.5547" y2="669.5547"/><line style="stroke:#181818;stroke-width:1.0;" x1="295.5" x2="295.5" y1="669.5547" y2="682.5547"/><line style="stroke:#181818;stroke-width:1.0;" x1="254.5" x2="295.5" y1="682.5547" y2="682.5547"/><polygon fill="#181818" points="264.5,678.5547,254.5,682.5547,264.5,686.5547,260.5,682.5547" style="stroke:#181818;stroke-width:1.0;"/><text fill="#000000" font-family="sans-serif" font-size="13" lengthAdjust="spacing" textLength="131" x="260.5" y="664.4888">createQuizz(Course)</text><line style="stroke:#181818;stroke-width:1.0;" x1="253.5" x2="295.5" y1="711.6875" y2="711.6875"/><line style="stroke:#181818;stroke-width:1.0;" x1="295.5" x2="295.5" y1="711.6875" y2="724.6875"/><line style="stroke:#181818;stroke-width:1.0;" x1="254.5" x2="295.5" y1="724.6875" y2="724.6875"/><polygon fill="#181818" points="264.5,720.6875,254.5,724.6875,264.5,728.6875,260.5,724.6875" style="stroke:#181818;stroke-width:1.0;"/><text fill="#000000" font-family="sans-serif" font-size="13" lengthAdjust="spacing" textLength="129" x="260.5" y="706.6216">addMaterial(Course)</text><polygon fill="#181818" points="752.5,749.8203,762.5,753.8203,752.5,757.8203,756.5,753.8203" style="stroke:#181818;stroke-width:1.0;"/><line style="stroke:#181818;stroke-width:1.0;" x1="248.5" x2="758.5" y1="753.8203" y2="753.8203"/><text fill="#000000" font-family="sans-serif" font-size="13" lengthAdjust="spacing" textLength="184" x="255.5" y="748.7544">respond(Premium, Message)</text><polygon fill="#181818" points="747.5,778.9531,757.5,782.9531,747.5,786.9531,751.5,782.9531" style="stroke:#181818;stroke-width:1.0;"/><line style="stroke:#181818;stroke-width:1.0;" x1="23.5" x2="753.5" y1="782.9531" y2="782.9531"/><text fill="#000000" font-family="sans-serif" font-size="13" lengthAdjust="spacing" textLength="126" x="30.5" y="777.8872">createCommunity()</text><line style="stroke:#181818;stroke-width:1.0;" x1="769.5" x2="811.5" y1="812.0859" y2="812.0859"/><line style="stroke:#181818;stroke-width:1.0;" x1="811.5" x2="811.5" y1="812.0859" y2="825.0859"/><line style="stroke:#181818;stroke-width:1.0;" x1="770.5" x2="811.5" y1="825.0859" y2="825.0859"/><polygon fill="#181818" points="780.5,821.0859,770.5,825.0859,780.5,829.0859,776.5,825.0859" style="stroke:#181818;stroke-width:1.0;"/><text fill="#000000" font-family="sans-serif" font-size="13" lengthAdjust="spacing" textLength="126" x="776.5" y="807.02">createCommunity()</text><polygon fill="#181818" points="34.5,850.2188,24.5,854.2188,34.5,858.2188,30.5,854.2188" style="stroke:#181818;stroke-width:1.0;"/><line style="stroke:#181818;stroke-width:1.0;" x1="28.5" x2="763.5" y1="854.2188" y2="854.2188"/><text fill="#000000" font-family="sans-serif" font-size="13" lengthAdjust="spacing" textLength="210" x="40.5" y="849.1528">Community created successfully</text><polygon fill="#181818" points="747.5,879.3516,757.5,883.3516,747.5,887.3516,751.5,883.3516" style="stroke:#181818;stroke-width:1.0;"/><line style="stroke:#181818;stroke-width:1.0;" x1="23.5" x2="753.5" y1="883.3516" y2="883.3516"/><text fill="#000000" font-family="sans-serif" font-size="13" lengthAdjust="spacing" textLength="213" x="30.5" y="878.2856">manageCommunity(Community)</text><line style="stroke:#181818;stroke-width:1.0;" x1="769.5" x2="811.5" y1="912.4844" y2="912.4844"/><line style="stroke:#181818;stroke-width:1.0;" x1="811.5" x2="811.5" y1="912.4844" y2="925.4844"/><line style="stroke:#181818;stroke-width:1.0;" x1="770.5" x2="811.5" y1="925.4844" y2="925.4844"/><polygon fill="#181818" points="780.5,921.4844,770.5,925.4844,780.5,929.4844,776.5,925.4844" style="stroke:#181818;stroke-width:1.0;"/><text fill="#000000" font-family="sans-serif" font-size="13" lengthAdjust="spacing" textLength="213" x="776.5" y="907.4185">manageCommunity(Community)</text><polygon fill="#181818" points="34.5,950.6172,24.5,954.6172,34.5,958.6172,30.5,954.6172" style="stroke:#181818;stroke-width:1.0;"/><line style="stroke:#181818;stroke-width:1.0;" x1="28.5" x2="763.5" y1="954.6172" y2="954.6172"/><text fill="#000000" font-family="sans-serif" font-size="13" lengthAdjust="spacing" textLength="222" x="40.5" y="949.5513">Community managed successfully</text><polygon fill="#181818" points="747.5,979.75,757.5,983.75,747.5,987.75,751.5,983.75" style="stroke:#181818;stroke-width:1.0;"/><line style="stroke:#181818;stroke-width:1.0;" x1="23.5" x2="753.5" y1="983.75" y2="983.75"/><text fill="#000000" font-family="sans-serif" font-size="13" lengthAdjust="spacing" textLength="165" x="30.5" y="978.6841">inviteToCommunity(User)</text><line style="stroke:#181818;stroke-width:1.0;" x1="769.5" x2="811.5" y1="1012.8828" y2="1012.8828"/><line style="stroke:#181818;stroke-width:1.0;" x1="811.5" x2="811.5" y1="1012.8828" y2="1025.8828"/><line style="stroke:#181818;stroke-width:1.0;" x1="770.5" x2="811.5" y1="1025.8828" y2="1025.8828"/><polygon fill="#181818" points="780.5,1021.8828,770.5,1025.8828,780.5,1029.8828,776.5,1025.8828" style="stroke:#181818;stroke-width:1.0;"/><text fill="#000000" font-family="sans-serif" font-size="13" lengthAdjust="spacing" textLength="165" x="776.5" y="1007.8169">inviteToCommunity(User)</text><polygon fill="#181818" points="34.5,1051.0156,24.5,1055.0156,34.5,1059.0156,30.5,1055.0156" style="stroke:#181818;stroke-width:1.0;"/><line style="stroke:#181818;stroke-width:1.0;" x1="28.5" x2="763.5" y1="1055.0156" y2="1055.0156"/><text fill="#000000" font-family="sans-serif" font-size="13" lengthAdjust="spacing" textLength="173" x="40.5" y="1049.9497">Invitation sent successfully</text><polygon fill="#181818" points="747.5,1080.1484,757.5,1084.1484,747.5,1088.1484,751.5,1084.1484" style="stroke:#181818;stroke-width:1.0;"/><line style="stroke:#181818;stroke-width:1.0;" x1="23.5" x2="753.5" y1="1084.1484" y2="1084.1484"/><text fill="#000000" font-family="sans-serif" font-size="13" lengthAdjust="spacing" textLength="197" x="30.5" y="1079.0825">removeFromCommunity(User)</text><line style="stroke:#181818;stroke-width:1.0;" x1="769.5" x2="811.5" y1="1113.2813" y2="1113.2813"/><line style="stroke:#181818;stroke-width:1.0;" x1="811.5" x2="811.5" y1="1113.2813" y2="1126.2813"/><line style="stroke:#181818;stroke-width:1.0;" x1="770.5" x2="811.5" y1="1126.2813" y2="1126.2813"/><polygon fill="#181818" points="780.5,1122.2813,770.5,1126.2813,780.5,1130.2813,776.5,1126.2813" style="stroke:#181818;stroke-width:1.0;"/><text fill="#000000" font-family="sans-serif" font-size="13" lengthAdjust="spacing" textLength="197" x="776.5" y="1108.2153">removeFromCommunity(User)</text><polygon fill="#181818" points="34.5,1151.4141,24.5,1155.4141,34.5,1159.4141,30.5,1155.4141" style="stroke:#181818;stroke-width:1.0;"/><line style="stroke:#181818;stroke-width:1.0;" x1="28.5" x2="763.5" y1="1155.4141" y2="1155.4141"/><text fill="#000000" font-family="sans-serif" font-size="13" lengthAdjust="spacing" textLength="173" x="40.5" y="1150.3481">User removed successfully</text><polygon fill="#181818" points="747.5,1180.5469,757.5,1184.5469,747.5,1188.5469,751.5,1184.5469" style="stroke:#181818;stroke-width:1.0;"/><line style="stroke:#181818;stroke-width:1.0;" x1="23.5" x2="753.5" y1="1184.5469" y2="1184.5469"/><text fill="#000000" font-family="sans-serif" font-size="13" lengthAdjust="spacing" textLength="135" x="30.5" y="1179.481">acceptRequest(User)</text><line style="stroke:#181818;stroke-width:1.0;" x1="769.5" x2="811.5" y1="1213.6797" y2="1213.6797"/><line style="stroke:#181818;stroke-width:1.0;" x1="811.5" x2="811.5" y1="1213.6797" y2="1226.6797"/><line style="stroke:#181818;stroke-width:1.0;" x1="770.5" x2="811.5" y1="1226.6797" y2="1226.6797"/><polygon fill="#181818" points="780.5,1222.6797,770.5,1226.6797,780.5,1230.6797,776.5,1226.6797" style="stroke:#181818;stroke-width:1.0;"/><text fill="#000000" font-family="sans-serif" font-size="13" lengthAdjust="spacing" textLength="135" x="776.5" y="1208.6138">acceptRequest(User)</text><polygon fill="#181818" points="34.5,1251.8125,24.5,1255.8125,34.5,1259.8125,30.5,1255.8125" style="stroke:#181818;stroke-width:1.0;"/><line style="stroke:#181818;stroke-width:1.0;" x1="28.5" x2="763.5" y1="1255.8125" y2="1255.8125"/><text fill="#000000" font-family="sans-serif" font-size="13" lengthAdjust="spacing" textLength="198" x="40.5" y="1250.7466">Request accepted successfully</text><polygon fill="#181818" points="747.5,1280.9453,757.5,1284.9453,747.5,1288.9453,751.5,1284.9453" style="stroke:#181818;stroke-width:1.0;"/><line style="stroke:#181818;stroke-width:1.0;" x1="23.5" x2="753.5" y1="1284.9453" y2="1284.9453"/><text fill="#000000" font-family="sans-serif" font-size="13" lengthAdjust="spacing" textLength="255" x="30.5" y="1279.8794">messageInstructor(Instructor, Message)</text><line style="stroke:#181818;stroke-width:1.0;" x1="769.5" x2="811.5" y1="1314.0781" y2="1314.0781"/><line style="stroke:#181818;stroke-width:1.0;" x1="811.5" x2="811.5" y1="1314.0781" y2="1327.0781"/><line style="stroke:#181818;stroke-width:1.0;" x1="770.5" x2="811.5" y1="1327.0781" y2="1327.0781"/><polygon fill="#181818" points="780.5,1323.0781,770.5,1327.0781,780.5,1331.0781,776.5,1327.0781" style="stroke:#181818;stroke-width:1.0;"/><text fill="#000000" font-family="sans-serif" font-size="13" lengthAdjust="spacing" textLength="255" x="776.5" y="1309.0122">messageInstructor(Instructor, Message)</text><polygon fill="#181818" points="34.5,1352.2109,24.5,1356.2109,34.5,1360.2109,30.5,1356.2109" style="stroke:#181818;stroke-width:1.0;"/><line style="stroke:#181818;stroke-width:1.0;" x1="28.5" x2="763.5" y1="1356.2109" y2="1356.2109"/><text fill="#000000" font-family="sans-serif" font-size="13" lengthAdjust="spacing" textLength="170" x="40.5" y="1351.145">Message sent to Instructor</text><line style="stroke:#181818;stroke-width:1.0;" x1="23.5" x2="65.5" y1="1385.3438" y2="1385.3438"/><line style="stroke:#181818;stroke-width:1.0;" x1="65.5" x2="65.5" y1="1385.3438" y2="1398.3438"/><line style="stroke:#181818;stroke-width:1.0;" x1="24.5" x2="65.5" y1="1398.3438" y2="1398.3438"/><polygon fill="#181818" points="34.5,1394.3438,24.5,1398.3438,34.5,1402.3438,30.5,1398.3438" style="stroke:#181818;stroke-width:1.0;"/><text fill="#000000" font-family="sans-serif" font-size="13" lengthAdjust="spacing" textLength="201" x="30.5" y="1380.2778">changePassword(String, String)</text><line style="stroke:#181818;stroke-width:1.0;" x1="23.5" x2="65.5" y1="1427.4766" y2="1427.4766"/><line style="stroke:#181818;stroke-width:1.0;" x1="65.5" x2="65.5" y1="1427.4766" y2="1440.4766"/><line style="stroke:#181818;stroke-width:1.0;" x1="24.5" x2="65.5" y1="1440.4766" y2="1440.4766"/><polygon fill="#181818" points="34.5,1436.4766,24.5,1440.4766,34.5,1444.4766,30.5,1440.4766" style="stroke:#181818;stroke-width:1.0;"/><text fill="#000000" font-family="sans-serif" font-size="13" lengthAdjust="spacing" textLength="122" x="30.5" y="1422.4106">login(String, String)</text><line style="stroke:#181818;stroke-width:1.0;" x1="23.5" x2="65.5" y1="1469.6094" y2="1469.6094"/><line style="stroke:#181818;stroke-width:1.0;" x1="65.5" x2="65.5" y1="1469.6094" y2="1482.6094"/><line style="stroke:#181818;stroke-width:1.0;" x1="24.5" x2="65.5" y1="1482.6094" y2="1482.6094"/><polygon fill="#181818" points="34.5,1478.6094,24.5,1482.6094,34.5,1486.6094,30.5,1482.6094" style="stroke:#181818;stroke-width:1.0;"/><text fill="#000000" font-family="sans-serif" font-size="13" lengthAdjust="spacing" textLength="50" x="30.5" y="1464.5435">logout()</text><line style="stroke:#181818;stroke-width:1.0;" x1="23.5" x2="65.5" y1="1511.7422" y2="1511.7422"/><line style="stroke:#181818;stroke-width:1.0;" x1="65.5" x2="65.5" y1="1511.7422" y2="1524.7422"/><line style="stroke:#181818;stroke-width:1.0;" x1="24.5" x2="65.5" y1="1524.7422" y2="1524.7422"/><polygon fill="#181818" points="34.5,1520.7422,24.5,1524.7422,34.5,1528.7422,30.5,1524.7422" style="stroke:#181818;stroke-width:1.0;"/><text fill="#000000" font-family="sans-serif" font-size="13" lengthAdjust="spacing" textLength="121" x="30.5" y="1506.6763">editProfile(String[])</text><line style="stroke:#181818;stroke-width:1.0;" x1="23.5" x2="65.5" y1="1553.875" y2="1553.875"/><line style="stroke:#181818;stroke-width:1.0;" x1="65.5" x2="65.5" y1="1553.875" y2="1566.875"/><line style="stroke:#181818;stroke-width:1.0;" x1="24.5" x2="65.5" y1="1566.875" y2="1566.875"/><polygon fill="#181818" points="34.5,1562.875,24.5,1566.875,34.5,1570.875,30.5,1566.875" style="stroke:#181818;stroke-width:1.0;"/><text fill="#000000" font-family="sans-serif" font-size="13" lengthAdjust="spacing" textLength="80" x="30.5" y="1548.8091">viewProfile()</text><line style="stroke:#181818;stroke-width:1.0;" x1="23.5" x2="65.5" y1="1596.0078" y2="1596.0078"/><line style="stroke:#181818;stroke-width:1.0;" x1="65.5" x2="65.5" y1="1596.0078" y2="1609.0078"/><line style="stroke:#181818;stroke-width:1.0;" x1="24.5" x2="65.5" y1="1609.0078" y2="1609.0078"/><polygon fill="#181818" points="34.5,1605.0078,24.5,1609.0078,34.5,1613.0078,30.5,1609.0078" style="stroke:#181818;stroke-width:1.0;"/><text fill="#000000" font-family="sans-serif" font-size="13" lengthAdjust="spacing" textLength="190" x="30.5" y="1590.9419">viewCommunity(Community)</text><line style="stroke:#181818;stroke-width:1.0;" x1="23.5" x2="65.5" y1="1638.1406" y2="1638.1406"/><line style="stroke:#181818;stroke-width:1.0;" x1="65.5" x2="65.5" y1="1638.1406" y2="1651.1406"/><line style="stroke:#181818;stroke-width:1.0;" x1="24.5" x2="65.5" y1="1651.1406" y2="1651.1406"/><polygon fill="#181818" points="34.5,1647.1406,24.5,1651.1406,34.5,1655.1406,30.5,1651.1406" style="stroke:#181818;stroke-width:1.0;"/><text fill="#000000" font-family="sans-serif" font-size="13" lengthAdjust="spacing" textLength="194" x="30.5" y="1633.0747">enterCommunity(Community)</text><line style="stroke:#181818;stroke-width:1.0;" x1="23.5" x2="65.5" y1="1680.2734" y2="1680.2734"/><line style="stroke:#181818;stroke-width:1.0;" x1="65.5" x2="65.5" y1="1680.2734" y2="1693.2734"/><line style="stroke:#181818;stroke-width:1.0;" x1="24.5" x2="65.5" y1="1693.2734" y2="1693.2734"/><polygon fill="#181818" points="34.5,1689.2734,24.5,1693.2734,34.5,1697.2734,30.5,1693.2734" style="stroke:#181818;stroke-width:1.0;"/><text fill="#000000" font-family="sans-serif" font-size="13" lengthAdjust="spacing" textLength="211" x="30.5" y="1675.2075">rapportContent(Material, Course)</text><line style="stroke:#181818;stroke-width:1.0;" x1="23.5" x2="65.5" y1="1722.4063" y2="1722.4063"/><line style="stroke:#181818;stroke-width:1.0;" x1="65.5" x2="65.5" y1="1722.4063" y2="1735.4063"/><line style="stroke:#181818;stroke-width:1.0;" x1="24.5" x2="65.5" y1="1735.4063" y2="1735.4063"/><polygon fill="#181818" points="34.5,1731.4063,24.5,1735.4063,34.5,1739.4063,30.5,1735.4063" style="stroke:#181818;stroke-width:1.0;"/><text fill="#000000" font-family="sans-serif" font-size="13" lengthAdjust="spacing" textLength="134" x="30.5" y="1717.3403">enterCourse(Course)</text><polygon fill="#181818" points="752.5,1760.5391,762.5,1764.5391,752.5,1768.5391,756.5,1764.5391" style="stroke:#181818;stroke-width:1.0;"/><line style="stroke:#181818;stroke-width:1.0;" x1="23.5" x2="758.5" y1="1764.5391" y2="1764.5391"/><text fill="#000000" font-family="sans-serif" font-size="13" lengthAdjust="spacing" textLength="225" x="30.5" y="1759.4731">downloadMaterial(Material, Course)</text><polygon fill="#181818" points="752.5,1789.6719,762.5,1793.6719,752.5,1797.6719,756.5,1793.6719" style="stroke:#181818;stroke-width:1.0;"/><line style="stroke:#181818;stroke-width:1.0;" x1="23.5" x2="758.5" y1="1793.6719" y2="1793.6719"/><text fill="#000000" font-family="sans-serif" font-size="13" lengthAdjust="spacing" textLength="225" x="30.5" y="1788.606">downloadMaterial(Material, Course)</text><line style="stroke:#181818;stroke-width:1.0;" x1="23.5" x2="65.5" y1="1822.8047" y2="1822.8047"/><line style="stroke:#181818;stroke-width:1.0;" x1="65.5" x2="65.5" y1="1822.8047" y2="1835.8047"/><line style="stroke:#181818;stroke-width:1.0;" x1="24.5" x2="65.5" y1="1835.8047" y2="1835.8047"/><polygon fill="#181818" points="34.5,1831.8047,24.5,1835.8047,34.5,1839.8047,30.5,1835.8047" style="stroke:#181818;stroke-width:1.0;"/><text fill="#000000" font-family="sans-serif" font-size="13" lengthAdjust="spacing" textLength="170" x="30.5" y="1817.7388">UpgradeToInstructor(User)</text><!--SRC=[dLPDRzim3BtxLmWzEK3s1t8OC0JOK605qguz3Ji85kC9i2MFaXsqltwo9Lko_17N9olYU-IZH5AXcPP8tXHWabGKDSzuHOKc3uz2QQnRwmEXYlYVOzW5eUHrsM7SUWpu2HG5M2TkFGQyLJbI1Xt0hMS1hpAC5MycIPi3-VArLt7g8MbhE2GqqxoX6eOOxjjIOcUdgVkOxYtnnaW3GiwL1an_QUGYFv9xtnyW6E2HSA6Fv8p0k3vJP87-FcuGhitmH5wwM4WrbuAeEij0gMjT90mctAbcVmepoGSUbjAt7ZeTReSHBSdaTdmT1OSJP1VKcLz-AiV0mspK3C70ph961PiYpqhUUf_TFVQNwk_pQ39HTGc7bLYKCGjArr1HEil0BhI5sSyQc441WzVxy9mtS0RJirUU6JMEOHBsU_Tp-AOKpqK9Gc-8Q2dFDV_us80sH_bauCXfiO0EEbPLKh3KRHp9aoancXl2dHeRFFGtKfQruFezNU_T5TgammUZ0xEW1OhtkKQVgYkfCDduCCDgeymL_efUozgZbuk6QpDlVCHedg-9NI9Fb3wsG3TLJ07kq6c-ie7lACjTIfVf4wrTQ8lVSw3K42hz0lzgKFep4kU8CuzGPtRWVHLg6yxtMEgNGJjkgzPjlYPfE8ij1lEE1Gs_beCbPt-foE52bRf9PD5JSOZ0XSovk8-HjKxZxNQYNr1UUG7EmUy_CQRXSEinSxRPHex223CvD-2GLfL4yyOOl9dX_S0rhu2RkBDkHo_Cf1QOl8b2KZ-zbxtkuOp-iBpAe4owyluF]--></g></svg>