<?xml version="1.0" encoding="us-ascii" standalone="no"?><svg xmlns="http://www.w3.org/2000/svg" xmlns:xlink="http://www.w3.org/1999/xlink" contentStyleType="text/css" height="635px" preserveAspectRatio="none" style="width:498px;height:635px;background:#FFFFFF;" version="1.1" viewBox="0 0 498 635" width="498px" zoomAndPan="magnify"><defs/><g><ellipse cx="320.5" cy="16" fill="#181818" rx="10" ry="10" style="stroke:none;stroke-width:1.0;"/><g id="logged_out"><rect fill="#F1F1F1" height="50" rx="12.5" ry="12.5" style="stroke:#181818;stroke-width:0.5;" width="100" x="270.5" y="87"/><line style="stroke:#181818;stroke-width:0.5;" x1="270.5" x2="370.5" y1="113.2969" y2="113.2969"/><text fill="#000000" font-family="sans-serif" font-size="14" lengthAdjust="spacing" textLength="80" x="280.5" y="104.9951">logged_out</text></g><g id="logout"><rect fill="#F1F1F1" height="50" rx="12.5" ry="12.5" style="stroke:#181818;stroke-width:0.5;" width="66" x="425.5" y="452"/><line style="stroke:#181818;stroke-width:0.5;" x1="425.5" x2="491.5" y1="478.2969" y2="478.2969"/><text fill="#000000" font-family="sans-serif" font-size="14" lengthAdjust="spacing" textLength="46" x="435.5" y="469.9951">logout</text></g><g id="browse_community"><rect fill="#F1F1F1" height="50" rx="12.5" ry="12.5" style="stroke:#181818;stroke-width:0.5;" width="160" x="163.5" y="452"/><line style="stroke:#181818;stroke-width:0.5;" x1="163.5" x2="323.5" y1="478.2969" y2="478.2969"/><text fill="#000000" font-family="sans-serif" font-size="14" lengthAdjust="spacing" textLength="140" x="173.5" y="469.9951">browse_community</text></g><g id="join_community"><rect fill="#F1F1F1" height="50" rx="12.5" ry="12.5" style="stroke:#181818;stroke-width:0.5;" width="134" x="86.5" y="579"/><line style="stroke:#181818;stroke-width:0.5;" x1="86.5" x2="220.5" y1="605.2969" y2="605.2969"/><text fill="#000000" font-family="sans-serif" font-size="14" lengthAdjust="spacing" textLength="114" x="96.5" y="596.9951">join_community</text></g><g id="logged_in_instructor"><rect fill="#F1F1F1" height="50" rx="12.5" ry="12.5" style="stroke:#181818;stroke-width:0.5;" width="167" x="160" y="341"/><line style="stroke:#181818;stroke-width:0.5;" x1="160" x2="327" y1="367.2969" y2="367.2969"/><text fill="#000000" font-family="sans-serif" font-size="14" lengthAdjust="spacing" textLength="147" x="170" y="358.9951">logged_in_instructor</text></g><g id="registered"><rect fill="#F1F1F1" height="50" rx="12.5" ry="12.5" style="stroke:#181818;stroke-width:0.5;" width="95" x="7" y="214"/><line style="stroke:#181818;stroke-width:0.5;" x1="7" x2="102" y1="240.2969" y2="240.2969"/><text fill="#000000" font-family="sans-serif" font-size="14" lengthAdjust="spacing" textLength="75" x="17" y="231.9951">registered</text></g><g id="joining_community"><rect fill="#F1F1F1" height="50" rx="12.5" ry="12.5" style="stroke:#181818;stroke-width:0.5;" width="156" x="255.5" y="579"/><line style="stroke:#181818;stroke-width:0.5;" x1="255.5" x2="411.5" y1="605.2969" y2="605.2969"/><text fill="#000000" font-family="sans-serif" font-size="14" lengthAdjust="spacing" textLength="136" x="265.5" y="596.9951">joining_community</text></g><ellipse cx="320.5" cy="239" fill="none" rx="10" ry="10" style="stroke:#181818;stroke-width:1.0;"/><ellipse cx="321" cy="239.5" fill="#181818" rx="6" ry="6" style="stroke:none;stroke-width:1.0;"/><!--link *start* to logged_out--><g id="link_*start*_logged_out"><path d="M320.5,26.013 C320.5,38.698 320.5,62.409 320.5,81.57 " fill="none" id="*start*-to-logged_out" style="stroke:#181818;stroke-width:1.0;"/><polygon fill="#181818" points="320.5,86.84,324.5,77.84,320.5,81.84,316.5,77.84,320.5,86.84" style="stroke:#181818;stroke-width:1.0;"/></g><!--link logout to logged_out--><g id="link_logout_logged_out"><path d="M457.062,451.942 C453.545,404.653 442.094,296.977 407.5,214 C395.644,185.563 372.592,159.389 353.195,140.815 " fill="none" id="logout-to-logged_out" style="stroke:#181818;stroke-width:1.0;"/><polygon fill="#181818" points="349.368,137.203,353.1676,146.2894,353.0042,140.6349,358.6587,140.4716,349.368,137.203" style="stroke:#181818;stroke-width:1.0;"/></g><!--link browse_community to join_community--><g id="link_browse_community_join_community"><path d="M226.147,502.101 C211.206,522.853 189.627,552.8243 173.87,574.7088 " fill="none" id="browse_community-to-join_community" style="stroke:#181818;stroke-width:1.0;"/><polygon fill="#181818" points="170.8,578.9727,179.3052,574.0067,173.7218,574.9152,172.8133,569.3318,170.8,578.9727" style="stroke:#181818;stroke-width:1.0;"/></g><!--link logged_in_instructor to logout--><g id="link_logged_in_instructor_logout"><path d="M290.949,391.055 C329.886,410.795 384.298,438.381 420.427,456.698 " fill="none" id="logged_in_instructor-to-logout" style="stroke:#181818;stroke-width:1.0;"/><polygon fill="#181818" points="425.179,459.107,418.9608,451.4693,420.7195,456.8458,415.343,458.6045,425.179,459.107" style="stroke:#181818;stroke-width:1.0;"/></g><!--link logged_in_instructor to browse_community--><g id="link_logged_in_instructor_browse_community"><path d="M243.5,391.191 C243.5,407.56 243.5,429.279 243.5,446.64 " fill="none" id="logged_in_instructor-to-browse_community" style="stroke:#181818;stroke-width:1.0;"/><polygon fill="#181818" points="243.5,451.877,247.5,442.877,243.5,446.877,239.5,442.877,243.5,451.877" style="stroke:#181818;stroke-width:1.0;"/></g><!--link logged_out to registered--><g id="link_logged_out_registered"><path d="M270.116,114.509 C221.912,118.266 149.24,130.214 98.5,167 C84.049,177.477 73.3226,194.292 66.0799,208.929 " fill="none" id="logged_out-to-registered" style="stroke:#181818;stroke-width:1.0;"/><polygon fill="#181818" points="63.7569,213.797,71.2424,207.3964,65.9098,209.2843,64.022,203.9517,63.7569,213.797" style="stroke:#181818;stroke-width:1.0;"/><text fill="#000000" font-family="sans-serif" font-size="13" lengthAdjust="spacing" textLength="49" x="99.5" y="180.0669">register</text></g><!--link logged_out to logged_in_instructor--><g id="link_logged_out_logged_in_instructor"><path d="M271.622,137.08 C242.83,154.184 208.923,180.122 192.5,214 C172.655,254.937 199.337,305.575 220.968,336.567 " fill="none" id="logged_out-to-logged_in_instructor" style="stroke:#181818;stroke-width:1.0;"/><polygon fill="#181818" points="224.117,340.994,222.1591,331.3417,221.2185,336.9198,215.6404,335.9793,224.117,340.994" style="stroke:#181818;stroke-width:1.0;"/><text fill="#000000" font-family="sans-serif" font-size="13" lengthAdjust="spacing" textLength="98" x="193.5" y="243.5669">login_instructor</text></g><!--link logged_in_instructor to logged_out--><g id="link_logged_in_instructor_logged_out"><path d="M280.536,340.991 C304.598,323.036 333.925,296.107 347.5,264 C364.29,224.29 356.539,208.928 346.5,167 C344.474,158.536 340.996,149.839 337.232,141.964 " fill="none" id="logged_in_instructor-to-logged_out" style="stroke:#181818;stroke-width:1.0;"/><polygon fill="#181818" points="334.861,137.176,335.2692,147.0164,337.0793,141.657,342.4388,143.4671,334.861,137.176" style="stroke:#181818;stroke-width:1.0;"/><text fill="#000000" font-family="sans-serif" font-size="13" lengthAdjust="spacing" textLength="40" x="358.5" y="243.5669">logout</text></g><!--link registered to logged_in_instructor--><g id="link_registered_logged_in_instructor"><path d="M45.3512,264.022 C41.3231,278.98 39.4837,297.815 49.5,311 C62.8382,328.558 110.132,341.923 154.681,350.965 " fill="none" id="registered-to-logged_in_instructor" style="stroke:#181818;stroke-width:1.0;"/><polygon fill="#181818" points="159.817,351.991,151.7756,346.3045,154.914,351.011,150.2076,354.1494,159.817,351.991" style="stroke:#181818;stroke-width:1.0;"/><text fill="#000000" font-family="sans-serif" font-size="13" lengthAdjust="spacing" textLength="98" x="50.5" y="307.0669">login_instructor</text></g><!--link browse_community to joining_community--><g id="link_browse_community_joining_community"><path d="M260.853,502.101 C275.794,522.853 297.373,552.8243 313.13,574.7088 " fill="none" id="browse_community-to-joining_community" style="stroke:#181818;stroke-width:1.0;"/><polygon fill="#181818" points="316.2,578.9727,314.1867,569.3318,313.2782,574.9152,307.6948,574.0067,316.2,578.9727" style="stroke:#181818;stroke-width:1.0;"/><text fill="#000000" font-family="sans-serif" font-size="13" lengthAdjust="spacing" textLength="102" x="295.5" y="545.0669">join_community</text></g><!--link logged_out to *end*--><g id="link_logged_out_*end*"><path d="M320.5,137.101 C320.5,162.76 320.5,202.517 320.5,223.65 " fill="none" id="logged_out-to-*end*" style="stroke:#181818;stroke-width:1.0;"/><polygon fill="#181818" points="320.5,228.846,324.5,219.846,320.5,223.846,316.5,219.846,320.5,228.846" style="stroke:#181818;stroke-width:1.0;"/></g><!--SRC=[YzQALT3LjLF8oKzFJqs9poyjuG8280_8mfH8AielBqwDJyxFpItDooofL002aAAi_CmyX2WNL0zGB3ElkAIeDBaalmYc568q5tOrG0NeLa2T0tK3s8YYrFJCufBKejGK1Iiu1qCLLWkiGC8eGbnSICQHf0ypD611aPcNZYHgHLJme8Orn49eR23x3AmkMYiM0000]--></g></svg>