<?xml version="1.0" encoding="us-ascii" standalone="no"?><svg xmlns="http://www.w3.org/2000/svg" xmlns:xlink="http://www.w3.org/1999/xlink" contentStyleType="text/css" height="1016px" preserveAspectRatio="none" style="width:1887px;height:1016px;background:#FFFFFF;" version="1.1" viewBox="0 0 1887 1016" width="1887px" zoomAndPan="magnify"><defs/><g><ellipse cx="1286" cy="16" fill="#181818" rx="10" ry="10" style="stroke:none;stroke-width:1.0;"/><g id="logged_out"><rect fill="#F1F1F1" height="50" rx="12.5" ry="12.5" style="stroke:#181818;stroke-width:0.5;" width="100" x="1236" y="87"/><line style="stroke:#181818;stroke-width:0.5;" x1="1236" x2="1336" y1="113.2969" y2="113.2969"/><text fill="#000000" font-family="sans-serif" font-size="14" lengthAdjust="spacing" textLength="80" x="1246" y="104.9951">logged_out</text></g><g id="register"><rect fill="#F1F1F1" height="50" rx="12.5" ry="12.5" style="stroke:#181818;stroke-width:0.5;" width="77" x="936.5" y="214"/><line style="stroke:#181818;stroke-width:0.5;" x1="936.5" x2="1013.5" y1="240.2969" y2="240.2969"/><text fill="#000000" font-family="sans-serif" font-size="14" lengthAdjust="spacing" textLength="57" x="946.5" y="231.9951">register</text></g><g id="login"><rect fill="#F1F1F1" height="50" rx="12.5" ry="12.5" style="stroke:#181818;stroke-width:0.5;" width="55" x="1039.5" y="341"/><line style="stroke:#181818;stroke-width:0.5;" x1="1039.5" x2="1094.5" y1="367.2969" y2="367.2969"/><text fill="#000000" font-family="sans-serif" font-size="14" lengthAdjust="spacing" textLength="35" x="1049.5" y="358.9951">login</text></g><g id="registered"><rect fill="#F1F1F1" height="50" rx="12.5" ry="12.5" style="stroke:#181818;stroke-width:0.5;" width="95" x="1120.5" y="214"/><line style="stroke:#181818;stroke-width:0.5;" x1="1120.5" x2="1215.5" y1="240.2969" y2="240.2969"/><text fill="#000000" font-family="sans-serif" font-size="14" lengthAdjust="spacing" textLength="75" x="1130.5" y="231.9951">registered</text></g><g id="logout"><rect fill="#F1F1F1" height="50" rx="12.5" ry="12.5" style="stroke:#181818;stroke-width:0.5;" width="66" x="1757" y="468"/><line style="stroke:#181818;stroke-width:0.5;" x1="1757" x2="1823" y1="494.2969" y2="494.2969"/><text fill="#000000" font-family="sans-serif" font-size="14" lengthAdjust="spacing" textLength="46" x="1767" y="485.9951">logout</text></g><g id="logged_in_learner"><rect fill="#F1F1F1" height="50" rx="12.5" ry="12.5" style="stroke:#181818;stroke-width:0.5;" width="147" x="1129.5" y="341"/><line style="stroke:#181818;stroke-width:0.5;" x1="1129.5" x2="1276.5" y1="367.2969" y2="367.2969"/><text fill="#000000" font-family="sans-serif" font-size="14" lengthAdjust="spacing" textLength="127" x="1139.5" y="358.9951">logged_in_learner</text></g><g id="browse_courses"><rect fill="#F1F1F1" height="50" rx="12.5" ry="12.5" style="stroke:#181818;stroke-width:0.5;" width="133" x="981.5" y="468"/><line style="stroke:#181818;stroke-width:0.5;" x1="981.5" x2="1114.5" y1="494.2969" y2="494.2969"/><text fill="#000000" font-family="sans-serif" font-size="14" lengthAdjust="spacing" textLength="113" x="991.5" y="485.9951">browse_courses</text></g><g id="view_profile"><rect fill="#F1F1F1" height="50" rx="12.5" ry="12.5" style="stroke:#181818;stroke-width:0.5;" width="107" x="1149.5" y="468"/><line style="stroke:#181818;stroke-width:0.5;" x1="1149.5" x2="1256.5" y1="494.2969" y2="494.2969"/><text fill="#000000" font-family="sans-serif" font-size="14" lengthAdjust="spacing" textLength="87" x="1159.5" y="485.9951">view_profile</text></g><g id="enroll_course"><rect fill="#F1F1F1" height="50" rx="12.5" ry="12.5" style="stroke:#181818;stroke-width:0.5;" width="115" x="870.5" y="722"/><line style="stroke:#181818;stroke-width:0.5;" x1="870.5" x2="985.5" y1="748.2969" y2="748.2969"/><text fill="#000000" font-family="sans-serif" font-size="14" lengthAdjust="spacing" textLength="95" x="880.5" y="739.9951">enroll_course</text></g><g id="do_assignment"><rect fill="#F1F1F1" height="50" rx="12.5" ry="12.5" style="stroke:#181818;stroke-width:0.5;" width="128" x="627" y="960"/><line style="stroke:#181818;stroke-width:0.5;" x1="627" x2="755" y1="986.2969" y2="986.2969"/><text fill="#000000" font-family="sans-serif" font-size="14" lengthAdjust="spacing" textLength="108" x="637" y="977.9951">do_assignment</text></g><g id="browse_community"><rect fill="#F1F1F1" height="50" rx="12.5" ry="12.5" style="stroke:#181818;stroke-width:0.5;" width="160" x="715" y="468"/><line style="stroke:#181818;stroke-width:0.5;" x1="715" x2="875" y1="494.2969" y2="494.2969"/><text fill="#000000" font-family="sans-serif" font-size="14" lengthAdjust="spacing" textLength="140" x="725" y="485.9951">browse_community</text></g><g id="join_community"><rect fill="#F1F1F1" height="50" rx="12.5" ry="12.5" style="stroke:#181818;stroke-width:0.5;" width="134" x="741" y="595"/><line style="stroke:#181818;stroke-width:0.5;" x1="741" x2="875" y1="621.2969" y2="621.2969"/><text fill="#000000" font-family="sans-serif" font-size="14" lengthAdjust="spacing" textLength="114" x="751" y="612.9951">join_community</text></g><g id="joining_community"><rect fill="#F1F1F1" height="50" rx="12.5" ry="12.5" style="stroke:#181818;stroke-width:0.5;" width="156" x="550" y="595"/><line style="stroke:#181818;stroke-width:0.5;" x1="550" x2="706" y1="621.2969" y2="621.2969"/><text fill="#000000" font-family="sans-serif" font-size="14" lengthAdjust="spacing" textLength="136" x="560" y="612.9951">joining_community</text></g><g id="viewing_course"><rect fill="#F1F1F1" height="50" rx="12.5" ry="12.5" style="stroke:#181818;stroke-width:0.5;" width="128" x="387" y="595"/><line style="stroke:#181818;stroke-width:0.5;" x1="387" x2="515" y1="621.2969" y2="621.2969"/><text fill="#000000" font-family="sans-serif" font-size="14" lengthAdjust="spacing" textLength="108" x="397" y="612.9951">viewing_course</text></g><g id="back_to_browse"><rect fill="#F1F1F1" height="50" rx="12.5" ry="12.5" style="stroke:#181818;stroke-width:0.5;" width="137" x="341.5" y="722"/><line style="stroke:#181818;stroke-width:0.5;" x1="341.5" x2="478.5" y1="748.2969" y2="748.2969"/><text fill="#000000" font-family="sans-serif" font-size="14" lengthAdjust="spacing" textLength="117" x="351.5" y="739.9951">back_to_browse</text></g><g id="view_assignment"><rect fill="#F1F1F1" height="50" rx="12.5" ry="12.5" style="stroke:#181818;stroke-width:0.5;" width="142" x="7" y="849"/><line style="stroke:#181818;stroke-width:0.5;" x1="7" x2="149" y1="875.2969" y2="875.2969"/><text fill="#000000" font-family="sans-serif" font-size="14" lengthAdjust="spacing" textLength="122" x="17" y="866.9951">view_assignment</text></g><g id="enrolled_course"><rect fill="#F1F1F1" height="50" rx="12.5" ry="12.5" style="stroke:#181818;stroke-width:0.5;" width="133" x="173.5" y="722"/><line style="stroke:#181818;stroke-width:0.5;" x1="173.5" x2="306.5" y1="748.2969" y2="748.2969"/><text fill="#000000" font-family="sans-serif" font-size="14" lengthAdjust="spacing" textLength="113" x="183.5" y="739.9951">enrolled_course</text></g><g id="view_course"><rect fill="#F1F1F1" height="50" rx="12.5" ry="12.5" style="stroke:#181818;stroke-width:0.5;" width="106" x="255" y="849"/><line style="stroke:#181818;stroke-width:0.5;" x1="255" x2="361" y1="875.2969" y2="875.2969"/><text fill="#000000" font-family="sans-serif" font-size="14" lengthAdjust="spacing" textLength="86" x="265" y="866.9951">view_course</text></g><g id="viewing_assignment"><rect fill="#F1F1F1" height="50" rx="12.5" ry="12.5" style="stroke:#181818;stroke-width:0.5;" width="164" x="496" y="849"/><line style="stroke:#181818;stroke-width:0.5;" x1="496" x2="660" y1="875.2969" y2="875.2969"/><text fill="#000000" font-family="sans-serif" font-size="14" lengthAdjust="spacing" textLength="144" x="506" y="866.9951">viewing_assignment</text></g><g id="back_to_course"><rect fill="#F1F1F1" height="50" rx="12.5" ry="12.5" style="stroke:#181818;stroke-width:0.5;" width="132" x="460" y="960"/><line style="stroke:#181818;stroke-width:0.5;" x1="460" x2="592" y1="986.2969" y2="986.2969"/><text fill="#000000" font-family="sans-serif" font-size="14" lengthAdjust="spacing" textLength="112" x="470" y="977.9951">back_to_course</text></g><g id="viewing_profile"><rect fill="#F1F1F1" height="50" rx="12.5" ry="12.5" style="stroke:#181818;stroke-width:0.5;" width="129" x="1385.5" y="468"/><line style="stroke:#181818;stroke-width:0.5;" x1="1385.5" x2="1514.5" y1="494.2969" y2="494.2969"/><text fill="#000000" font-family="sans-serif" font-size="14" lengthAdjust="spacing" textLength="109" x="1395.5" y="485.9951">viewing_profile</text></g><g id="edit_profile"><rect fill="#F1F1F1" height="50" rx="12.5" ry="12.5" style="stroke:#181818;stroke-width:0.5;" width="104" x="1293" y="595"/><line style="stroke:#181818;stroke-width:0.5;" x1="1293" x2="1397" y1="621.2969" y2="621.2969"/><text fill="#000000" font-family="sans-serif" font-size="14" lengthAdjust="spacing" textLength="84" x="1303" y="612.9951">edit_profile</text></g><g id="back_to_home"><rect fill="#F1F1F1" height="50" rx="12.5" ry="12.5" style="stroke:#181818;stroke-width:0.5;" width="126" x="1503" y="595"/><line style="stroke:#181818;stroke-width:0.5;" x1="1503" x2="1629" y1="621.2969" y2="621.2969"/><text fill="#000000" font-family="sans-serif" font-size="14" lengthAdjust="spacing" textLength="106" x="1513" y="612.9951">back_to_home</text></g><g id="editing_profile"><rect fill="#F1F1F1" height="50" rx="12.5" ry="12.5" style="stroke:#181818;stroke-width:0.5;" width="126" x="1664" y="595"/><line style="stroke:#181818;stroke-width:0.5;" x1="1664" x2="1790" y1="621.2969" y2="621.2969"/><text fill="#000000" font-family="sans-serif" font-size="14" lengthAdjust="spacing" textLength="106" x="1674" y="612.9951">editing_profile</text></g><g id="save_changes"><rect fill="#F1F1F1" height="50" rx="12.5" ry="12.5" style="stroke:#181818;stroke-width:0.5;" width="118" x="1672" y="722"/><line style="stroke:#181818;stroke-width:0.5;" x1="1672" x2="1790" y1="748.2969" y2="748.2969"/><text fill="#000000" font-family="sans-serif" font-size="14" lengthAdjust="spacing" textLength="98" x="1682" y="739.9951">save_changes</text></g><g id="back_to_profile"><rect fill="#F1F1F1" height="50" rx="12.5" ry="12.5" style="stroke:#181818;stroke-width:0.5;" width="133" x="1503.5" y="722"/><line style="stroke:#181818;stroke-width:0.5;" x1="1503.5" x2="1636.5" y1="748.2969" y2="748.2969"/><text fill="#000000" font-family="sans-serif" font-size="14" lengthAdjust="spacing" textLength="113" x="1513.5" y="739.9951">back_to_profile</text></g><g id="browsing_courses"><rect fill="#F1F1F1" height="50" rx="12.5" ry="12.5" style="stroke:#181818;stroke-width:0.5;" width="146" x="528" y="468"/><line style="stroke:#181818;stroke-width:0.5;" x1="528" x2="674" y1="494.2969" y2="494.2969"/><text fill="#000000" font-family="sans-serif" font-size="14" lengthAdjust="spacing" textLength="126" x="538" y="485.9951">browsing_courses</text></g><g id="saving_changes"><rect fill="#F1F1F1" height="50" rx="12.5" ry="12.5" style="stroke:#181818;stroke-width:0.5;" width="131" x="1337.5" y="722"/><line style="stroke:#181818;stroke-width:0.5;" x1="1337.5" x2="1468.5" y1="748.2969" y2="748.2969"/><text fill="#000000" font-family="sans-serif" font-size="14" lengthAdjust="spacing" textLength="111" x="1347.5" y="739.9951">saving_changes</text></g><g id="logged"><rect fill="#F1F1F1" height="50" rx="12.5" ry="12.5" style="stroke:#181818;stroke-width:0.5;" width="69" x="1188.5" y="595"/><line style="stroke:#181818;stroke-width:0.5;" x1="1188.5" x2="1257.5" y1="621.2969" y2="621.2969"/><text fill="#000000" font-family="sans-serif" font-size="14" lengthAdjust="spacing" textLength="49" x="1198.5" y="612.9951">logged</text></g><ellipse cx="1871" cy="239" fill="none" rx="10" ry="10" style="stroke:#181818;stroke-width:1.0;"/><ellipse cx="1871.5" cy="239.5" fill="#181818" rx="6" ry="6" style="stroke:none;stroke-width:1.0;"/><!--link *start* to logged_out--><g id="link_*start*_logged_out"><path d="M1286,26.013 C1286,38.698 1286,62.409 1286,81.57 " fill="none" id="*start*-to-logged_out" style="stroke:#181818;stroke-width:1.0;"/><polygon fill="#181818" points="1286,86.84,1290,77.84,1286,81.84,1282,77.84,1286,86.84" style="stroke:#181818;stroke-width:1.0;"/></g><!--link logged_out to register--><g id="link_logged_out_register"><path d="M1235.94,115.329 C1184.09,119.655 1102.25,131.976 1041,167 C1022.57,177.537 1006.279,194.928 994.493,209.861 " fill="none" id="logged_out-to-register" style="stroke:#181818;stroke-width:1.0;"/><polygon fill="#181818" points="991.29,214,999.9614,209.3303,994.35,210.0457,993.6346,204.4343,991.29,214" style="stroke:#181818;stroke-width:1.0;"/></g><!--link logged_out to login--><g id="link_logged_out_login"><path d="M1235.64,128.024 C1193.88,143.084 1136.17,170.387 1103,214 C1075.82,249.733 1068.77,302.903 1067.16,335.684 " fill="none" id="logged_out-to-login" style="stroke:#181818;stroke-width:1.0;"/><polygon fill="#181818" points="1066.95,340.764,1071.3241,331.9398,1067.1598,335.7684,1063.3312,331.6041,1066.95,340.764" style="stroke:#181818;stroke-width:1.0;"/></g><!--link registered to login--><g id="link_registered_login"><path d="M1148.53,264.101 C1131.69,284.939 1107.34,315.074 1089.64,336.982 " fill="none" id="registered-to-login" style="stroke:#181818;stroke-width:1.0;"/><polygon fill="#181818" points="1086.41,340.973,1095.1789,336.4889,1089.5535,337.0847,1088.9577,331.4594,1086.41,340.973" style="stroke:#181818;stroke-width:1.0;"/></g><!--link logout to logged_out--><g id="link_logout_logged_out"><path d="M1792.75,467.931 C1793.24,453.32 1791.65,434.877 1783,421 C1678.91,253.919 1447.33,163.232 1341.14,129.076 " fill="none" id="logout-to-logged_out" style="stroke:#181818;stroke-width:1.0;"/><polygon fill="#181818" points="1336.18,127.492,1343.5455,134.0303,1340.9451,129.0065,1345.9688,126.4061,1336.18,127.492" style="stroke:#181818;stroke-width:1.0;"/></g><!--link logged_in_learner to browse_courses--><g id="link_logged_in_learner_browse_courses"><path d="M1173.11,391.101 C1146.95,412.198 1108.98,442.826 1081.73,464.796 " fill="none" id="logged_in_learner-to-browse_courses" style="stroke:#181818;stroke-width:1.0;"/><polygon fill="#181818" points="1077.79,467.973,1087.3105,465.4512,1081.6868,464.8401,1082.2979,459.2164,1077.79,467.973" style="stroke:#181818;stroke-width:1.0;"/></g><!--link logged_in_learner to view_profile--><g id="link_logged_in_learner_view_profile"><path d="M1203,391.101 C1203,411.593 1203,441.076 1203,462.884 " fill="none" id="logged_in_learner-to-view_profile" style="stroke:#181818;stroke-width:1.0;"/><polygon fill="#181818" points="1203,467.973,1207,458.973,1203,462.973,1199,458.973,1203,467.973" style="stroke:#181818;stroke-width:1.0;"/></g><!--link logged_in_learner to enroll_course--><g id="link_logged_in_learner_enroll_course"><path d="M1129.4,389.173 C1067.21,409.445 984.988,440.385 964,468 C907.373,542.509 915.505,661.94 923.059,716.766 " fill="none" id="logged_in_learner-to-enroll_course" style="stroke:#181818;stroke-width:1.0;"/><polygon fill="#181818" points="923.786,721.866,926.4757,712.3915,923.0803,716.9161,918.5558,713.5207,923.786,721.866" style="stroke:#181818;stroke-width:1.0;"/></g><!--link logged_in_learner to do_assignment--><g id="link_logged_in_learner_do_assignment"><path d="M1276.77,379.865 C1326.95,389.362 1394.58,403.629 1453,421 C1528.71,443.515 1727.16,494.204 1785,548 C1801.02,562.901 1843,663.966 1843,682.5 C1843,682.5 1843,682.5 1843,875 C1843,929.6809 1009.52,970.2017 760.464,981.0894 " fill="none" id="logged_in_learner-to-do_assignment" style="stroke:#181818;stroke-width:1.0;"/><polygon fill="#181818" points="755.405,981.31,764.5713,984.9128,760.4002,981.0914,764.2215,976.9204,755.405,981.31" style="stroke:#181818;stroke-width:1.0;"/></g><!--link logged_in_learner to logout--><g id="link_logged_in_learner_logout"><path d="M1276.62,369.754 C1396.66,375.104 1628.72,389.283 1704,421 C1727.03,430.702 1748.7,448.668 1764.52,464.098 " fill="none" id="logged_in_learner-to-logout" style="stroke:#181818;stroke-width:1.0;"/><polygon fill="#181818" points="1768.42,467.96,1764.8548,458.7791,1764.8731,464.4359,1759.2162,464.4542,1768.42,467.96" style="stroke:#181818;stroke-width:1.0;"/><text fill="#000000" font-family="sans-serif" font-size="13" lengthAdjust="spacing" textLength="40" x="1734" y="434.0669">logout</text></g><!--link logged_in_learner to browse_community--><g id="link_logged_in_learner_browse_community"><path d="M1129.16,387.212 C1123.37,388.571 1117.6,389.853 1112,391 C1022.22,409.38 993.975,389.275 908,421 C879.878,431.377 851.32,449.399 829.949,464.688 " fill="none" id="logged_in_learner-to-browse_community" style="stroke:#181818;stroke-width:1.0;"/><polygon fill="#181818" points="825.773,467.707,835.4106,465.6779,829.8257,464.7786,830.7251,459.1937,825.773,467.707" style="stroke:#181818;stroke-width:1.0;"/></g><!--link browse_community to join_community--><g id="link_browse_community_join_community"><path d="M797.507,518.101 C799.638,538.593 802.704,568.076 804.972,589.884 " fill="none" id="browse_community-to-join_community" style="stroke:#181818;stroke-width:1.0;"/><polygon fill="#181818" points="805.501,594.973,808.5486,585.6075,804.9838,589.9998,800.5915,586.435,805.501,594.973" style="stroke:#181818;stroke-width:1.0;"/></g><!--link browse_community to joining_community--><g id="link_browse_community_joining_community"><path d="M762.801,518.101 C734.615,539.198 693.697,569.826 664.344,591.796 " fill="none" id="browse_community-to-joining_community" style="stroke:#181818;stroke-width:1.0;"/><polygon fill="#181818" points="660.1,594.973,669.7023,592.7829,664.1031,591.9771,664.9088,586.3779,660.1,594.973" style="stroke:#181818;stroke-width:1.0;"/></g><!--link viewing_course to enroll_course--><g id="link_viewing_course_enroll_course"><path d="M515.326,641.003 C520.938,642.461 526.553,643.82 532,645 C626.294,665.428 653.669,650.548 747,675 C789.812,686.216 836.249,704.567 871.367,719.803 " fill="none" id="viewing_course-to-enroll_course" style="stroke:#181818;stroke-width:1.0;"/><polygon fill="#181818" points="876.028,721.835,869.3765,714.5716,871.4446,719.8368,866.1794,721.905,876.028,721.835" style="stroke:#181818;stroke-width:1.0;"/></g><!--link viewing_course to back_to_browse--><g id="link_viewing_course_back_to_browse"><path d="M443.791,645.063 C439.601,658.845 434.146,676.44 429,692 C426.312,700.127 423.283,708.897 420.445,716.958 " fill="none" id="viewing_course-to-back_to_browse" style="stroke:#181818;stroke-width:1.0;"/><polygon fill="#181818" points="418.708,721.874,425.4798,714.7226,420.375,717.1601,417.9375,712.0553,418.708,721.874" style="stroke:#181818;stroke-width:1.0;"/></g><!--link viewing_course to view_assignment--><g id="link_viewing_course_view_assignment"><path d="M386.973,625.947 C335.842,632.012 263.631,645.431 207,675 C139.628,710.177 102.2113,798.125 86.6753,844.05 " fill="none" id="viewing_course-to-view_assignment" style="stroke:#181818;stroke-width:1.0;"/><polygon fill="#181818" points="85.0638,848.899,91.6984,841.6201,86.6409,844.1542,84.1068,839.0967,85.0638,848.899" style="stroke:#181818;stroke-width:1.0;"/></g><!--link enrolled_course to view_course--><g id="link_enrolled_course_view_course"><path d="M246.326,772.194 C250.552,786.337 256.836,804.251 265,819 C269.897,827.847 276.237,836.728 282.537,844.66 " fill="none" id="enrolled_course-to-view_course" style="stroke:#181818;stroke-width:1.0;"/><polygon fill="#181818" points="286.023,848.963,283.4648,839.4522,282.8752,845.0782,277.2492,844.4887,286.023,848.963" style="stroke:#181818;stroke-width:1.0;"/></g><!--link enrolled_course to do_assignment--><g id="link_enrolled_course_do_assignment"><path d="M230.736,772.159 C219.891,804.984 206.955,863.627 237,899 C291.231,962.8478 527.315,941.422 609,960 C613.158,960.9458 617.417,961.9818 621.701,963.0759 " fill="none" id="enrolled_course-to-do_assignment" style="stroke:#181818;stroke-width:1.0;"/><polygon fill="#181818" points="626.737,964.385,619.0336,958.2484,621.898,963.1265,617.0199,965.9908,626.737,964.385" style="stroke:#181818;stroke-width:1.0;"/></g><!--link enrolled_course to view_assignment--><g id="link_enrolled_course_view_assignment"><path d="M208.765,772.101 C181.423,793.198 141.73,823.826 113.256,845.796 " fill="none" id="enrolled_course-to-view_assignment" style="stroke:#181818;stroke-width:1.0;"/><polygon fill="#181818" points="109.139,848.973,118.7081,846.6421,113.0977,845.9187,113.8211,840.3082,109.139,848.973" style="stroke:#181818;stroke-width:1.0;"/></g><!--link viewing_assignment to do_assignment--><g id="link_viewing_assignment_do_assignment"><path d="M603.078,899.191 C620.488,915.9837 643.733,938.4063 661.95,955.9779 " fill="none" id="viewing_assignment-to-do_assignment" style="stroke:#181818;stroke-width:1.0;"/><polygon fill="#181818" points="665.992,959.877,662.2918,950.7497,662.3935,956.4056,656.7375,956.5073,665.992,959.877" style="stroke:#181818;stroke-width:1.0;"/></g><!--link viewing_assignment to back_to_course--><g id="link_viewing_assignment_back_to_course"><path d="M566.46,899.191 C558.583,915.7015 548.11,937.6542 539.793,955.0879 " fill="none" id="viewing_assignment-to-back_to_course" style="stroke:#181818;stroke-width:1.0;"/><polygon fill="#181818" points="537.508,959.877,544.9933,953.4762,539.6608,955.3642,537.7729,950.0317,537.508,959.877" style="stroke:#181818;stroke-width:1.0;"/></g><!--link viewing_profile to edit_profile--><g id="link_viewing_profile_edit_profile"><path d="M1429.75,518.101 C1412.25,538.939 1386.94,569.074 1368.54,590.982 " fill="none" id="viewing_profile-to-edit_profile" style="stroke:#181818;stroke-width:1.0;"/><polygon fill="#181818" points="1365.18,594.973,1374.0314,590.654,1368.3958,591.1443,1367.9055,585.5088,1365.18,594.973" style="stroke:#181818;stroke-width:1.0;"/></g><!--link viewing_profile to back_to_home--><g id="link_viewing_profile_back_to_home"><path d="M1472.37,518.101 C1491.78,539.025 1519.9,569.324 1540.25,591.254 " fill="none" id="viewing_profile-to-back_to_home" style="stroke:#181818;stroke-width:1.0;"/><polygon fill="#181818" points="1543.7,594.973,1540.4996,585.6586,1540.2948,591.3118,1534.6416,591.107,1543.7,594.973" style="stroke:#181818;stroke-width:1.0;"/></g><!--link editing_profile to save_changes--><g id="link_editing_profile_save_changes"><path d="M1727.77,645.101 C1728.43,665.593 1729.37,695.076 1730.07,716.884 " fill="none" id="editing_profile-to-save_changes" style="stroke:#181818;stroke-width:1.0;"/><polygon fill="#181818" points="1730.23,721.973,1733.9401,712.8497,1730.0701,716.9756,1725.9442,713.1055,1730.23,721.973" style="stroke:#181818;stroke-width:1.0;"/></g><!--link editing_profile to back_to_profile--><g id="link_editing_profile_back_to_profile"><path d="M1696.73,645.101 C1670.23,666.198 1631.76,696.826 1604.17,718.796 " fill="none" id="editing_profile-to-back_to_profile" style="stroke:#181818;stroke-width:1.0;"/><polygon fill="#181818" points="1600.18,721.973,1609.7124,719.4963,1604.0916,718.8586,1604.7293,713.2378,1600.18,721.973" style="stroke:#181818;stroke-width:1.0;"/></g><!--link logged_in_learner to browsing_courses--><g id="link_logged_in_learner_browsing_courses"><path d="M1129.24,387.594 C1123.43,388.866 1117.63,390.024 1112,391 C957.73,417.73 912.645,382.044 761,421 C750.195,423.776 699.143,446.727 657.57,465.796 " fill="none" id="logged_in_learner-to-browsing_courses" style="stroke:#181818;stroke-width:1.0;"/><polygon fill="#181818" points="652.809,467.982,662.6571,467.8631,657.3532,465.8963,659.32,460.5924,652.809,467.982" style="stroke:#181818;stroke-width:1.0;"/><text fill="#000000" font-family="sans-serif" font-size="13" lengthAdjust="spacing" textLength="104" x="762" y="434.0669">browse_courses</text></g><!--link logged_in_learner to browsing_courses--><g id="link_logged_in_learner_browsing_courses"><path d="M1129.26,387.756 C1123.45,388.991 1117.65,390.096 1112,391 C1056.72,399.849 649.618,382.466 609,421 C598.02,431.417 595.689,448.033 596.257,462.573 " fill="none" id="logged_in_learner-to-browsing_courses-1" style="stroke:#181818;stroke-width:1.0;"/><polygon fill="#181818" points="596.587,467.82,600.0134,458.5864,596.2727,462.8299,592.0292,459.0892,596.587,467.82" style="stroke:#181818;stroke-width:1.0;"/><text fill="#000000" font-family="sans-serif" font-size="13" lengthAdjust="spacing" textLength="104" x="610" y="434.0669">browse_courses</text></g><!--link saving_changes to viewing_profile--><g id="link_saving_changes_viewing_profile"><path d="M1407.49,721.91 C1416.17,675.4 1435.19,573.402 1444.56,523.153 " fill="none" id="saving_changes-to-viewing_profile" style="stroke:#181818;stroke-width:1.0;"/><polygon fill="#181818" points="1445.49,518.163,1439.9067,526.2764,1444.5727,523.0781,1447.771,527.7441,1445.49,518.163" style="stroke:#181818;stroke-width:1.0;"/></g><!--link logged_out to registered--><g id="link_logged_out_registered"><path d="M1244.58,137.178 C1232.22,145.613 1219.26,155.801 1209,167 C1197.6,179.449 1187.96,195.601 1180.9,209.354 " fill="none" id="logged_out-to-registered" style="stroke:#181818;stroke-width:1.0;"/><polygon fill="#181818" points="1178.61,213.917,1186.2254,207.6716,1180.8552,209.4494,1179.0773,204.0792,1178.61,213.917" style="stroke:#181818;stroke-width:1.0;"/><text fill="#000000" font-family="sans-serif" font-size="13" lengthAdjust="spacing" textLength="49" x="1210" y="180.0669">register</text></g><!--link logged_out to logged_in_learner--><g id="link_logged_out_logged_in_learner"><path d="M1301.91,137.107 C1313.93,156.849 1329.45,185.995 1336,214 C1341.06,235.638 1341.2,242.394 1336,264 C1330.51,286.804 1328.69,294.516 1312,311 C1300.93,321.934 1287.21,331.048 1273.27,338.482 " fill="none" id="logged_out-to-logged_in_learner" style="stroke:#181818;stroke-width:1.0;"/><polygon fill="#181818" points="1268.54,340.939,1278.3711,340.3485,1272.9791,338.638,1274.6895,333.2459,1268.54,340.939" style="stroke:#181818;stroke-width:1.0;"/><text fill="#000000" font-family="sans-serif" font-size="13" lengthAdjust="spacing" textLength="82" x="1341" y="243.5669">login_learner</text></g><!--link logged_in_learner to logged_out--><g id="link_logged_in_learner_logged_out"><path d="M1238.97,340.858 C1248.65,332.552 1258.07,322.426 1264,311 C1278.86,282.339 1283.75,190.174 1285.3,142.374 " fill="none" id="logged_in_learner-to-logged_out" style="stroke:#181818;stroke-width:1.0;"/><polygon fill="#181818" points="1285.46,137.331,1281.181,146.2017,1285.3039,142.3286,1289.1771,146.4515,1285.46,137.331" style="stroke:#181818;stroke-width:1.0;"/><text fill="#000000" font-family="sans-serif" font-size="13" lengthAdjust="spacing" textLength="40" x="1283" y="243.5669">logout</text></g><!--link registered to logged_in_learner--><g id="link_registered_logged_in_learner"><path d="M1168.62,264.082 C1169.49,278.026 1171.49,295.776 1176,311 C1178.49,319.406 1182.23,328.083 1186.15,335.958 " fill="none" id="registered-to-logged_in_learner" style="stroke:#181818;stroke-width:1.0;"/><polygon fill="#181818" points="1188.6,340.747,1188.0699,330.9124,1186.3263,336.2939,1180.9449,334.5503,1188.6,340.747" style="stroke:#181818;stroke-width:1.0;"/><text fill="#000000" font-family="sans-serif" font-size="13" lengthAdjust="spacing" textLength="82" x="1177" y="307.0669">login_learner</text></g><!--link logged_in_learner to viewing_profile--><g id="link_logged_in_learner_viewing_profile"><path d="M1268.6,391.048 C1290.4,399.719 1314.57,410.08 1336,421 C1361.61,434.053 1388.99,450.999 1410.5,465.062 " fill="none" id="logged_in_learner-to-viewing_profile" style="stroke:#181818;stroke-width:1.0;"/><polygon fill="#181818" points="1414.72,467.835,1409.3911,459.5523,1410.5401,465.0912,1405.0011,466.2402,1414.72,467.835" style="stroke:#181818;stroke-width:1.0;"/><text fill="#000000" font-family="sans-serif" font-size="13" lengthAdjust="spacing" textLength="77" x="1367" y="434.0669">view_profile</text></g><!--link logged_in_learner to enrolled_course--><g id="link_logged_in_learner_enrolled_course"><path d="M1129.26,387.768 C1123.45,389 1117.65,390.102 1112,391 C883.379,427.366 815.436,360.45 592,421 C394.142,474.618 288.676,486.979 207,675 C200.869,689.113 206.613,704.628 214.929,717.545 " fill="none" id="logged_in_learner-to-enrolled_course" style="stroke:#181818;stroke-width:1.0;"/><polygon fill="#181818" points="217.834,721.821,216.083,712.129,215.0233,717.6858,209.4666,716.6261,217.834,721.821" style="stroke:#181818;stroke-width:1.0;"/><text fill="#000000" font-family="sans-serif" font-size="13" lengthAdjust="spacing" textLength="85" x="288" y="561.0669">enroll_course</text></g><!--link logged_in_learner to viewing_assignment--><g id="link_logged_in_learner_viewing_assignment"><path d="M1229.4,391.148 C1260.08,422.181 1302.99,476.946 1274,518 C1214.96,601.591 1127.72,521.033 1057,595 C1000.162,654.447 1062.95,715.698 1003,772 C954.838,817.228 775.366,847.677 665.633,862.513 " fill="none" id="logged_in_learner-to-viewing_assignment" style="stroke:#181818;stroke-width:1.0;"/><polygon fill="#181818" points="660.461,863.208,669.9134,865.9742,665.4165,862.5423,668.8483,858.0454,660.461,863.208" style="stroke:#181818;stroke-width:1.0;"/><text fill="#000000" font-family="sans-serif" font-size="13" lengthAdjust="spacing" textLength="112" x="1058" y="624.5669">view_assignment</text></g><!--link browsing_courses to viewing_course--><g id="link_browsing_courses_viewing_course"><path d="M590.666,518.068 C583.288,533.044 572.171,551.882 558,565 C546.237,575.888 531.865,585.113 517.519,592.69 " fill="none" id="browsing_courses-to-viewing_course" style="stroke:#181818;stroke-width:1.0;"/><polygon fill="#181818" points="513.071,594.989,522.903,594.4123,517.5133,592.6943,519.2314,587.3046,513.071,594.989" style="stroke:#181818;stroke-width:1.0;"/><text fill="#000000" font-family="sans-serif" font-size="13" lengthAdjust="spacing" textLength="80" x="573" y="561.0669">view_course</text></g><!--link viewing_course to browsing_courses--><g id="link_viewing_course_browsing_courses"><path d="M441.078,594.866 C436.695,580.05 434.431,561.41 444,548 C462.122,522.604 492.985,509.029 522.577,501.82 " fill="none" id="viewing_course-to-browsing_courses" style="stroke:#181818;stroke-width:1.0;"/><polygon fill="#181818" points="527.697,500.632,518.0258,498.7698,522.8264,501.7621,519.834,506.5627,527.697,500.632" style="stroke:#181818;stroke-width:1.0;"/><text fill="#000000" font-family="sans-serif" font-size="13" lengthAdjust="spacing" textLength="104" x="445" y="561.0669">back_to_browse</text></g><!--link viewing_course to enrolled_course--><g id="link_viewing_course_enrolled_course"><path d="M392.312,645.117 C373.265,653.72 352.329,664.022 334,675 C312.469,687.896 289.98,704.744 272.399,718.791 " fill="none" id="viewing_course-to-enrolled_course" style="stroke:#181818;stroke-width:1.0;"/><polygon fill="#181818" points="268.497,721.927,278.0182,719.4078,272.3946,718.7952,273.0073,713.1716,268.497,721.927" style="stroke:#181818;stroke-width:1.0;"/><text fill="#000000" font-family="sans-serif" font-size="13" lengthAdjust="spacing" textLength="85" x="335" y="688.0669">enroll_course</text></g><!--link enrolled_course to viewing_course--><g id="link_enrolled_course_viewing_course"><path d="M223.255,721.82 C215.227,706.987 209.416,688.344 220,675 C239.947,649.853 321.238,635.31 381.779,627.78 " fill="none" id="enrolled_course-to-viewing_course" style="stroke:#181818;stroke-width:1.0;"/><polygon fill="#181818" points="386.834,627.161,377.4149,624.2835,381.871,627.7682,378.3863,632.2243,386.834,627.161" style="stroke:#181818;stroke-width:1.0;"/><text fill="#000000" font-family="sans-serif" font-size="13" lengthAdjust="spacing" textLength="80" x="221" y="688.0669">view_course</text></g><!--link viewing_course to viewing_assignment--><g id="link_viewing_course_viewing_assignment"><path d="M515.233,643.226 C570.332,663.798 643.263,695.162 659,722 C683.799,764.292 643.101,814.71 610.957,845.265 " fill="none" id="viewing_course-to-viewing_assignment" style="stroke:#181818;stroke-width:1.0;"/><polygon fill="#181818" points="607.084,848.891,616.3878,845.6601,610.734,845.4738,610.9203,839.82,607.084,848.891" style="stroke:#181818;stroke-width:1.0;"/><text fill="#000000" font-family="sans-serif" font-size="13" lengthAdjust="spacing" textLength="112" x="668" y="751.5669">view_assignment</text></g><!--link viewing_assignment to viewing_course--><g id="link_viewing_assignment_viewing_course"><path d="M571.973,848.846 C568.131,834.879 562.631,817.129 556,802 C531.297,745.638 493.312,684.615 470.439,649.778 " fill="none" id="viewing_assignment-to-viewing_course" style="stroke:#181818;stroke-width:1.0;"/><polygon fill="#181818" points="467.452,645.247,469.0653,654.9628,470.2037,649.4217,475.7448,650.5601,467.452,645.247" style="stroke:#181818;stroke-width:1.0;"/><text fill="#000000" font-family="sans-serif" font-size="13" lengthAdjust="spacing" textLength="100" x="543" y="751.5669">back_to_course</text></g><!--link enrolled_course to viewing_assignment--><g id="link_enrolled_course_viewing_assignment"><path d="M253.587,772.172 C263.759,787.989 279.14,807.742 298,819 C329.965,838.081 421.005,853.38 490.68,862.754 " fill="none" id="enrolled_course-to-viewing_assignment" style="stroke:#181818;stroke-width:1.0;"/><polygon fill="#181818" points="495.658,863.419,487.2663,858.2635,490.7019,862.7575,486.2079,866.1932,495.658,863.419" style="stroke:#181818;stroke-width:1.0;"/><text fill="#000000" font-family="sans-serif" font-size="13" lengthAdjust="spacing" textLength="112" x="299" y="815.0669">view_assignment</text></g><!--link viewing_assignment to enrolled_course--><g id="link_viewing_assignment_enrolled_course"><path d="M520.73,848.974 C499.115,839.771 474.352,829.063 452,819 C435.866,811.736 432.5,808.389 416,802 C396.596,794.486 351.4,780.646 311.669,768.859 " fill="none" id="viewing_assignment-to-enrolled_course" style="stroke:#181818;stroke-width:1.0;"/><polygon fill="#181818" points="306.853,767.432,314.3465,773.8232,311.6471,768.852,316.6184,766.1526,306.853,767.432" style="stroke:#181818;stroke-width:1.0;"/><text fill="#000000" font-family="sans-serif" font-size="13" lengthAdjust="spacing" textLength="98" x="453" y="815.0669">do_assignment</text></g><!--link viewing_profile to editing_profile--><g id="link_viewing_profile_editing_profile"><path d="M1514.6,494.573 C1566.2,498.109 1637.92,510.26 1688,548 C1701.82,558.418 1711.37,575.231 1717.56,589.882 " fill="none" id="viewing_profile-to-editing_profile" style="stroke:#181818;stroke-width:1.0;"/><polygon fill="#181818" points="1719.53,594.755,1719.8701,584.912,1717.6583,590.1185,1712.4518,587.9067,1719.53,594.755" style="stroke:#181818;stroke-width:1.0;"/><text fill="#000000" font-family="sans-serif" font-size="13" lengthAdjust="spacing" textLength="71" x="1705" y="561.0669">edit_profile</text></g><!--link editing_profile to viewing_profile--><g id="link_editing_profile_viewing_profile"><path d="M1663.69,597.803 C1637.72,588.54 1607.59,577.047 1581,565 C1551.83,551.782 1520.24,534.745 1495.39,520.673 " fill="none" id="editing_profile-to-viewing_profile" style="stroke:#181818;stroke-width:1.0;"/><polygon fill="#181818" points="1490.83,518.082,1496.6771,526.0074,1495.1767,520.5532,1500.6309,519.0527,1490.83,518.082" style="stroke:#181818;stroke-width:1.0;"/><text fill="#000000" font-family="sans-serif" font-size="13" lengthAdjust="spacing" textLength="97" x="1582" y="561.0669">back_to_profile</text></g><!--link viewing_profile to logged--><g id="link_viewing_profile_logged"><path d="M1406.23,518.101 C1364.63,541.007 1302.63,575.149 1262.51,597.246 " fill="none" id="viewing_profile-to-logged" style="stroke:#181818;stroke-width:1.0;"/><polygon fill="#181818" points="1257.72,599.879,1267.5328,599.0375,1262.0988,597.4654,1263.671,592.0314,1257.72,599.879" style="stroke:#181818;stroke-width:1.0;"/></g><!--link editing_profile to saving_changes--><g id="link_editing_profile_saving_changes"><path d="M1663.8,639.84 C1657.79,641.598 1651.78,643.341 1646,645 C1598.12,658.743 1584.31,656.635 1538,675 C1506.82,687.366 1473.44,704.878 1447.68,719.416 " fill="none" id="editing_profile-to-saving_changes" style="stroke:#181818;stroke-width:1.0;"/><polygon fill="#181818" points="1443.28,721.907,1453.0812,720.939,1447.6274,719.4371,1449.1293,713.9833,1443.28,721.907" style="stroke:#181818;stroke-width:1.0;"/><text fill="#000000" font-family="sans-serif" font-size="13" lengthAdjust="spacing" textLength="92" x="1539" y="688.0669">save_changes</text></g><!--link logged_out to *end*--><g id="link_logged_out_*end*"><path d="M1336.34,115.242 C1464.02,121.309 1793.26,139.466 1834,167 C1853.45,180.146 1863.34,206.853 1867.82,223.503 " fill="none" id="logged_out-to-*end*" style="stroke:#181818;stroke-width:1.0;"/><polygon fill="#181818" points="1869.14,228.73,1870.8176,219.0251,1867.9172,223.8818,1863.0605,220.9815,1869.14,228.73" style="stroke:#181818;stroke-width:1.0;"/></g><!--SRC=[dLL1SiCW3Bpp2fypamzmw4So6SQDgKDhGmUSPFhxOWD6OCdkz1G7hxHQ8QqlfsjpFhyrW-bxsGdpc1ZBpyihAtlb9cdXUOfHcZ6M0B8hZlrlIe5aLreCihLQsWNnRitBIN4p3-kaGq1Du7mg-HBVrdoeGT8egQqPXfYDXdL6jCwfNezIJpGi2k7nWGQk8iRneTNquvjG7osuJ-DZCuh4ADqNoMRnuMpMXIYj0AcizlOb9YC23m5Q6WkwmLX8xOK2kWKLoUhtQ5C9q9OjLPKFaMm8gD8OQmC9ux24RdLgMgUdgH5bfhiPvpnpI06QCQvz-lkwjxhtixf1b7aItTxWv-jmViogNM2URG44ljn0GCh8hVLBoT4L1di9Ik9XVTD_PBSF0lwh4e-hhuWV6K3UYJnp_D0F81MOBRwPKpmKT7KrYOrYoB4M1lU9t6vQ2HA2TNft__-idV83Kj1Um2uJuGNRRXow0rfZvHMKKPHpLrW75XA6OEC6qIxW0lDz_y3ddhAJzMjyELr_0G00]--></g></svg>