<?xml version="1.0" encoding="us-ascii" standalone="no"?><svg xmlns="http://www.w3.org/2000/svg" xmlns:xlink="http://www.w3.org/1999/xlink" contentStyleType="text/css" height="762px" preserveAspectRatio="none" style="width:928px;height:762px;background:#FFFFFF;" version="1.1" viewBox="0 0 928 762" width="928px" zoomAndPan="magnify"><defs/><g><ellipse cx="378" cy="16" fill="#181818" rx="10" ry="10" style="stroke:none;stroke-width:1.0;"/><g id="logged_out"><rect fill="#F1F1F1" height="50" rx="12.5" ry="12.5" style="stroke:#181818;stroke-width:0.5;" width="100" x="328" y="87"/><line style="stroke:#181818;stroke-width:0.5;" x1="328" x2="428" y1="113.2969" y2="113.2969"/><text fill="#000000" font-family="sans-serif" font-size="14" lengthAdjust="spacing" textLength="80" x="338" y="104.9951">logged_out</text></g><g id="logout"><rect fill="#F1F1F1" height="50" rx="12.5" ry="12.5" style="stroke:#181818;stroke-width:0.5;" width="66" x="34" y="452"/><line style="stroke:#181818;stroke-width:0.5;" x1="34" x2="100" y1="478.2969" y2="478.2969"/><text fill="#000000" font-family="sans-serif" font-size="14" lengthAdjust="spacing" textLength="46" x="44" y="469.9951">logout</text></g><g id="logged_in_premium_learner"><rect fill="#F1F1F1" height="50" rx="12.5" ry="12.5" style="stroke:#181818;stroke-width:0.5;" width="219" x="276.5" y="341"/><line style="stroke:#181818;stroke-width:0.5;" x1="276.5" x2="495.5" y1="367.2969" y2="367.2969"/><text fill="#000000" font-family="sans-serif" font-size="14" lengthAdjust="spacing" textLength="199" x="286.5" y="358.9951">logged_in_premium_learner</text></g><g id="create_community"><rect fill="#F1F1F1" height="50" rx="12.5" ry="12.5" style="stroke:#181818;stroke-width:0.5;" width="155" x="328.5" y="452"/><line style="stroke:#181818;stroke-width:0.5;" x1="328.5" x2="483.5" y1="478.2969" y2="478.2969"/><text fill="#000000" font-family="sans-serif" font-size="14" lengthAdjust="spacing" textLength="135" x="338.5" y="469.9951">create_community</text></g><g id="browse_community"><rect fill="#F1F1F1" height="50" rx="12.5" ry="12.5" style="stroke:#181818;stroke-width:0.5;" width="160" x="590" y="452"/><line style="stroke:#181818;stroke-width:0.5;" x1="590" x2="750" y1="478.2969" y2="478.2969"/><text fill="#000000" font-family="sans-serif" font-size="14" lengthAdjust="spacing" textLength="140" x="600" y="469.9951">browse_community</text></g><g id="join_community"><rect fill="#F1F1F1" height="50" rx="12.5" ry="12.5" style="stroke:#181818;stroke-width:0.5;" width="134" x="596" y="579"/><line style="stroke:#181818;stroke-width:0.5;" x1="596" x2="730" y1="605.2969" y2="605.2969"/><text fill="#000000" font-family="sans-serif" font-size="14" lengthAdjust="spacing" textLength="114" x="606" y="596.9951">join_community</text></g><g id="creating_community"><rect fill="#F1F1F1" height="50" rx="12.5" ry="12.5" style="stroke:#181818;stroke-width:0.5;" width="168" x="239" y="579"/><line style="stroke:#181818;stroke-width:0.5;" x1="239" x2="407" y1="605.2969" y2="605.2969"/><text fill="#000000" font-family="sans-serif" font-size="14" lengthAdjust="spacing" textLength="148" x="249" y="596.9951">creating_community</text></g><g id="create_community_confirm"><rect fill="#F1F1F1" height="50" rx="12.5" ry="12.5" style="stroke:#181818;stroke-width:0.5;" width="218" x="7" y="706"/><line style="stroke:#181818;stroke-width:0.5;" x1="7" x2="225" y1="732.2969" y2="732.2969"/><text fill="#000000" font-family="sans-serif" font-size="14" lengthAdjust="spacing" textLength="198" x="17" y="723.9951">create_community_confirm</text></g><g id="back_to_home"><rect fill="#F1F1F1" height="50" rx="12.5" ry="12.5" style="stroke:#181818;stroke-width:0.5;" width="126" x="260" y="706"/><line style="stroke:#181818;stroke-width:0.5;" x1="260" x2="386" y1="732.2969" y2="732.2969"/><text fill="#000000" font-family="sans-serif" font-size="14" lengthAdjust="spacing" textLength="106" x="270" y="723.9951">back_to_home</text></g><g id="registered"><rect fill="#F1F1F1" height="50" rx="12.5" ry="12.5" style="stroke:#181818;stroke-width:0.5;" width="95" x="455.5" y="214"/><line style="stroke:#181818;stroke-width:0.5;" x1="455.5" x2="550.5" y1="240.2969" y2="240.2969"/><text fill="#000000" font-family="sans-serif" font-size="14" lengthAdjust="spacing" textLength="75" x="465.5" y="231.9951">registered</text></g><g id="joining_community"><rect fill="#F1F1F1" height="50" rx="12.5" ry="12.5" style="stroke:#181818;stroke-width:0.5;" width="156" x="765" y="579"/><line style="stroke:#181818;stroke-width:0.5;" x1="765" x2="921" y1="605.2969" y2="605.2969"/><text fill="#000000" font-family="sans-serif" font-size="14" lengthAdjust="spacing" textLength="136" x="775" y="596.9951">joining_community</text></g><g id="creating_community_confirm"><rect fill="#F1F1F1" height="50" rx="12.5" ry="12.5" style="stroke:#181818;stroke-width:0.5;" width="231" x="421.5" y="706"/><line style="stroke:#181818;stroke-width:0.5;" x1="421.5" x2="652.5" y1="732.2969" y2="732.2969"/><text fill="#000000" font-family="sans-serif" font-size="14" lengthAdjust="spacing" textLength="211" x="431.5" y="723.9951">creating_community_confirm</text></g><ellipse cx="596" cy="239" fill="none" rx="10" ry="10" style="stroke:#181818;stroke-width:1.0;"/><ellipse cx="596.5" cy="239.5" fill="#181818" rx="6" ry="6" style="stroke:none;stroke-width:1.0;"/><!--link *start* to logged_out--><g id="link_*start*_logged_out"><path d="M378,26.013 C378,38.698 378,62.409 378,81.57 " fill="none" id="*start*-to-logged_out" style="stroke:#181818;stroke-width:1.0;"/><polygon fill="#181818" points="378,86.84,382,77.84,378,81.84,374,77.84,378,86.84" style="stroke:#181818;stroke-width:1.0;"/></g><!--link logout to logged_out--><g id="link_logout_logged_out"><path d="M69.5866,451.639 C77.3596,391.795 106.3132,237.344 203,167 C238.166,141.416 285.708,127.755 322.365,120.58 " fill="none" id="logout-to-logged_out" style="stroke:#181818;stroke-width:1.0;"/><polygon fill="#181818" points="327.691,119.568,318.1022,117.3198,322.779,120.5021,319.5968,125.179,327.691,119.568" style="stroke:#181818;stroke-width:1.0;"/></g><!--link logged_in_premium_learner to create_community--><g id="link_logged_in_premium_learner_create_community"><path d="M390.439,391.191 C393.442,407.56 397.427,429.279 400.613,446.64 " fill="none" id="logged_in_premium_learner-to-create_community" style="stroke:#181818;stroke-width:1.0;"/><polygon fill="#181818" points="401.574,451.877,403.8834,442.3027,400.6713,446.9592,396.0148,443.7471,401.574,451.877" style="stroke:#181818;stroke-width:1.0;"/></g><!--link browse_community to join_community--><g id="link_browse_community_join_community"><path d="M668.65,502.101 C667.503,522.593 665.852,552.076 664.63,573.884 " fill="none" id="browse_community-to-join_community" style="stroke:#181818;stroke-width:1.0;"/><polygon fill="#181818" points="664.346,578.973,668.8413,570.2099,664.6246,573.9808,660.8537,569.7641,664.346,578.973" style="stroke:#181818;stroke-width:1.0;"/></g><!--link logged_in_premium_learner to logout--><g id="link_logged_in_premium_learner_logout"><path d="M276.422,381.85 C233.859,390.06 185.47,402.486 144,421 C128.094,428.101 112.155,438.755 98.9388,448.801 " fill="none" id="logged_in_premium_learner-to-logout" style="stroke:#181818;stroke-width:1.0;"/><polygon fill="#181818" points="94.9277,451.894,104.4971,449.5644,98.8868,448.8402,99.611,443.2299,94.9277,451.894" style="stroke:#181818;stroke-width:1.0;"/></g><!--link logged_in_premium_learner to browse_community--><g id="link_logged_in_premium_learner_browse_community"><path d="M476.221,391.135 C504.384,399.568 535.314,409.766 563,421 C583.162,429.181 604.633,439.811 623.009,449.542 " fill="none" id="logged_in_premium_learner-to-browse_community" style="stroke:#181818;stroke-width:1.0;"/><polygon fill="#181818" points="627.611,451.995,621.5493,444.2325,623.1984,449.6437,617.7872,451.2927,627.611,451.995" style="stroke:#181818;stroke-width:1.0;"/></g><!--link creating_community to create_community_confirm--><g id="link_creating_community_create_community_confirm"><path d="M283.088,629.101 C247.865,650.371 196.6,681.3286 160.158,703.3347 " fill="none" id="creating_community-to-create_community_confirm" style="stroke:#181818;stroke-width:1.0;"/><polygon fill="#181818" points="155.789,705.9727,165.561,704.7451,160.0693,703.3883,161.426,697.8966,155.789,705.9727" style="stroke:#181818;stroke-width:1.0;"/></g><!--link creating_community to back_to_home--><g id="link_creating_community_back_to_home"><path d="M323,629.101 C323,649.593 323,679.0764 323,700.8844 " fill="none" id="creating_community-to-back_to_home" style="stroke:#181818;stroke-width:1.0;"/><polygon fill="#181818" points="323,705.9727,327,696.9727,323,700.9727,319,696.9727,323,705.9727" style="stroke:#181818;stroke-width:1.0;"/></g><!--link logged_out to registered--><g id="link_logged_out_registered"><path d="M402.101,137.101 C423.025,158.025 453.324,188.324 475.254,210.254 " fill="none" id="logged_out-to-registered" style="stroke:#181818;stroke-width:1.0;"/><polygon fill="#181818" points="478.973,213.973,475.4375,204.7806,475.4375,210.4375,469.7806,210.4375,478.973,213.973" style="stroke:#181818;stroke-width:1.0;"/><text fill="#000000" font-family="sans-serif" font-size="13" lengthAdjust="spacing" textLength="49" x="449" y="180.0669">register</text></g><!--link logged_out to logged_in_premium_learner--><g id="link_logged_out_logged_in_premium_learner"><path d="M327.86,127.454 C258.411,150.211 145.777,198.626 186,264 C208.142,299.987 247.501,323.618 285.481,338.901 " fill="none" id="logged_out-to-logged_in_premium_learner" style="stroke:#181818;stroke-width:1.0;"/><polygon fill="#181818" points="290.586,340.909,283.6746,333.8924,285.933,339.0789,280.7465,341.3373,290.586,340.909" style="stroke:#181818;stroke-width:1.0;"/><text fill="#000000" font-family="sans-serif" font-size="13" lengthAdjust="spacing" textLength="147" x="187" y="243.5669">login_premium_learner</text></g><!--link logged_in_premium_learner to logged_out--><g id="link_logged_in_premium_learner_logged_out"><path d="M385.235,340.91 C383.762,294.494 380.534,192.814 378.935,142.458 " fill="none" id="logged_in_premium_learner-to-logged_out" style="stroke:#181818;stroke-width:1.0;"/><polygon fill="#181818" points="378.767,137.163,375.0545,146.2853,378.9256,142.1605,383.0504,146.0316,378.767,137.163" style="stroke:#181818;stroke-width:1.0;"/><text fill="#000000" font-family="sans-serif" font-size="13" lengthAdjust="spacing" textLength="40" x="384" y="243.5669">logout</text></g><!--link registered to logged_in_premium_learner--><g id="link_registered_logged_in_premium_learner"><path d="M480.441,264.101 C460.856,285.025 432.496,315.324 411.97,337.254 " fill="none" id="registered-to-logged_in_premium_learner" style="stroke:#181818;stroke-width:1.0;"/><polygon fill="#181818" points="408.49,340.973,417.561,337.1367,411.9072,337.323,411.7209,331.6692,408.49,340.973" style="stroke:#181818;stroke-width:1.0;"/><text fill="#000000" font-family="sans-serif" font-size="13" lengthAdjust="spacing" textLength="147" x="453" y="307.0669">login_premium_learner</text></g><!--link logged_in_premium_learner to creating_community--><g id="link_logged_in_premium_learner_creating_community"><path d="M276.404,388.994 C242.26,401.557 208.275,421.232 188,452 C156.54,499.742 219.5,547.751 269.632,576.429 " fill="none" id="logged_in_premium_learner-to-creating_community" style="stroke:#181818;stroke-width:1.0;"/><polygon fill="#181818" points="274.133,578.972,268.2657,571.0616,269.7801,576.5119,264.3297,578.0263,274.133,578.972" style="stroke:#181818;stroke-width:1.0;"/><text fill="#000000" font-family="sans-serif" font-size="13" lengthAdjust="spacing" textLength="121" x="189" y="481.5669">create_community</text></g><!--link browse_community to joining_community--><g id="link_browse_community_joining_community"><path d="M703.356,502.101 C732.555,523.198 774.943,553.826 805.35,575.796 " fill="none" id="browse_community-to-joining_community" style="stroke:#181818;stroke-width:1.0;"/><polygon fill="#181818" points="809.746,578.973,804.792,570.4608,805.6926,576.0455,800.108,576.9462,809.746,578.973" style="stroke:#181818;stroke-width:1.0;"/><text fill="#000000" font-family="sans-serif" font-size="13" lengthAdjust="spacing" textLength="102" x="767" y="545.0669">join_community</text></g><!--link create_community to creating_community--><g id="link_create_community_creating_community"><path d="M389.997,502.101 C376.218,522.853 356.317,552.824 341.785,574.709 " fill="none" id="create_community-to-creating_community" style="stroke:#181818;stroke-width:1.0;"/><polygon fill="#181818" points="338.954,578.973,347.2645,573.6875,341.7196,574.8075,340.5996,569.2626,338.954,578.973" style="stroke:#181818;stroke-width:1.0;"/><text fill="#000000" font-family="sans-serif" font-size="13" lengthAdjust="spacing" textLength="121" x="371" y="545.0669">create_community</text></g><!--link creating_community to creating_community_confirm--><g id="link_creating_community_creating_community_confirm"><path d="M364.261,629.101 C400.676,650.371 453.675,681.3286 491.349,703.3347 " fill="none" id="creating_community-to-creating_community_confirm" style="stroke:#181818;stroke-width:1.0;"/><polygon fill="#181818" points="495.865,705.9727,490.1125,697.9784,491.548,703.4501,486.0763,704.8856,495.865,705.9727" style="stroke:#181818;stroke-width:1.0;"/><text fill="#000000" font-family="sans-serif" font-size="13" lengthAdjust="spacing" textLength="49" x="444" y="672.0669">confirm</text></g><!--link creating_community_confirm to logged_in_premium_learner--><g id="link_creating_community_confirm_logged_in_premium_learner"><path d="M539.888,705.6771 C544.717,654.72 549.594,534.646 501,452 C486.607,427.522 462.12,407.949 439.431,393.785 " fill="none" id="creating_community_confirm-to-logged_in_premium_learner" style="stroke:#181818;stroke-width:1.0;"/><polygon fill="#181818" points="434.921,391.025,440.5103,399.1342,439.186,393.6346,444.6856,392.3102,434.921,391.025" style="stroke:#181818;stroke-width:1.0;"/><text fill="#000000" font-family="sans-serif" font-size="13" lengthAdjust="spacing" textLength="94" x="536" y="545.0669">back_to_home</text></g><!--link logged_out to *end*--><g id="link_logged_out_*end*"><path d="M428.139,130.489 C452.639,139.9 482.125,152.543 507,167 C536.591,184.197 541.443,192.412 568,214 C573.589,218.543 579.673,223.728 584.738,228.114 " fill="none" id="logged_out-to-*end*" style="stroke:#181818;stroke-width:1.0;"/><polygon fill="#181818" points="588.719,231.578,584.5551,222.6526,584.947,228.2959,579.3038,228.6878,588.719,231.578" style="stroke:#181818;stroke-width:1.0;"/></g><!--SRC=[dL9B3eCW4Drp2jOcNi15Bs8CyJEbj0BDY6bw-uAAnRyjAsPul7apRz8eet5yeRNc72gcMqFiiP6zhJ-uI2ZsH92YbQo671KWjSV1IuJS02krbAqIvaqArAycI7ZWNLkIB-oGk9Tqh61UpwdkH0d50nLhMkrDNGNADVoWeiZB1pEQtRG44Wp4Jmk1YyO0GaMJCLYWjdj8tDioJqX0_2V3pkJ6OKnxJawuwQsS_pnjxtJ7Uld3iish_w1pp_59sdlkI3RT7q57ev-jHz1NzpMDiWy0]--></g></svg>