<?xml version="1.0" encoding="us-ascii" standalone="no"?><svg xmlns="http://www.w3.org/2000/svg" xmlns:xlink="http://www.w3.org/1999/xlink" contentStyleType="text/css" height="555px" preserveAspectRatio="none" style="width:1597px;height:555px;background:#FFFFFF;" version="1.1" viewBox="0 0 1597 555" width="1597px" zoomAndPan="magnify"><defs/><g><g id="logged_in_instructor"><rect fill="#F1F1F1" height="50" rx="12.5" ry="12.5" style="stroke:#181818;stroke-width:0.5;" width="167" x="557.5" y="7"/><line style="stroke:#181818;stroke-width:0.5;" x1="557.5" x2="724.5" y1="33.2969" y2="33.2969"/><text fill="#000000" font-family="sans-serif" font-size="14" lengthAdjust="spacing" textLength="147" x="567.5" y="24.9951">logged_in_instructor</text></g><g id="create_course"><rect fill="#F1F1F1" height="50" rx="12.5" ry="12.5" style="stroke:#181818;stroke-width:0.5;" width="121" x="206.5" y="134"/><line style="stroke:#181818;stroke-width:0.5;" x1="206.5" x2="327.5" y1="160.2969" y2="160.2969"/><text fill="#000000" font-family="sans-serif" font-size="14" lengthAdjust="spacing" textLength="101" x="216.5" y="151.9951">create_course</text></g><g id="browse_courses"><rect fill="#F1F1F1" height="50" rx="12.5" ry="12.5" style="stroke:#181818;stroke-width:0.5;" width="133" x="362.5" y="134"/><line style="stroke:#181818;stroke-width:0.5;" x1="362.5" x2="495.5" y1="160.2969" y2="160.2969"/><text fill="#000000" font-family="sans-serif" font-size="14" lengthAdjust="spacing" textLength="113" x="372.5" y="151.9951">browse_courses</text></g><g id="logout"><rect fill="#F1F1F1" height="50" rx="12.5" ry="12.5" style="stroke:#181818;stroke-width:0.5;" width="66" x="531" y="134"/><line style="stroke:#181818;stroke-width:0.5;" x1="531" x2="597" y1="160.2969" y2="160.2969"/><text fill="#000000" font-family="sans-serif" font-size="14" lengthAdjust="spacing" textLength="46" x="541" y="151.9951">logout</text></g><g id="logged_out"><rect fill="#F1F1F1" height="50" rx="12.5" ry="12.5" style="stroke:#181818;stroke-width:0.5;" width="100" x="617" y="261"/><line style="stroke:#181818;stroke-width:0.5;" x1="617" x2="717" y1="287.2969" y2="287.2969"/><text fill="#000000" font-family="sans-serif" font-size="14" lengthAdjust="spacing" textLength="80" x="627" y="278.9951">logged_out</text></g><g id="browsing_courses"><rect fill="#F1F1F1" height="50" rx="12.5" ry="12.5" style="stroke:#181818;stroke-width:0.5;" width="146" x="955" y="134"/><line style="stroke:#181818;stroke-width:0.5;" x1="955" x2="1101" y1="160.2969" y2="160.2969"/><text fill="#000000" font-family="sans-serif" font-size="14" lengthAdjust="spacing" textLength="126" x="965" y="151.9951">browsing_courses</text></g><g id="view_course"><rect fill="#F1F1F1" height="50" rx="12.5" ry="12.5" style="stroke:#181818;stroke-width:0.5;" width="106" x="786" y="388"/><line style="stroke:#181818;stroke-width:0.5;" x1="786" x2="892" y1="414.2969" y2="414.2969"/><text fill="#000000" font-family="sans-serif" font-size="14" lengthAdjust="spacing" textLength="86" x="796" y="405.9951">view_course</text></g><g id="viewing_course"><rect fill="#F1F1F1" height="50" rx="12.5" ry="12.5" style="stroke:#181818;stroke-width:0.5;" width="128" x="1086" y="261"/><line style="stroke:#181818;stroke-width:0.5;" x1="1086" x2="1214" y1="287.2969" y2="287.2969"/><text fill="#000000" font-family="sans-serif" font-size="14" lengthAdjust="spacing" textLength="108" x="1096" y="278.9951">viewing_course</text></g><g id="enroll_course"><rect fill="#F1F1F1" height="50" rx="12.5" ry="12.5" style="stroke:#181818;stroke-width:0.5;" width="115" x="1475.5" y="388"/><line style="stroke:#181818;stroke-width:0.5;" x1="1475.5" x2="1590.5" y1="414.2969" y2="414.2969"/><text fill="#000000" font-family="sans-serif" font-size="14" lengthAdjust="spacing" textLength="95" x="1485.5" y="405.9951">enroll_course</text></g><g id="back_to_browse"><rect fill="#F1F1F1" height="50" rx="12.5" ry="12.5" style="stroke:#181818;stroke-width:0.5;" width="137" x="1303.5" y="388"/><line style="stroke:#181818;stroke-width:0.5;" x1="1303.5" x2="1440.5" y1="414.2969" y2="414.2969"/><text fill="#000000" font-family="sans-serif" font-size="14" lengthAdjust="spacing" textLength="117" x="1313.5" y="405.9951">back_to_browse</text></g><g id="view_assignment"><rect fill="#F1F1F1" height="50" rx="12.5" ry="12.5" style="stroke:#181818;stroke-width:0.5;" width="142" x="927" y="388"/><line style="stroke:#181818;stroke-width:0.5;" x1="927" x2="1069" y1="414.2969" y2="414.2969"/><text fill="#000000" font-family="sans-serif" font-size="14" lengthAdjust="spacing" textLength="122" x="937" y="405.9951">view_assignment</text></g><g id="enrolled_course"><rect fill="#F1F1F1" height="50" rx="12.5" ry="12.5" style="stroke:#181818;stroke-width:0.5;" width="133" x="772.5" y="261"/><line style="stroke:#181818;stroke-width:0.5;" x1="772.5" x2="905.5" y1="287.2969" y2="287.2969"/><text fill="#000000" font-family="sans-serif" font-size="14" lengthAdjust="spacing" textLength="113" x="782.5" y="278.9951">enrolled_course</text></g><g id="do_assignment"><rect fill="#F1F1F1" height="50" rx="12.5" ry="12.5" style="stroke:#181818;stroke-width:0.5;" width="128" x="813" y="499"/><line style="stroke:#181818;stroke-width:0.5;" x1="813" x2="941" y1="525.2969" y2="525.2969"/><text fill="#000000" font-family="sans-serif" font-size="14" lengthAdjust="spacing" textLength="108" x="823" y="516.9951">do_assignment</text></g><g id="viewing_assignment"><rect fill="#F1F1F1" height="50" rx="12.5" ry="12.5" style="stroke:#181818;stroke-width:0.5;" width="164" x="1104" y="388"/><line style="stroke:#181818;stroke-width:0.5;" x1="1104" x2="1268" y1="414.2969" y2="414.2969"/><text fill="#000000" font-family="sans-serif" font-size="14" lengthAdjust="spacing" textLength="144" x="1114" y="405.9951">viewing_assignment</text></g><g id="back_to_course"><rect fill="#F1F1F1" height="50" rx="12.5" ry="12.5" style="stroke:#181818;stroke-width:0.5;" width="132" x="1120" y="499"/><line style="stroke:#181818;stroke-width:0.5;" x1="1120" x2="1252" y1="525.2969" y2="525.2969"/><text fill="#000000" font-family="sans-serif" font-size="14" lengthAdjust="spacing" textLength="112" x="1130" y="516.9951">back_to_course</text></g><g id="creating_course"><rect fill="#F1F1F1" height="50" rx="12.5" ry="12.5" style="stroke:#181818;stroke-width:0.5;" width="134" x="200" y="261"/><line style="stroke:#181818;stroke-width:0.5;" x1="200" x2="334" y1="287.2969" y2="287.2969"/><text fill="#000000" font-family="sans-serif" font-size="14" lengthAdjust="spacing" textLength="114" x="210" y="278.9951">creating_course</text></g><g id="create_course_confirm"><rect fill="#F1F1F1" height="50" rx="12.5" ry="12.5" style="stroke:#181818;stroke-width:0.5;" width="184" x="401" y="388"/><line style="stroke:#181818;stroke-width:0.5;" x1="401" x2="585" y1="414.2969" y2="414.2969"/><text fill="#000000" font-family="sans-serif" font-size="14" lengthAdjust="spacing" textLength="164" x="411" y="405.9951">create_course_confirm</text></g><g id="back_to_home"><rect fill="#F1F1F1" height="50" rx="12.5" ry="12.5" style="stroke:#181818;stroke-width:0.5;" width="126" x="7" y="388"/><line style="stroke:#181818;stroke-width:0.5;" x1="7" x2="133" y1="414.2969" y2="414.2969"/><text fill="#000000" font-family="sans-serif" font-size="14" lengthAdjust="spacing" textLength="106" x="17" y="405.9951">back_to_home</text></g><g id="creating_course_confirm"><rect fill="#F1F1F1" height="50" rx="12.5" ry="12.5" style="stroke:#181818;stroke-width:0.5;" width="197" x="168.5" y="388"/><line style="stroke:#181818;stroke-width:0.5;" x1="168.5" x2="365.5" y1="414.2969" y2="414.2969"/><text fill="#000000" font-family="sans-serif" font-size="14" lengthAdjust="spacing" textLength="177" x="178.5" y="405.9951">creating_course_confirm</text></g><ellipse cx="667" cy="413" fill="none" rx="10" ry="10" style="stroke:#181818;stroke-width:1.0;"/><ellipse cx="667.5" cy="413.5" fill="#181818" rx="6" ry="6" style="stroke:none;stroke-width:1.0;"/><!--link logged_in_instructor to create_course--><g id="link_logged_in_instructor_create_course"><path d="M557.129,35.822 C465.986,40.588 328.107,53.3 289,87 C277.072,97.279 271.517,113.888 268.969,128.459 " fill="none" id="logged_in_instructor-to-create_course" style="stroke:#181818;stroke-width:1.0;"/><polygon fill="#181818" points="268.16,133.719,273.4813,125.4314,268.9199,128.7771,265.5742,124.2157,268.16,133.719" style="stroke:#181818;stroke-width:1.0;"/></g><!--link logged_in_instructor to create_course--><g id="link_logged_in_instructor_create_course"><path d="M557.252,49.772 C515.991,59.011 465.815,71.715 422,87 C386.453,99.4 347.965,117.006 318.234,131.583 " fill="none" id="logged_in_instructor-to-create_course-1" style="stroke:#181818;stroke-width:1.0;"/><polygon fill="#181818" points="313.54,133.895,323.3813,133.5081,318.0258,131.6864,319.8475,126.3309,313.54,133.895" style="stroke:#181818;stroke-width:1.0;"/><text fill="#000000" font-family="sans-serif" font-size="13" lengthAdjust="spacing" textLength="91" x="423" y="100.0669">create_course</text></g><!--link logged_in_instructor to browse_courses--><g id="link_logged_in_instructor_browse_courses"><path d="M600.124,57.101 C564.05,78.371 511.547,109.329 474.224,131.335 " fill="none" id="logged_in_instructor-to-browse_courses" style="stroke:#181818;stroke-width:1.0;"/><polygon fill="#181818" points="469.75,133.973,479.5343,132.8468,474.0569,131.4332,475.4705,125.9558,469.75,133.973" style="stroke:#181818;stroke-width:1.0;"/></g><!--link logged_in_instructor to logout--><g id="link_logged_in_instructor_logout"><path d="M626.154,57.101 C613.371,77.853 594.908,107.824 581.427,129.709 " fill="none" id="logged_in_instructor-to-logout" style="stroke:#181818;stroke-width:1.0;"/><polygon fill="#181818" points="578.801,133.973,586.9261,128.4067,581.4227,129.7154,580.114,124.2121,578.801,133.973" style="stroke:#181818;stroke-width:1.0;"/></g><!--link logout to logged_out--><g id="link_logout_logged_out"><path d="M583.859,184.101 C601.03,204.939 625.861,235.074 643.913,256.982 " fill="none" id="logout-to-logged_out" style="stroke:#181818;stroke-width:1.0;"/><polygon fill="#181818" points="647.202,260.973,644.5649,251.4838,644.0221,257.1145,638.3913,256.5717,647.202,260.973" style="stroke:#181818;stroke-width:1.0;"/></g><!--link browsing_courses to view_course--><g id="link_browsing_courses_view_course"><path d="M1012.07,184.253 C992.021,214.468 956.17,267.429 923,311 C903.703,336.348 880.455,364.105 863.313,384.095 " fill="none" id="browsing_courses-to-view_course" style="stroke:#181818;stroke-width:1.0;"/><polygon fill="#181818" points="859.969,387.987,868.868,383.7671,863.2273,384.1945,862.7999,378.5538,859.969,387.987" style="stroke:#181818;stroke-width:1.0;"/></g><!--link viewing_course to enroll_course--><g id="link_viewing_course_enroll_course"><path d="M1214.01,302.435 C1253.52,312.416 1305.06,326.262 1350,341 C1390.75,354.365 1435.66,371.748 1470.79,385.969 " fill="none" id="viewing_course-to-enroll_course" style="stroke:#181818;stroke-width:1.0;"/><polygon fill="#181818" points="1475.47,387.864,1468.6421,380.7662,1470.8389,385.979,1465.6261,388.1759,1475.47,387.864" style="stroke:#181818;stroke-width:1.0;"/></g><!--link viewing_course to back_to_browse--><g id="link_viewing_course_back_to_browse"><path d="M1214.24,298.899 C1246.51,307.049 1285.01,320.248 1315,341 C1331.02,352.086 1344.83,368.954 1354.84,383.468 " fill="none" id="viewing_course-to-back_to_browse" style="stroke:#181818;stroke-width:1.0;"/><polygon fill="#181818" points="1357.82,387.887,1356.099,378.1897,1355.0221,383.7431,1349.4687,382.6662,1357.82,387.887" style="stroke:#181818;stroke-width:1.0;"/></g><!--link viewing_course to view_assignment--><g id="link_viewing_course_view_assignment"><path d="M1109.6,311.205 C1095.95,320.002 1080.91,330.4 1068,341 C1052.1,354.052 1035.88,370.285 1023.06,383.933 " fill="none" id="viewing_course-to-view_assignment" style="stroke:#181818;stroke-width:1.0;"/><polygon fill="#181818" points="1019.54,387.709,1028.604,383.8563,1022.9506,384.0528,1022.7541,378.3993,1019.54,387.709" style="stroke:#181818;stroke-width:1.0;"/></g><!--link enrolled_course to view_course--><g id="link_enrolled_course_view_course"><path d="M839,311.101 C839,331.593 839,361.076 839,382.884 " fill="none" id="enrolled_course-to-view_course" style="stroke:#181818;stroke-width:1.0;"/><polygon fill="#181818" points="839,387.973,843,378.973,839,382.973,835,378.973,839,387.973" style="stroke:#181818;stroke-width:1.0;"/></g><!--link enrolled_course to do_assignment--><g id="link_enrolled_course_do_assignment"><path d="M813.527,311.164 C785.245,341.067 746.264,393.487 768,438 C779.994,462.5625 802.894,482.0951 824.62,496.211 " fill="none" id="enrolled_course-to-do_assignment" style="stroke:#181818;stroke-width:1.0;"/><polygon fill="#181818" points="828.947,498.9619,823.4986,490.7573,824.7277,496.279,819.206,497.5082,828.947,498.9619" style="stroke:#181818;stroke-width:1.0;"/></g><!--link enrolled_course to view_assignment--><g id="link_enrolled_course_view_assignment"><path d="M869.657,311.101 C896.492,332.198 935.451,362.826 963.397,384.796 " fill="none" id="enrolled_course-to-view_assignment" style="stroke:#181818;stroke-width:1.0;"/><polygon fill="#181818" points="967.437,387.973,962.8344,379.2658,963.5064,384.8826,957.8897,385.5547,967.437,387.973" style="stroke:#181818;stroke-width:1.0;"/></g><!--link viewing_assignment to do_assignment--><g id="link_viewing_assignment_do_assignment"><path d="M1117.81,438.055 C1066.76,456.0633 997.197,480.6005 945.962,498.6734 " fill="none" id="viewing_assignment-to-do_assignment" style="stroke:#181818;stroke-width:1.0;"/><polygon fill="#181818" points="941.063,500.4018,950.881,501.1809,945.7784,498.7389,948.2204,493.6363,941.063,500.4018" style="stroke:#181818;stroke-width:1.0;"/></g><!--link viewing_assignment to back_to_course--><g id="link_viewing_assignment_back_to_course"><path d="M1186,438.191 C1186,454.5604 1186,476.2793 1186,493.6399 " fill="none" id="viewing_assignment-to-back_to_course" style="stroke:#181818;stroke-width:1.0;"/><polygon fill="#181818" points="1186,498.877,1190,489.877,1186,493.877,1182,489.877,1186,498.877" style="stroke:#181818;stroke-width:1.0;"/></g><!--link creating_course to create_course_confirm--><g id="link_creating_course_create_course_confirm"><path d="M310.575,311.101 C349.031,332.371 405.002,363.329 444.789,385.335 " fill="none" id="creating_course-to-create_course_confirm" style="stroke:#181818;stroke-width:1.0;"/><polygon fill="#181818" points="449.559,387.973,443.6191,380.1169,445.1836,385.5532,439.7474,387.1176,449.559,387.973" style="stroke:#181818;stroke-width:1.0;"/></g><!--link creating_course to back_to_home--><g id="link_creating_course_back_to_home"><path d="M229.016,311.101 C195.631,332.285 147.102,363.077 112.448,385.066 " fill="none" id="creating_course-to-back_to_home" style="stroke:#181818;stroke-width:1.0;"/><polygon fill="#181818" points="107.867,387.973,117.6096,386.5301,112.0892,385.2948,113.3245,379.7745,107.867,387.973" style="stroke:#181818;stroke-width:1.0;"/></g><!--link logged_out to logged_in_instructor--><g id="link_logged_out_logged_in_instructor"><path d="M664.515,260.91 C659.716,214.4 649.192,112.402 644.008,62.153 " fill="none" id="logged_out-to-logged_in_instructor" style="stroke:#181818;stroke-width:1.0;"/><polygon fill="#181818" points="643.493,57.163,640.4371,66.5258,644.0058,62.1366,648.3949,65.7053,643.493,57.163" style="stroke:#181818;stroke-width:1.0;"/><text fill="#000000" font-family="sans-serif" font-size="13" lengthAdjust="spacing" textLength="98" x="658" y="163.5669">login_instructor</text></g><!--link logged_in_instructor to logged_out--><g id="link_logged_in_instructor_logged_out"><path d="M687.763,57.056 C715.805,74.299 749.031,100.396 765,134 C786.72,179.705 741.76,228.001 705.78,257.326 " fill="none" id="logged_in_instructor-to-logged_out" style="stroke:#181818;stroke-width:1.0;"/><polygon fill="#181818" points="701.442,260.807,710.9652,258.2955,705.3422,257.6783,705.9593,252.0552,701.442,260.807" style="stroke:#181818;stroke-width:1.0;"/><text fill="#000000" font-family="sans-serif" font-size="13" lengthAdjust="spacing" textLength="40" x="772" y="163.5669">logout</text></g><!--link logged_in_instructor to browsing_courses--><g id="link_logged_in_instructor_browsing_courses"><path d="M724.569,49.996 C764.845,59.193 813.514,71.797 856,87 C872.66,92.961 875.769,96.954 892,104 C913.99,113.546 938.247,123.392 960.112,132.019 " fill="none" id="logged_in_instructor-to-browsing_courses" style="stroke:#181818;stroke-width:1.0;"/><polygon fill="#181818" points="965.03,133.955,958.1204,126.9366,960.3774,132.1237,955.1903,134.3807,965.03,133.955" style="stroke:#181818;stroke-width:1.0;"/><text fill="#000000" font-family="sans-serif" font-size="13" lengthAdjust="spacing" textLength="104" x="893" y="100.0669">browse_courses</text></g><!--link logged_in_instructor to browsing_courses--><g id="link_logged_in_instructor_browsing_courses"><path d="M724.605,35.809 C817.744,40.577 960.686,53.308 1002,87 C1014.61,97.286 1021.11,114.262 1024.45,129.036 " fill="none" id="logged_in_instructor-to-browsing_courses-1" style="stroke:#181818;stroke-width:1.0;"/><polygon fill="#181818" points="1025.47,133.949,1027.5627,124.325,1024.4565,129.0528,1019.7287,125.9466,1025.47,133.949" style="stroke:#181818;stroke-width:1.0;"/><text fill="#000000" font-family="sans-serif" font-size="13" lengthAdjust="spacing" textLength="94" x="1016" y="100.0669">back_to_home</text></g><!--link browsing_courses to viewing_course--><g id="link_browsing_courses_viewing_course"><path d="M1020.27,184.258 C1017.13,198.94 1016.05,217.391 1025,231 C1037.8,250.467 1059.26,262.949 1080.83,270.938 " fill="none" id="browsing_courses-to-viewing_course" style="stroke:#181818;stroke-width:1.0;"/><polygon fill="#181818" points="1085.72,272.675,1078.5936,265.8769,1081.0123,270.9906,1075.8986,273.4093,1085.72,272.675" style="stroke:#181818;stroke-width:1.0;"/><text fill="#000000" font-family="sans-serif" font-size="13" lengthAdjust="spacing" textLength="80" x="1026" y="227.0669">view_course</text></g><!--link viewing_course to browsing_courses--><g id="link_viewing_course_browsing_courses"><path d="M1140.3,260.74 C1133.6,246.058 1123.63,227.606 1111,214 C1101.52,203.788 1089.73,194.63 1078.03,186.881 " fill="none" id="viewing_course-to-browsing_courses" style="stroke:#181818;stroke-width:1.0;"/><polygon fill="#181818" points="1073.73,184.091,1079.0929,192.3517,1077.9212,186.8175,1083.4554,185.6458,1073.73,184.091" style="stroke:#181818;stroke-width:1.0;"/><text fill="#000000" font-family="sans-serif" font-size="13" lengthAdjust="spacing" textLength="104" x="1125" y="227.0669">back_to_browse</text></g><!--link viewing_course to viewing_assignment--><g id="link_viewing_course_viewing_assignment"><path d="M1172.45,311.265 C1179.11,319.989 1185.55,330.327 1189,341 C1193.29,354.265 1193.21,369.653 1191.78,382.705 " fill="none" id="viewing_course-to-viewing_assignment" style="stroke:#181818;stroke-width:1.0;"/><polygon fill="#181818" points="1191.14,387.769,1196.226,379.335,1191.7605,382.8077,1188.2879,378.3422,1191.14,387.769" style="stroke:#181818;stroke-width:1.0;"/><text fill="#000000" font-family="sans-serif" font-size="13" lengthAdjust="spacing" textLength="112" x="1194" y="354.0669">view_assignment</text></g><!--link viewing_assignment to viewing_course--><g id="link_viewing_assignment_viewing_course"><path d="M1111.26,387.869 C1098.42,380.338 1086.74,370.582 1079,358 C1068.98,341.714 1080.58,326.348 1097.12,314.104 " fill="none" id="viewing_assignment-to-viewing_course" style="stroke:#181818;stroke-width:1.0;"/><polygon fill="#181818" points="1101.42,311.059,1091.762,312.9887,1097.3374,313.9456,1096.3805,319.5209,1101.42,311.059" style="stroke:#181818;stroke-width:1.0;"/><text fill="#000000" font-family="sans-serif" font-size="13" lengthAdjust="spacing" textLength="100" x="1080" y="354.0669">back_to_course</text></g><!--link create_course to creating_course--><g id="link_create_course_creating_course"><path d="M267,184.101 C267,204.593 267,234.076 267,255.884 " fill="none" id="create_course-to-creating_course" style="stroke:#181818;stroke-width:1.0;"/><polygon fill="#181818" points="267,260.973,271,251.973,267,255.973,263,251.973,267,260.973" style="stroke:#181818;stroke-width:1.0;"/><text fill="#000000" font-family="sans-serif" font-size="13" lengthAdjust="spacing" textLength="91" x="268" y="227.0669">create_course</text></g><!--link creating_course to creating_course_confirm--><g id="link_creating_course_creating_course_confirm"><path d="M267,311.101 C267,331.593 267,361.076 267,382.884 " fill="none" id="creating_course-to-creating_course_confirm" style="stroke:#181818;stroke-width:1.0;"/><polygon fill="#181818" points="267,387.973,271,378.973,267,382.973,263,378.973,267,387.973" style="stroke:#181818;stroke-width:1.0;"/><text fill="#000000" font-family="sans-serif" font-size="13" lengthAdjust="spacing" textLength="49" x="268" y="354.0669">confirm</text></g><!--link logged_out to *end*--><g id="link_logged_out_*end*"><path d="M667,311.101 C667,336.76 667,376.517 667,397.65 " fill="none" id="logged_out-to-*end*" style="stroke:#181818;stroke-width:1.0;"/><polygon fill="#181818" points="667,402.846,671,393.846,667,397.846,663,393.846,667,402.846" style="stroke:#181818;stroke-width:1.0;"/></g><!--SRC=[bL913i8W4Bpp2iycVe237p6cgIqYiMKJeFfzOUjQeA2sQK9OXjbXTWQGKlIDqlwtpaoT0xCx78wxpeZMYQQ3oLZ1XXhiOk1f2MPP7UWFO788y2kL0XRB38cKbaI5Y8SIJvB0MDWj20G8RM0O2981_8SIs-xUE6XcgHKGTcgjLLAFGWT1CxNN5xMBzUJdRw8UOfeAQDsDL2t50bi1bBtnunMEBpCh6QbVz5MPSONC66ym1hvbLl7eqZ7pK4vAzJWaMlpDBN6BKy8t9P2Um2cErTH5Xl0qXeKKbbHz3LtS9Hec_pyOAurP0b9_FuudLrBFgubPQfIPSFUTdfBRFonP9mfxdVRd5m00]--></g></svg>