<?xml version="1.0" encoding="us-ascii" standalone="no"?><svg xmlns="http://www.w3.org/2000/svg" xmlns:xlink="http://www.w3.org/1999/xlink" contentStyleType="text/css" height="1016px" preserveAspectRatio="none" style="width:2556px;height:1016px;background:#FFFFFF;" version="1.1" viewBox="0 0 2556 1016" width="2556px" zoomAndPan="magnify"><defs/><g><ellipse cx="1507" cy="16" fill="#181818" rx="10" ry="10" style="stroke:none;stroke-width:1.0;"/><g id="logged_out"><rect fill="#F1F1F1" height="50" rx="12.5" ry="12.5" style="stroke:#181818;stroke-width:0.5;" width="100" x="1457" y="87"/><line style="stroke:#181818;stroke-width:0.5;" x1="1457" x2="1557" y1="113.2969" y2="113.2969"/><text fill="#000000" font-family="sans-serif" font-size="14" lengthAdjust="spacing" textLength="80" x="1467" y="104.9951">logged_out</text></g><g id="register"><rect fill="#F1F1F1" height="50" rx="12.5" ry="12.5" style="stroke:#181818;stroke-width:0.5;" width="77" x="1105.5" y="214"/><line style="stroke:#181818;stroke-width:0.5;" x1="1105.5" x2="1182.5" y1="240.2969" y2="240.2969"/><text fill="#000000" font-family="sans-serif" font-size="14" lengthAdjust="spacing" textLength="57" x="1115.5" y="231.9951">register</text></g><g id="login"><rect fill="#F1F1F1" height="50" rx="12.5" ry="12.5" style="stroke:#181818;stroke-width:0.5;" width="55" x="1208.5" y="341"/><line style="stroke:#181818;stroke-width:0.5;" x1="1208.5" x2="1263.5" y1="367.2969" y2="367.2969"/><text fill="#000000" font-family="sans-serif" font-size="14" lengthAdjust="spacing" textLength="35" x="1218.5" y="358.9951">login</text></g><g id="registered"><rect fill="#F1F1F1" height="50" rx="12.5" ry="12.5" style="stroke:#181818;stroke-width:0.5;" width="95" x="1289.5" y="214"/><line style="stroke:#181818;stroke-width:0.5;" x1="1289.5" x2="1384.5" y1="240.2969" y2="240.2969"/><text fill="#000000" font-family="sans-serif" font-size="14" lengthAdjust="spacing" textLength="75" x="1299.5" y="231.9951">registered</text></g><g id="logout"><rect fill="#F1F1F1" height="50" rx="12.5" ry="12.5" style="stroke:#181818;stroke-width:0.5;" width="66" x="2045" y="468"/><line style="stroke:#181818;stroke-width:0.5;" x1="2045" x2="2111" y1="494.2969" y2="494.2969"/><text fill="#000000" font-family="sans-serif" font-size="14" lengthAdjust="spacing" textLength="46" x="2055" y="485.9951">logout</text></g><g id="logged_in_premium_learner"><rect fill="#F1F1F1" height="50" rx="12.5" ry="12.5" style="stroke:#181818;stroke-width:0.5;" width="219" x="1298.5" y="341"/><line style="stroke:#181818;stroke-width:0.5;" x1="1298.5" x2="1517.5" y1="367.2969" y2="367.2969"/><text fill="#000000" font-family="sans-serif" font-size="14" lengthAdjust="spacing" textLength="199" x="1308.5" y="358.9951">logged_in_premium_learner</text></g><g id="browse_courses"><rect fill="#F1F1F1" height="50" rx="12.5" ry="12.5" style="stroke:#181818;stroke-width:0.5;" width="133" x="1397.5" y="468"/><line style="stroke:#181818;stroke-width:0.5;" x1="1397.5" x2="1530.5" y1="494.2969" y2="494.2969"/><text fill="#000000" font-family="sans-serif" font-size="14" lengthAdjust="spacing" textLength="113" x="1407.5" y="485.9951">browse_courses</text></g><g id="view_profile"><rect fill="#F1F1F1" height="50" rx="12.5" ry="12.5" style="stroke:#181818;stroke-width:0.5;" width="107" x="1565.5" y="468"/><line style="stroke:#181818;stroke-width:0.5;" x1="1565.5" x2="1672.5" y1="494.2969" y2="494.2969"/><text fill="#000000" font-family="sans-serif" font-size="14" lengthAdjust="spacing" textLength="87" x="1575.5" y="485.9951">view_profile</text></g><g id="enroll_course"><rect fill="#F1F1F1" height="50" rx="12.5" ry="12.5" style="stroke:#181818;stroke-width:0.5;" width="115" x="1628.5" y="722"/><line style="stroke:#181818;stroke-width:0.5;" x1="1628.5" x2="1743.5" y1="748.2969" y2="748.2969"/><text fill="#000000" font-family="sans-serif" font-size="14" lengthAdjust="spacing" textLength="95" x="1638.5" y="739.9951">enroll_course</text></g><g id="do_assignment"><rect fill="#F1F1F1" height="50" rx="12.5" ry="12.5" style="stroke:#181818;stroke-width:0.5;" width="128" x="1023" y="960"/><line style="stroke:#181818;stroke-width:0.5;" x1="1023" x2="1151" y1="986.2969" y2="986.2969"/><text fill="#000000" font-family="sans-serif" font-size="14" lengthAdjust="spacing" textLength="108" x="1033" y="977.9951">do_assignment</text></g><g id="create_community"><rect fill="#F1F1F1" height="50" rx="12.5" ry="12.5" style="stroke:#181818;stroke-width:0.5;" width="155" x="598.5" y="468"/><line style="stroke:#181818;stroke-width:0.5;" x1="598.5" x2="753.5" y1="494.2969" y2="494.2969"/><text fill="#000000" font-family="sans-serif" font-size="14" lengthAdjust="spacing" textLength="135" x="608.5" y="485.9951">create_community</text></g><g id="browse_community"><rect fill="#F1F1F1" height="50" rx="12.5" ry="12.5" style="stroke:#181818;stroke-width:0.5;" width="160" x="1202" y="468"/><line style="stroke:#181818;stroke-width:0.5;" x1="1202" x2="1362" y1="494.2969" y2="494.2969"/><text fill="#000000" font-family="sans-serif" font-size="14" lengthAdjust="spacing" textLength="140" x="1212" y="485.9951">browse_community</text></g><g id="browsing_courses"><rect fill="#F1F1F1" height="50" rx="12.5" ry="12.5" style="stroke:#181818;stroke-width:0.5;" width="146" x="1864" y="468"/><line style="stroke:#181818;stroke-width:0.5;" x1="1864" x2="2010" y1="494.2969" y2="494.2969"/><text fill="#000000" font-family="sans-serif" font-size="14" lengthAdjust="spacing" textLength="126" x="1874" y="485.9951">browsing_courses</text></g><g id="view_course"><rect fill="#F1F1F1" height="50" rx="12.5" ry="12.5" style="stroke:#181818;stroke-width:0.5;" width="106" x="2371" y="960"/><line style="stroke:#181818;stroke-width:0.5;" x1="2371" x2="2477" y1="986.2969" y2="986.2969"/><text fill="#000000" font-family="sans-serif" font-size="14" lengthAdjust="spacing" textLength="86" x="2381" y="977.9951">view_course</text></g><g id="viewing_course"><rect fill="#F1F1F1" height="50" rx="12.5" ry="12.5" style="stroke:#181818;stroke-width:0.5;" width="128" x="2009" y="595"/><line style="stroke:#181818;stroke-width:0.5;" x1="2009" x2="2137" y1="621.2969" y2="621.2969"/><text fill="#000000" font-family="sans-serif" font-size="14" lengthAdjust="spacing" textLength="108" x="2019" y="612.9951">viewing_course</text></g><g id="back_to_browse"><rect fill="#F1F1F1" height="50" rx="12.5" ry="12.5" style="stroke:#181818;stroke-width:0.5;" width="137" x="1978.5" y="722"/><line style="stroke:#181818;stroke-width:0.5;" x1="1978.5" x2="2115.5" y1="748.2969" y2="748.2969"/><text fill="#000000" font-family="sans-serif" font-size="14" lengthAdjust="spacing" textLength="117" x="1988.5" y="739.9951">back_to_browse</text></g><g id="view_assignment"><rect fill="#F1F1F1" height="50" rx="12.5" ry="12.5" style="stroke:#181818;stroke-width:0.5;" width="142" x="2153" y="960"/><line style="stroke:#181818;stroke-width:0.5;" x1="2153" x2="2295" y1="986.2969" y2="986.2969"/><text fill="#000000" font-family="sans-serif" font-size="14" lengthAdjust="spacing" textLength="122" x="2163" y="977.9951">view_assignment</text></g><g id="enrolled_course"><rect fill="#F1F1F1" height="50" rx="12.5" ry="12.5" style="stroke:#181818;stroke-width:0.5;" width="133" x="2052.5" y="849"/><line style="stroke:#181818;stroke-width:0.5;" x1="2052.5" x2="2185.5" y1="875.2969" y2="875.2969"/><text fill="#000000" font-family="sans-serif" font-size="14" lengthAdjust="spacing" textLength="113" x="2062.5" y="866.9951">enrolled_course</text></g><g id="viewing_assignment"><rect fill="#F1F1F1" height="50" rx="12.5" ry="12.5" style="stroke:#181818;stroke-width:0.5;" width="164" x="1779" y="722"/><line style="stroke:#181818;stroke-width:0.5;" x1="1779" x2="1943" y1="748.2969" y2="748.2969"/><text fill="#000000" font-family="sans-serif" font-size="14" lengthAdjust="spacing" textLength="144" x="1789" y="739.9951">viewing_assignment</text></g><g id="back_to_course"><rect fill="#F1F1F1" height="50" rx="12.5" ry="12.5" style="stroke:#181818;stroke-width:0.5;" width="132" x="1140" y="849"/><line style="stroke:#181818;stroke-width:0.5;" x1="1140" x2="1272" y1="875.2969" y2="875.2969"/><text fill="#000000" font-family="sans-serif" font-size="14" lengthAdjust="spacing" textLength="112" x="1150" y="866.9951">back_to_course</text></g><g id="join_community"><rect fill="#F1F1F1" height="50" rx="12.5" ry="12.5" style="stroke:#181818;stroke-width:0.5;" width="134" x="1479" y="595"/><line style="stroke:#181818;stroke-width:0.5;" x1="1479" x2="1613" y1="621.2969" y2="621.2969"/><text fill="#000000" font-family="sans-serif" font-size="14" lengthAdjust="spacing" textLength="114" x="1489" y="612.9951">join_community</text></g><g id="joining_community"><rect fill="#F1F1F1" height="50" rx="12.5" ry="12.5" style="stroke:#181818;stroke-width:0.5;" width="156" x="1288" y="595"/><line style="stroke:#181818;stroke-width:0.5;" x1="1288" x2="1444" y1="621.2969" y2="621.2969"/><text fill="#000000" font-family="sans-serif" font-size="14" lengthAdjust="spacing" textLength="136" x="1298" y="612.9951">joining_community</text></g><g id="creating_community"><rect fill="#F1F1F1" height="50" rx="12.5" ry="12.5" style="stroke:#181818;stroke-width:0.5;" width="168" x="734" y="595"/><line style="stroke:#181818;stroke-width:0.5;" x1="734" x2="902" y1="621.2969" y2="621.2969"/><text fill="#000000" font-family="sans-serif" font-size="14" lengthAdjust="spacing" textLength="148" x="744" y="612.9951">creating_community</text></g><g id="create_community_confirm"><rect fill="#F1F1F1" height="50" rx="12.5" ry="12.5" style="stroke:#181818;stroke-width:0.5;" width="218" x="709" y="722"/><line style="stroke:#181818;stroke-width:0.5;" x1="709" x2="927" y1="748.2969" y2="748.2969"/><text fill="#000000" font-family="sans-serif" font-size="14" lengthAdjust="spacing" textLength="198" x="719" y="739.9951">create_community_confirm</text></g><g id="back_to_home"><rect fill="#F1F1F1" height="50" rx="12.5" ry="12.5" style="stroke:#181818;stroke-width:0.5;" width="126" x="548" y="722"/><line style="stroke:#181818;stroke-width:0.5;" x1="548" x2="674" y1="748.2969" y2="748.2969"/><text fill="#000000" font-family="sans-serif" font-size="14" lengthAdjust="spacing" textLength="106" x="558" y="739.9951">back_to_home</text></g><g id="creating_community_confirm"><rect fill="#F1F1F1" height="50" rx="12.5" ry="12.5" style="stroke:#181818;stroke-width:0.5;" width="231" x="962.5" y="722"/><line style="stroke:#181818;stroke-width:0.5;" x1="962.5" x2="1193.5" y1="748.2969" y2="748.2969"/><text fill="#000000" font-family="sans-serif" font-size="14" lengthAdjust="spacing" textLength="211" x="972.5" y="739.9951">creating_community_confirm</text></g><g id="viewing_profile"><rect fill="#F1F1F1" height="50" rx="12.5" ry="12.5" style="stroke:#181818;stroke-width:0.5;" width="129" x="416.5" y="468"/><line style="stroke:#181818;stroke-width:0.5;" x1="416.5" x2="545.5" y1="494.2969" y2="494.2969"/><text fill="#000000" font-family="sans-serif" font-size="14" lengthAdjust="spacing" textLength="109" x="426.5" y="485.9951">viewing_profile</text></g><g id="edit_profile"><rect fill="#F1F1F1" height="50" rx="12.5" ry="12.5" style="stroke:#181818;stroke-width:0.5;" width="104" x="405" y="595"/><line style="stroke:#181818;stroke-width:0.5;" x1="405" x2="509" y1="621.2969" y2="621.2969"/><text fill="#000000" font-family="sans-serif" font-size="14" lengthAdjust="spacing" textLength="84" x="415" y="612.9951">edit_profile</text></g><g id="editing_profile"><rect fill="#F1F1F1" height="50" rx="12.5" ry="12.5" style="stroke:#181818;stroke-width:0.5;" width="126" x="229" y="595"/><line style="stroke:#181818;stroke-width:0.5;" x1="229" x2="355" y1="621.2969" y2="621.2969"/><text fill="#000000" font-family="sans-serif" font-size="14" lengthAdjust="spacing" textLength="106" x="239" y="612.9951">editing_profile</text></g><g id="save_changes"><rect fill="#F1F1F1" height="50" rx="12.5" ry="12.5" style="stroke:#181818;stroke-width:0.5;" width="118" x="226" y="722"/><line style="stroke:#181818;stroke-width:0.5;" x1="226" x2="344" y1="748.2969" y2="748.2969"/><text fill="#000000" font-family="sans-serif" font-size="14" lengthAdjust="spacing" textLength="98" x="236" y="739.9951">save_changes</text></g><g id="back_to_profile"><rect fill="#F1F1F1" height="50" rx="12.5" ry="12.5" style="stroke:#181818;stroke-width:0.5;" width="133" x="379.5" y="722"/><line style="stroke:#181818;stroke-width:0.5;" x1="379.5" x2="512.5" y1="748.2969" y2="748.2969"/><text fill="#000000" font-family="sans-serif" font-size="14" lengthAdjust="spacing" textLength="113" x="389.5" y="739.9951">back_to_profile</text></g><g id="saving_changes"><rect fill="#F1F1F1" height="50" rx="12.5" ry="12.5" style="stroke:#181818;stroke-width:0.5;" width="131" x="59.5" y="722"/><line style="stroke:#181818;stroke-width:0.5;" x1="59.5" x2="190.5" y1="748.2969" y2="748.2969"/><text fill="#000000" font-family="sans-serif" font-size="14" lengthAdjust="spacing" textLength="111" x="69.5" y="739.9951">saving_changes</text></g><g id="logged"><rect fill="#F1F1F1" height="50" rx="12.5" ry="12.5" style="stroke:#181818;stroke-width:0.5;" width="69" x="615.5" y="595"/><line style="stroke:#181818;stroke-width:0.5;" x1="615.5" x2="684.5" y1="621.2969" y2="621.2969"/><text fill="#000000" font-family="sans-serif" font-size="14" lengthAdjust="spacing" textLength="49" x="625.5" y="612.9951">logged</text></g><ellipse cx="2088" cy="239" fill="none" rx="10" ry="10" style="stroke:#181818;stroke-width:1.0;"/><ellipse cx="2088.5" cy="239.5" fill="#181818" rx="6" ry="6" style="stroke:none;stroke-width:1.0;"/><!--link *start* to logged_out--><g id="link_*start*_logged_out"><path d="M1507,26.013 C1507,38.698 1507,62.409 1507,81.57 " fill="none" id="*start*-to-logged_out" style="stroke:#181818;stroke-width:1.0;"/><polygon fill="#181818" points="1507,86.84,1511,77.84,1507,81.84,1503,77.84,1507,86.84" style="stroke:#181818;stroke-width:1.0;"/></g><!--link logged_out to register--><g id="link_logged_out_register"><path d="M1456.78,112.667 C1395.03,114.301 1288.72,123.904 1210,167 C1191.38,177.194 1175.08,194.58 1163.34,209.596 " fill="none" id="logged_out-to-register" style="stroke:#181818;stroke-width:1.0;"/><polygon fill="#181818" points="1160.16,213.76,1168.8149,209.0598,1163.2061,209.795,1162.4709,204.1861,1160.16,213.76" style="stroke:#181818;stroke-width:1.0;"/></g><!--link logged_out to login--><g id="link_logged_out_login"><path d="M1456.91,120.96 C1403.16,132.183 1319.17,157.933 1272,214 C1242.93,248.549 1236.49,302.55 1235.51,335.745 " fill="none" id="logged_out-to-login" style="stroke:#181818;stroke-width:1.0;"/><polygon fill="#181818" points="1235.4,340.888,1239.597,331.9782,1235.51,335.8892,1231.5989,331.8022,1235.4,340.888" style="stroke:#181818;stroke-width:1.0;"/></g><!--link registered to login--><g id="link_registered_login"><path d="M1317.53,264.101 C1300.69,284.939 1276.34,315.074 1258.64,336.982 " fill="none" id="registered-to-login" style="stroke:#181818;stroke-width:1.0;"/><polygon fill="#181818" points="1255.41,340.973,1264.1789,336.4889,1258.5535,337.0847,1257.9577,331.4594,1255.41,340.973" style="stroke:#181818;stroke-width:1.0;"/></g><!--link logout to logged_out--><g id="link_logout_logged_out"><path d="M2054.08,467.827 C2039.7,453.691 2020.79,435.778 2003,421 C1882.57,320.977 1852.49,294.127 1718,214 C1667,183.616 1605.45,155.001 1562.02,136.041 " fill="none" id="logout-to-logged_out" style="stroke:#181818;stroke-width:1.0;"/><polygon fill="#181818" points="1557.35,134.007,1564.0195,141.2539,1561.9383,135.9938,1567.1984,133.9127,1557.35,134.007" style="stroke:#181818;stroke-width:1.0;"/></g><!--link logged_in_premium_learner to browse_courses--><g id="link_logged_in_premium_learner_browse_courses"><path d="M1418.8,391.101 C1428.02,411.68 1441.3,441.325 1451.08,463.16 " fill="none" id="logged_in_premium_learner-to-browse_courses" style="stroke:#181818;stroke-width:1.0;"/><polygon fill="#181818" points="1453.24,467.973,1453.2175,458.1242,1451.1989,463.4086,1445.9144,461.39,1453.24,467.973" style="stroke:#181818;stroke-width:1.0;"/></g><!--link logged_in_premium_learner to view_profile--><g id="link_logged_in_premium_learner_view_profile"><path d="M1448.68,391.101 C1484.59,412.371 1536.84,443.329 1573.99,465.335 " fill="none" id="logged_in_premium_learner-to-view_profile" style="stroke:#181818;stroke-width:1.0;"/><polygon fill="#181818" points="1578.44,467.973,1572.7281,459.9496,1574.1359,465.4285,1568.657,466.8363,1578.44,467.973" style="stroke:#181818;stroke-width:1.0;"/></g><!--link logged_in_premium_learner to enroll_course--><g id="link_logged_in_premium_learner_enroll_course"><path d="M1517.77,376.209 C1579.25,387.637 1651.16,412.828 1690,468 C1743.41,543.858 1714.37,662.51 1696.57,716.941 " fill="none" id="logged_in_premium_learner-to-enroll_course" style="stroke:#181818;stroke-width:1.0;"/><polygon fill="#181818" points="1695,721.69,1701.6335,714.4102,1696.5764,716.945,1694.0416,711.8879,1695,721.69" style="stroke:#181818;stroke-width:1.0;"/></g><!--link logged_in_premium_learner to do_assignment--><g id="link_logged_in_premium_learner_do_assignment"><path d="M1298.35,388.728 C1292.5,389.574 1286.68,390.34 1281,391 C1139.84,407.386 6,349.89 6,492 C6,492 6,492 6,875 C6,977.0478 778.456,984.4571 1017.41,984.3077 " fill="none" id="logged_in_premium_learner-to-do_assignment" style="stroke:#181818;stroke-width:1.0;"/><polygon fill="#181818" points="1022.62,984.3032,1013.6086,980.3289,1017.62,984.3175,1013.6315,988.3289,1022.62,984.3032" style="stroke:#181818;stroke-width:1.0;"/></g><!--link logged_in_premium_learner to create_community--><g id="link_logged_in_premium_learner_create_community"><path d="M1298.34,388.606 C1292.48,389.483 1286.68,390.29 1281,391 C1067.58,417.688 1003.818,358.562 798,421 C766.872,430.443 735.224,449.182 711.965,465.038 " fill="none" id="logged_in_premium_learner-to-create_community" style="stroke:#181818;stroke-width:1.0;"/><polygon fill="#181818" points="707.721,467.962,717.4015,466.1489,711.8381,465.1249,712.8621,459.5615,707.721,467.962" style="stroke:#181818;stroke-width:1.0;"/></g><!--link logged_in_premium_learner to browse_community--><g id="link_logged_in_premium_learner_browse_community"><path d="M1383.71,391.101 C1362.61,412.025 1332.07,442.324 1309.97,464.254 " fill="none" id="logged_in_premium_learner-to-browse_community" style="stroke:#181818;stroke-width:1.0;"/><polygon fill="#181818" points="1306.22,467.973,1315.4301,464.484,1309.7734,464.4554,1309.802,458.7986,1306.22,467.973" style="stroke:#181818;stroke-width:1.0;"/></g><!--link logged_in_premium_learner to logout--><g id="link_logged_in_premium_learner_logout"><path d="M1517.57,371.853 C1654.99,378.947 1882.28,394.298 1962,421 C1991.39,430.843 2021.13,449.256 2043.14,464.864 " fill="none" id="logged_in_premium_learner-to-logout" style="stroke:#181818;stroke-width:1.0;"/><polygon fill="#181818" points="2047.44,467.945,2042.4583,459.449,2043.3771,465.0307,2037.7954,465.9496,2047.44,467.945" style="stroke:#181818;stroke-width:1.0;"/></g><!--link browsing_courses to view_course--><g id="link_browsing_courses_view_course"><path d="M2010.08,513.943 C2015.79,515.363 2021.48,516.732 2027,518 C2142.15,544.46 2549,500.849 2549,619 C2549,619 2549,619 2549,875 C2549,913.8541 2514.27,942.0327 2481.42,959.9946 " fill="none" id="browsing_courses-to-view_course" style="stroke:#181818;stroke-width:1.0;"/><polygon fill="#181818" points="2477.01,962.3522,2486.8328,961.6367,2481.4195,959.995,2483.0613,954.5816,2477.01,962.3522" style="stroke:#181818;stroke-width:1.0;"/></g><!--link viewing_course to enroll_course--><g id="link_viewing_course_enroll_course"><path d="M2008.9,632.703 C1962.47,642 1898.54,656.503 1844,675 C1807.64,687.331 1768.25,705.021 1737.89,719.658 " fill="none" id="viewing_course-to-enroll_course" style="stroke:#181818;stroke-width:1.0;"/><polygon fill="#181818" points="1733.1,721.98,1742.9432,721.6459,1737.5975,719.7955,1739.448,714.4498,1733.1,721.98" style="stroke:#181818;stroke-width:1.0;"/></g><!--link viewing_course to back_to_browse--><g id="link_viewing_course_back_to_browse"><path d="M2106.35,645.236 C2120.3,658.488 2131.51,675.522 2123,692 C2117.54,702.571 2108.95,711.524 2099.48,718.915 " fill="none" id="viewing_course-to-back_to_browse" style="stroke:#181818;stroke-width:1.0;"/><polygon fill="#181818" points="2095.38,721.988,2104.9811,719.7929,2099.3815,718.9901,2100.1844,713.3905,2095.38,721.988" style="stroke:#181818;stroke-width:1.0;"/></g><!--link viewing_course to view_assignment--><g id="link_viewing_course_view_assignment"><path d="M2137.3,622.187 C2206.84,627.411 2314.15,647.872 2362,722 C2414.68,803.621 2314.4,907.498 2258.27,956.3035 " fill="none" id="viewing_course-to-view_assignment" style="stroke:#181818;stroke-width:1.0;"/><polygon fill="#181818" points="2254.31,959.7213,2263.7352,956.8638,2258.0933,956.4523,2258.5048,950.8104,2254.31,959.7213" style="stroke:#181818;stroke-width:1.0;"/></g><!--link enrolled_course to view_course--><g id="link_enrolled_course_view_course"><path d="M2185.56,898.786 C2239.38,918.0224 2314.42,944.839 2365.86,963.2223 " fill="none" id="enrolled_course-to-view_course" style="stroke:#181818;stroke-width:1.0;"/><polygon fill="#181818" points="2370.76,964.9745,2363.6167,958.1942,2366.0481,963.3018,2360.9404,965.7332,2370.76,964.9745" style="stroke:#181818;stroke-width:1.0;"/></g><!--link enrolled_course to do_assignment--><g id="link_enrolled_course_do_assignment"><path d="M2052.48,882.026 C1867,901.617 1345.31,956.7169 1156.4,976.6699 " fill="none" id="enrolled_course-to-do_assignment" style="stroke:#181818;stroke-width:1.0;"/><polygon fill="#181818" points="1151.18,977.2211,1160.5524,980.2473,1156.152,976.6926,1159.7067,972.2921,1151.18,977.2211" style="stroke:#181818;stroke-width:1.0;"/></g><!--link enrolled_course to view_assignment--><g id="link_enrolled_course_view_assignment"><path d="M2142.3,899.191 C2158.48,915.9837 2180.08,938.4063 2197.01,955.9779 " fill="none" id="enrolled_course-to-view_assignment" style="stroke:#181818;stroke-width:1.0;"/><polygon fill="#181818" points="2200.76,959.877,2197.3956,950.6206,2197.2907,956.2765,2191.6348,956.1716,2200.76,959.877" style="stroke:#181818;stroke-width:1.0;"/></g><!--link viewing_assignment to do_assignment--><g id="link_viewing_assignment_do_assignment"><path d="M1778.76,768.535 C1772.76,769.786 1766.8,770.958 1761,772 C1620.23,797.287 1229.67,754.849 1122,849 C1092.02,875.216 1086.12,923.4754 1085.73,954.6289 " fill="none" id="viewing_assignment-to-do_assignment" style="stroke:#181818;stroke-width:1.0;"/><polygon fill="#181818" points="1085.71,959.8564,1089.7375,950.8687,1085.7253,954.8564,1081.7375,950.8442,1085.71,959.8564" style="stroke:#181818;stroke-width:1.0;"/></g><!--link viewing_assignment to back_to_course--><g id="link_viewing_assignment_back_to_course"><path d="M1778.95,768.079 C1772.89,769.444 1766.85,770.766 1761,772 C1587.9,808.493 1382.76,843.772 1276.98,861.381 " fill="none" id="viewing_assignment-to-back_to_course" style="stroke:#181818;stroke-width:1.0;"/><polygon fill="#181818" points="1272.02,862.207,1281.5583,864.6609,1276.9509,861.3788,1280.2331,856.7714,1272.02,862.207" style="stroke:#181818;stroke-width:1.0;"/></g><!--link browse_community to join_community--><g id="link_browse_community_join_community"><path d="M1332.9,518.101 C1378.1,539.501 1444,570.707 1490.53,592.736 " fill="none" id="browse_community-to-join_community" style="stroke:#181818;stroke-width:1.0;"/><polygon fill="#181818" points="1495.25,594.973,1488.8119,587.5198,1490.7265,592.8428,1485.4035,594.7574,1495.25,594.973" style="stroke:#181818;stroke-width:1.0;"/></g><!--link browse_community to joining_community--><g id="link_browse_community_joining_community"><path d="M1298.2,518.101 C1312.14,538.853 1332.28,568.824 1346.99,590.709 " fill="none" id="browse_community-to-joining_community" style="stroke:#181818;stroke-width:1.0;"/><polygon fill="#181818" points="1349.85,594.973,1348.1582,585.2705,1347.0647,590.8207,1341.5145,589.7271,1349.85,594.973" style="stroke:#181818;stroke-width:1.0;"/></g><!--link creating_community to create_community_confirm--><g id="link_creating_community_create_community_confirm"><path d="M818,645.101 C818,665.593 818,695.076 818,716.884 " fill="none" id="creating_community-to-create_community_confirm" style="stroke:#181818;stroke-width:1.0;"/><polygon fill="#181818" points="818,721.973,822,712.973,818,716.973,814,712.973,818,721.973" style="stroke:#181818;stroke-width:1.0;"/></g><!--link creating_community to back_to_home--><g id="link_creating_community_back_to_home"><path d="M778.088,645.101 C742.865,666.371 691.6,697.329 655.158,719.335 " fill="none" id="creating_community-to-back_to_home" style="stroke:#181818;stroke-width:1.0;"/><polygon fill="#181818" points="650.789,721.973,660.561,720.7452,655.0693,719.3886,656.4259,713.8968,650.789,721.973" style="stroke:#181818;stroke-width:1.0;"/></g><!--link creating_community_confirm to logged_in_premium_learner--><g id="link_creating_community_confirm_logged_in_premium_learner"><path d="M1072.9,721.639 C1061.88,661.577 1042.9,505.182 1123,421 C1123.1,420.897 1213.98,403.687 1293.08,388.726 " fill="none" id="creating_community_confirm-to-logged_in_premium_learner" style="stroke:#181818;stroke-width:1.0;"/><polygon fill="#181818" points="1298.27,387.744,1288.6774,385.512,1293.3596,388.6864,1290.1852,393.3686,1298.27,387.744" style="stroke:#181818;stroke-width:1.0;"/></g><!--link creating_community_confirm to logged_in_premium_learner--><g id="link_creating_community_confirm_logged_in_premium_learner"><path d="M1046.41,721.937 C1002.805,685.579 932.676,613.878 962,548 C979.149,509.475 1065.03,439.346 1103,421 C1175.24,386.098 1202.02,405.116 1281,391 C1284.96,390.292 1288.99,389.566 1293.06,388.827 " fill="none" id="creating_community_confirm-to-logged_in_premium_learner-1" style="stroke:#181818;stroke-width:1.0;"/><polygon fill="#181818" points="1298.23,387.884,1288.6636,385.5423,1293.3091,388.7701,1290.0814,393.4157,1298.23,387.884" style="stroke:#181818;stroke-width:1.0;"/><text fill="#000000" font-family="sans-serif" font-size="13" lengthAdjust="spacing" textLength="94" x="963" y="561.0669">back_to_home</text></g><!--link viewing_profile to edit_profile--><g id="link_viewing_profile_edit_profile"><path d="M476.373,518.101 C472.438,538.593 466.777,568.076 462.59,589.884 " fill="none" id="viewing_profile-to-edit_profile" style="stroke:#181818;stroke-width:1.0;"/><polygon fill="#181818" points="461.613,594.973,467.238,586.8885,462.5556,590.0627,459.3815,585.3803,461.613,594.973" style="stroke:#181818;stroke-width:1.0;"/></g><!--link viewing_profile to back_to_home--><g id="link_viewing_profile_back_to_home"><path d="M493.465,518.163 C517.537,564.825 570.32,667.144 596.158,717.23 " fill="none" id="viewing_profile-to-back_to_home" style="stroke:#181818;stroke-width:1.0;"/><polygon fill="#181818" points="598.573,721.91,598.0014,712.0777,596.2805,717.4665,590.8918,715.7457,598.573,721.91" style="stroke:#181818;stroke-width:1.0;"/></g><!--link editing_profile to save_changes--><g id="link_editing_profile_save_changes"><path d="M290.65,645.101 C289.503,665.593 287.852,695.076 286.63,716.884 " fill="none" id="editing_profile-to-save_changes" style="stroke:#181818;stroke-width:1.0;"/><polygon fill="#181818" points="286.346,721.973,290.8413,713.2099,286.6246,716.9808,282.8537,712.7641,286.346,721.973" style="stroke:#181818;stroke-width:1.0;"/></g><!--link editing_profile to back_to_profile--><g id="link_editing_profile_back_to_profile"><path d="M321.693,645.101 C347.684,666.198 385.417,696.826 412.485,718.796 " fill="none" id="editing_profile-to-back_to_profile" style="stroke:#181818;stroke-width:1.0;"/><polygon fill="#181818" points="416.398,721.973,411.9323,713.1948,412.5163,718.8214,406.8897,719.4054,416.398,721.973" style="stroke:#181818;stroke-width:1.0;"/></g><!--link saving_changes to viewing_profile--><g id="link_saving_changes_viewing_profile"><path d="M132.036,721.775 C145.83,678.97 180.738,590.48 244,548 C293.706,514.623 361.111,501.656 411.33,496.727 " fill="none" id="saving_changes-to-viewing_profile" style="stroke:#181818;stroke-width:1.0;"/><polygon fill="#181818" points="416.442,496.247,407.1077,493.1053,411.4639,496.7141,407.855,501.0703,416.442,496.247" style="stroke:#181818;stroke-width:1.0;"/></g><!--link logged_out to registered--><g id="link_logged_out_registered"><path d="M1471.91,137.166 C1458.69,146.386 1443.57,157.067 1430,167 C1410.81,181.046 1389.72,197.095 1372.48,210.377 " fill="none" id="logged_out-to-registered" style="stroke:#181818;stroke-width:1.0;"/><polygon fill="#181818" points="1368.19,213.691,1377.7633,211.3774,1372.1542,210.6438,1372.8878,205.0347,1368.19,213.691" style="stroke:#181818;stroke-width:1.0;"/><text fill="#000000" font-family="sans-serif" font-size="13" lengthAdjust="spacing" textLength="49" x="1431" y="180.0669">register</text></g><!--link logged_out to logged_in_premium_learner--><g id="link_logged_out_logged_in_premium_learner"><path d="M1522.91,137.107 C1534.93,156.849 1550.45,185.995 1557,214 C1562.06,235.638 1562.2,242.394 1557,264 C1551.51,286.804 1550.11,294.957 1533,311 C1520.97,322.283 1506.21,331.428 1491.1,338.761 " fill="none" id="logged_out-to-logged_in_premium_learner" style="stroke:#181818;stroke-width:1.0;"/><polygon fill="#181818" points="1486.4,340.979,1496.2459,340.7392,1490.9183,338.8376,1492.8198,333.51,1486.4,340.979" style="stroke:#181818;stroke-width:1.0;"/><text fill="#000000" font-family="sans-serif" font-size="13" lengthAdjust="spacing" textLength="147" x="1562" y="243.5669">login_premium_learner</text></g><!--link logged_in_premium_learner to logged_out--><g id="link_logged_in_premium_learner_logged_out"><path d="M1455.7,340.888 C1467.06,332.904 1477.92,322.94 1485,311 C1501.5,283.152 1505.63,190.175 1506.66,142.197 " fill="none" id="logged_in_premium_learner-to-logged_out" style="stroke:#181818;stroke-width:1.0;"/><polygon fill="#181818" points="1506.76,137.137,1502.5808,146.0552,1506.66,142.136,1510.5792,146.2152,1506.76,137.137" style="stroke:#181818;stroke-width:1.0;"/><text fill="#000000" font-family="sans-serif" font-size="13" lengthAdjust="spacing" textLength="40" x="1505" y="243.5669">logout</text></g><!--link registered to logged_in_premium_learner--><g id="link_registered_logged_in_premium_learner"><path d="M1329.2,264.294 C1326.04,278.64 1324.63,296.726 1332,311 C1337.46,321.571 1346.05,330.524 1355.52,337.915 " fill="none" id="registered-to-logged_in_premium_learner" style="stroke:#181818;stroke-width:1.0;"/><polygon fill="#181818" points="1359.62,340.988,1354.8156,332.3905,1355.6185,337.9901,1350.0189,338.7929,1359.62,340.988" style="stroke:#181818;stroke-width:1.0;"/><text fill="#000000" font-family="sans-serif" font-size="13" lengthAdjust="spacing" textLength="147" x="1333" y="307.0669">login_premium_learner</text></g><!--link logged_in_premium_learner to browsing_courses--><g id="link_logged_in_premium_learner_browsing_courses"><path d="M1517.64,369.731 C1601.36,374.601 1718.53,387.493 1816,421 C1832.18,426.562 1867.04,447.401 1895.21,465.075 " fill="none" id="logged_in_premium_learner-to-browsing_courses" style="stroke:#181818;stroke-width:1.0;"/><polygon fill="#181818" points="1899.67,467.881,1894.1951,459.6941,1895.4421,465.2118,1889.9244,466.4588,1899.67,467.881" style="stroke:#181818;stroke-width:1.0;"/><text fill="#000000" font-family="sans-serif" font-size="13" lengthAdjust="spacing" textLength="104" x="1850" y="434.0669">browse_courses</text></g><!--link logged_in_premium_learner to viewing_profile--><g id="link_logged_in_premium_learner_viewing_profile"><path d="M1298.35,388.695 C1292.49,389.549 1286.68,390.326 1281,391 C1011.89,422.903 937.454,366.482 672,421 C625.238,430.604 574.705,449.81 537.369,465.828 " fill="none" id="logged_in_premium_learner-to-viewing_profile" style="stroke:#181818;stroke-width:1.0;"/><polygon fill="#181818" points="532.421,467.965,542.2693,468.069,537.0112,465.9827,539.0976,460.7246,532.421,467.965" style="stroke:#181818;stroke-width:1.0;"/><text fill="#000000" font-family="sans-serif" font-size="13" lengthAdjust="spacing" textLength="77" x="673" y="434.0669">view_profile</text></g><!--link logged_in_premium_learner to enrolled_course--><g id="link_logged_in_premium_learner_enrolled_course"><path d="M1298.41,389.419 C1255.19,404.18 1209.79,428.418 1184,468 C1141.05,533.909 1135.95,581.956 1183,645 C1287.61,785.164 1846.02,848.485 2046.93,866.969 " fill="none" id="logged_in_premium_learner-to-enrolled_course" style="stroke:#181818;stroke-width:1.0;"/><polygon fill="#181818" points="2052.19,867.45,2043.5933,862.644,2047.2109,866.9929,2042.862,870.6106,2052.19,867.45" style="stroke:#181818;stroke-width:1.0;"/><text fill="#000000" font-family="sans-serif" font-size="13" lengthAdjust="spacing" textLength="85" x="1184" y="624.5669">enroll_course</text></g><!--link logged_in_premium_learner to viewing_assignment--><g id="link_logged_in_premium_learner_viewing_assignment"><path d="M1517.71,374.991 C1568.65,382.124 1628.71,395.594 1678,421 C1705.11,434.974 1710,443.379 1728,468 C1788.11,550.219 1832.36,663.877 1851.11,716.758 " fill="none" id="logged_in_premium_learner-to-viewing_assignment" style="stroke:#181818;stroke-width:1.0;"/><polygon fill="#181818" points="1852.84,721.682,1853.6237,711.8644,1851.1793,716.9658,1846.0779,714.5214,1852.84,721.682" style="stroke:#181818;stroke-width:1.0;"/><text fill="#000000" font-family="sans-serif" font-size="13" lengthAdjust="spacing" textLength="112" x="1787" y="561.0669">view_assignment</text></g><!--link logged_in_premium_learner to creating_community--><g id="link_logged_in_premium_learner_creating_community"><path d="M1298.31,388.362 C1292.46,389.303 1286.66,390.19 1281,391 C1184.9,404.747 914.313,394.412 851,468 C821.679,502.079 816.602,556.225 816.595,589.577 " fill="none" id="logged_in_premium_learner-to-creating_community" style="stroke:#181818;stroke-width:1.0;"/><polygon fill="#181818" points="816.634,594.745,820.567,585.7155,816.5969,589.7451,812.5673,585.775,816.634,594.745" style="stroke:#181818;stroke-width:1.0;"/><text fill="#000000" font-family="sans-serif" font-size="13" lengthAdjust="spacing" textLength="121" x="852" y="497.5669">create_community</text></g><!--link browsing_courses to viewing_course--><g id="link_browsing_courses_viewing_course"><path d="M1935.15,518.333 C1935.28,533.226 1937.85,551.878 1948,565 C1961.92,582.993 1983.03,595.089 2003.97,603.179 " fill="none" id="browsing_courses-to-viewing_course" style="stroke:#181818;stroke-width:1.0;"/><polygon fill="#181818" points="2008.71,604.946,2001.6875,598.0406,2004.0284,603.1904,1998.8785,605.5312,2008.71,604.946" style="stroke:#181818;stroke-width:1.0;"/><text fill="#000000" font-family="sans-serif" font-size="13" lengthAdjust="spacing" textLength="80" x="1949" y="561.0669">view_course</text></g><!--link viewing_course to browsing_courses--><g id="link_viewing_course_browsing_courses"><path d="M2063.78,594.765 C2057.2,579.909 2047.19,561.264 2034,548 C2023.44,537.378 2010.35,528.229 1997.24,520.637 " fill="none" id="viewing_course-to-browsing_courses" style="stroke:#181818;stroke-width:1.0;"/><polygon fill="#181818" points="1992.8,518.123,1998.6701,526.0314,1997.1538,520.5815,2002.6037,519.0652,1992.8,518.123" style="stroke:#181818;stroke-width:1.0;"/><text fill="#000000" font-family="sans-serif" font-size="13" lengthAdjust="spacing" textLength="104" x="2048" y="561.0669">back_to_browse</text></g><!--link viewing_course to enrolled_course--><g id="link_viewing_course_enrolled_course"><path d="M2122.4,645.18 C2133.45,653.074 2143.75,662.977 2150,675 C2159.86,693.953 2218.86,546.361 2148,819 C2145.78,827.529 2141.97,836.191 2137.82,844.007 " fill="none" id="viewing_course-to-enrolled_course" style="stroke:#181818;stroke-width:1.0;"/><polygon fill="#181818" points="2135.2,848.755,2143.0429,842.7977,2137.6101,844.3742,2136.0336,838.9415,2135.2,848.755" style="stroke:#181818;stroke-width:1.0;"/><text fill="#000000" font-family="sans-serif" font-size="13" lengthAdjust="spacing" textLength="85" x="2172" y="751.5669">enroll_course</text></g><!--link enrolled_course to viewing_course--><g id="link_enrolled_course_viewing_course"><path d="M2173.57,848.852 C2226.55,821.703 2295.06,774.497 2266,722 C2240.73,676.348 2186.64,650.567 2142.13,636.498 " fill="none" id="enrolled_course-to-viewing_course" style="stroke:#181818;stroke-width:1.0;"/><polygon fill="#181818" points="2137.31,635.007,2144.7332,641.4797,2142.0883,636.4792,2147.0888,633.8344,2137.31,635.007" style="stroke:#181818;stroke-width:1.0;"/><text fill="#000000" font-family="sans-serif" font-size="13" lengthAdjust="spacing" textLength="80" x="2273" y="751.5669">view_course</text></g><!--link viewing_course to viewing_assignment--><g id="link_viewing_course_viewing_assignment"><path d="M2040.03,645.203 C2019.94,659.516 1993.5,677.6 1969,692 C1952.56,701.66 1934.17,711.272 1917.29,719.651 " fill="none" id="viewing_course-to-viewing_assignment" style="stroke:#181818;stroke-width:1.0;"/><polygon fill="#181818" points="1912.58,721.981,1922.4208,721.5816,1917.0629,719.7667,1918.8778,714.4089,1912.58,721.981" style="stroke:#181818;stroke-width:1.0;"/><text fill="#000000" font-family="sans-serif" font-size="13" lengthAdjust="spacing" textLength="112" x="1997" y="688.0669">view_assignment</text></g><!--link viewing_assignment to viewing_course--><g id="link_viewing_assignment_viewing_course"><path d="M1853.15,721.876 C1849.87,706.877 1848.85,688.035 1859,675 C1876.83,652.113 1948.44,637.408 2003.98,629.213 " fill="none" id="viewing_assignment-to-viewing_course" style="stroke:#181818;stroke-width:1.0;"/><polygon fill="#181818" points="2008.96,628.489,1999.4809,625.8158,2004.0113,629.2033,2000.6238,633.7337,2008.96,628.489" style="stroke:#181818;stroke-width:1.0;"/><text fill="#000000" font-family="sans-serif" font-size="13" lengthAdjust="spacing" textLength="100" x="1860" y="688.0669">back_to_course</text></g><!--link enrolled_course to viewing_assignment--><g id="link_enrolled_course_viewing_assignment"><path d="M2052.43,872.006 C2003.69,868.003 1938.54,855.436 1894,819 C1881.05,808.407 1872.92,791.587 1867.98,776.977 " fill="none" id="enrolled_course-to-viewing_assignment" style="stroke:#181818;stroke-width:1.0;"/><polygon fill="#181818" points="1866.42,772.119,1865.3624,781.9109,1867.9483,776.8797,1872.9795,779.4656,1866.42,772.119" style="stroke:#181818;stroke-width:1.0;"/><text fill="#000000" font-family="sans-serif" font-size="13" lengthAdjust="spacing" textLength="112" x="1895" y="815.0669">view_assignment</text></g><!--link viewing_assignment to enrolled_course--><g id="link_viewing_assignment_enrolled_course"><path d="M1939.71,772.095 C1963.44,780.431 1989.23,790.585 2012,802 C2036.75,814.404 2062.66,831.479 2082.79,845.775 " fill="none" id="viewing_assignment-to-enrolled_course" style="stroke:#181818;stroke-width:1.0;"/><polygon fill="#181818" points="2086.99,848.781,2081.9843,840.2991,2082.9189,845.8782,2077.3398,846.8128,2086.99,848.781" style="stroke:#181818;stroke-width:1.0;"/><text fill="#000000" font-family="sans-serif" font-size="13" lengthAdjust="spacing" textLength="98" x="2041" y="815.0669">do_assignment</text></g><!--link create_community to creating_community--><g id="link_create_community_creating_community"><path d="M669.072,518.081 C666.311,532.876 665.677,551.513 675,565 C687.837,583.569 707.932,595.76 729.045,603.762 " fill="none" id="create_community-to-creating_community" style="stroke:#181818;stroke-width:1.0;"/><polygon fill="#181818" points="733.85,605.506,726.7545,598.6756,729.1499,603.8003,724.0253,606.1957,733.85,605.506" style="stroke:#181818;stroke-width:1.0;"/><text fill="#000000" font-family="sans-serif" font-size="13" lengthAdjust="spacing" textLength="121" x="676" y="561.0669">create_community</text></g><!--link creating_community to creating_community_confirm--><g id="link_creating_community_creating_community_confirm"><path d="M834.089,645.021 C845.685,660.564 862.654,680.058 882,692 C904.832,706.093 931.387,716.578 957.44,724.355 " fill="none" id="creating_community-to-creating_community_confirm" style="stroke:#181818;stroke-width:1.0;"/><polygon fill="#181818" points="962.298,725.776,954.7837,719.4092,957.4993,724.3717,952.5368,727.0872,962.298,725.776" style="stroke:#181818;stroke-width:1.0;"/><text fill="#000000" font-family="sans-serif" font-size="13" lengthAdjust="spacing" textLength="49" x="883" y="688.0669">confirm</text></g><!--link viewing_profile to editing_profile--><g id="link_viewing_profile_editing_profile"><path d="M436.343,518.199 C420.509,527.159 402.726,537.66 387,548 C366.54,561.452 344.588,577.728 326.946,591.301 " fill="none" id="viewing_profile-to-editing_profile" style="stroke:#181818;stroke-width:1.0;"/><polygon fill="#181818" points="322.557,594.69,332.1251,592.3553,326.5144,591.6341,327.2356,586.0234,322.557,594.69" style="stroke:#181818;stroke-width:1.0;"/><text fill="#000000" font-family="sans-serif" font-size="13" lengthAdjust="spacing" textLength="71" x="388" y="561.0669">edit_profile</text></g><!--link editing_profile to viewing_profile--><g id="link_editing_profile_viewing_profile"><path d="M266.615,594.917 C254.481,580.476 244.791,562.217 256,548 C275.103,523.77 352.295,509.175 410.984,501.377 " fill="none" id="editing_profile-to-viewing_profile" style="stroke:#181818;stroke-width:1.0;"/><polygon fill="#181818" points="416.246,500.689,406.8031,497.8904,411.2883,501.3377,407.841,505.8228,416.246,500.689" style="stroke:#181818;stroke-width:1.0;"/><text fill="#000000" font-family="sans-serif" font-size="13" lengthAdjust="spacing" textLength="97" x="257" y="561.0669">back_to_profile</text></g><!--link viewing_profile to logged--><g id="link_viewing_profile_logged"><path d="M538.688,518.046 C555.396,526.32 573.125,536.452 588,548 C603.58,560.096 618.233,576.541 629.378,590.558 " fill="none" id="viewing_profile-to-logged" style="stroke:#181818;stroke-width:1.0;"/><polygon fill="#181818" points="632.722,594.823,630.3152,585.2728,629.6363,590.8887,624.0203,590.2099,632.722,594.823" style="stroke:#181818;stroke-width:1.0;"/></g><!--link editing_profile to saving_changes--><g id="link_editing_profile_saving_changes"><path d="M235.679,645.054 C219.205,653.358 201.691,663.504 187,675 C171.466,687.155 156.816,703.604 145.661,717.608 " fill="none" id="editing_profile-to-saving_changes" style="stroke:#181818;stroke-width:1.0;"/><polygon fill="#181818" points="142.314,721.868,151.0186,717.2603,145.4022,717.9357,144.7268,712.3193,142.314,721.868" style="stroke:#181818;stroke-width:1.0;"/><text fill="#000000" font-family="sans-serif" font-size="13" lengthAdjust="spacing" textLength="92" x="188" y="688.0669">save_changes</text></g><!--link logged_out to *end*--><g id="link_logged_out_*end*"><path d="M1557.44,115.286 C1684.52,121.426 2010.61,139.683 2051,167 C2070.45,180.153 2080.34,206.857 2084.82,223.505 " fill="none" id="logged_out-to-*end*" style="stroke:#181818;stroke-width:1.0;"/><polygon fill="#181818" points="2086.14,228.732,2087.8149,219.0266,2084.9159,223.8842,2080.0583,220.9852,2086.14,228.732" style="stroke:#181818;stroke-width:1.0;"/></g><!--SRC=[bPPDRiCW48NtdCBhIBa0YrwaYf0R4uVMG0Lsejw-64pu6x2pYeFV3CCRvai-JvVkVFxe9ZcET21ocH4Ap_QLeYFJCrNnkezX0Y7a1NH8bisdJm5aPuByAihPmib4UoMeiiel9P-QagjSbAQw8UvS3Gz6d-QTlB69xgkfK7AQjkpxya6INcis2ax5l2-_AjhFQ-sSBuBDV_iHhzCUZd2c6dTjA1EZjoguiPqEeVLRK006P09VL7_z8RCahhYAoEuKcOEGIssAZxQBwydVWnvNHELklggm26G3HDaPlLTv8wpeMve-XDvKDSuTBqFs6YHhuEqmJ-B658VqMPLtoTT-baAVeukdhBmymQvjKjnT6DZy6fqkLu0Lh269QDNe_c6ETU_5Q0QsKAHv_7O8cIXx51SNsXm5eogA36amoAMc3IR6igcmfmJOcmaEC2qULNmSSu0j9lmWzSB4Xud2Xo4ORnrD42wciPq2kDxu7LIcln-k1Ii2gm2CO8KJ0bLvM7S7286wsIJcOHzh1AqUg1NGtAb2pzADNPw2DMPqpPlznhLeiHGceKbIvUfBj3Vb2VPgx4n7Cg4f5EBsAm2v4JHc8MuZ5KP2GTZytzhdwV8F]--></g></svg>