<?xml version="1.0" encoding="us-ascii" standalone="no"?><svg xmlns="http://www.w3.org/2000/svg" xmlns:xlink="http://www.w3.org/1999/xlink" contentStyleType="text/css" height="778px" preserveAspectRatio="none" style="width:650px;height:778px;background:#FFFFFF;" version="1.1" viewBox="0 0 650 778" width="650px" zoomAndPan="magnify"><defs/><g><ellipse cx="291" cy="16" fill="#181818" rx="10" ry="10" style="stroke:none;stroke-width:1.0;"/><g id="logged_out"><rect fill="#F1F1F1" height="50" rx="12.5" ry="12.5" style="stroke:#181818;stroke-width:0.5;" width="100" x="241" y="87"/><line style="stroke:#181818;stroke-width:0.5;" x1="241" x2="341" y1="113.2969" y2="113.2969"/><text fill="#000000" font-family="sans-serif" font-size="14" lengthAdjust="spacing" textLength="80" x="251" y="104.9951">logged_out</text></g><g id="logout"><rect fill="#F1F1F1" height="50" rx="12.5" ry="12.5" style="stroke:#181818;stroke-width:0.5;" width="66" x="7" y="468"/><line style="stroke:#181818;stroke-width:0.5;" x1="7" x2="73" y1="494.2969" y2="494.2969"/><text fill="#000000" font-family="sans-serif" font-size="14" lengthAdjust="spacing" textLength="46" x="17" y="485.9951">logout</text></g><g id="logged_in_premium_learner"><rect fill="#F1F1F1" height="50" rx="12.5" ry="12.5" style="stroke:#181818;stroke-width:0.5;" width="219" x="153.5" y="341"/><line style="stroke:#181818;stroke-width:0.5;" x1="153.5" x2="372.5" y1="367.2969" y2="367.2969"/><text fill="#000000" font-family="sans-serif" font-size="14" lengthAdjust="spacing" textLength="199" x="163.5" y="358.9951">logged_in_premium_learner</text></g><g id="view_profile"><rect fill="#F1F1F1" height="50" rx="12.5" ry="12.5" style="stroke:#181818;stroke-width:0.5;" width="107" x="136.5" y="468"/><line style="stroke:#181818;stroke-width:0.5;" x1="136.5" x2="243.5" y1="494.2969" y2="494.2969"/><text fill="#000000" font-family="sans-serif" font-size="14" lengthAdjust="spacing" textLength="87" x="146.5" y="485.9951">view_profile</text></g><g id="viewing_profile"><rect fill="#F1F1F1" height="50" rx="12.5" ry="12.5" style="stroke:#181818;stroke-width:0.5;" width="129" x="278.5" y="468"/><line style="stroke:#181818;stroke-width:0.5;" x1="278.5" x2="407.5" y1="494.2969" y2="494.2969"/><text fill="#000000" font-family="sans-serif" font-size="14" lengthAdjust="spacing" textLength="109" x="288.5" y="485.9951">viewing_profile</text></g><g id="edit_profile"><rect fill="#F1F1F1" height="50" rx="12.5" ry="12.5" style="stroke:#181818;stroke-width:0.5;" width="104" x="26" y="595"/><line style="stroke:#181818;stroke-width:0.5;" x1="26" x2="130" y1="621.2969" y2="621.2969"/><text fill="#000000" font-family="sans-serif" font-size="14" lengthAdjust="spacing" textLength="84" x="36" y="612.9951">edit_profile</text></g><g id="back_to_home"><rect fill="#F1F1F1" height="50" rx="12.5" ry="12.5" style="stroke:#181818;stroke-width:0.5;" width="126" x="165" y="595"/><line style="stroke:#181818;stroke-width:0.5;" x1="165" x2="291" y1="621.2969" y2="621.2969"/><text fill="#000000" font-family="sans-serif" font-size="14" lengthAdjust="spacing" textLength="106" x="175" y="612.9951">back_to_home</text></g><g id="editing_profile"><rect fill="#F1F1F1" height="50" rx="12.5" ry="12.5" style="stroke:#181818;stroke-width:0.5;" width="126" x="326" y="595"/><line style="stroke:#181818;stroke-width:0.5;" x1="326" x2="452" y1="621.2969" y2="621.2969"/><text fill="#000000" font-family="sans-serif" font-size="14" lengthAdjust="spacing" textLength="106" x="336" y="612.9951">editing_profile</text></g><g id="save_changes"><rect fill="#F1F1F1" height="50" rx="12.5" ry="12.5" style="stroke:#181818;stroke-width:0.5;" width="118" x="126" y="722"/><line style="stroke:#181818;stroke-width:0.5;" x1="126" x2="244" y1="748.2969" y2="748.2969"/><text fill="#000000" font-family="sans-serif" font-size="14" lengthAdjust="spacing" textLength="98" x="136" y="739.9951">save_changes</text></g><g id="back_to_profile"><rect fill="#F1F1F1" height="50" rx="12.5" ry="12.5" style="stroke:#181818;stroke-width:0.5;" width="133" x="279.5" y="722"/><line style="stroke:#181818;stroke-width:0.5;" x1="279.5" x2="412.5" y1="748.2969" y2="748.2969"/><text fill="#000000" font-family="sans-serif" font-size="14" lengthAdjust="spacing" textLength="113" x="289.5" y="739.9951">back_to_profile</text></g><g id="saving_changes"><rect fill="#F1F1F1" height="50" rx="12.5" ry="12.5" style="stroke:#181818;stroke-width:0.5;" width="131" x="451.5" y="722"/><line style="stroke:#181818;stroke-width:0.5;" x1="451.5" x2="582.5" y1="748.2969" y2="748.2969"/><text fill="#000000" font-family="sans-serif" font-size="14" lengthAdjust="spacing" textLength="111" x="461.5" y="739.9951">saving_changes</text></g><g id="registered"><rect fill="#F1F1F1" height="50" rx="12.5" ry="12.5" style="stroke:#181818;stroke-width:0.5;" width="95" x="368.5" y="214"/><line style="stroke:#181818;stroke-width:0.5;" x1="368.5" x2="463.5" y1="240.2969" y2="240.2969"/><text fill="#000000" font-family="sans-serif" font-size="14" lengthAdjust="spacing" textLength="75" x="378.5" y="231.9951">registered</text></g><g id="logged"><rect fill="#F1F1F1" height="50" rx="12.5" ry="12.5" style="stroke:#181818;stroke-width:0.5;" width="69" x="574.5" y="595"/><line style="stroke:#181818;stroke-width:0.5;" x1="574.5" x2="643.5" y1="621.2969" y2="621.2969"/><text fill="#000000" font-family="sans-serif" font-size="14" lengthAdjust="spacing" textLength="49" x="584.5" y="612.9951">logged</text></g><ellipse cx="509" cy="239" fill="none" rx="10" ry="10" style="stroke:#181818;stroke-width:1.0;"/><ellipse cx="509.5" cy="239.5" fill="#181818" rx="6" ry="6" style="stroke:none;stroke-width:1.0;"/><!--link *start* to logged_out--><g id="link_*start*_logged_out"><path d="M291,26.013 C291,38.698 291,62.409 291,81.57 " fill="none" id="*start*-to-logged_out" style="stroke:#181818;stroke-width:1.0;"/><polygon fill="#181818" points="291,86.84,295,77.84,291,81.84,287,77.84,291,86.84" style="stroke:#181818;stroke-width:1.0;"/></g><!--link logout to logged_out--><g id="link_logout_logged_out"><path d="M40.0938,467.934 C41.0726,418.454 47.4444,302.524 84,214 C93.8404,190.17 97.0701,182.054 118,167 C152.814,141.959 199.596,128.275 235.734,120.954 " fill="none" id="logout-to-logged_out" style="stroke:#181818;stroke-width:1.0;"/><polygon fill="#181818" points="240.986,119.919,231.3829,117.7327,236.0802,120.8847,232.9281,125.582,240.986,119.919" style="stroke:#181818;stroke-width:1.0;"/></g><!--link logged_in_premium_learner to view_profile--><g id="link_logged_in_premium_learner_view_profile"><path d="M248.925,391.101 C236.857,411.766 219.448,441.575 206.682,463.435 " fill="none" id="logged_in_premium_learner-to-view_profile" style="stroke:#181818;stroke-width:1.0;"/><polygon fill="#181818" points="204.032,467.973,212.0242,462.2176,206.553,463.6551,205.1155,458.1839,204.032,467.973" style="stroke:#181818;stroke-width:1.0;"/></g><!--link logged_in_premium_learner to logout--><g id="link_logged_in_premium_learner_logout"><path d="M220.003,391.101 C178.774,414.212 117.142,448.759 77.759,470.835 " fill="none" id="logged_in_premium_learner-to-logout" style="stroke:#181818;stroke-width:1.0;"/><polygon fill="#181818" points="73.0694,473.463,82.876,472.5514,77.4309,471.0181,78.9642,465.573,73.0694,473.463" style="stroke:#181818;stroke-width:1.0;"/></g><!--link viewing_profile to edit_profile--><g id="link_viewing_profile_edit_profile"><path d="M291.905,518.101 C246.538,539.501 180.382,570.707 133.679,592.736 " fill="none" id="viewing_profile-to-edit_profile" style="stroke:#181818;stroke-width:1.0;"/><polygon fill="#181818" points="128.938,594.973,138.7843,594.7484,133.4596,592.8386,135.3693,587.5139,128.938,594.973" style="stroke:#181818;stroke-width:1.0;"/></g><!--link viewing_profile to back_to_home--><g id="link_viewing_profile_back_to_home"><path d="M306.183,518.021 C294.483,526.654 281.999,536.998 272,548 C260.521,560.631 250.297,576.654 242.6,590.282 " fill="none" id="viewing_profile-to-back_to_home" style="stroke:#181818;stroke-width:1.0;"/><polygon fill="#181818" points="240.088,594.803,247.9554,588.8782,242.5162,590.4322,240.9622,584.993,240.088,594.803" style="stroke:#181818;stroke-width:1.0;"/></g><!--link editing_profile to save_changes--><g id="link_editing_profile_save_changes"><path d="M349.667,645.101 C314.954,666.371 264.432,697.3286 228.518,719.3347 " fill="none" id="editing_profile-to-save_changes" style="stroke:#181818;stroke-width:1.0;"/><polygon fill="#181818" points="224.213,721.9727,233.9767,720.6803,228.4761,719.36,229.7963,713.8594,224.213,721.9727" style="stroke:#181818;stroke-width:1.0;"/></g><!--link editing_profile to back_to_profile--><g id="link_editing_profile_back_to_profile"><path d="M379.226,645.058 C375.558,654.358 371.446,665.123 368,675 C363.234,688.6607 358.423,703.9741 354.52,716.8723 " fill="none" id="editing_profile-to-back_to_profile" style="stroke:#181818;stroke-width:1.0;"/><polygon fill="#181818" points="353.016,721.8716,359.439,714.4053,354.4563,717.0835,351.778,712.1009,353.016,721.8716" style="stroke:#181818;stroke-width:1.0;"/></g><!--link saving_changes to viewing_profile--><g id="link_saving_changes_viewing_profile"><path d="M518.814,721.9191 C520.542,681.2775 518.133,598.568 476,548 C459.916,528.695 435.87,516.22 412.628,508.19 " fill="none" id="saving_changes-to-viewing_profile" style="stroke:#181818;stroke-width:1.0;"/><polygon fill="#181818" points="407.684,506.543,414.959,513.1818,412.4278,508.1229,417.4868,505.5917,407.684,506.543" style="stroke:#181818;stroke-width:1.0;"/></g><!--link logged_out to registered--><g id="link_logged_out_registered"><path d="M315.101,137.101 C336.025,158.025 366.324,188.324 388.254,210.254 " fill="none" id="logged_out-to-registered" style="stroke:#181818;stroke-width:1.0;"/><polygon fill="#181818" points="391.973,213.973,388.4375,204.7806,388.4375,210.4375,382.7806,210.4375,391.973,213.973" style="stroke:#181818;stroke-width:1.0;"/><text fill="#000000" font-family="sans-serif" font-size="13" lengthAdjust="spacing" textLength="49" x="362" y="180.0669">register</text></g><!--link logged_out to logged_in_premium_learner--><g id="link_logged_out_logged_in_premium_learner"><path d="M240.781,123.921 C194.856,136.862 129.568,163.381 99,214 C67.3292,266.446 137.534,311.768 195.734,338.724 " fill="none" id="logged_out-to-logged_in_premium_learner" style="stroke:#181818;stroke-width:1.0;"/><polygon fill="#181818" points="200.611,340.953,194.0886,333.5734,196.0636,338.8743,190.7627,340.8493,200.611,340.953" style="stroke:#181818;stroke-width:1.0;"/><text fill="#000000" font-family="sans-serif" font-size="13" lengthAdjust="spacing" textLength="147" x="100" y="243.5669">login_premium_learner</text></g><!--link logged_in_premium_learner to logged_out--><g id="link_logged_in_premium_learner_logged_out"><path d="M265.677,340.91 C270.844,294.4 282.178,192.402 287.761,142.153 " fill="none" id="logged_in_premium_learner-to-logged_out" style="stroke:#181818;stroke-width:1.0;"/><polygon fill="#181818" points="288.315,137.163,283.3442,145.6654,287.7621,142.1323,291.2952,146.5502,288.315,137.163" style="stroke:#181818;stroke-width:1.0;"/><text fill="#000000" font-family="sans-serif" font-size="13" lengthAdjust="spacing" textLength="40" x="281" y="243.5669">logout</text></g><!--link registered to logged_in_premium_learner--><g id="link_registered_logged_in_premium_learner"><path d="M386.5,264.101 C360.677,285.198 323.189,315.826 296.297,337.796 " fill="none" id="registered-to-logged_in_premium_learner" style="stroke:#181818;stroke-width:1.0;"/><polygon fill="#181818" points="292.409,340.973,301.9089,338.3745,296.2804,337.8088,296.8461,332.1803,292.409,340.973" style="stroke:#181818;stroke-width:1.0;"/><text fill="#000000" font-family="sans-serif" font-size="13" lengthAdjust="spacing" textLength="147" x="350" y="307.0669">login_premium_learner</text></g><!--link logged_in_premium_learner to viewing_profile--><g id="link_logged_in_premium_learner_viewing_profile"><path d="M278.425,391.101 C291.706,411.853 310.888,441.824 324.894,463.709 " fill="none" id="logged_in_premium_learner-to-viewing_profile" style="stroke:#181818;stroke-width:1.0;"/><polygon fill="#181818" points="327.623,467.973,326.1399,458.2364,324.9274,463.7618,319.4021,462.5493,327.623,467.973" style="stroke:#181818;stroke-width:1.0;"/><text fill="#000000" font-family="sans-serif" font-size="13" lengthAdjust="spacing" textLength="77" x="309" y="434.0669">view_profile</text></g><!--link viewing_profile to editing_profile--><g id="link_viewing_profile_editing_profile"><path d="M302.436,518.196 C285.856,531.301 272.712,548.213 283,565 C291.9,579.522 306.066,590.292 321.182,598.22 " fill="none" id="viewing_profile-to-editing_profile" style="stroke:#181818;stroke-width:1.0;"/><polygon fill="#181818" points="325.899,600.59,319.6545,592.9738,321.4317,598.3442,316.0613,600.1214,325.899,600.59" style="stroke:#181818;stroke-width:1.0;"/><text fill="#000000" font-family="sans-serif" font-size="13" lengthAdjust="spacing" textLength="71" x="284" y="561.0669">edit_profile</text></g><!--link editing_profile to viewing_profile--><g id="link_editing_profile_viewing_profile"><path d="M380.158,594.973 C372.593,574.416 361.684,544.772 353.642,522.919 " fill="none" id="editing_profile-to-viewing_profile" style="stroke:#181818;stroke-width:1.0;"/><polygon fill="#181818" points="351.869,518.101,351.2246,527.9288,353.5964,522.7931,358.732,525.1649,351.869,518.101" style="stroke:#181818;stroke-width:1.0;"/><text fill="#000000" font-family="sans-serif" font-size="13" lengthAdjust="spacing" textLength="97" x="370" y="561.0669">back_to_profile</text></g><!--link viewing_profile to logged--><g id="link_viewing_profile_logged"><path d="M407.551,501.141 C449.747,508.111 504.676,521.708 547,548 C564.408,558.814 579.62,576.037 590.62,590.812 " fill="none" id="viewing_profile-to-logged" style="stroke:#181818;stroke-width:1.0;"/><polygon fill="#181818" points="593.609,594.907,591.5348,585.279,590.6616,590.8681,585.0726,589.9949,593.609,594.907" style="stroke:#181818;stroke-width:1.0;"/></g><!--link editing_profile to saving_changes--><g id="link_editing_profile_saving_changes"><path d="M387.668,645.263 C388.076,660.129 390.921,678.7766 401,692 C412.509,707.0992 429.262,718.1353 446.475,726.1383 " fill="none" id="editing_profile-to-saving_changes" style="stroke:#181818;stroke-width:1.0;"/><polygon fill="#181818" points="451.338,728.3159,444.758,720.9877,446.7744,726.2729,441.4892,728.2894,451.338,728.3159" style="stroke:#181818;stroke-width:1.0;"/><text fill="#000000" font-family="sans-serif" font-size="13" lengthAdjust="spacing" textLength="92" x="402" y="688.0669">save_changes</text></g><!--link logged_out to *end*--><g id="link_logged_out_*end*"><path d="M341.139,130.489 C365.639,139.9 395.125,152.543 420,167 C449.591,184.197 454.443,192.412 481,214 C486.589,218.543 492.673,223.728 497.738,228.114 " fill="none" id="logged_out-to-*end*" style="stroke:#181818;stroke-width:1.0;"/><polygon fill="#181818" points="501.719,231.578,497.5551,222.6526,497.947,228.2959,492.3038,228.6878,501.719,231.578" style="stroke:#181818;stroke-width:1.0;"/></g><!--SRC=[dL9B3eCW4Drp2jOcNi15Bs8CeJf5KeK6qLw_W_Y1OeqfAuPvxytdKMOLpVCRxRGGq30zMe878xobYIMGYhqCz7BiMGVSA30KZqDF4jwOqm_PmGMuhuF2ZYULMAbp4XffDotwZV02Tru_cTMirJtM8uuIWHncu1EmkkLAm90YOfsjTO8iXrju-tG1UL_8kYm3GWuM33Iqs884zNijXSkbxuG4mdygd9XnC1hgNBKo_YI-WNDJupgHpKSKBvuujrWRcbISUtqyPs9zCCnCARFg0m00]--></g></svg>