<?xml version="1.0" encoding="us-ascii" standalone="no"?><svg xmlns="http://www.w3.org/2000/svg" xmlns:xlink="http://www.w3.org/1999/xlink" contentStyleType="text/css" height="635px" preserveAspectRatio="none" style="width:479px;height:635px;background:#FFFFFF;" version="1.1" viewBox="0 0 479 635" width="479px" zoomAndPan="magnify"><defs/><g><ellipse cx="301.5" cy="16" fill="#181818" rx="10" ry="10" style="stroke:none;stroke-width:1.0;"/><g id="logged_out"><rect fill="#F1F1F1" height="50" rx="12.5" ry="12.5" style="stroke:#181818;stroke-width:0.5;" width="100" x="251.5" y="87"/><line style="stroke:#181818;stroke-width:0.5;" x1="251.5" x2="351.5" y1="113.2969" y2="113.2969"/><text fill="#000000" font-family="sans-serif" font-size="14" lengthAdjust="spacing" textLength="80" x="261.5" y="104.9951">logged_out</text></g><g id="logout"><rect fill="#F1F1F1" height="50" rx="12.5" ry="12.5" style="stroke:#181818;stroke-width:0.5;" width="66" x="406.5" y="452"/><line style="stroke:#181818;stroke-width:0.5;" x1="406.5" x2="472.5" y1="478.2969" y2="478.2969"/><text fill="#000000" font-family="sans-serif" font-size="14" lengthAdjust="spacing" textLength="46" x="416.5" y="469.9951">logout</text></g><g id="browse_community"><rect fill="#F1F1F1" height="50" rx="12.5" ry="12.5" style="stroke:#181818;stroke-width:0.5;" width="160" x="152.5" y="452"/><line style="stroke:#181818;stroke-width:0.5;" x1="152.5" x2="312.5" y1="478.2969" y2="478.2969"/><text fill="#000000" font-family="sans-serif" font-size="14" lengthAdjust="spacing" textLength="140" x="162.5" y="469.9951">browse_community</text></g><g id="join_community"><rect fill="#F1F1F1" height="50" rx="12.5" ry="12.5" style="stroke:#181818;stroke-width:0.5;" width="134" x="75.5" y="579"/><line style="stroke:#181818;stroke-width:0.5;" x1="75.5" x2="209.5" y1="605.2969" y2="605.2969"/><text fill="#000000" font-family="sans-serif" font-size="14" lengthAdjust="spacing" textLength="114" x="85.5" y="596.9951">join_community</text></g><g id="logged_in_learner"><rect fill="#F1F1F1" height="50" rx="12.5" ry="12.5" style="stroke:#181818;stroke-width:0.5;" width="147" x="159" y="341"/><line style="stroke:#181818;stroke-width:0.5;" x1="159" x2="306" y1="367.2969" y2="367.2969"/><text fill="#000000" font-family="sans-serif" font-size="14" lengthAdjust="spacing" textLength="127" x="169" y="358.9951">logged_in_learner</text></g><g id="registered"><rect fill="#F1F1F1" height="50" rx="12.5" ry="12.5" style="stroke:#181818;stroke-width:0.5;" width="95" x="7" y="214"/><line style="stroke:#181818;stroke-width:0.5;" x1="7" x2="102" y1="240.2969" y2="240.2969"/><text fill="#000000" font-family="sans-serif" font-size="14" lengthAdjust="spacing" textLength="75" x="17" y="231.9951">registered</text></g><g id="joining_community"><rect fill="#F1F1F1" height="50" rx="12.5" ry="12.5" style="stroke:#181818;stroke-width:0.5;" width="156" x="244.5" y="579"/><line style="stroke:#181818;stroke-width:0.5;" x1="244.5" x2="400.5" y1="605.2969" y2="605.2969"/><text fill="#000000" font-family="sans-serif" font-size="14" lengthAdjust="spacing" textLength="136" x="254.5" y="596.9951">joining_community</text></g><ellipse cx="301.5" cy="239" fill="none" rx="10" ry="10" style="stroke:#181818;stroke-width:1.0;"/><ellipse cx="302" cy="239.5" fill="#181818" rx="6" ry="6" style="stroke:none;stroke-width:1.0;"/><!--link *start* to logged_out--><g id="link_*start*_logged_out"><path d="M301.5,26.013 C301.5,38.698 301.5,62.409 301.5,81.57 " fill="none" id="*start*-to-logged_out" style="stroke:#181818;stroke-width:1.0;"/><polygon fill="#181818" points="301.5,86.84,305.5,77.84,301.5,81.84,297.5,77.84,301.5,86.84" style="stroke:#181818;stroke-width:1.0;"/></g><!--link logout to logged_out--><g id="link_logout_logged_out"><path d="M438.062,451.942 C434.545,404.653 423.094,296.977 388.5,214 C376.644,185.563 353.592,159.389 334.195,140.815 " fill="none" id="logout-to-logged_out" style="stroke:#181818;stroke-width:1.0;"/><polygon fill="#181818" points="330.368,137.203,334.1676,146.2894,334.0042,140.6349,339.6587,140.4716,330.368,137.203" style="stroke:#181818;stroke-width:1.0;"/></g><!--link browse_community to join_community--><g id="link_browse_community_join_community"><path d="M215.147,502.101 C200.206,522.853 178.627,552.8243 162.87,574.7088 " fill="none" id="browse_community-to-join_community" style="stroke:#181818;stroke-width:1.0;"/><polygon fill="#181818" points="159.8,578.9727,168.3052,574.0067,162.7218,574.9152,161.8133,569.3318,159.8,578.9727" style="stroke:#181818;stroke-width:1.0;"/></g><!--link logged_in_learner to logout--><g id="link_logged_in_learner_logout"><path d="M278.183,391.055 C315.329,410.615 367.105,437.879 401.887,456.194 " fill="none" id="logged_in_learner-to-logout" style="stroke:#181818;stroke-width:1.0;"/><polygon fill="#181818" points="406.467,458.606,400.3677,450.8731,402.043,456.2761,396.6399,457.9515,406.467,458.606" style="stroke:#181818;stroke-width:1.0;"/></g><!--link logged_in_learner to browse_community--><g id="link_logged_in_learner_browse_community"><path d="M232.5,391.191 C232.5,407.56 232.5,429.279 232.5,446.64 " fill="none" id="logged_in_learner-to-browse_community" style="stroke:#181818;stroke-width:1.0;"/><polygon fill="#181818" points="232.5,451.877,236.5,442.877,232.5,446.877,228.5,442.877,232.5,451.877" style="stroke:#181818;stroke-width:1.0;"/></g><!--link logged_out to registered--><g id="link_logged_out_registered"><path d="M251.446,115.395 C206.543,119.856 140.914,132.351 95.5,167 C81.571,177.627 71.5582,194.448 64.9157,209.051 " fill="none" id="logged_out-to-registered" style="stroke:#181818;stroke-width:1.0;"/><polygon fill="#181818" points="62.7915,213.906,70.0638,207.2642,64.7958,209.3253,62.7346,204.0573,62.7915,213.906" style="stroke:#181818;stroke-width:1.0;"/><text fill="#000000" font-family="sans-serif" font-size="13" lengthAdjust="spacing" textLength="49" x="96.5" y="180.0669">register</text></g><!--link logged_out to logged_in_learner--><g id="link_logged_out_logged_in_learner"><path d="M260.564,137.13 C234.902,154.798 204.024,181.344 189.5,214 C171.288,254.948 194.205,305.582 212.934,336.571 " fill="none" id="logged_out-to-logged_in_learner" style="stroke:#181818;stroke-width:1.0;"/><polygon fill="#181818" points="215.662,340.998,214.3452,331.2376,213.0386,336.7415,207.5347,335.4349,215.662,340.998" style="stroke:#181818;stroke-width:1.0;"/><text fill="#000000" font-family="sans-serif" font-size="13" lengthAdjust="spacing" textLength="82" x="190.5" y="243.5669">login_learner</text></g><!--link logged_in_learner to logged_out--><g id="link_logged_in_learner_logged_out"><path d="M266.031,340.954 C288.404,322.71 315.937,295.452 328.5,264 C344.492,223.962 337.539,208.928 327.5,167 C325.474,158.536 321.996,149.839 318.232,141.964 " fill="none" id="logged_in_learner-to-logged_out" style="stroke:#181818;stroke-width:1.0;"/><polygon fill="#181818" points="315.861,137.176,316.2692,147.0164,318.0793,141.657,323.4388,143.4671,315.861,137.176" style="stroke:#181818;stroke-width:1.0;"/><text fill="#000000" font-family="sans-serif" font-size="13" lengthAdjust="spacing" textLength="40" x="339.5" y="243.5669">logout</text></g><!--link registered to logged_in_learner--><g id="link_registered_logged_in_learner"><path d="M51.0301,264.255 C50.2516,279.305 51.9489,298.156 62.5,311 C84.7041,338.029 120.411,351.718 153.382,358.578 " fill="none" id="registered-to-logged_in_learner" style="stroke:#181818;stroke-width:1.0;"/><polygon fill="#181818" points="158.648,359.622,150.5967,353.9495,153.7433,358.6505,149.0423,361.797,158.648,359.622" style="stroke:#181818;stroke-width:1.0;"/><text fill="#000000" font-family="sans-serif" font-size="13" lengthAdjust="spacing" textLength="82" x="63.5" y="307.0669">login_learner</text></g><!--link browse_community to joining_community--><g id="link_browse_community_joining_community"><path d="M249.853,502.101 C264.794,522.853 286.373,552.8243 302.13,574.7088 " fill="none" id="browse_community-to-joining_community" style="stroke:#181818;stroke-width:1.0;"/><polygon fill="#181818" points="305.2,578.9727,303.1867,569.3318,302.2782,574.9152,296.6948,574.0067,305.2,578.9727" style="stroke:#181818;stroke-width:1.0;"/><text fill="#000000" font-family="sans-serif" font-size="13" lengthAdjust="spacing" textLength="102" x="284.5" y="545.0669">join_community</text></g><!--link logged_out to *end*--><g id="link_logged_out_*end*"><path d="M301.5,137.101 C301.5,162.76 301.5,202.517 301.5,223.65 " fill="none" id="logged_out-to-*end*" style="stroke:#181818;stroke-width:1.0;"/><polygon fill="#181818" points="301.5,228.846,305.5,219.846,301.5,223.846,297.5,219.846,301.5,228.846" style="stroke:#181818;stroke-width:1.0;"/></g><!--SRC=[YzQALT3LjLF8oKzFJqs9poyjuG8280_8mfH8AielBqwDJyxFpItDooofL002aAAi_CmyX2WNL0zGB2SriIWljGYc3c8k5nO5G5bqmw4EWTeErb-KcfvPN99Qb9gYO0NdOAZ2DDqA98RWSt4X6KIa3ao_mpoUcPUE96f5E31GWnLY5JJWaRq2LXUj5Gi0]--></g></svg>