<?xml version="1.0" encoding="us-ascii" standalone="no"?><svg xmlns="http://www.w3.org/2000/svg" xmlns:xlink="http://www.w3.org/1999/xlink" contentStyleType="text/css" height="889px" preserveAspectRatio="none" style="width:1564px;height:889px;background:#FFFFFF;" version="1.1" viewBox="0 0 1564 889" width="1564px" zoomAndPan="magnify"><defs/><g><ellipse cx="1390.5" cy="16" fill="#181818" rx="10" ry="10" style="stroke:none;stroke-width:1.0;"/><g id="logged_out"><rect fill="#F1F1F1" height="50" rx="12.5" ry="12.5" style="stroke:#181818;stroke-width:0.5;" width="100" x="1340.5" y="87"/><line style="stroke:#181818;stroke-width:0.5;" x1="1340.5" x2="1440.5" y1="113.2969" y2="113.2969"/><text fill="#000000" font-family="sans-serif" font-size="14" lengthAdjust="spacing" textLength="80" x="1350.5" y="104.9951">logged_out</text></g><g id="logout"><rect fill="#F1F1F1" height="50" rx="12.5" ry="12.5" style="stroke:#181818;stroke-width:0.5;" width="66" x="1458.5" y="468"/><line style="stroke:#181818;stroke-width:0.5;" x1="1458.5" x2="1524.5" y1="494.2969" y2="494.2969"/><text fill="#000000" font-family="sans-serif" font-size="14" lengthAdjust="spacing" textLength="46" x="1468.5" y="485.9951">logout</text></g><g id="logged_in_premium_learner"><rect fill="#F1F1F1" height="50" rx="12.5" ry="12.5" style="stroke:#181818;stroke-width:0.5;" width="219" x="1057" y="341"/><line style="stroke:#181818;stroke-width:0.5;" x1="1057" x2="1276" y1="367.2969" y2="367.2969"/><text fill="#000000" font-family="sans-serif" font-size="14" lengthAdjust="spacing" textLength="199" x="1067" y="358.9951">logged_in_premium_learner</text></g><g id="browse_courses"><rect fill="#F1F1F1" height="50" rx="12.5" ry="12.5" style="stroke:#181818;stroke-width:0.5;" width="133" x="1290" y="468"/><line style="stroke:#181818;stroke-width:0.5;" x1="1290" x2="1423" y1="494.2969" y2="494.2969"/><text fill="#000000" font-family="sans-serif" font-size="14" lengthAdjust="spacing" textLength="113" x="1300" y="485.9951">browse_courses</text></g><g id="enroll_course"><rect fill="#F1F1F1" height="50" rx="12.5" ry="12.5" style="stroke:#181818;stroke-width:0.5;" width="115" x="7" y="722"/><line style="stroke:#181818;stroke-width:0.5;" x1="7" x2="122" y1="748.2969" y2="748.2969"/><text fill="#000000" font-family="sans-serif" font-size="14" lengthAdjust="spacing" textLength="95" x="17" y="739.9951">enroll_course</text></g><g id="do_assignment"><rect fill="#F1F1F1" height="50" rx="12.5" ry="12.5" style="stroke:#181818;stroke-width:0.5;" width="128" x="1027.5" y="833"/><line style="stroke:#181818;stroke-width:0.5;" x1="1027.5" x2="1155.5" y1="859.2969" y2="859.2969"/><text fill="#000000" font-family="sans-serif" font-size="14" lengthAdjust="spacing" textLength="108" x="1037.5" y="850.9951">do_assignment</text></g><g id="browsing_courses"><rect fill="#F1F1F1" height="50" rx="12.5" ry="12.5" style="stroke:#181818;stroke-width:0.5;" width="146" x="159.5" y="722"/><line style="stroke:#181818;stroke-width:0.5;" x1="159.5" x2="305.5" y1="748.2969" y2="748.2969"/><text fill="#000000" font-family="sans-serif" font-size="14" lengthAdjust="spacing" textLength="126" x="169.5" y="739.9951">browsing_courses</text></g><g id="view_course"><rect fill="#F1F1F1" height="50" rx="12.5" ry="12.5" style="stroke:#181818;stroke-width:0.5;" width="106" x="347.5" y="833"/><line style="stroke:#181818;stroke-width:0.5;" x1="347.5" x2="453.5" y1="859.2969" y2="859.2969"/><text fill="#000000" font-family="sans-serif" font-size="14" lengthAdjust="spacing" textLength="86" x="357.5" y="850.9951">view_course</text></g><g id="viewing_course"><rect fill="#F1F1F1" height="50" rx="12.5" ry="12.5" style="stroke:#181818;stroke-width:0.5;" width="128" x="388.5" y="595"/><line style="stroke:#181818;stroke-width:0.5;" x1="388.5" x2="516.5" y1="621.2969" y2="621.2969"/><text fill="#000000" font-family="sans-serif" font-size="14" lengthAdjust="spacing" textLength="108" x="398.5" y="612.9951">viewing_course</text></g><g id="back_to_browse"><rect fill="#F1F1F1" height="50" rx="12.5" ry="12.5" style="stroke:#181818;stroke-width:0.5;" width="137" x="341" y="722"/><line style="stroke:#181818;stroke-width:0.5;" x1="341" x2="478" y1="748.2969" y2="748.2969"/><text fill="#000000" font-family="sans-serif" font-size="14" lengthAdjust="spacing" textLength="117" x="351" y="739.9951">back_to_browse</text></g><g id="view_assignment"><rect fill="#F1F1F1" height="50" rx="12.5" ry="12.5" style="stroke:#181818;stroke-width:0.5;" width="142" x="527.5" y="833"/><line style="stroke:#181818;stroke-width:0.5;" x1="527.5" x2="669.5" y1="859.2969" y2="859.2969"/><text fill="#000000" font-family="sans-serif" font-size="14" lengthAdjust="spacing" textLength="122" x="537.5" y="850.9951">view_assignment</text></g><g id="enrolled_course"><rect fill="#F1F1F1" height="50" rx="12.5" ry="12.5" style="stroke:#181818;stroke-width:0.5;" width="133" x="723" y="722"/><line style="stroke:#181818;stroke-width:0.5;" x1="723" x2="856" y1="748.2969" y2="748.2969"/><text fill="#000000" font-family="sans-serif" font-size="14" lengthAdjust="spacing" textLength="113" x="733" y="739.9951">enrolled_course</text></g><g id="viewing_assignment"><rect fill="#F1F1F1" height="50" rx="12.5" ry="12.5" style="stroke:#181818;stroke-width:0.5;" width="164" x="720.5" y="468"/><line style="stroke:#181818;stroke-width:0.5;" x1="720.5" x2="884.5" y1="494.2969" y2="494.2969"/><text fill="#000000" font-family="sans-serif" font-size="14" lengthAdjust="spacing" textLength="144" x="730.5" y="485.9951">viewing_assignment</text></g><g id="back_to_course"><rect fill="#F1F1F1" height="50" rx="12.5" ry="12.5" style="stroke:#181818;stroke-width:0.5;" width="132" x="736.5" y="595"/><line style="stroke:#181818;stroke-width:0.5;" x1="736.5" x2="868.5" y1="621.2969" y2="621.2969"/><text fill="#000000" font-family="sans-serif" font-size="14" lengthAdjust="spacing" textLength="112" x="746.5" y="612.9951">back_to_course</text></g><g id="registered"><rect fill="#F1F1F1" height="50" rx="12.5" ry="12.5" style="stroke:#181818;stroke-width:0.5;" width="95" x="976" y="214"/><line style="stroke:#181818;stroke-width:0.5;" x1="976" x2="1071" y1="240.2969" y2="240.2969"/><text fill="#000000" font-family="sans-serif" font-size="14" lengthAdjust="spacing" textLength="75" x="986" y="231.9951">registered</text></g><ellipse cx="1548.5" cy="239" fill="none" rx="10" ry="10" style="stroke:#181818;stroke-width:1.0;"/><ellipse cx="1549" cy="239.5" fill="#181818" rx="6" ry="6" style="stroke:none;stroke-width:1.0;"/><!--link *start* to logged_out--><g id="link_*start*_logged_out"><path d="M1390.5,26.013 C1390.5,38.698 1390.5,62.409 1390.5,81.57 " fill="none" id="*start*-to-logged_out" style="stroke:#181818;stroke-width:1.0;"/><polygon fill="#181818" points="1390.5,86.84,1394.5,77.84,1390.5,81.84,1386.5,77.84,1390.5,86.84" style="stroke:#181818;stroke-width:1.0;"/></g><!--link logout to logged_out--><g id="link_logout_logged_out"><path d="M1486.33,467.709 C1475.91,419.241 1451.25,307.175 1426.5,214 C1420.91,192.934 1419.73,187.561 1412.5,167 C1409.61,158.775 1406.17,149.973 1402.88,141.912 " fill="none" id="logout-to-logged_out" style="stroke:#181818;stroke-width:1.0;"/><polygon fill="#181818" points="1400.86,137.001,1400.5932,146.8462,1402.7662,141.6234,1407.9891,143.7963,1400.86,137.001" style="stroke:#181818;stroke-width:1.0;"/></g><!--link logged_in_premium_learner to browse_courses--><g id="link_logged_in_premium_learner_browse_courses"><path d="M1212.18,391.05 C1228.35,399.995 1246.5,410.526 1262.5,421 C1283.01,434.425 1304.91,450.84 1322.42,464.504 " fill="none" id="logged_in_premium_learner-to-browse_courses" style="stroke:#181818;stroke-width:1.0;"/><polygon fill="#181818" points="1326.77,467.915,1322.1553,459.2141,1322.8352,464.83,1317.2193,465.5098,1326.77,467.915" style="stroke:#181818;stroke-width:1.0;"/></g><!--link logged_in_premium_learner to enroll_course--><g id="link_logged_in_premium_learner_enroll_course"><path d="M1056.97,366.207 C841.456,366.668 371.998,378.284 242.5,468 C150.814,531.52 95.6556,659.138 74.4776,716.679 " fill="none" id="logged_in_premium_learner-to-enroll_course" style="stroke:#181818;stroke-width:1.0;"/><polygon fill="#181818" points="72.6529,721.693,79.4897,714.6037,74.3629,716.9945,71.9721,711.8677,72.6529,721.693" style="stroke:#181818;stroke-width:1.0;"/></g><!--link logged_in_premium_learner to do_assignment--><g id="link_logged_in_premium_learner_do_assignment"><path d="M1167.91,391.288 C1169.86,426.015 1173.26,491.868 1174.5,548 C1177.08,664.82 1145.09,691.388 1110.5,803 C1107.97,811.1759 1104.99,819.9624 1102.15,828.0234 " fill="none" id="logged_in_premium_learner-to-do_assignment" style="stroke:#181818;stroke-width:1.0;"/><polygon fill="#181818" points="1100.4,832.9368,1107.1789,825.7921,1102.0717,828.2245,1099.6393,823.1174,1100.4,832.9368" style="stroke:#181818;stroke-width:1.0;"/></g><!--link logged_in_premium_learner to logout--><g id="link_logged_in_premium_learner_logout"><path d="M1236.97,391.084 C1292.7,410.583 1372.22,439.414 1440.5,468 C1444.81,469.804 1449.28,471.77 1453.71,473.774 " fill="none" id="logged_in_premium_learner-to-logout" style="stroke:#181818;stroke-width:1.0;"/><polygon fill="#181818" points="1458.49,475.958,1451.958,468.5869,1453.9399,473.8852,1448.6416,475.8671,1458.49,475.958" style="stroke:#181818;stroke-width:1.0;"/></g><!--link browsing_courses to view_course--><g id="link_browsing_courses_view_course"><path d="M269.785,772.191 C296.211,789.3365 331.683,812.3509 359.007,830.0789 " fill="none" id="browsing_courses-to-view_course" style="stroke:#181818;stroke-width:1.0;"/><polygon fill="#181818" points="363.32,832.877,357.947,824.6229,359.1255,830.1556,353.5927,831.3341,363.32,832.877" style="stroke:#181818;stroke-width:1.0;"/></g><!--link viewing_course to enroll_course--><g id="link_viewing_course_enroll_course"><path d="M388.304,631.619 C339.792,640.585 271.968,655.149 214.5,675 C179.603,687.055 142.058,704.831 113.259,719.581 " fill="none" id="viewing_course-to-enroll_course" style="stroke:#181818;stroke-width:1.0;"/><polygon fill="#181818" points="108.714,721.921,118.5468,721.3582,113.1595,719.6325,114.8852,714.2453,108.714,721.921" style="stroke:#181818;stroke-width:1.0;"/></g><!--link viewing_course to back_to_browse--><g id="link_viewing_course_back_to_browse"><path d="M461.373,645.108 C465.162,659.222 467.494,677.135 461.5,692 C457.61,701.647 451.081,710.534 443.939,718.195 " fill="none" id="viewing_course-to-back_to_browse" style="stroke:#181818;stroke-width:1.0;"/><polygon fill="#181818" points="440.393,721.855,449.5293,718.1769,443.8731,718.2649,443.7851,712.6087,440.393,721.855" style="stroke:#181818;stroke-width:1.0;"/></g><!--link viewing_course to view_assignment--><g id="link_viewing_course_view_assignment"><path d="M469.58,645.25 C475.958,654.48 483.182,665.146 489.5,675 C523.651,728.262 561.051,791.996 581.961,828.1641 " fill="none" id="viewing_course-to-view_assignment" style="stroke:#181818;stroke-width:1.0;"/><polygon fill="#181818" points="584.676,832.8656,583.6379,823.0716,582.175,828.536,576.7106,827.0732,584.676,832.8656" style="stroke:#181818;stroke-width:1.0;"/></g><!--link enrolled_course to view_course--><g id="link_enrolled_course_view_course"><path d="M722.629,766.738 C648.275,787.5722 529.368,820.8905 458.708,840.6897 " fill="none" id="enrolled_course-to-view_course" style="stroke:#181818;stroke-width:1.0;"/><polygon fill="#181818" points="453.706,842.0915,463.4513,843.5158,458.5207,840.7429,461.2936,835.8123,453.706,842.0915" style="stroke:#181818;stroke-width:1.0;"/></g><!--link enrolled_course to do_assignment--><g id="link_enrolled_course_do_assignment"><path d="M856.149,772.055 C905.538,789.8811 972.652,814.1046 1022.57,832.1229 " fill="none" id="enrolled_course-to-do_assignment" style="stroke:#181818;stroke-width:1.0;"/><polygon fill="#181818" points="1027.35,833.8468,1020.2458,827.0255,1022.6478,832.1471,1017.5262,834.5491,1027.35,833.8468" style="stroke:#181818;stroke-width:1.0;"/></g><!--link enrolled_course to view_assignment--><g id="link_enrolled_course_view_assignment"><path d="M747.111,772.191 C716.943,789.4071 676.406,812.5404 645.291,830.2974 " fill="none" id="enrolled_course-to-view_assignment" style="stroke:#181818;stroke-width:1.0;"/><polygon fill="#181818" points="640.771,832.877,650.5702,831.8897,645.1135,830.3985,646.6046,824.9417,640.771,832.877" style="stroke:#181818;stroke-width:1.0;"/></g><!--link viewing_assignment to do_assignment--><g id="link_viewing_assignment_do_assignment"><path d="M879.699,518.16 C919.931,534.239 967.145,559.108 998.5,595 C1058.83,664.056 1080.83,774.904 1088.17,827.4873 " fill="none" id="viewing_assignment-to-do_assignment" style="stroke:#181818;stroke-width:1.0;"/><polygon fill="#181818" points="1088.88,832.6948,1091.6366,823.2396,1088.2093,827.74,1083.7089,824.3127,1088.88,832.6948" style="stroke:#181818;stroke-width:1.0;"/></g><!--link viewing_assignment to back_to_course--><g id="link_viewing_assignment_back_to_course"><path d="M802.5,518.101 C802.5,538.593 802.5,568.076 802.5,589.884 " fill="none" id="viewing_assignment-to-back_to_course" style="stroke:#181818;stroke-width:1.0;"/><polygon fill="#181818" points="802.5,594.973,806.5,585.973,802.5,589.973,798.5,585.973,802.5,594.973" style="stroke:#181818;stroke-width:1.0;"/></g><!--link logged_out to registered--><g id="link_logged_out_registered"><path d="M1340.44,113.187 C1279.1,115.361 1173.61,125.52 1094.5,167 C1075.03,177.211 1057.5,194.597 1044.74,209.609 " fill="none" id="logged_out-to-registered" style="stroke:#181818;stroke-width:1.0;"/><polygon fill="#181818" points="1041.27,213.772,1050.1128,209.4356,1044.4782,209.937,1043.9768,204.3024,1041.27,213.772" style="stroke:#181818;stroke-width:1.0;"/><text fill="#000000" font-family="sans-serif" font-size="13" lengthAdjust="spacing" textLength="49" x="1095.5" y="180.0669">register</text></g><!--link logged_out to logged_in_premium_learner--><g id="link_logged_out_logged_in_premium_learner"><path d="M1340.44,126.156 C1296.27,140.414 1233.61,167.594 1198.5,214 C1171.49,249.702 1166.1,303.113 1165.62,335.915 " fill="none" id="logged_out-to-logged_in_premium_learner" style="stroke:#181818;stroke-width:1.0;"/><polygon fill="#181818" points="1165.59,340.997,1169.6567,332.027,1165.6271,335.9971,1161.657,331.9675,1165.59,340.997" style="stroke:#181818;stroke-width:1.0;"/><text fill="#000000" font-family="sans-serif" font-size="13" lengthAdjust="spacing" textLength="147" x="1199.5" y="243.5669">login_premium_learner</text></g><!--link logged_in_premium_learner to logged_out--><g id="link_logged_in_premium_learner_logged_out"><path d="M1240.63,340.876 C1278.98,324.808 1323.5,299.937 1351.5,264 C1379.3,228.319 1387.43,174.902 1389.72,142.092 " fill="none" id="logged_in_premium_learner-to-logged_out" style="stroke:#181818;stroke-width:1.0;"/><polygon fill="#181818" points="1390.04,137.009,1385.4858,145.7416,1389.7278,141.9992,1393.4701,146.2412,1390.04,137.009" style="stroke:#181818;stroke-width:1.0;"/><text fill="#000000" font-family="sans-serif" font-size="13" lengthAdjust="spacing" textLength="40" x="1377.5" y="243.5669">logout</text></g><!--link registered to logged_in_premium_learner--><g id="link_registered_logged_in_premium_learner"><path d="M1003.179,264.279 C993.609,278.792 986.3,297.057 996.5,311 C1010.1,329.588 1030.15,341.934 1051.74,350.095 " fill="none" id="registered-to-logged_in_premium_learner" style="stroke:#181818;stroke-width:1.0;"/><polygon fill="#181818" points="1056.67,351.876,1049.5665,345.054,1051.968,350.1758,1046.8461,352.5772,1056.67,351.876" style="stroke:#181818;stroke-width:1.0;"/><text fill="#000000" font-family="sans-serif" font-size="13" lengthAdjust="spacing" textLength="147" x="997.5" y="307.0669">login_premium_learner</text></g><!--link logged_in_premium_learner to browsing_courses--><g id="link_logged_in_premium_learner_browsing_courses"><path d="M1056.88,370.929 C829.482,381.624 318.745,419.703 212.5,548 C172.715,596.043 198.994,674.8 217.942,717.055 " fill="none" id="logged_in_premium_learner-to-browsing_courses" style="stroke:#181818;stroke-width:1.0;"/><polygon fill="#181818" points="220.096,721.774,219.9986,711.9256,218.0202,717.2253,212.7206,715.2469,220.096,721.774" style="stroke:#181818;stroke-width:1.0;"/><text fill="#000000" font-family="sans-serif" font-size="13" lengthAdjust="spacing" textLength="104" x="213.5" y="561.0669">browse_courses</text></g><!--link logged_in_premium_learner to enrolled_course--><g id="link_logged_in_premium_learner_enrolled_course"><path d="M1157.66,391.077 C1137.25,443.686 1082.12,570.155 998.5,645 C958.808,680.527 904.384,706.294 861.024,722.907 " fill="none" id="logged_in_premium_learner-to-enrolled_course" style="stroke:#181818;stroke-width:1.0;"/><polygon fill="#181818" points="856.33,724.687,866.1634,725.239,861.0057,722.9156,863.3291,717.7579,856.33,724.687" style="stroke:#181818;stroke-width:1.0;"/><text fill="#000000" font-family="sans-serif" font-size="13" lengthAdjust="spacing" textLength="85" x="1080.5" y="561.0669">enroll_course</text></g><!--link logged_in_premium_learner to viewing_assignment--><g id="link_logged_in_premium_learner_viewing_assignment"><path d="M1096.32,391.101 C1033.5,412.674 941.66,444.211 877.43,466.268 " fill="none" id="logged_in_premium_learner-to-viewing_assignment" style="stroke:#181818;stroke-width:1.0;"/><polygon fill="#181818" points="872.467,467.973,882.2783,468.8322,877.1958,466.3486,879.6793,461.2661,872.467,467.973" style="stroke:#181818;stroke-width:1.0;"/><text fill="#000000" font-family="sans-serif" font-size="13" lengthAdjust="spacing" textLength="112" x="1007.5" y="434.0669">view_assignment</text></g><!--link browsing_courses to viewing_course--><g id="link_browsing_courses_viewing_course"><path d="M224.141,721.847 C220.579,706.837 219.278,687.993 229.5,675 C248.418,650.954 324.927,636.323 383.099,628.465 " fill="none" id="browsing_courses-to-viewing_course" style="stroke:#181818;stroke-width:1.0;"/><polygon fill="#181818" points="388.314,627.772,378.8655,624.9925,383.3576,628.4307,379.9194,632.9227,388.314,627.772" style="stroke:#181818;stroke-width:1.0;"/><text fill="#000000" font-family="sans-serif" font-size="13" lengthAdjust="spacing" textLength="80" x="230.5" y="688.0669">view_course</text></g><!--link viewing_course to browsing_courses--><g id="link_viewing_course_browsing_courses"><path d="M403.726,645.086 C385.874,654.162 365.617,664.769 347.5,675 C322.791,688.953 295.763,705.568 274.121,719.216 " fill="none" id="viewing_course-to-browsing_courses" style="stroke:#181818;stroke-width:1.0;"/><polygon fill="#181818" points="269.867,721.905,279.6123,720.4806,274.0943,719.2349,275.3401,713.7169,269.867,721.905" style="stroke:#181818;stroke-width:1.0;"/><text fill="#000000" font-family="sans-serif" font-size="13" lengthAdjust="spacing" textLength="104" x="348.5" y="688.0669">back_to_browse</text></g><!--link viewing_course to enrolled_course--><g id="link_viewing_course_enrolled_course"><path d="M516.816,637.884 C526.1,640.291 535.542,642.721 544.5,645 C598.196,658.66 614.078,654.37 665.5,675 C681.508,681.422 716.714,701.817 745.537,719.11 " fill="none" id="viewing_course-to-enrolled_course" style="stroke:#181818;stroke-width:1.0;"/><polygon fill="#181818" points="750.104,721.856,744.4536,713.7892,745.8194,719.2787,740.3299,720.6445,750.104,721.856" style="stroke:#181818;stroke-width:1.0;"/><text fill="#000000" font-family="sans-serif" font-size="13" lengthAdjust="spacing" textLength="85" x="700.5" y="688.0669">enroll_course</text></g><!--link enrolled_course to viewing_course--><g id="link_enrolled_course_viewing_course"><path d="M722.916,734.145 C679.904,725.294 623.258,711.372 575.5,692 C567.252,688.654 529.175,666.494 497.544,647.808 " fill="none" id="enrolled_course-to-viewing_course" style="stroke:#181818;stroke-width:1.0;"/><polygon fill="#181818" points="492.928,645.079,498.6383,653.1035,497.2316,647.6243,502.7108,646.2177,492.928,645.079" style="stroke:#181818;stroke-width:1.0;"/><text fill="#000000" font-family="sans-serif" font-size="13" lengthAdjust="spacing" textLength="80" x="576.5" y="688.0669">view_course</text></g><!--link viewing_course to viewing_assignment--><g id="link_viewing_course_viewing_assignment"><path d="M443.851,594.878 C440.077,579.69 438.65,560.636 449.5,548 C483.045,508.934 621.68,497.829 714.903,494.848 " fill="none" id="viewing_course-to-viewing_assignment" style="stroke:#181818;stroke-width:1.0;"/><polygon fill="#181818" points="720.141,494.688,711.0218,490.9676,715.1434,494.8423,711.2687,498.9638,720.141,494.688" style="stroke:#181818;stroke-width:1.0;"/><text fill="#000000" font-family="sans-serif" font-size="13" lengthAdjust="spacing" textLength="112" x="450.5" y="561.0669">view_assignment</text></g><!--link viewing_assignment to viewing_course--><g id="link_viewing_assignment_viewing_course"><path d="M720.449,497.588 C592.606,504.031 357.816,519.609 332.5,548 C310.683,572.467 345.527,590.916 383.191,602.868 " fill="none" id="viewing_assignment-to-viewing_course" style="stroke:#181818;stroke-width:1.0;"/><polygon fill="#181818" points="388.276,604.438,380.8575,597.9598,383.4987,602.9623,378.4963,605.6035,388.276,604.438" style="stroke:#181818;stroke-width:1.0;"/><text fill="#000000" font-family="sans-serif" font-size="13" lengthAdjust="spacing" textLength="100" x="333.5" y="561.0669">back_to_course</text></g><!--link enrolled_course to viewing_assignment--><g id="link_enrolled_course_viewing_assignment"><path d="M798.122,721.902 C801.884,706.723 803.31,687.671 792.5,675 C761.335,638.467 524.718,725.26 604.5,595 C628.856,555.234 674.337,530.505 715.572,515.478 " fill="none" id="enrolled_course-to-viewing_assignment" style="stroke:#181818;stroke-width:1.0;"/><polygon fill="#181818" points="720.319,513.784,710.498,513.0437,715.6102,515.4655,713.1884,520.5777,720.319,513.784" style="stroke:#181818;stroke-width:1.0;"/><text fill="#000000" font-family="sans-serif" font-size="13" lengthAdjust="spacing" textLength="112" x="605.5" y="624.5669">view_assignment</text></g><!--link viewing_assignment to enrolled_course--><g id="link_viewing_assignment_enrolled_course"><path d="M831.24,518.198 C862.074,547.283 904.253,598.051 885.5,645 C873.673,674.609 848.579,700.501 827.013,718.655 " fill="none" id="viewing_assignment-to-enrolled_course" style="stroke:#181818;stroke-width:1.0;"/><polygon fill="#181818" points="823.031,721.954,832.5133,719.2919,826.8811,718.7639,827.4091,713.1318,823.031,721.954" style="stroke:#181818;stroke-width:1.0;"/><text fill="#000000" font-family="sans-serif" font-size="13" lengthAdjust="spacing" textLength="98" x="891.5" y="624.5669">do_assignment</text></g><!--link logged_out to *end*--><g id="link_logged_out_*end*"><path d="M1440.54,126.832 C1464.25,135.361 1491.65,148.318 1511.5,167 C1528.41,182.919 1539.01,208.309 1544.33,224.022 " fill="none" id="logged_out-to-*end*" style="stroke:#181818;stroke-width:1.0;"/><polygon fill="#181818" points="1545.94,228.952,1546.9544,219.1555,1544.3907,224.1981,1539.3481,221.6344,1545.94,228.952" style="stroke:#181818;stroke-width:1.0;"/></g><!--SRC=[dLFR3eCW37tdAtmsyGTus8yOGzni29d20hhz_X1l32YQyKJfeJrjJ-koAQhgLlIAS-YOcaPYZxNiBNQiXf3ifM4Gqy1wQBK4xQ1thJu6s4DDse39WEsPyI2rwliLVmxl56kD4LmE8CTp-5A39Ure2SatOixx5l3PCXCoMmSYGIu0h2dkxUF9HiMMmX6Go-GH9sG9RSbxwNm-eJzPFmAAissiZiT4j0Geg77lrI48vzV0XHb1GrVGtOXG-BJex8lV2V42_ndXWbfzMT1Gm2S1mWdGouBU1XLqdCRJoyVmcantlQDozwH9V_I6gX-lBV4brS_iVbpk0hOlQ46v3zbCoAx4tJZTdYJ7Q9T-ziJzgSlc2m00]--></g></svg>