<?xml version="1.0" encoding="us-ascii" standalone="no"?><svg xmlns="http://www.w3.org/2000/svg" xmlns:xlink="http://www.w3.org/1999/xlink" contentStyleType="text/css" height="444px" preserveAspectRatio="none" style="width:670px;height:444px;background:#FFFFFF;" version="1.1" viewBox="0 0 670 444" width="670px" zoomAndPan="magnify"><defs/><g><g id="logged_in_instructor"><rect fill="#F1F1F1" height="50" rx="12.5" ry="12.5" style="stroke:#181818;stroke-width:0.5;" width="167" x="356.5" y="7"/><line style="stroke:#181818;stroke-width:0.5;" x1="356.5" x2="523.5" y1="33.2969" y2="33.2969"/><text fill="#000000" font-family="sans-serif" font-size="14" lengthAdjust="spacing" textLength="147" x="366.5" y="24.9951">logged_in_instructor</text></g><g id="view_profile"><rect fill="#F1F1F1" height="50" rx="12.5" ry="12.5" style="stroke:#181818;stroke-width:0.5;" width="107" x="174.5" y="134"/><line style="stroke:#181818;stroke-width:0.5;" x1="174.5" x2="281.5" y1="160.2969" y2="160.2969"/><text fill="#000000" font-family="sans-serif" font-size="14" lengthAdjust="spacing" textLength="87" x="184.5" y="151.9951">view_profile</text></g><g id="viewing_profile"><rect fill="#F1F1F1" height="50" rx="12.5" ry="12.5" style="stroke:#181818;stroke-width:0.5;" width="129" x="316.5" y="134"/><line style="stroke:#181818;stroke-width:0.5;" x1="316.5" x2="445.5" y1="160.2969" y2="160.2969"/><text fill="#000000" font-family="sans-serif" font-size="14" lengthAdjust="spacing" textLength="109" x="326.5" y="151.9951">viewing_profile</text></g><g id="edit_profile"><rect fill="#F1F1F1" height="50" rx="12.5" ry="12.5" style="stroke:#181818;stroke-width:0.5;" width="104" x="7" y="261"/><line style="stroke:#181818;stroke-width:0.5;" x1="7" x2="111" y1="287.2969" y2="287.2969"/><text fill="#000000" font-family="sans-serif" font-size="14" lengthAdjust="spacing" textLength="84" x="17" y="278.9951">edit_profile</text></g><g id="back_to_home"><rect fill="#F1F1F1" height="50" rx="12.5" ry="12.5" style="stroke:#181818;stroke-width:0.5;" width="126" x="146" y="261"/><line style="stroke:#181818;stroke-width:0.5;" x1="146" x2="272" y1="287.2969" y2="287.2969"/><text fill="#000000" font-family="sans-serif" font-size="14" lengthAdjust="spacing" textLength="106" x="156" y="278.9951">back_to_home</text></g><g id="editing_profile"><rect fill="#F1F1F1" height="50" rx="12.5" ry="12.5" style="stroke:#181818;stroke-width:0.5;" width="126" x="307" y="261"/><line style="stroke:#181818;stroke-width:0.5;" x1="307" x2="433" y1="287.2969" y2="287.2969"/><text fill="#000000" font-family="sans-serif" font-size="14" lengthAdjust="spacing" textLength="106" x="317" y="278.9951">editing_profile</text></g><g id="save_changes"><rect fill="#F1F1F1" height="50" rx="12.5" ry="12.5" style="stroke:#181818;stroke-width:0.5;" width="118" x="161" y="388"/><line style="stroke:#181818;stroke-width:0.5;" x1="161" x2="279" y1="414.2969" y2="414.2969"/><text fill="#000000" font-family="sans-serif" font-size="14" lengthAdjust="spacing" textLength="98" x="171" y="405.9951">save_changes</text></g><g id="back_to_profile"><rect fill="#F1F1F1" height="50" rx="12.5" ry="12.5" style="stroke:#181818;stroke-width:0.5;" width="133" x="314.5" y="388"/><line style="stroke:#181818;stroke-width:0.5;" x1="314.5" x2="447.5" y1="414.2969" y2="414.2969"/><text fill="#000000" font-family="sans-serif" font-size="14" lengthAdjust="spacing" textLength="113" x="324.5" y="405.9951">back_to_profile</text></g><g id="saving_changes"><rect fill="#F1F1F1" height="50" rx="12.5" ry="12.5" style="stroke:#181818;stroke-width:0.5;" width="131" x="509.5" y="388"/><line style="stroke:#181818;stroke-width:0.5;" x1="509.5" x2="640.5" y1="414.2969" y2="414.2969"/><text fill="#000000" font-family="sans-serif" font-size="14" lengthAdjust="spacing" textLength="111" x="519.5" y="405.9951">saving_changes</text></g><g id="logged"><rect fill="#F1F1F1" height="50" rx="12.5" ry="12.5" style="stroke:#181818;stroke-width:0.5;" width="69" x="468.5" y="261"/><line style="stroke:#181818;stroke-width:0.5;" x1="468.5" x2="537.5" y1="287.2969" y2="287.2969"/><text fill="#000000" font-family="sans-serif" font-size="14" lengthAdjust="spacing" textLength="49" x="478.5" y="278.9951">logged</text></g><g id="logged_out"><rect fill="#F1F1F1" height="50" rx="12.5" ry="12.5" style="stroke:#181818;stroke-width:0.5;" width="100" x="532" y="134"/><line style="stroke:#181818;stroke-width:0.5;" x1="532" x2="632" y1="160.2969" y2="160.2969"/><text fill="#000000" font-family="sans-serif" font-size="14" lengthAdjust="spacing" textLength="80" x="542" y="151.9951">logged_out</text></g><ellipse cx="654" cy="286" fill="none" rx="10" ry="10" style="stroke:#181818;stroke-width:1.0;"/><ellipse cx="654.5" cy="286.5" fill="#181818" rx="6" ry="6" style="stroke:none;stroke-width:1.0;"/><!--link logged_in_instructor to view_profile--><g id="link_logged_in_instructor_view_profile"><path d="M399.124,57.101 C363.05,78.371 310.547,109.329 273.224,131.335 " fill="none" id="logged_in_instructor-to-view_profile" style="stroke:#181818;stroke-width:1.0;"/><polygon fill="#181818" points="268.75,133.973,278.5343,132.8468,273.0569,131.4332,274.4705,125.9558,268.75,133.973" style="stroke:#181818;stroke-width:1.0;"/></g><!--link viewing_profile to edit_profile--><g id="link_viewing_profile_edit_profile"><path d="M316.445,182.285 C289.597,191.761 258.18,203.119 230,214 C191.701,228.788 149.055,246.493 115.931,260.523 " fill="none" id="viewing_profile-to-edit_profile" style="stroke:#181818;stroke-width:1.0;"/><polygon fill="#181818" points="111.115,262.566,120.9624,262.7368,115.7186,260.6149,117.8406,255.3711,111.115,262.566" style="stroke:#181818;stroke-width:1.0;"/></g><!--link viewing_profile to back_to_home--><g id="link_viewing_profile_back_to_home"><path d="M316.425,178.379 C294.634,186.77 271.237,198.401 253,214 C239.634,225.433 229.057,241.97 221.625,256.208 " fill="none" id="viewing_profile-to-back_to_home" style="stroke:#181818;stroke-width:1.0;"/><polygon fill="#181818" points="219.226,260.938,226.8645,254.7208,221.4877,256.4788,219.7298,251.102,219.226,260.938" style="stroke:#181818;stroke-width:1.0;"/></g><!--link editing_profile to save_changes--><g id="link_editing_profile_save_changes"><path d="M341.078,311.101 C315.866,332.112 279.31,362.575 252.969,384.5256 " fill="none" id="editing_profile-to-save_changes" style="stroke:#181818;stroke-width:1.0;"/><polygon fill="#181818" points="248.833,387.9727,258.3081,385.2853,252.6746,384.7723,253.1875,379.1388,248.833,387.9727" style="stroke:#181818;stroke-width:1.0;"/></g><!--link editing_profile to back_to_profile--><g id="link_editing_profile_back_to_profile"><path d="M372.121,311.101 C373.924,331.593 376.519,361.0764 378.438,382.8844 " fill="none" id="editing_profile-to-back_to_profile" style="stroke:#181818;stroke-width:1.0;"/><polygon fill="#181818" points="378.886,387.9727,382.0813,378.6566,378.4475,382.992,374.1121,379.3582,378.886,387.9727" style="stroke:#181818;stroke-width:1.0;"/></g><!--link saving_changes to viewing_profile--><g id="link_saving_changes_viewing_profile"><path d="M576.417,387.8884 C577.238,356.8934 575.25,302.17 555,261 C534.779,219.889 489.6,194.391 450.346,179.299 " fill="none" id="saving_changes-to-viewing_profile" style="stroke:#181818;stroke-width:1.0;"/><polygon fill="#181818" points="445.591,177.51,452.6052,184.4239,450.2705,179.2713,455.4232,176.9366,445.591,177.51" style="stroke:#181818;stroke-width:1.0;"/></g><!--link logged_in_instructor to viewing_profile--><g id="link_logged_in_instructor_viewing_profile"><path d="M401.989,57.196 C392.36,65.388 383.263,75.437 378,87 C372.134,99.887 372.131,115.489 373.912,128.781 " fill="none" id="logged_in_instructor-to-viewing_profile" style="stroke:#181818;stroke-width:1.0;"/><polygon fill="#181818" points="374.707,133.941,377.2924,124.4375,373.9469,128.9991,369.3854,125.6537,374.707,133.941" style="stroke:#181818;stroke-width:1.0;"/><text fill="#000000" font-family="sans-serif" font-size="13" lengthAdjust="spacing" textLength="77" x="379" y="100.0669">view_profile</text></g><!--link viewing_profile to editing_profile--><g id="link_viewing_profile_editing_profile"><path d="M316.301,183.002 C293.302,192.59 271.478,203.838 265,214 C250.574,236.627 273.717,253.808 301.911,265.597 " fill="none" id="viewing_profile-to-editing_profile" style="stroke:#181818;stroke-width:1.0;"/><polygon fill="#181818" points="306.848,267.589,299.9971,260.5133,302.2109,265.719,297.0051,267.9327,306.848,267.589" style="stroke:#181818;stroke-width:1.0;"/><text fill="#000000" font-family="sans-serif" font-size="13" lengthAdjust="spacing" textLength="71" x="266" y="227.0669">edit_profile</text></g><!--link editing_profile to viewing_profile--><g id="link_editing_profile_viewing_profile"><path d="M372.114,260.973 C373.916,240.503 376.51,211.021 378.431,189.194 " fill="none" id="editing_profile-to-viewing_profile" style="stroke:#181818;stroke-width:1.0;"/><polygon fill="#181818" points="378.879,184.101,374.1075,192.7169,378.4419,189.0819,382.0769,193.4162,378.879,184.101" style="stroke:#181818;stroke-width:1.0;"/><text fill="#000000" font-family="sans-serif" font-size="13" lengthAdjust="spacing" textLength="97" x="378" y="227.0669">back_to_profile</text></g><!--link viewing_profile to logged--><g id="link_viewing_profile_logged"><path d="M443.333,184.041 C457.282,191.838 470.913,201.731 481,214 C490.707,225.808 496.141,241.89 499.179,255.762 " fill="none" id="viewing_profile-to-logged" style="stroke:#181818;stroke-width:1.0;"/><polygon fill="#181818" points="500.193,260.761,502.3239,251.1454,499.199,255.8608,494.4836,252.7359,500.193,260.761" style="stroke:#181818;stroke-width:1.0;"/></g><!--link editing_profile to saving_changes--><g id="link_editing_profile_saving_changes"><path d="M402.009,311.156 C421.511,325.452 447.185,343.5354 471,358 C486.815,367.6052 504.519,377.2012 520.774,385.5823 " fill="none" id="editing_profile-to-saving_changes" style="stroke:#181818;stroke-width:1.0;"/><polygon fill="#181818" points="525.318,387.913,519.1368,380.2453,520.8695,385.6303,515.4845,387.363,525.318,387.913" style="stroke:#181818;stroke-width:1.0;"/><text fill="#000000" font-family="sans-serif" font-size="13" lengthAdjust="spacing" textLength="92" x="472" y="354.0669">save_changes</text></g><!--link logged_out to logged_in_instructor--><g id="link_logged_out_logged_in_instructor"><path d="M573.037,133.985 C566.509,119.03 556.454,100.195 543,87 C531.992,76.204 518.386,67.043 504.711,59.503 " fill="none" id="logged_out-to-logged_in_instructor" style="stroke:#181818;stroke-width:1.0;"/><polygon fill="#181818" points="500.074,57.009,506.1029,64.797,504.4767,59.3789,509.8947,57.7527,500.074,57.009" style="stroke:#181818;stroke-width:1.0;"/><text fill="#000000" font-family="sans-serif" font-size="13" lengthAdjust="spacing" textLength="98" x="557" y="100.0669">login_instructor</text></g><!--link logged_in_instructor to logged_out--><g id="link_logged_in_instructor_logged_out"><path d="M454.68,57.227 C464.35,71.897 477.971,90.347 493,104 C504.177,114.154 517.539,123.432 530.469,131.325 " fill="none" id="logged_in_instructor-to-logged_out" style="stroke:#181818;stroke-width:1.0;"/><polygon fill="#181818" points="534.834,133.947,529.1805,125.8824,530.5484,131.3714,525.0595,132.7393,534.834,133.947" style="stroke:#181818;stroke-width:1.0;"/><text fill="#000000" font-family="sans-serif" font-size="13" lengthAdjust="spacing" textLength="40" x="494" y="100.0669">logout</text></g><!--link logged_out to *end*--><g id="link_logged_out_*end*"><path d="M598.352,184.156 C604.408,193.375 611.205,204.058 617,214 C628.571,233.852 640.627,257.672 647.716,272.057 " fill="none" id="logged_out-to-*end*" style="stroke:#181818;stroke-width:1.0;"/><polygon fill="#181818" points="649.922,276.554,649.549,266.7122,647.7197,272.0651,642.3668,270.2359,649.922,276.554" style="stroke:#181818;stroke-width:1.0;"/></g><!--SRC=[VP1D3i8W48Ntd8ArII_0meiOGv2Eb8Z50AtN5sXf-AaaB9Z9zsRcFQM5W97AsJ_hpCATDdWOhdYLyAKVevzI0Gg5d4Mg8m2ZT0U0Qm97vi7uYpfD9_q6X52G551WB5k1yedD0cnBb7FIEeIyAd2x3XydPs9FgPwxV0yf_VurN6gA2Cuas_x6rMuxDq3wEPpVtCQI7El5PGTK0P3GBbgTfBA1KUS_rPw8tIxt7m00]--></g></svg>