<?xml version="1.0" encoding="us-ascii" standalone="no"?><svg xmlns="http://www.w3.org/2000/svg" xmlns:xlink="http://www.w3.org/1999/xlink" contentStyleType="text/css" height="889px" preserveAspectRatio="none" style="width:1420px;height:889px;background:#FFFFFF;" version="1.1" viewBox="0 0 1420 889" width="1420px" zoomAndPan="magnify"><defs/><g><ellipse cx="754.5" cy="16" fill="#181818" rx="10" ry="10" style="stroke:none;stroke-width:1.0;"/><g id="logged_out"><rect fill="#F1F1F1" height="50" rx="12.5" ry="12.5" style="stroke:#181818;stroke-width:0.5;" width="100" x="704.5" y="87"/><line style="stroke:#181818;stroke-width:0.5;" x1="704.5" x2="804.5" y1="113.2969" y2="113.2969"/><text fill="#000000" font-family="sans-serif" font-size="14" lengthAdjust="spacing" textLength="80" x="714.5" y="104.9951">logged_out</text></g><g id="logout"><rect fill="#F1F1F1" height="50" rx="12.5" ry="12.5" style="stroke:#181818;stroke-width:0.5;" width="66" x="1033.5" y="341"/><line style="stroke:#181818;stroke-width:0.5;" x1="1033.5" x2="1099.5" y1="367.2969" y2="367.2969"/><text fill="#000000" font-family="sans-serif" font-size="14" lengthAdjust="spacing" textLength="46" x="1043.5" y="358.9951">logout</text></g><g id="logged_in_learner"><rect fill="#F1F1F1" height="50" rx="12.5" ry="12.5" style="stroke:#181818;stroke-width:0.5;" width="147" x="525" y="214"/><line style="stroke:#181818;stroke-width:0.5;" x1="525" x2="672" y1="240.2969" y2="240.2969"/><text fill="#000000" font-family="sans-serif" font-size="14" lengthAdjust="spacing" textLength="127" x="535" y="231.9951">logged_in_learner</text></g><g id="browse_courses"><rect fill="#F1F1F1" height="50" rx="12.5" ry="12.5" style="stroke:#181818;stroke-width:0.5;" width="133" x="7" y="341"/><line style="stroke:#181818;stroke-width:0.5;" x1="7" x2="140" y1="367.2969" y2="367.2969"/><text fill="#000000" font-family="sans-serif" font-size="14" lengthAdjust="spacing" textLength="113" x="17" y="358.9951">browse_courses</text></g><g id="view_profile"><rect fill="#F1F1F1" height="50" rx="12.5" ry="12.5" style="stroke:#181818;stroke-width:0.5;" width="107" x="175" y="341"/><line style="stroke:#181818;stroke-width:0.5;" x1="175" x2="282" y1="367.2969" y2="367.2969"/><text fill="#000000" font-family="sans-serif" font-size="14" lengthAdjust="spacing" textLength="87" x="185" y="358.9951">view_profile</text></g><g id="enroll_course"><rect fill="#F1F1F1" height="50" rx="12.5" ry="12.5" style="stroke:#181818;stroke-width:0.5;" width="115" x="493" y="595"/><line style="stroke:#181818;stroke-width:0.5;" x1="493" x2="608" y1="621.2969" y2="621.2969"/><text fill="#000000" font-family="sans-serif" font-size="14" lengthAdjust="spacing" textLength="95" x="503" y="612.9951">enroll_course</text></g><g id="do_assignment"><rect fill="#F1F1F1" height="50" rx="12.5" ry="12.5" style="stroke:#181818;stroke-width:0.5;" width="128" x="342.5" y="833"/><line style="stroke:#181818;stroke-width:0.5;" x1="342.5" x2="470.5" y1="859.2969" y2="859.2969"/><text fill="#000000" font-family="sans-serif" font-size="14" lengthAdjust="spacing" textLength="108" x="352.5" y="850.9951">do_assignment</text></g><g id="browsing_courses"><rect fill="#F1F1F1" height="50" rx="12.5" ry="12.5" style="stroke:#181818;stroke-width:0.5;" width="146" x="687.5" y="341"/><line style="stroke:#181818;stroke-width:0.5;" x1="687.5" x2="833.5" y1="367.2969" y2="367.2969"/><text fill="#000000" font-family="sans-serif" font-size="14" lengthAdjust="spacing" textLength="126" x="697.5" y="358.9951">browsing_courses</text></g><g id="view_course"><rect fill="#F1F1F1" height="50" rx="12.5" ry="12.5" style="stroke:#181818;stroke-width:0.5;" width="106" x="1236.5" y="833"/><line style="stroke:#181818;stroke-width:0.5;" x1="1236.5" x2="1342.5" y1="859.2969" y2="859.2969"/><text fill="#000000" font-family="sans-serif" font-size="14" lengthAdjust="spacing" textLength="86" x="1246.5" y="850.9951">view_course</text></g><g id="viewing_course"><rect fill="#F1F1F1" height="50" rx="12.5" ry="12.5" style="stroke:#181818;stroke-width:0.5;" width="128" x="870.5" y="468"/><line style="stroke:#181818;stroke-width:0.5;" x1="870.5" x2="998.5" y1="494.2969" y2="494.2969"/><text fill="#000000" font-family="sans-serif" font-size="14" lengthAdjust="spacing" textLength="108" x="880.5" y="485.9951">viewing_course</text></g><g id="back_to_browse"><rect fill="#F1F1F1" height="50" rx="12.5" ry="12.5" style="stroke:#181818;stroke-width:0.5;" width="137" x="843" y="595"/><line style="stroke:#181818;stroke-width:0.5;" x1="843" x2="980" y1="621.2969" y2="621.2969"/><text fill="#000000" font-family="sans-serif" font-size="14" lengthAdjust="spacing" textLength="117" x="853" y="612.9951">back_to_browse</text></g><g id="view_assignment"><rect fill="#F1F1F1" height="50" rx="12.5" ry="12.5" style="stroke:#181818;stroke-width:0.5;" width="142" x="1020.5" y="833"/><line style="stroke:#181818;stroke-width:0.5;" x1="1020.5" x2="1162.5" y1="859.2969" y2="859.2969"/><text fill="#000000" font-family="sans-serif" font-size="14" lengthAdjust="spacing" textLength="122" x="1030.5" y="850.9951">view_assignment</text></g><g id="enrolled_course"><rect fill="#F1F1F1" height="50" rx="12.5" ry="12.5" style="stroke:#181818;stroke-width:0.5;" width="133" x="923" y="722"/><line style="stroke:#181818;stroke-width:0.5;" x1="923" x2="1056" y1="748.2969" y2="748.2969"/><text fill="#000000" font-family="sans-serif" font-size="14" lengthAdjust="spacing" textLength="113" x="933" y="739.9951">enrolled_course</text></g><g id="viewing_assignment"><rect fill="#F1F1F1" height="50" rx="12.5" ry="12.5" style="stroke:#181818;stroke-width:0.5;" width="164" x="643.5" y="595"/><line style="stroke:#181818;stroke-width:0.5;" x1="643.5" x2="807.5" y1="621.2969" y2="621.2969"/><text fill="#000000" font-family="sans-serif" font-size="14" lengthAdjust="spacing" textLength="144" x="653.5" y="612.9951">viewing_assignment</text></g><g id="back_to_course"><rect fill="#F1F1F1" height="50" rx="12.5" ry="12.5" style="stroke:#181818;stroke-width:0.5;" width="132" x="649.5" y="722"/><line style="stroke:#181818;stroke-width:0.5;" x1="649.5" x2="781.5" y1="748.2969" y2="748.2969"/><text fill="#000000" font-family="sans-serif" font-size="14" lengthAdjust="spacing" textLength="112" x="659.5" y="739.9951">back_to_course</text></g><g id="viewing_profile"><rect fill="#F1F1F1" height="50" rx="12.5" ry="12.5" style="stroke:#181818;stroke-width:0.5;" width="129" x="869" y="341"/><line style="stroke:#181818;stroke-width:0.5;" x1="869" x2="998" y1="367.2969" y2="367.2969"/><text fill="#000000" font-family="sans-serif" font-size="14" lengthAdjust="spacing" textLength="109" x="879" y="358.9951">viewing_profile</text></g><ellipse cx="787.5" cy="239" fill="none" rx="10" ry="10" style="stroke:#181818;stroke-width:1.0;"/><ellipse cx="788" cy="239.5" fill="#181818" rx="6" ry="6" style="stroke:none;stroke-width:1.0;"/><!--link *start* to logged_out--><g id="link_*start*_logged_out"><path d="M754.5,26.013 C754.5,38.698 754.5,62.409 754.5,81.57 " fill="none" id="*start*-to-logged_out" style="stroke:#181818;stroke-width:1.0;"/><polygon fill="#181818" points="754.5,86.84,758.5,77.84,754.5,81.84,750.5,77.84,754.5,86.84" style="stroke:#181818;stroke-width:1.0;"/></g><!--link logout to logged_out--><g id="link_logout_logged_out"><path d="M1053.37,340.97 C1044.67,326.374 1032.34,307.933 1018.5,294 C953.167,228.239 860.885,171.328 804.514,139.655 " fill="none" id="logout-to-logged_out" style="stroke:#181818;stroke-width:1.0;"/><polygon fill="#181818" points="799.847,137.044,805.7487,144.9288,804.2106,139.4851,809.6544,137.947,799.847,137.044" style="stroke:#181818;stroke-width:1.0;"/></g><!--link logged_in_learner to browse_courses--><g id="link_logged_in_learner_browse_courses"><path d="M524.779,248.812 C459.237,257.494 361.122,272.577 277.5,294 C230.199,306.118 178.241,324.276 138.6,339.196 " fill="none" id="logged_in_learner-to-browse_courses" style="stroke:#181818;stroke-width:1.0;"/><polygon fill="#181818" points="133.827,340.999,143.6598,341.5609,138.5045,339.2323,140.8331,334.0769,133.827,340.999" style="stroke:#181818;stroke-width:1.0;"/></g><!--link logged_in_learner to view_profile--><g id="link_logged_in_learner_view_profile"><path d="M524.789,243.023 C464.296,247.971 377.793,260.824 309.5,294 C288.101,304.395 267.967,321.993 253.125,337.067 " fill="none" id="logged_in_learner-to-view_profile" style="stroke:#181818;stroke-width:1.0;"/><polygon fill="#181818" points="249.468,340.839,258.6043,337.1609,252.9481,337.2489,252.8601,331.5927,249.468,340.839" style="stroke:#181818;stroke-width:1.0;"/></g><!--link logged_in_learner to enroll_course--><g id="link_logged_in_learner_enroll_course"><path d="M595.424,264.285 C586.958,331.135 563.331,517.687 554.183,589.918 " fill="none" id="logged_in_learner-to-enroll_course" style="stroke:#181818;stroke-width:1.0;"/><polygon fill="#181818" points="553.55,594.918,558.6498,586.4923,554.1786,589.9577,550.7132,585.4865,553.55,594.918" style="stroke:#181818;stroke-width:1.0;"/></g><!--link logged_in_learner to do_assignment--><g id="link_logged_in_learner_do_assignment"><path d="M524.89,244.247 C447.085,253.186 335.5,280.7 335.5,365 C335.5,365 335.5,365 335.5,748 C335.5,779.253 356.248,808.5692 375.312,828.9094 " fill="none" id="logged_in_learner-to-do_assignment" style="stroke:#181818;stroke-width:1.0;"/><polygon fill="#181818" points="378.846,832.6014,375.5128,823.3337,375.3888,828.9892,369.7333,828.8653,378.846,832.6014" style="stroke:#181818;stroke-width:1.0;"/></g><!--link logged_in_learner to logout--><g id="link_logged_in_learner_logout"><path d="M672.165,250.81 C761.923,264.175 904.622,286.122 928.5,294 C964.176,305.771 1001.928,325.782 1028.91,341.565 " fill="none" id="logged_in_learner-to-logout" style="stroke:#181818;stroke-width:1.0;"/><polygon fill="#181818" points="1033.48,344.26,1027.7437,336.2541,1029.1681,341.7287,1023.6935,343.1531,1033.48,344.26" style="stroke:#181818;stroke-width:1.0;"/><text fill="#000000" font-family="sans-serif" font-size="13" lengthAdjust="spacing" textLength="40" x="969.5" y="307.0669">logout</text></g><!--link browsing_courses to view_course--><g id="link_browsing_courses_view_course"><path d="M833.883,386.893 C839.83,388.34 845.757,389.729 851.5,391 C975.391,418.424 1413.5,365.11 1413.5,492 C1413.5,492 1413.5,492 1413.5,748 C1413.5,786.2467 1379.81,814.2364 1347.55,832.2704 " fill="none" id="browsing_courses-to-view_course" style="stroke:#181818;stroke-width:1.0;"/><polygon fill="#181818" points="1342.81,834.859,1352.6276,834.0755,1347.203,832.4713,1348.8072,827.0466,1342.81,834.859" style="stroke:#181818;stroke-width:1.0;"/></g><!--link viewing_course to enroll_course--><g id="link_viewing_course_enroll_course"><path d="M870.021,506.571 C825.256,516.052 764.546,530.415 712.5,548 C675.344,560.554 634.94,578.254 603.778,592.84 " fill="none" id="viewing_course-to-enroll_course" style="stroke:#181818;stroke-width:1.0;"/><polygon fill="#181818" points="599.248,594.968,609.0947,594.7597,603.7731,592.8411,605.6917,587.5196,599.248,594.968" style="stroke:#181818;stroke-width:1.0;"/></g><!--link viewing_course to back_to_browse--><g id="link_viewing_course_back_to_browse"><path d="M969.937,518.288 C984.474,531.418 996.108,548.325 987.5,565 C982.043,575.571 973.455,584.524 963.983,591.915 " fill="none" id="viewing_course-to-back_to_browse" style="stroke:#181818;stroke-width:1.0;"/><polygon fill="#181818" points="959.876,594.988,969.4791,592.8017,963.8803,591.9937,964.6883,586.3949,959.876,594.988" style="stroke:#181818;stroke-width:1.0;"/></g><!--link viewing_course to view_assignment--><g id="link_viewing_course_view_assignment"><path d="M998.542,505.324 C1080.82,521.391 1216.31,553.52 1243.5,595 C1297.97,678.111 1189.21,781.278 1128.51,829.6099 " fill="none" id="viewing_course-to-view_assignment" style="stroke:#181818;stroke-width:1.0;"/><polygon fill="#181818" points="1124.23,832.994,1133.7716,830.5531,1128.1532,829.8943,1128.812,824.2759,1124.23,832.994" style="stroke:#181818;stroke-width:1.0;"/></g><!--link enrolled_course to view_course--><g id="link_enrolled_course_view_course"><path d="M1055.71,772.055 C1108.36,791.1869 1181.3,817.6879 1231.64,835.9778 " fill="none" id="enrolled_course-to-view_course" style="stroke:#181818;stroke-width:1.0;"/><polygon fill="#181818" points="1236.44,837.7216,1229.3558,830.8795,1231.7428,836.0081,1226.6142,838.3951,1236.44,837.7216" style="stroke:#181818;stroke-width:1.0;"/></g><!--link enrolled_course to do_assignment--><g id="link_enrolled_course_do_assignment"><path d="M922.907,760.451 C811.626,781.256 588.965,822.8856 475.865,844.0312 " fill="none" id="enrolled_course-to-do_assignment" style="stroke:#181818;stroke-width:1.0;"/><polygon fill="#181818" points="470.894,844.9606,480.4757,847.2391,475.8089,844.042,479.006,839.3752,470.894,844.9606" style="stroke:#181818;stroke-width:1.0;"/></g><!--link enrolled_course to view_assignment--><g id="link_enrolled_course_view_assignment"><path d="M1012.14,772.191 C1027.85,788.9837 1048.83,811.4063 1065.28,828.9779 " fill="none" id="enrolled_course-to-view_assignment" style="stroke:#181818;stroke-width:1.0;"/><polygon fill="#181818" points="1068.93,832.877,1065.7091,823.5697,1065.5168,829.2233,1059.8632,829.0309,1068.93,832.877" style="stroke:#181818;stroke-width:1.0;"/></g><!--link viewing_assignment to do_assignment--><g id="link_viewing_assignment_do_assignment"><path d="M692.861,645.147 C633.038,689.404 506.215,783.2296 443.377,829.718 " fill="none" id="viewing_assignment-to-do_assignment" style="stroke:#181818;stroke-width:1.0;"/><polygon fill="#181818" points="439.332,832.7107,448.9465,830.575,443.352,829.7375,444.1894,824.143,439.332,832.7107" style="stroke:#181818;stroke-width:1.0;"/></g><!--link viewing_assignment to back_to_course--><g id="link_viewing_assignment_back_to_course"><path d="M723.572,645.101 C721.933,665.593 719.574,695.076 717.829,716.884 " fill="none" id="viewing_assignment-to-back_to_course" style="stroke:#181818;stroke-width:1.0;"/><polygon fill="#181818" points="717.422,721.973,722.1269,713.3206,717.8207,716.9889,714.1523,712.6827,717.422,721.973" style="stroke:#181818;stroke-width:1.0;"/></g><!--link logged_out to logged_in_learner--><g id="link_logged_out_logged_in_learner"><path d="M704.25,115.32 C667.531,119.966 620.035,132.756 595.5,167 C586.989,178.88 586.996,194.967 589.461,208.824 " fill="none" id="logged_out-to-logged_in_learner" style="stroke:#181818;stroke-width:1.0;"/><polygon fill="#181818" points="590.469,213.817,592.608,204.2032,589.4791,208.916,584.7663,205.7871,590.469,213.817" style="stroke:#181818;stroke-width:1.0;"/><text fill="#000000" font-family="sans-serif" font-size="13" lengthAdjust="spacing" textLength="82" x="596.5" y="180.0669">login_learner</text></g><!--link logged_in_learner to logged_out--><g id="link_logged_in_learner_logged_out"><path d="M640.39,213.927 C654.541,205.141 670.131,194.716 683.5,184 C699.787,170.945 716.372,154.569 729.412,140.835 " fill="none" id="logged_in_learner-to-logged_out" style="stroke:#181818;stroke-width:1.0;"/><polygon fill="#181818" points="732.993,137.037,723.9089,140.8422,729.5633,140.6753,729.7302,146.3297,732.993,137.037" style="stroke:#181818;stroke-width:1.0;"/><text fill="#000000" font-family="sans-serif" font-size="13" lengthAdjust="spacing" textLength="40" x="703.5" y="180.0669">logout</text></g><!--link logged_in_learner to browsing_courses--><g id="link_logged_in_learner_browsing_courses"><path d="M629.735,264.101 C657.077,285.198 696.77,315.826 725.244,337.796 " fill="none" id="logged_in_learner-to-browsing_courses" style="stroke:#181818;stroke-width:1.0;"/><polygon fill="#181818" points="729.361,340.973,724.6789,332.3082,725.4023,337.9187,719.7919,338.6421,729.361,340.973" style="stroke:#181818;stroke-width:1.0;"/><text fill="#000000" font-family="sans-serif" font-size="13" lengthAdjust="spacing" textLength="104" x="690.5" y="307.0669">browse_courses</text></g><!--link logged_in_learner to viewing_profile--><g id="link_logged_in_learner_viewing_profile"><path d="M672.463,254.917 C712.073,264.036 761.268,277.194 803.5,294 C833.754,306.039 865.883,323.538 890.631,338.151 " fill="none" id="logged_in_learner-to-viewing_profile" style="stroke:#181818;stroke-width:1.0;"/><polygon fill="#181818" points="895.164,340.844,889.4671,332.81,890.8646,338.2915,885.3831,339.689,895.164,340.844" style="stroke:#181818;stroke-width:1.0;"/><text fill="#000000" font-family="sans-serif" font-size="13" lengthAdjust="spacing" textLength="77" x="842.5" y="307.0669">view_profile</text></g><!--link logged_in_learner to enrolled_course--><g id="link_logged_in_learner_enrolled_course"><path d="M577.438,264.184 C520.638,332.367 375.159,528.73 475.5,645 C504.244,678.308 783.229,718.971 917.713,736.838 " fill="none" id="logged_in_learner-to-enrolled_course" style="stroke:#181818;stroke-width:1.0;"/><polygon fill="#181818" points="922.828,737.516,914.4317,732.368,917.8714,736.8589,913.3804,740.2986,922.828,737.516" style="stroke:#181818;stroke-width:1.0;"/><text fill="#000000" font-family="sans-serif" font-size="13" lengthAdjust="spacing" textLength="85" x="456.5" y="497.5669">enroll_course</text></g><!--link logged_in_learner to viewing_assignment--><g id="link_logged_in_learner_viewing_assignment"><path d="M604.783,264.19 C607.2,273.507 609.983,284.247 612.5,294 C629.014,357.982 628.431,375.37 649.5,438 C668.012,493.028 695.54,554.968 711.888,590.255 " fill="none" id="logged_in_learner-to-viewing_assignment" style="stroke:#181818;stroke-width:1.0;"/><polygon fill="#181818" points="714.02,594.844,713.8546,584.9965,711.9128,590.3097,706.5997,588.368,714.02,594.844" style="stroke:#181818;stroke-width:1.0;"/><text fill="#000000" font-family="sans-serif" font-size="13" lengthAdjust="spacing" textLength="112" x="650.5" y="434.0669">view_assignment</text></g><!--link browsing_courses to viewing_course--><g id="link_browsing_courses_viewing_course"><path d="M833.615,385.875 C855.297,394.06 877.92,405.441 895.5,421 C908.273,432.305 917.697,448.835 924.079,463.102 " fill="none" id="browsing_courses-to-viewing_course" style="stroke:#181818;stroke-width:1.0;"/><polygon fill="#181818" points="926.127,467.843,926.2299,457.9947,924.1441,463.253,918.8858,461.1673,926.127,467.843" style="stroke:#181818;stroke-width:1.0;"/><text fill="#000000" font-family="sans-serif" font-size="13" lengthAdjust="spacing" textLength="80" x="911.5" y="434.0669">view_course</text></g><!--link viewing_course to browsing_courses--><g id="link_viewing_course_browsing_courses"><path d="M870.161,483.134 C839.556,475.797 804.679,462.41 781.5,438 C770.858,426.793 765.58,410.451 762.975,396.27 " fill="none" id="viewing_course-to-browsing_courses" style="stroke:#181818;stroke-width:1.0;"/><polygon fill="#181818" points="762.131,391.157,759.6502,400.6883,762.9453,396.0902,767.5434,399.3853,762.131,391.157" style="stroke:#181818;stroke-width:1.0;"/><text fill="#000000" font-family="sans-serif" font-size="13" lengthAdjust="spacing" textLength="104" x="782.5" y="434.0669">back_to_browse</text></g><!--link viewing_course to enrolled_course--><g id="link_viewing_course_enrolled_course"><path d="M998.581,504.495 C1048.52,516.609 1113.74,542.14 1140.5,595 C1150.54,614.826 1150.54,625.174 1140.5,645 C1123.32,678.926 1088.83,703.299 1057.14,719.592 " fill="none" id="viewing_course-to-enrolled_course" style="stroke:#181818;stroke-width:1.0;"/><polygon fill="#181818" points="1052.49,721.938,1062.3278,721.4719,1056.9578,719.6934,1058.7364,714.3234,1052.49,721.938" style="stroke:#181818;stroke-width:1.0;"/><text fill="#000000" font-family="sans-serif" font-size="13" lengthAdjust="spacing" textLength="85" x="1149.5" y="624.5669">enroll_course</text></g><!--link enrolled_course to viewing_course--><g id="link_enrolled_course_viewing_course"><path d="M1010.62,721.839 C1017.01,713.046 1023.2,702.639 1026.5,692 C1045.49,630.687 1048.2,603.231 1015.5,548 C1009.25,537.438 1000.022,528.523 990.016,521.17 " fill="none" id="enrolled_course-to-viewing_course" style="stroke:#181818;stroke-width:1.0;"/><polygon fill="#181818" points="985.686,518.114,990.7322,526.5719,989.7709,520.9973,995.3455,520.036,985.686,518.114" style="stroke:#181818;stroke-width:1.0;"/><text fill="#000000" font-family="sans-serif" font-size="13" lengthAdjust="spacing" textLength="80" x="1042.5" y="624.5669">view_course</text></g><!--link viewing_course to viewing_assignment--><g id="link_viewing_course_viewing_assignment"><path d="M870.316,502.268 C816.363,510.672 745.272,525.654 727.5,548 C718.339,559.518 717.285,575.727 718.77,589.751 " fill="none" id="viewing_course-to-viewing_assignment" style="stroke:#181818;stroke-width:1.0;"/><polygon fill="#181818" points="719.422,594.806,722.2397,585.3688,718.7834,589.847,714.3052,586.3906,719.422,594.806" style="stroke:#181818;stroke-width:1.0;"/><text fill="#000000" font-family="sans-serif" font-size="13" lengthAdjust="spacing" textLength="112" x="728.5" y="561.0669">view_assignment</text></g><!--link viewing_assignment to viewing_course--><g id="link_viewing_assignment_viewing_course"><path d="M786.824,594.938 C806.123,586.443 827.171,576.19 845.5,565 C866.029,552.467 887.151,535.806 903.664,521.774 " fill="none" id="viewing_assignment-to-viewing_course" style="stroke:#181818;stroke-width:1.0;"/><polygon fill="#181818" points="907.759,518.267,898.3206,521.0807,903.9605,521.5184,903.5228,527.1583,907.759,518.267" style="stroke:#181818;stroke-width:1.0;"/><text fill="#000000" font-family="sans-serif" font-size="13" lengthAdjust="spacing" textLength="100" x="870.5" y="561.0669">back_to_course</text></g><!--link enrolled_course to viewing_assignment--><g id="link_enrolled_course_viewing_assignment"><path d="M922.762,742.512 C876.323,737.172 814.998,724.025 770.5,692 C755.921,681.507 744.958,664.691 737.505,650.058 " fill="none" id="enrolled_course-to-viewing_assignment" style="stroke:#181818;stroke-width:1.0;"/><polygon fill="#181818" points="735.111,645.191,735.4928,655.0325,737.3173,649.6779,742.6719,651.5024,735.111,645.191" style="stroke:#181818;stroke-width:1.0;"/><text fill="#000000" font-family="sans-serif" font-size="13" lengthAdjust="spacing" textLength="112" x="771.5" y="688.0669">view_assignment</text></g><!--link viewing_assignment to enrolled_course--><g id="link_viewing_assignment_enrolled_course"><path d="M807.803,643.102 C834.235,651.548 863.203,662.267 888.5,675 C912.351,687.005 936.907,704.14 955.833,718.568 " fill="none" id="viewing_assignment-to-enrolled_course" style="stroke:#181818;stroke-width:1.0;"/><polygon fill="#181818" points="960.028,721.792,955.3301,713.1358,956.0638,718.7449,950.4547,719.4786,960.028,721.792" style="stroke:#181818;stroke-width:1.0;"/><text fill="#000000" font-family="sans-serif" font-size="13" lengthAdjust="spacing" textLength="98" x="919.5" y="688.0669">do_assignment</text></g><!--link logged_out to *end*--><g id="link_logged_out_*end*"><path d="M760.863,137.101 C767.7,163 778.329,203.262 783.867,224.239 " fill="none" id="logged_out-to-*end*" style="stroke:#181818;stroke-width:1.0;"/><polygon fill="#181818" points="785.16,229.135,786.7285,219.4118,783.8829,224.3009,778.9939,221.4552,785.16,229.135" style="stroke:#181818;stroke-width:1.0;"/></g><!--SRC=[ZP91ZiCW34NtFaNNbNe15dEHga9fwqQe38mWdLw_X93Y1ZjfLa2-yVVd7VUdtU7mixE-x_6g_MC0WBH9Y-Qyh8tJ5hlWC6J5EVXdH7tnZn0nCgBqZRf_Wq_z5_pDM9HLw8AtjjmcowvUTp6QtlsY6sHP6KIL1K0sQrm_swtEIaU0SLSLZAc5eBGwTvUx7hoUuX14kHCn3Z1TdSoJTjJFyZyxlo1gkyskwY5p6oDQpFZEQleg8nGPyXev_xg7LPJewwXjkkP1nx92LohRWAq-QWrDRR97Mv5mL1CqNqfY-W980e_w84BaKnw5AU6YNYNuw-4beiM1rWfMEmaqjsbiyirwR6Wd3vWhZllJ2m00]--></g></svg>