<?xml version="1.0" encoding="us-ascii" standalone="no"?><svg xmlns="http://www.w3.org/2000/svg" xmlns:xlink="http://www.w3.org/1999/xlink" contentStyleType="text/css" height="1413px" preserveAspectRatio="none" style="width:1329px;height:1413px;background:#FFFFFF;" version="1.1" viewBox="0 0 1329 1413" width="1329px" zoomAndPan="magnify"><defs/><g><ellipse cx="626" cy="16" fill="#181818" rx="10" ry="10" style="stroke:none;stroke-width:1.0;"/><g id="logged_out"><rect fill="#F1F1F1" height="50" rx="12.5" ry="12.5" style="stroke:#181818;stroke-width:0.5;" width="100" x="576" y="103"/><line style="stroke:#181818;stroke-width:0.5;" x1="576" x2="676" y1="129.2969" y2="129.2969"/><text fill="#000000" font-family="sans-serif" font-size="14" lengthAdjust="spacing" textLength="80" x="586" y="120.9951">logged_out</text></g><g id="register"><rect fill="#F1F1F1" height="50" rx="12.5" ry="12.5" style="stroke:#181818;stroke-width:0.5;" width="77" x="273.5" y="230"/><line style="stroke:#181818;stroke-width:0.5;" x1="273.5" x2="350.5" y1="256.2969" y2="256.2969"/><text fill="#000000" font-family="sans-serif" font-size="14" lengthAdjust="spacing" textLength="57" x="283.5" y="247.9951">register</text></g><g id="login"><rect fill="#F1F1F1" height="50" rx="12.5" ry="12.5" style="stroke:#181818;stroke-width:0.5;" width="55" x="397.5" y="357"/><line style="stroke:#181818;stroke-width:0.5;" x1="397.5" x2="452.5" y1="383.2969" y2="383.2969"/><text fill="#000000" font-family="sans-serif" font-size="14" lengthAdjust="spacing" textLength="35" x="407.5" y="374.9951">login</text></g><g id="registered"><rect fill="#F1F1F1" height="50" rx="12.5" ry="12.5" style="stroke:#181818;stroke-width:0.5;" width="95" x="457.5" y="230"/><line style="stroke:#181818;stroke-width:0.5;" x1="457.5" x2="552.5" y1="256.2969" y2="256.2969"/><text fill="#000000" font-family="sans-serif" font-size="14" lengthAdjust="spacing" textLength="75" x="467.5" y="247.9951">registered</text></g><g id="logged_in_instructor"><rect fill="#F1F1F1" height="50" rx="12.5" ry="12.5" style="stroke:#181818;stroke-width:0.5;" width="167" x="537.5" y="357"/><line style="stroke:#181818;stroke-width:0.5;" x1="537.5" x2="704.5" y1="383.2969" y2="383.2969"/><text fill="#000000" font-family="sans-serif" font-size="14" lengthAdjust="spacing" textLength="147" x="547.5" y="374.9951">logged_in_instructor</text></g><g id="create_course"><rect fill="#F1F1F1" height="50" rx="12.5" ry="12.5" style="stroke:#181818;stroke-width:0.5;" width="121" x="463.5" y="484"/><line style="stroke:#181818;stroke-width:0.5;" x1="463.5" x2="584.5" y1="510.2969" y2="510.2969"/><text fill="#000000" font-family="sans-serif" font-size="14" lengthAdjust="spacing" textLength="101" x="473.5" y="501.9951">create_course</text></g><g id="browse_courses"><rect fill="#F1F1F1" height="50" rx="12.5" ry="12.5" style="stroke:#181818;stroke-width:0.5;" width="133" x="153.5" y="484"/><line style="stroke:#181818;stroke-width:0.5;" x1="153.5" x2="286.5" y1="510.2969" y2="510.2969"/><text fill="#000000" font-family="sans-serif" font-size="14" lengthAdjust="spacing" textLength="113" x="163.5" y="501.9951">browse_courses</text></g><g id="view_profile"><rect fill="#F1F1F1" height="50" rx="12.5" ry="12.5" style="stroke:#181818;stroke-width:0.5;" width="107" x="321.5" y="484"/><line style="stroke:#181818;stroke-width:0.5;" x1="321.5" x2="428.5" y1="510.2969" y2="510.2969"/><text fill="#000000" font-family="sans-serif" font-size="14" lengthAdjust="spacing" textLength="87" x="331.5" y="501.9951">view_profile</text></g><g id="logout"><rect fill="#F1F1F1" height="50" rx="12.5" ry="12.5" style="stroke:#181818;stroke-width:0.5;" width="66" x="955" y="484"/><line style="stroke:#181818;stroke-width:0.5;" x1="955" x2="1021" y1="510.2969" y2="510.2969"/><text fill="#000000" font-family="sans-serif" font-size="14" lengthAdjust="spacing" textLength="46" x="965" y="501.9951">logout</text></g><g id="browsing_courses"><rect fill="#F1F1F1" height="50" rx="12.5" ry="12.5" style="stroke:#181818;stroke-width:0.5;" width="146" x="371" y="865"/><line style="stroke:#181818;stroke-width:0.5;" x1="371" x2="517" y1="891.2969" y2="891.2969"/><text fill="#000000" font-family="sans-serif" font-size="14" lengthAdjust="spacing" textLength="126" x="381" y="882.9951">browsing_courses</text></g><g id="view_course"><rect fill="#F1F1F1" height="50" rx="12.5" ry="12.5" style="stroke:#181818;stroke-width:0.5;" width="106" x="193" y="1357"/><line style="stroke:#181818;stroke-width:0.5;" x1="193" x2="299" y1="1383.2969" y2="1383.2969"/><text fill="#000000" font-family="sans-serif" font-size="14" lengthAdjust="spacing" textLength="86" x="203" y="1374.9951">view_course</text></g><g id="viewing_course"><rect fill="#F1F1F1" height="50" rx="12.5" ry="12.5" style="stroke:#181818;stroke-width:0.5;" width="128" x="526" y="992"/><line style="stroke:#181818;stroke-width:0.5;" x1="526" x2="654" y1="1018.2969" y2="1018.2969"/><text fill="#000000" font-family="sans-serif" font-size="14" lengthAdjust="spacing" textLength="108" x="536" y="1009.9951">viewing_course</text></g><g id="enroll_course"><rect fill="#F1F1F1" height="50" rx="12.5" ry="12.5" style="stroke:#181818;stroke-width:0.5;" width="115" x="987.5" y="1119"/><line style="stroke:#181818;stroke-width:0.5;" x1="987.5" x2="1102.5" y1="1145.2969" y2="1145.2969"/><text fill="#000000" font-family="sans-serif" font-size="14" lengthAdjust="spacing" textLength="95" x="997.5" y="1136.9951">enroll_course</text></g><g id="back_to_browse"><rect fill="#F1F1F1" height="50" rx="12.5" ry="12.5" style="stroke:#181818;stroke-width:0.5;" width="137" x="235.5" y="1119"/><line style="stroke:#181818;stroke-width:0.5;" x1="235.5" x2="372.5" y1="1145.2969" y2="1145.2969"/><text fill="#000000" font-family="sans-serif" font-size="14" lengthAdjust="spacing" textLength="117" x="245.5" y="1136.9951">back_to_browse</text></g><g id="view_assignment"><rect fill="#F1F1F1" height="50" rx="12.5" ry="12.5" style="stroke:#181818;stroke-width:0.5;" width="142" x="461" y="1357"/><line style="stroke:#181818;stroke-width:0.5;" x1="461" x2="603" y1="1383.2969" y2="1383.2969"/><text fill="#000000" font-family="sans-serif" font-size="14" lengthAdjust="spacing" textLength="122" x="471" y="1374.9951">view_assignment</text></g><g id="enrolled_course"><rect fill="#F1F1F1" height="50" rx="12.5" ry="12.5" style="stroke:#181818;stroke-width:0.5;" width="133" x="599.5" y="1246"/><line style="stroke:#181818;stroke-width:0.5;" x1="599.5" x2="732.5" y1="1272.2969" y2="1272.2969"/><text fill="#000000" font-family="sans-serif" font-size="14" lengthAdjust="spacing" textLength="113" x="609.5" y="1263.9951">enrolled_course</text></g><g id="do_assignment"><rect fill="#F1F1F1" height="50" rx="12.5" ry="12.5" style="stroke:#181818;stroke-width:0.5;" width="128" x="701" y="1357"/><line style="stroke:#181818;stroke-width:0.5;" x1="701" x2="829" y1="1383.2969" y2="1383.2969"/><text fill="#000000" font-family="sans-serif" font-size="14" lengthAdjust="spacing" textLength="108" x="711" y="1374.9951">do_assignment</text></g><g id="viewing_assignment"><rect fill="#F1F1F1" height="50" rx="12.5" ry="12.5" style="stroke:#181818;stroke-width:0.5;" width="164" x="788" y="1119"/><line style="stroke:#181818;stroke-width:0.5;" x1="788" x2="952" y1="1145.2969" y2="1145.2969"/><text fill="#000000" font-family="sans-serif" font-size="14" lengthAdjust="spacing" textLength="144" x="798" y="1136.9951">viewing_assignment</text></g><g id="back_to_course"><rect fill="#F1F1F1" height="50" rx="12.5" ry="12.5" style="stroke:#181818;stroke-width:0.5;" width="132" x="1054" y="1246"/><line style="stroke:#181818;stroke-width:0.5;" x1="1054" x2="1186" y1="1272.2969" y2="1272.2969"/><text fill="#000000" font-family="sans-serif" font-size="14" lengthAdjust="spacing" textLength="112" x="1064" y="1263.9951">back_to_course</text></g><g id="creating_course"><rect fill="#F1F1F1" height="50" rx="12.5" ry="12.5" style="stroke:#181818;stroke-width:0.5;" width="134" x="323" y="611"/><line style="stroke:#181818;stroke-width:0.5;" x1="323" x2="457" y1="637.2969" y2="637.2969"/><text fill="#000000" font-family="sans-serif" font-size="14" lengthAdjust="spacing" textLength="114" x="333" y="628.9951">creating_course</text></g><g id="create_course_confirm"><rect fill="#F1F1F1" height="50" rx="12.5" ry="12.5" style="stroke:#181818;stroke-width:0.5;" width="184" x="7" y="738"/><line style="stroke:#181818;stroke-width:0.5;" x1="7" x2="191" y1="764.2969" y2="764.2969"/><text fill="#000000" font-family="sans-serif" font-size="14" lengthAdjust="spacing" textLength="164" x="17" y="755.9951">create_course_confirm</text></g><g id="back_to_home"><rect fill="#F1F1F1" height="50" rx="12.5" ry="12.5" style="stroke:#181818;stroke-width:0.5;" width="126" x="459" y="738"/><line style="stroke:#181818;stroke-width:0.5;" x1="459" x2="585" y1="764.2969" y2="764.2969"/><text fill="#000000" font-family="sans-serif" font-size="14" lengthAdjust="spacing" textLength="106" x="469" y="755.9951">back_to_home</text></g><g id="creating_course_confirm"><rect fill="#F1F1F1" height="50" rx="12.5" ry="12.5" style="stroke:#181818;stroke-width:0.5;" width="197" x="226.5" y="738"/><line style="stroke:#181818;stroke-width:0.5;" x1="226.5" x2="423.5" y1="764.2969" y2="764.2969"/><text fill="#000000" font-family="sans-serif" font-size="14" lengthAdjust="spacing" textLength="177" x="236.5" y="755.9951">creating_course_confirm</text></g><g id="viewing_profile"><rect fill="#F1F1F1" height="50" rx="12.5" ry="12.5" style="stroke:#181818;stroke-width:0.5;" width="129" x="790.5" y="484"/><line style="stroke:#181818;stroke-width:0.5;" x1="790.5" x2="919.5" y1="510.2969" y2="510.2969"/><text fill="#000000" font-family="sans-serif" font-size="14" lengthAdjust="spacing" textLength="109" x="800.5" y="501.9951">viewing_profile</text></g><g id="edit_profile"><rect fill="#F1F1F1" height="50" rx="12.5" ry="12.5" style="stroke:#181818;stroke-width:0.5;" width="104" x="1218" y="611"/><line style="stroke:#181818;stroke-width:0.5;" x1="1218" x2="1322" y1="637.2969" y2="637.2969"/><text fill="#000000" font-family="sans-serif" font-size="14" lengthAdjust="spacing" textLength="84" x="1228" y="628.9951">edit_profile</text></g><g id="editing_profile"><rect fill="#F1F1F1" height="50" rx="12.5" ry="12.5" style="stroke:#181818;stroke-width:0.5;" width="126" x="955" y="611"/><line style="stroke:#181818;stroke-width:0.5;" x1="955" x2="1081" y1="637.2969" y2="637.2969"/><text fill="#000000" font-family="sans-serif" font-size="14" lengthAdjust="spacing" textLength="106" x="965" y="628.9951">editing_profile</text></g><g id="save_changes"><rect fill="#F1F1F1" height="50" rx="12.5" ry="12.5" style="stroke:#181818;stroke-width:0.5;" width="118" x="774" y="738"/><line style="stroke:#181818;stroke-width:0.5;" x1="774" x2="892" y1="764.2969" y2="764.2969"/><text fill="#000000" font-family="sans-serif" font-size="14" lengthAdjust="spacing" textLength="98" x="784" y="755.9951">save_changes</text></g><g id="back_to_profile"><rect fill="#F1F1F1" height="50" rx="12.5" ry="12.5" style="stroke:#181818;stroke-width:0.5;" width="133" x="927.5" y="738"/><line style="stroke:#181818;stroke-width:0.5;" x1="927.5" x2="1060.5" y1="764.2969" y2="764.2969"/><text fill="#000000" font-family="sans-serif" font-size="14" lengthAdjust="spacing" textLength="113" x="937.5" y="755.9951">back_to_profile</text></g><g id="saving_changes"><rect fill="#F1F1F1" height="50" rx="12.5" ry="12.5" style="stroke:#181818;stroke-width:0.5;" width="131" x="1097.5" y="738"/><line style="stroke:#181818;stroke-width:0.5;" x1="1097.5" x2="1228.5" y1="764.2969" y2="764.2969"/><text fill="#000000" font-family="sans-serif" font-size="14" lengthAdjust="spacing" textLength="111" x="1107.5" y="755.9951">saving_changes</text></g><g id="logged"><rect fill="#F1F1F1" height="50" rx="12.5" ry="12.5" style="stroke:#181818;stroke-width:0.5;" width="69" x="850.5" y="611"/><line style="stroke:#181818;stroke-width:0.5;" x1="850.5" x2="919.5" y1="637.2969" y2="637.2969"/><text fill="#000000" font-family="sans-serif" font-size="14" lengthAdjust="spacing" textLength="49" x="860.5" y="628.9951">logged</text></g><ellipse cx="771" cy="255" fill="none" rx="10" ry="10" style="stroke:#181818;stroke-width:1.0;"/><ellipse cx="771.5" cy="255.5" fill="#181818" rx="6" ry="6" style="stroke:none;stroke-width:1.0;"/><!--link *start* to logged_out--><g id="link_*start*_logged_out"><path d="M626,26 C626,41.46 626,73.68 626,97.6 " fill="none" id="*start*-to-logged_out" style="stroke:#181818;stroke-width:1.0;"/><polygon fill="#181818" points="626,102.87,630,93.87,626,97.87,622,93.87,626,102.87" style="stroke:#181818;stroke-width:1.0;"/><text fill="#000000" font-family="sans-serif" font-size="13" lengthAdjust="spacing" textLength="30" x="627" y="69.0669">start</text></g><!--link logged_out to register--><g id="link_logged_out_register"><path d="M575.813,131.16 C523.366,135.34 440.206,147.54 378,183 C359.558,193.51 343.266,210.9 331.482,225.84 " fill="none" id="logged_out-to-register" style="stroke:#181818;stroke-width:1.0;"/><polygon fill="#181818" points="328.28,229.98,336.9485,225.3048,331.3375,226.0238,330.6186,220.4128,328.28,229.98" style="stroke:#181818;stroke-width:1.0;"/></g><!--link logged_out to login--><g id="link_logged_out_login"><path d="M575.855,141.87 C532.254,155.88 471.303,182.86 440,230 C415.792,266.46 416.685,319.18 420.296,351.71 " fill="none" id="logged_out-to-login" style="stroke:#181818;stroke-width:1.0;"/><polygon fill="#181818" points="420.895,356.75,423.8132,347.3434,420.3093,351.7844,415.8683,348.2805,420.895,356.75" style="stroke:#181818;stroke-width:1.0;"/></g><!--link registered to login--><g id="link_registered_login"><path d="M487.371,280.18 C480.811,289.4 473.408,300.08 467,310 C458.131,323.72 448.824,339.32 441.232,352.39 " fill="none" id="registered-to-login" style="stroke:#181818;stroke-width:1.0;"/><polygon fill="#181818" points="438.726,356.72,446.691,350.927,441.2267,352.3903,439.7634,346.9259,438.726,356.72" style="stroke:#181818;stroke-width:1.0;"/></g><!--link logged_in_instructor to create_course--><g id="link_logged_in_instructor_create_course"><path d="M606.911,407.083 C598.293,421.189 586.704,439.101 575,454 C568.086,462.802 559.998,471.843 552.326,479.949 " fill="none" id="logged_in_instructor-to-create_course" style="stroke:#181818;stroke-width:1.0;"/><polygon fill="#181818" points="548.6,483.848,557.7093,480.1036,552.0539,480.2327,551.9248,474.5773,548.6,483.848" style="stroke:#181818;stroke-width:1.0;"/></g><!--link logged_in_instructor to create_course--><g id="link_logged_in_instructor_create_course"><path d="M537.247,395.08 C512.838,402.92 488.783,415.82 474,437 C464.062,451.238 473.186,467.036 486.232,480.107 " fill="none" id="logged_in_instructor-to-create_course-1" style="stroke:#181818;stroke-width:1.0;"/><polygon fill="#181818" points="490.003,483.719,486.2696,474.6052,486.3919,480.2607,480.7363,480.383,490.003,483.719" style="stroke:#181818;stroke-width:1.0;"/><text fill="#000000" font-family="sans-serif" font-size="13" lengthAdjust="spacing" textLength="91" x="475" y="450.0669">create_course</text></g><!--link logged_in_instructor to browse_courses--><g id="link_logged_in_instructor_browse_courses"><path d="M537.075,405.56 C503.367,414.892 464.221,426.073 429,437 C382.926,451.294 331.629,468.698 291.385,482.697 " fill="none" id="logged_in_instructor-to-browse_courses" style="stroke:#181818;stroke-width:1.0;"/><polygon fill="#181818" points="286.533,484.387,296.3479,485.2045,291.2548,482.7426,293.7168,477.6495,286.533,484.387" style="stroke:#181818;stroke-width:1.0;"/></g><!--link logged_in_instructor to view_profile--><g id="link_logged_in_instructor_view_profile"><path d="M537.32,405.22 C512.299,413.488 485.333,424.073 462,437 C440.777,448.758 419.627,465.864 403.496,480.339 " fill="none" id="logged_in_instructor-to-view_profile" style="stroke:#181818;stroke-width:1.0;"/><polygon fill="#181818" points="399.506,483.958,408.8602,480.8761,403.2102,480.5995,403.4867,474.9495,399.506,483.958" style="stroke:#181818;stroke-width:1.0;"/></g><!--link logged_in_instructor to logout--><g id="link_logged_in_instructor_logout"><path d="M704.606,399.38 C745.945,408.54 796.231,421.294 840,437 C878.701,450.887 920.79,471.674 950.154,487.171 " fill="none" id="logged_in_instructor-to-logout" style="stroke:#181818;stroke-width:1.0;"/><polygon fill="#181818" points="954.755,489.611,948.6784,481.8602,950.3379,487.2681,944.9299,488.9276,954.755,489.611" style="stroke:#181818;stroke-width:1.0;"/></g><!--link logout to logged_out--><g id="link_logout_logged_out"><path d="M981.091,483.752 C965.546,432.421 923.788,310.87 856,230 C811.625,177.06 734.115,150.97 681.46,138.77 " fill="none" id="logout-to-logged_out" style="stroke:#181818;stroke-width:1.0;"/><polygon fill="#181818" points="676.444,137.63,684.3354,143.5229,681.32,138.7367,686.1061,135.7214,676.444,137.63" style="stroke:#181818;stroke-width:1.0;"/></g><!--link browsing_courses to view_course--><g id="link_browsing_courses_view_course"><path d="M370.67,895.342 C293.161,904.368 182,931.962 182,1016 C182,1016 182,1016 182,1272 C182,1302.654 201.055,1332.3082 218.371,1352.9273 " fill="none" id="browsing_courses-to-view_course" style="stroke:#181818;stroke-width:1.0;"/><polygon fill="#181818" points="221.804,1356.9282,218.9781,1347.4935,218.5477,1353.1339,212.9073,1352.7035,221.804,1356.9282" style="stroke:#181818;stroke-width:1.0;"/></g><!--link viewing_course to enroll_course--><g id="link_viewing_course_enroll_course"><path d="M654.178,1022.915 C745.889,1030.676 909.291,1047.453 963,1072 C984.947,1082.031 1005.468,1099.809 1020.49,1115.065 " fill="none" id="viewing_course-to-enroll_course" style="stroke:#181818;stroke-width:1.0;"/><polygon fill="#181818" points="1024.19,1118.883,1020.8127,1109.6313,1020.7156,1115.2873,1015.0596,1115.1903,1024.19,1118.883" style="stroke:#181818;stroke-width:1.0;"/></g><!--link viewing_course to back_to_browse--><g id="link_viewing_course_back_to_browse"><path d="M525.864,1030.175 C488.007,1038.821 439.854,1052.41 400,1072 C376.651,1083.477 353.122,1100.766 335.201,1115.41 " fill="none" id="viewing_course-to-back_to_browse" style="stroke:#181818;stroke-width:1.0;"/><polygon fill="#181818" points="331.234,1118.683,340.7216,1116.04,335.0905,1115.5007,335.6299,1109.8696,331.234,1118.683" style="stroke:#181818;stroke-width:1.0;"/></g><!--link viewing_course to view_assignment--><g id="link_viewing_course_view_assignment"><path d="M557.215,1042.134 C547.586,1050.634 537.819,1060.871 531,1072 C519.677,1090.48 520.915,1097.524 518,1119 C506.62,1202.834 519.122,1302.932 526.842,1351.5667 " fill="none" id="viewing_course-to-view_assignment" style="stroke:#181818;stroke-width:1.0;"/><polygon fill="#181818" points="527.666,1356.6748,530.1825,1347.1529,526.8701,1351.7385,522.2845,1348.4262,527.666,1356.6748" style="stroke:#181818;stroke-width:1.0;"/></g><!--link enrolled_course to view_course--><g id="link_enrolled_course_view_course"><path d="M599.45,1289.271 C518.082,1310.3883 381.676,1345.7889 304.271,1365.8773 " fill="none" id="enrolled_course-to-view_course" style="stroke:#181818;stroke-width:1.0;"/><polygon fill="#181818" points="299.259,1367.178,308.9751,1368.7895,304.0987,1365.9223,306.966,1361.0459,299.259,1367.178" style="stroke:#181818;stroke-width:1.0;"/></g><!--link enrolled_course to do_assignment--><g id="link_enrolled_course_do_assignment"><path d="M687.971,1296.191 C703.224,1312.9837 723.589,1335.4063 739.549,1352.9779 " fill="none" id="enrolled_course-to-do_assignment" style="stroke:#181818;stroke-width:1.0;"/><polygon fill="#181818" points="743.09,1356.877,740.0002,1347.5254,739.7284,1353.1757,734.0781,1352.9039,743.09,1356.877" style="stroke:#181818;stroke-width:1.0;"/></g><!--link enrolled_course to view_assignment--><g id="link_enrolled_course_view_assignment"><path d="M636.261,1296.191 C615.356,1313.1954 587.355,1335.9724 565.635,1353.6401 " fill="none" id="enrolled_course-to-view_assignment" style="stroke:#181818;stroke-width:1.0;"/><polygon fill="#181818" points="561.656,1356.877,571.1617,1354.3,565.5345,1353.7215,566.113,1348.0943,561.656,1356.877" style="stroke:#181818;stroke-width:1.0;"/></g><!--link viewing_assignment to do_assignment--><g id="link_viewing_assignment_do_assignment"><path d="M937.21,1169.154 C957.485,1180.684 972.219,1196.317 963,1216 C933.306,1279.397 865.954,1326.9321 818.064,1354.314 " fill="none" id="viewing_assignment-to-do_assignment" style="stroke:#181818;stroke-width:1.0;"/><polygon fill="#181818" points="813.492,1356.9008,823.295,1355.9515,817.8441,1354.4392,819.3564,1348.9882,813.492,1356.9008" style="stroke:#181818;stroke-width:1.0;"/></g><!--link viewing_assignment to back_to_course--><g id="link_viewing_assignment_back_to_course"><path d="M952.367,1167.813 C977.063,1176.1 1003.75,1186.549 1027,1199 C1049.31,1210.947 1071.93,1228.08 1089.27,1242.522 " fill="none" id="viewing_assignment-to-back_to_course" style="stroke:#181818;stroke-width:1.0;"/><polygon fill="#181818" points="1093.12,1245.75,1088.7991,1236.8996,1089.2906,1242.535,1083.6552,1243.0266,1093.12,1245.75" style="stroke:#181818;stroke-width:1.0;"/></g><!--link creating_course to create_course_confirm--><g id="link_creating_course_create_course_confirm"><path d="M333.892,661.101 C283.973,682.544 211.134,713.833 159.831,735.87 " fill="none" id="creating_course-to-create_course_confirm" style="stroke:#181818;stroke-width:1.0;"/><polygon fill="#181818" points="154.935,737.973,164.7831,738.0973,159.5293,736.0001,161.6265,730.7464,154.935,737.973" style="stroke:#181818;stroke-width:1.0;"/></g><!--link creating_course to back_to_home--><g id="link_creating_course_back_to_home"><path d="M415.451,661.101 C437.638,682.112 469.807,712.575 492.987,734.526 " fill="none" id="creating_course-to-back_to_home" style="stroke:#181818;stroke-width:1.0;"/><polygon fill="#181818" points="496.627,737.973,492.8439,728.8797,492.997,734.5345,487.3423,734.6876,496.627,737.973" style="stroke:#181818;stroke-width:1.0;"/></g><!--link creating_course_confirm to browsing_courses--><g id="link_creating_course_confirm_browsing_courses"><path d="M384.97,788.063 C398.676,795.898 412.103,805.802 422,818 C431.631,829.87 437.06,845.956 440.113,859.816 " fill="none" id="creating_course_confirm-to-browsing_courses" style="stroke:#181818;stroke-width:1.0;"/><polygon fill="#181818" points="441.133,864.809,443.2493,855.1902,440.1315,859.9103,435.4114,856.7925,441.133,864.809" style="stroke:#181818;stroke-width:1.0;"/></g><!--link creating_course_confirm to browsing_courses--><g id="link_creating_course_confirm_browsing_courses"><path d="M315.329,788.229 C311.142,802.9 309,821.351 318,835 C329.293,852.126 347.265,863.841 366.139,871.847 " fill="none" id="creating_course_confirm-to-browsing_courses-1" style="stroke:#181818;stroke-width:1.0;"/><polygon fill="#181818" points="370.953,873.804,364.1213,866.7098,366.3209,871.9215,361.1092,874.1211,370.953,873.804" style="stroke:#181818;stroke-width:1.0;"/><text fill="#000000" font-family="sans-serif" font-size="13" lengthAdjust="spacing" textLength="94" x="319" y="831.0669">back_to_home</text></g><!--link viewing_profile to edit_profile--><g id="link_viewing_profile_edit_profile"><path d="M919.54,529.768 C925.746,531.335 931.972,532.78 938,534 C1048.98,556.468 1087.84,517.305 1191,564 C1212.53,573.745 1232.3,591.523 1246.67,606.851 " fill="none" id="viewing_profile-to-edit_profile" style="stroke:#181818;stroke-width:1.0;"/><polygon fill="#181818" points="1250.21,610.689,1247.0453,601.3624,1246.8188,607.0148,1241.1665,606.7883,1250.21,610.689" style="stroke:#181818;stroke-width:1.0;"/></g><!--link viewing_profile to back_to_home--><g id="link_viewing_profile_back_to_home"><path d="M843.973,534.013 C827.909,566.67 795.213,625.118 752,661 C704.397,700.527 638.914,727.263 589.991,743.246 " fill="none" id="viewing_profile-to-back_to_home" style="stroke:#181818;stroke-width:1.0;"/><polygon fill="#181818" points="585.01,744.855,594.8039,745.894,589.7678,743.3176,592.3441,738.2815,585.01,744.855" style="stroke:#181818;stroke-width:1.0;"/></g><!--link editing_profile to save_changes--><g id="link_editing_profile_save_changes"><path d="M982.33,661.101 C950.978,682.285 905.406,713.077 872.862,735.066 " fill="none" id="editing_profile-to-save_changes" style="stroke:#181818;stroke-width:1.0;"/><polygon fill="#181818" points="868.56,737.973,878.2569,736.2497,872.7032,735.1742,873.7788,729.6205,868.56,737.973" style="stroke:#181818;stroke-width:1.0;"/></g><!--link editing_profile to back_to_profile--><g id="link_editing_profile_back_to_profile"><path d="M1013.37,661.101 C1009.44,681.593 1003.777,711.076 999.59,732.884 " fill="none" id="editing_profile-to-back_to_profile" style="stroke:#181818;stroke-width:1.0;"/><polygon fill="#181818" points="998.613,737.973,1004.238,729.8885,999.5556,733.0627,996.3815,728.3803,998.613,737.973" style="stroke:#181818;stroke-width:1.0;"/></g><!--link saving_changes to viewing_profile--><g id="link_saving_changes_viewing_profile"><path d="M1163.66,737.697 C1163.39,695.574 1156.29,609.186 1106,564 C1049.58,513.306 1011.87,551.225 938,534 C933.602,532.974 929.09,531.858 924.552,530.686 " fill="none" id="saving_changes-to-viewing_profile" style="stroke:#181818;stroke-width:1.0;"/><polygon fill="#181818" points="919.622,529.395,927.3146,535.5451,924.4588,530.6621,929.3419,527.8063,919.622,529.395" style="stroke:#181818;stroke-width:1.0;"/></g><!--link logged_out to registered--><g id="link_logged_out_registered"><path d="M585.183,153.1 C572.722,161.6 559.54,171.84 549,183 C537.19,195.5 526.879,211.66 519.213,225.4 " fill="none" id="logged_out-to-registered" style="stroke:#181818;stroke-width:1.0;"/><polygon fill="#181818" points="516.716,229.96,524.5454,223.9851,519.1163,225.5738,517.5275,220.1446,516.716,229.96" style="stroke:#181818;stroke-width:1.0;"/><text fill="#000000" font-family="sans-serif" font-size="13" lengthAdjust="spacing" textLength="49" x="550" y="196.0669">register</text></g><!--link logged_out to logged_in_instructor--><g id="link_logged_out_logged_in_instructor"><path d="M625.521,153.16 C624.598,199.64 622.581,301.32 621.583,351.62 " fill="none" id="logged_out-to-logged_in_instructor" style="stroke:#181818;stroke-width:1.0;"/><polygon fill="#181818" points="621.478,356.91,625.6572,347.9918,621.578,351.911,617.6588,347.8318,621.478,356.91" style="stroke:#181818;stroke-width:1.0;"/><text fill="#000000" font-family="sans-serif" font-size="13" lengthAdjust="spacing" textLength="98" x="625" y="259.5669">login_instructor</text></g><!--link logged_in_instructor to logged_out--><g id="link_logged_in_instructor_logged_out"><path d="M699.734,356.86 C736.455,341.2 776.679,316.71 798,280 C832.229,221.06 743.367,173.31 681,148.22 " fill="none" id="logged_in_instructor-to-logged_out" style="stroke:#181818;stroke-width:1.0;"/><polygon fill="#181818" points="676.182,146.3,683.0732,153.3364,680.8298,148.1434,686.0227,145.8999,676.182,146.3" style="stroke:#181818;stroke-width:1.0;"/><text fill="#000000" font-family="sans-serif" font-size="13" lengthAdjust="spacing" textLength="40" x="807" y="259.5669">logout</text></g><!--link registered to logged_in_instructor--><g id="link_registered_logged_in_instructor"><path d="M496.369,280.21 C492.729,294.87 491.122,313.32 500,327 C508.099,339.48 519.831,349.11 532.843,356.52 " fill="none" id="registered-to-logged_in_instructor" style="stroke:#181818;stroke-width:1.0;"/><polygon fill="#181818" points="537.301,358.95,531.3162,351.1281,532.9118,356.5552,527.4846,358.1508,537.301,358.95" style="stroke:#181818;stroke-width:1.0;"/><text fill="#000000" font-family="sans-serif" font-size="13" lengthAdjust="spacing" textLength="98" x="501" y="323.0669">login_instructor</text></g><!--link logged_in_instructor to browsing_courses--><g id="link_logged_in_instructor_browsing_courses"><path d="M626.286,407.298 C631.276,432.389 638,472.739 638,508 C638,508 638,508 638,764 C638,822.047 575.867,854.428 521.926,871.601 " fill="none" id="logged_in_instructor-to-browsing_courses" style="stroke:#181818;stroke-width:1.0;"/><polygon fill="#181818" points="517.067,873.115,526.8494,874.2574,521.8408,871.628,524.4702,866.6194,517.067,873.115" style="stroke:#181818;stroke-width:1.0;"/><text fill="#000000" font-family="sans-serif" font-size="13" lengthAdjust="spacing" textLength="104" x="639" y="640.5669">browse_courses</text></g><!--link logged_in_instructor to viewing_profile--><g id="link_logged_in_instructor_viewing_profile"><path d="M666.118,407.101 C706.097,428.458 764.359,459.58 805.584,481.603 " fill="none" id="logged_in_instructor-to-viewing_profile" style="stroke:#181818;stroke-width:1.0;"/><polygon fill="#181818" points="810.021,483.973,803.9673,476.2043,805.6108,481.6172,800.1979,483.2607,810.021,483.973" style="stroke:#181818;stroke-width:1.0;"/><text fill="#000000" font-family="sans-serif" font-size="13" lengthAdjust="spacing" textLength="77" x="754" y="450.0669">view_profile</text></g><!--link browsing_courses to viewing_course--><g id="link_browsing_courses_viewing_course"><path d="M507.251,915.073 C522.773,922.99 538.502,932.931 551,945 C563.179,956.761 572.529,973.163 579.016,987.239 " fill="none" id="browsing_courses-to-viewing_course" style="stroke:#181818;stroke-width:1.0;"/><polygon fill="#181818" points="581.106,991.914,581.0829,982.0652,579.0646,987.3497,573.78,985.3314,581.106,991.914" style="stroke:#181818;stroke-width:1.0;"/><text fill="#000000" font-family="sans-serif" font-size="13" lengthAdjust="spacing" textLength="80" x="567" y="958.0669">view_course</text></g><!--link viewing_course to browsing_courses--><g id="link_viewing_course_browsing_courses"><path d="M525.615,1010.4 C493.407,1003.965 457.093,990.399 437,962 C428.526,950.023 429.393,933.929 432.77,920.091 " fill="none" id="viewing_course-to-browsing_courses" style="stroke:#181818;stroke-width:1.0;"/><polygon fill="#181818" points="434.116,915.108,427.909,922.7548,432.8131,919.9353,435.6326,924.8394,434.116,915.108" style="stroke:#181818;stroke-width:1.0;"/><text fill="#000000" font-family="sans-serif" font-size="13" lengthAdjust="spacing" textLength="104" x="438" y="958.0669">back_to_browse</text></g><!--link viewing_course to enrolled_course--><g id="link_viewing_course_enrolled_course"><path d="M597.287,1042.163 C611.332,1088.731 642.094,1190.731 657.232,1240.926 " fill="none" id="viewing_course-to-enrolled_course" style="stroke:#181818;stroke-width:1.0;"/><polygon fill="#181818" points="658.735,1245.91,659.9649,1236.1382,657.2908,1241.1231,652.3059,1238.449,658.735,1245.91" style="stroke:#181818;stroke-width:1.0;"/><text fill="#000000" font-family="sans-serif" font-size="13" lengthAdjust="spacing" textLength="85" x="636" y="1148.5669">enroll_course</text></g><!--link enrolled_course to viewing_course--><g id="link_enrolled_course_viewing_course"><path d="M613.874,1245.897 C583.981,1228.997 549.091,1203.285 532,1169 C511.376,1127.629 541.255,1077.03 565.217,1046.175 " fill="none" id="enrolled_course-to-viewing_course" style="stroke:#181818;stroke-width:1.0;"/><polygon fill="#181818" points="568.404,1042.141,559.6865,1046.7242,565.3048,1046.0646,565.9644,1051.6829,568.404,1042.141" style="stroke:#181818;stroke-width:1.0;"/><text fill="#000000" font-family="sans-serif" font-size="13" lengthAdjust="spacing" textLength="80" x="533" y="1148.5669">view_course</text></g><!--link viewing_course to viewing_assignment--><g id="link_viewing_course_viewing_assignment"><path d="M630.797,1042.154 C656.253,1056.709 689.97,1075.061 721,1089 C743.612,1099.157 768.762,1108.853 791.863,1117.154 " fill="none" id="viewing_course-to-viewing_assignment" style="stroke:#181818;stroke-width:1.0;"/><polygon fill="#181818" points="796.76,1118.904,789.6312,1112.1084,792.0517,1117.2212,786.9388,1119.6417,796.76,1118.904" style="stroke:#181818;stroke-width:1.0;"/><text fill="#000000" font-family="sans-serif" font-size="13" lengthAdjust="spacing" textLength="112" x="722" y="1085.0669">view_assignment</text></g><!--link viewing_assignment to viewing_course--><g id="link_viewing_assignment_viewing_course"><path d="M865.372,1118.808 C861.13,1103.19 853.254,1083.677 839,1072 C811.958,1049.847 723.391,1034.464 659.579,1025.937 " fill="none" id="viewing_assignment-to-viewing_course" style="stroke:#181818;stroke-width:1.0;"/><polygon fill="#181818" points="654.258,1025.234,662.6572,1030.3773,659.215,1025.8883,663.704,1022.4461,654.258,1025.234" style="stroke:#181818;stroke-width:1.0;"/><text fill="#000000" font-family="sans-serif" font-size="13" lengthAdjust="spacing" textLength="100" x="854" y="1085.0669">back_to_course</text></g><!--link enrolled_course to viewing_assignment--><g id="link_enrolled_course_viewing_assignment"><path d="M732.802,1257.976 C763.285,1249.959 798.423,1236.911 825,1216 C839.014,1204.974 849.902,1188.299 857.455,1173.879 " fill="none" id="enrolled_course-to-viewing_assignment" style="stroke:#181818;stroke-width:1.0;"/><polygon fill="#181818" points="859.889,1169.086,852.2473,1175.2993,857.625,1173.544,859.3802,1178.9217,859.889,1169.086" style="stroke:#181818;stroke-width:1.0;"/><text fill="#000000" font-family="sans-serif" font-size="13" lengthAdjust="spacing" textLength="112" x="842" y="1212.0669">view_assignment</text></g><!--link viewing_assignment to enrolled_course--><g id="link_viewing_assignment_enrolled_course"><path d="M787.997,1163.811 C763.599,1171.978 737.843,1183.365 717,1199 C702.037,1210.225 689.66,1227.098 680.848,1241.58 " fill="none" id="viewing_assignment-to-enrolled_course" style="stroke:#181818;stroke-width:1.0;"/><polygon fill="#181818" points="678.229,1245.988,686.2652,1240.2942,680.7832,1241.6896,679.3878,1236.2076,678.229,1245.988" style="stroke:#181818;stroke-width:1.0;"/><text fill="#000000" font-family="sans-serif" font-size="13" lengthAdjust="spacing" textLength="98" x="718" y="1212.0669">do_assignment</text></g><!--link create_course to creating_course--><g id="link_create_course_creating_course"><path d="M498.163,534.101 C475.64,555.112 442.984,585.575 419.453,607.526 " fill="none" id="create_course-to-creating_course" style="stroke:#181818;stroke-width:1.0;"/><polygon fill="#181818" points="415.757,610.973,425.0673,607.7609,419.4139,607.5632,419.6116,601.9098,415.757,610.973" style="stroke:#181818;stroke-width:1.0;"/><text fill="#000000" font-family="sans-serif" font-size="13" lengthAdjust="spacing" textLength="91" x="467" y="577.0669">create_course</text></g><!--link creating_course to creating_course_confirm--><g id="link_creating_course_creating_course_confirm"><path d="M377.467,661.101 C366.722,681.766 351.221,711.575 339.854,733.435 " fill="none" id="creating_course-to-creating_course_confirm" style="stroke:#181818;stroke-width:1.0;"/><polygon fill="#181818" points="337.494,737.973,345.1949,731.8332,339.8006,733.5368,338.097,728.1426,337.494,737.973" style="stroke:#181818;stroke-width:1.0;"/><text fill="#000000" font-family="sans-serif" font-size="13" lengthAdjust="spacing" textLength="49" x="363" y="704.0669">confirm</text></g><!--link viewing_profile to editing_profile--><g id="link_viewing_profile_editing_profile"><path d="M869.792,534.305 C879.756,549.187 893.976,567.837 910,581 C922.918,591.612 938.269,600.852 953.283,608.546 " fill="none" id="viewing_profile-to-editing_profile" style="stroke:#181818;stroke-width:1.0;"/><polygon fill="#181818" points="957.929,610.884,951.6865,603.2662,953.4623,608.6371,948.0914,610.4129,957.929,610.884" style="stroke:#181818;stroke-width:1.0;"/><text fill="#000000" font-family="sans-serif" font-size="13" lengthAdjust="spacing" textLength="71" x="911" y="577.0669">edit_profile</text></g><!--link editing_profile to viewing_profile--><g id="link_editing_profile_viewing_profile"><path d="M1012.48,610.913 C1007.9,595.739 999.988,576.689 987,564 C977.163,554.39 951.008,542.952 924.549,533.082 " fill="none" id="editing_profile-to-viewing_profile" style="stroke:#181818;stroke-width:1.0;"/><polygon fill="#181818" points="919.609,531.258,926.6656,538.1286,924.2993,532.9904,929.4374,530.6242,919.609,531.258" style="stroke:#181818;stroke-width:1.0;"/><text fill="#000000" font-family="sans-serif" font-size="13" lengthAdjust="spacing" textLength="97" x="1000" y="577.0669">back_to_profile</text></g><!--link viewing_profile to logged--><g id="link_viewing_profile_logged"><path d="M860.784,534.101 C865.702,554.593 872.778,584.076 878.012,605.884 " fill="none" id="viewing_profile-to-logged" style="stroke:#181818;stroke-width:1.0;"/><polygon fill="#181818" points="879.233,610.973,881.0214,601.2879,878.0658,606.1112,873.2425,603.1555,879.233,610.973" style="stroke:#181818;stroke-width:1.0;"/></g><!--link editing_profile to saving_changes--><g id="link_editing_profile_saving_changes"><path d="M1022.32,661.217 C1026.09,676.252 1032.92,695.1 1045,708 C1057.95,721.83 1075.12,732.401 1092.35,740.361 " fill="none" id="editing_profile-to-saving_changes" style="stroke:#181818;stroke-width:1.0;"/><polygon fill="#181818" points="1097.21,742.538,1090.6302,735.2095,1092.6465,740.4949,1087.3612,742.5111,1097.21,742.538" style="stroke:#181818;stroke-width:1.0;"/><text fill="#000000" font-family="sans-serif" font-size="13" lengthAdjust="spacing" textLength="92" x="1046" y="704.0669">save_changes</text></g><!--link logged_out to *end*--><g id="link_logged_out_*end*"><path d="M653.957,153.1 C686.186,180.88 737.589,225.2 759.978,244.5 " fill="none" id="logged_out-to-*end*" style="stroke:#181818;stroke-width:1.0;"/><polygon fill="#181818" points="763.809,247.8,759.6051,238.8934,760.0223,244.5349,754.3809,244.9521,763.809,247.8" style="stroke:#181818;stroke-width:1.0;"/><text fill="#000000" font-family="sans-serif" font-size="13" lengthAdjust="spacing" textLength="24" x="709" y="196.0669">end</text></g><!--SRC=[bLRRZeCW57pdAtpUf3_0m_v8qnYhr9Ari05iVt-F8ELmNPkODCAS6yoCFNzTkjFfkrlaFBEfbwlfQAVDe0mXQ6s3A3PpRPZ2wpwM2qA81x09B-zeBk3HHgsZaShkZueDXlMZN9LcTTXLoPVsC5t7FJbxzRzAtlZIo0ORqBVjoi-5ne4XR3akPbymvDuR9MHx2mWBO4B9PV6G1D2vOxeEuqzlPEy6ge1ifK5hFei74z0eSQcXGLGEzvFkxuacYTDKG7artrLOB6GhW98PtsTbBpavhEZYuKVSk7fao2JZNJuA-NnqO0gwEeBcsOdXBclYvisKBaKKosuX4MZ3wE493Tm7CKEj317dyUK8WIZReuiBzu22ILLx82rQ528YSanwwdI8bWewFHHsJCWG-OcmiTBeHrh7XqsFgp-ut6u5LS4ZBj98SLNz1ttHjYFKncyw1EuBAOzcAguvHdMWLa2pKiKjyjFurp-AFIPk4lFipRme9EPUrNqA3WAnPITgUWpgqbb5pN1YkaOML0fnJCrSPRSTR22qxKDbkMIsb7xJp_2_O2Fnz0S0]--></g></svg>