<?xml version="1.0" encoding="us-ascii" standalone="no"?><svg xmlns="http://www.w3.org/2000/svg" xmlns:xlink="http://www.w3.org/1999/xlink" contentStyleType="text/css" height="762px" preserveAspectRatio="none" style="width:1560px;height:762px;background:#FFFFFF;" version="1.1" viewBox="0 0 1560 762" width="1560px" zoomAndPan="magnify"><defs/><g><ellipse cx="1424.5" cy="16" fill="#181818" rx="10" ry="10" style="stroke:none;stroke-width:1.0;"/><g id="logged_out"><rect fill="#F1F1F1" height="50" rx="12.5" ry="12.5" style="stroke:#181818;stroke-width:0.5;" width="100" x="1374.5" y="87"/><line style="stroke:#181818;stroke-width:0.5;" x1="1374.5" x2="1474.5" y1="113.2969" y2="113.2969"/><text fill="#000000" font-family="sans-serif" font-size="14" lengthAdjust="spacing" textLength="80" x="1384.5" y="104.9951">logged_out</text></g><g id="logout"><rect fill="#F1F1F1" height="50" rx="12.5" ry="12.5" style="stroke:#181818;stroke-width:0.5;" width="66" x="1467.5" y="341"/><line style="stroke:#181818;stroke-width:0.5;" x1="1467.5" x2="1533.5" y1="367.2969" y2="367.2969"/><text fill="#000000" font-family="sans-serif" font-size="14" lengthAdjust="spacing" textLength="46" x="1477.5" y="358.9951">logout</text></g><g id="logged_in_learner"><rect fill="#F1F1F1" height="50" rx="12.5" ry="12.5" style="stroke:#181818;stroke-width:0.5;" width="147" x="1172" y="214"/><line style="stroke:#181818;stroke-width:0.5;" x1="1172" x2="1319" y1="240.2969" y2="240.2969"/><text fill="#000000" font-family="sans-serif" font-size="14" lengthAdjust="spacing" textLength="127" x="1182" y="231.9951">logged_in_learner</text></g><g id="browse_courses"><rect fill="#F1F1F1" height="50" rx="12.5" ry="12.5" style="stroke:#181818;stroke-width:0.5;" width="133" x="1299" y="341"/><line style="stroke:#181818;stroke-width:0.5;" x1="1299" x2="1432" y1="367.2969" y2="367.2969"/><text fill="#000000" font-family="sans-serif" font-size="14" lengthAdjust="spacing" textLength="113" x="1309" y="358.9951">browse_courses</text></g><g id="enroll_course"><rect fill="#F1F1F1" height="50" rx="12.5" ry="12.5" style="stroke:#181818;stroke-width:0.5;" width="115" x="7" y="595"/><line style="stroke:#181818;stroke-width:0.5;" x1="7" x2="122" y1="621.2969" y2="621.2969"/><text fill="#000000" font-family="sans-serif" font-size="14" lengthAdjust="spacing" textLength="95" x="17" y="612.9951">enroll_course</text></g><g id="do_assignment"><rect fill="#F1F1F1" height="50" rx="12.5" ry="12.5" style="stroke:#181818;stroke-width:0.5;" width="128" x="1027.5" y="706"/><line style="stroke:#181818;stroke-width:0.5;" x1="1027.5" x2="1155.5" y1="732.2969" y2="732.2969"/><text fill="#000000" font-family="sans-serif" font-size="14" lengthAdjust="spacing" textLength="108" x="1037.5" y="723.9951">do_assignment</text></g><g id="browsing_courses"><rect fill="#F1F1F1" height="50" rx="12.5" ry="12.5" style="stroke:#181818;stroke-width:0.5;" width="146" x="159.5" y="595"/><line style="stroke:#181818;stroke-width:0.5;" x1="159.5" x2="305.5" y1="621.2969" y2="621.2969"/><text fill="#000000" font-family="sans-serif" font-size="14" lengthAdjust="spacing" textLength="126" x="169.5" y="612.9951">browsing_courses</text></g><g id="view_course"><rect fill="#F1F1F1" height="50" rx="12.5" ry="12.5" style="stroke:#181818;stroke-width:0.5;" width="106" x="395.5" y="706"/><line style="stroke:#181818;stroke-width:0.5;" x1="395.5" x2="501.5" y1="732.2969" y2="732.2969"/><text fill="#000000" font-family="sans-serif" font-size="14" lengthAdjust="spacing" textLength="86" x="405.5" y="723.9951">view_course</text></g><g id="viewing_course"><rect fill="#F1F1F1" height="50" rx="12.5" ry="12.5" style="stroke:#181818;stroke-width:0.5;" width="128" x="388.5" y="468"/><line style="stroke:#181818;stroke-width:0.5;" x1="388.5" x2="516.5" y1="494.2969" y2="494.2969"/><text fill="#000000" font-family="sans-serif" font-size="14" lengthAdjust="spacing" textLength="108" x="398.5" y="485.9951">viewing_course</text></g><g id="back_to_browse"><rect fill="#F1F1F1" height="50" rx="12.5" ry="12.5" style="stroke:#181818;stroke-width:0.5;" width="137" x="341" y="595"/><line style="stroke:#181818;stroke-width:0.5;" x1="341" x2="478" y1="621.2969" y2="621.2969"/><text fill="#000000" font-family="sans-serif" font-size="14" lengthAdjust="spacing" textLength="117" x="351" y="612.9951">back_to_browse</text></g><g id="view_assignment"><rect fill="#F1F1F1" height="50" rx="12.5" ry="12.5" style="stroke:#181818;stroke-width:0.5;" width="142" x="623.5" y="706"/><line style="stroke:#181818;stroke-width:0.5;" x1="623.5" x2="765.5" y1="732.2969" y2="732.2969"/><text fill="#000000" font-family="sans-serif" font-size="14" lengthAdjust="spacing" textLength="122" x="633.5" y="723.9951">view_assignment</text></g><g id="enrolled_course"><rect fill="#F1F1F1" height="50" rx="12.5" ry="12.5" style="stroke:#181818;stroke-width:0.5;" width="133" x="693" y="595"/><line style="stroke:#181818;stroke-width:0.5;" x1="693" x2="826" y1="621.2969" y2="621.2969"/><text fill="#000000" font-family="sans-serif" font-size="14" lengthAdjust="spacing" textLength="113" x="703" y="612.9951">enrolled_course</text></g><g id="viewing_assignment"><rect fill="#F1F1F1" height="50" rx="12.5" ry="12.5" style="stroke:#181818;stroke-width:0.5;" width="164" x="720.5" y="341"/><line style="stroke:#181818;stroke-width:0.5;" x1="720.5" x2="884.5" y1="367.2969" y2="367.2969"/><text fill="#000000" font-family="sans-serif" font-size="14" lengthAdjust="spacing" textLength="144" x="730.5" y="358.9951">viewing_assignment</text></g><g id="back_to_course"><rect fill="#F1F1F1" height="50" rx="12.5" ry="12.5" style="stroke:#181818;stroke-width:0.5;" width="132" x="736.5" y="468"/><line style="stroke:#181818;stroke-width:0.5;" x1="736.5" x2="868.5" y1="494.2969" y2="494.2969"/><text fill="#000000" font-family="sans-serif" font-size="14" lengthAdjust="spacing" textLength="112" x="746.5" y="485.9951">back_to_course</text></g><ellipse cx="1544.5" cy="239" fill="none" rx="10" ry="10" style="stroke:#181818;stroke-width:1.0;"/><ellipse cx="1545" cy="239.5" fill="#181818" rx="6" ry="6" style="stroke:none;stroke-width:1.0;"/><!--link *start* to logged_out--><g id="link_*start*_logged_out"><path d="M1424.5,26.013 C1424.5,38.698 1424.5,62.409 1424.5,81.57 " fill="none" id="*start*-to-logged_out" style="stroke:#181818;stroke-width:1.0;"/><polygon fill="#181818" points="1424.5,86.84,1428.5,77.84,1424.5,81.84,1420.5,77.84,1424.5,86.84" style="stroke:#181818;stroke-width:1.0;"/></g><!--link logout to logged_out--><g id="link_logout_logged_out"><path d="M1493.23,340.91 C1479.21,294.4 1448.45,192.402 1433.29,142.153 " fill="none" id="logout-to-logged_out" style="stroke:#181818;stroke-width:1.0;"/><polygon fill="#181818" points="1431.79,137.163,1430.5582,146.9345,1433.2333,141.9502,1438.2177,144.6253,1431.79,137.163" style="stroke:#181818;stroke-width:1.0;"/></g><!--link logged_in_learner to browse_courses--><g id="link_logged_in_learner_browse_courses"><path d="M1268.64,264.101 C1288.72,285.025 1317.81,315.324 1338.86,337.254 " fill="none" id="logged_in_learner-to-browse_courses" style="stroke:#181818;stroke-width:1.0;"/><polygon fill="#181818" points="1342.43,340.973,1339.0736,331.7137,1338.9638,337.3695,1333.308,337.2597,1342.43,340.973" style="stroke:#181818;stroke-width:1.0;"/></g><!--link logged_in_learner to enroll_course--><g id="link_logged_in_learner_enroll_course"><path d="M1171.84,241.682 C1032.77,245.61 722.291,257.97 463.5,294 C363.179,307.967 323.691,283.219 240.5,341 C149.188,404.421 94.9906,532.091 74.2522,589.662 " fill="none" id="logged_in_learner-to-enroll_course" style="stroke:#181818;stroke-width:1.0;"/><polygon fill="#181818" points="72.4658,594.679,79.2529,587.5421,74.143,589.9687,71.7164,584.8587,72.4658,594.679" style="stroke:#181818;stroke-width:1.0;"/></g><!--link logged_in_learner to do_assignment--><g id="link_logged_in_learner_do_assignment"><path d="M1241.47,264.064 C1234.92,301.627 1220.82,376.289 1202.5,438 C1173.27,536.467 1126.54,649.057 1104.2,700.9805 " fill="none" id="logged_in_learner-to-do_assignment" style="stroke:#181818;stroke-width:1.0;"/><polygon fill="#181818" points="1102.11,705.8135,1109.3501,699.1366,1104.0921,701.2232,1102.0056,695.9652,1102.11,705.8135" style="stroke:#181818;stroke-width:1.0;"/></g><!--link logged_in_learner to logout--><g id="link_logged_in_learner_logout"><path d="M1294.67,264.101 C1343.68,288.127 1417.91,324.514 1462.55,346.397 " fill="none" id="logged_in_learner-to-logout" style="stroke:#181818;stroke-width:1.0;"/><polygon fill="#181818" points="1467.31,348.731,1460.988,341.179,1462.82,346.531,1457.468,348.363,1467.31,348.731" style="stroke:#181818;stroke-width:1.0;"/><text fill="#000000" font-family="sans-serif" font-size="13" lengthAdjust="spacing" textLength="40" x="1389.5" y="307.0669">logout</text></g><!--link browsing_courses to view_course--><g id="link_browsing_courses_view_course"><path d="M280.17,645.055 C314.413,662.3355 360.57,685.6277 395.89,703.4512 " fill="none" id="browsing_courses-to-view_course" style="stroke:#181818;stroke-width:1.0;"/><polygon fill="#181818" points="400.579,705.8178,394.3465,698.1918,396.1153,703.565,390.742,705.3338,400.579,705.8178" style="stroke:#181818;stroke-width:1.0;"/></g><!--link viewing_course to enroll_course--><g id="link_viewing_course_enroll_course"><path d="M388.304,504.619 C339.792,513.585 271.968,528.149 214.5,548 C179.603,560.055 142.058,577.831 113.259,592.581 " fill="none" id="viewing_course-to-enroll_course" style="stroke:#181818;stroke-width:1.0;"/><polygon fill="#181818" points="108.714,594.921,118.5468,594.3582,113.1595,592.6325,114.8852,587.2453,108.714,594.921" style="stroke:#181818;stroke-width:1.0;"/></g><!--link viewing_course to back_to_browse--><g id="link_viewing_course_back_to_browse"><path d="M461.373,518.108 C465.162,532.222 467.494,550.135 461.5,565 C457.61,574.647 451.081,583.534 443.939,591.195 " fill="none" id="viewing_course-to-back_to_browse" style="stroke:#181818;stroke-width:1.0;"/><polygon fill="#181818" points="440.393,594.855,449.5293,591.1769,443.8731,591.2649,443.7851,585.6087,440.393,594.855" style="stroke:#181818;stroke-width:1.0;"/></g><!--link viewing_course to view_assignment--><g id="link_viewing_course_view_assignment"><path d="M477.487,518.367 C522.8,562.557 618.251,655.642 666.015,702.2212 " fill="none" id="viewing_course-to-view_assignment" style="stroke:#181818;stroke-width:1.0;"/><polygon fill="#181818" points="669.649,705.7653,665.9971,696.6185,666.0689,702.2749,660.4125,702.3467,669.649,705.7653" style="stroke:#181818;stroke-width:1.0;"/></g><!--link enrolled_course to view_course--><g id="link_enrolled_course_view_course"><path d="M692.783,644.383 C637.454,663.7751 559.573,691.0711 506.732,709.5909 " fill="none" id="enrolled_course-to-view_course" style="stroke:#181818;stroke-width:1.0;"/><polygon fill="#181818" points="501.698,711.3551,511.5145,712.1522,506.4164,709.7009,508.8678,704.6027,501.698,711.3551" style="stroke:#181818;stroke-width:1.0;"/></g><!--link enrolled_course to do_assignment--><g id="link_enrolled_course_do_assignment"><path d="M826.286,642.927 C883.288,661.6414 964.945,688.4503 1022.56,707.3655 " fill="none" id="enrolled_course-to-do_assignment" style="stroke:#181818;stroke-width:1.0;"/><polygon fill="#181818" points="1027.36,708.9417,1020.0536,702.3374,1022.6087,707.3843,1017.5618,709.9394,1027.36,708.9417" style="stroke:#181818;stroke-width:1.0;"/></g><!--link enrolled_course to view_assignment--><g id="link_enrolled_course_view_assignment"><path d="M745.074,645.191 C735.144,661.8426 721.913,684.0298 711.475,701.5339 " fill="none" id="enrolled_course-to-view_assignment" style="stroke:#181818;stroke-width:1.0;"/><polygon fill="#181818" points="708.885,705.877,716.9303,700.196,711.446,701.5827,710.0594,696.0984,708.885,705.877" style="stroke:#181818;stroke-width:1.0;"/></g><!--link viewing_assignment to do_assignment--><g id="link_viewing_assignment_do_assignment"><path d="M880.138,391.029 C920.589,407.069 968.043,431.943 999.5,468 C1059.71,537.013 1081.22,647.881 1088.31,700.4788 " fill="none" id="viewing_assignment-to-do_assignment" style="stroke:#181818;stroke-width:1.0;"/><polygon fill="#181818" points="1088.99,705.6877,1091.7897,696.2452,1088.3419,700.7299,1083.8572,697.2821,1088.99,705.6877" style="stroke:#181818;stroke-width:1.0;"/></g><!--link viewing_assignment to back_to_course--><g id="link_viewing_assignment_back_to_course"><path d="M802.5,391.101 C802.5,411.593 802.5,441.076 802.5,462.884 " fill="none" id="viewing_assignment-to-back_to_course" style="stroke:#181818;stroke-width:1.0;"/><polygon fill="#181818" points="802.5,467.973,806.5,458.973,802.5,462.973,798.5,458.973,802.5,467.973" style="stroke:#181818;stroke-width:1.0;"/></g><!--link logged_out to logged_in_learner--><g id="link_logged_out_logged_in_learner"><path d="M1389.99,137.101 C1359.65,158.285 1315.56,189.077 1284.07,211.066 " fill="none" id="logged_out-to-logged_in_learner" style="stroke:#181818;stroke-width:1.0;"/><polygon fill="#181818" points="1279.91,213.973,1289.5765,212.0865,1284.0055,211.1047,1284.9873,205.5337,1279.91,213.973" style="stroke:#181818;stroke-width:1.0;"/><text fill="#000000" font-family="sans-serif" font-size="13" lengthAdjust="spacing" textLength="82" x="1347.5" y="180.0669">login_learner</text></g><!--link logged_in_learner to logged_out--><g id="link_logged_in_learner_logged_out"><path d="M1250.12,213.746 C1254.17,198.504 1261.52,179.439 1274.5,167 C1300.29,142.274 1338.22,128.753 1369.48,121.425 " fill="none" id="logged_in_learner-to-logged_out" style="stroke:#181818;stroke-width:1.0;"/><polygon fill="#181818" points="1374.43,120.301,1364.7704,118.3798,1369.5526,121.4014,1366.531,126.1836,1374.43,120.301" style="stroke:#181818;stroke-width:1.0;"/><text fill="#000000" font-family="sans-serif" font-size="13" lengthAdjust="spacing" textLength="40" x="1275.5" y="180.0669">logout</text></g><!--link logged_in_learner to browsing_courses--><g id="link_logged_in_learner_browsing_courses"><path d="M1171.65,241.196 C956.218,246.398 335.904,274.094 212.5,421 C172.379,468.762 198.795,547.635 217.854,589.982 " fill="none" id="logged_in_learner-to-browsing_courses" style="stroke:#181818;stroke-width:1.0;"/><polygon fill="#181818" points="220.021,594.712,219.9084,584.8638,217.9382,590.1665,212.6356,588.1962,220.021,594.712" style="stroke:#181818;stroke-width:1.0;"/><text fill="#000000" font-family="sans-serif" font-size="13" lengthAdjust="spacing" textLength="104" x="213.5" y="434.0669">browse_courses</text></g><!--link logged_in_learner to enrolled_course--><g id="link_logged_in_learner_enrolled_course"><path d="M1229.84,264.089 C1194.55,316.722 1103.7,443.236 999.5,518 C948.084,554.89 881.136,581.636 831.017,598.301 " fill="none" id="logged_in_learner-to-enrolled_course" style="stroke:#181818;stroke-width:1.0;"/><polygon fill="#181818" points="826.22,599.882,836.0199,600.8626,830.9685,598.3163,833.5148,593.2649,826.22,599.882" style="stroke:#181818;stroke-width:1.0;"/><text fill="#000000" font-family="sans-serif" font-size="13" lengthAdjust="spacing" textLength="85" x="1108.5" y="434.0669">enroll_course</text></g><!--link logged_in_learner to viewing_assignment--><g id="link_logged_in_learner_viewing_assignment"><path d="M1171.78,255.514 C1126.44,265.499 1067.29,279.321 1015.5,294 C968.111,307.431 915.608,324.902 874.586,339.152 " fill="none" id="logged_in_learner-to-viewing_assignment" style="stroke:#181818;stroke-width:1.0;"/><polygon fill="#181818" points="869.641,340.873,879.4558,341.6914,874.363,339.229,876.8254,334.1362,869.641,340.873" style="stroke:#181818;stroke-width:1.0;"/><text fill="#000000" font-family="sans-serif" font-size="13" lengthAdjust="spacing" textLength="112" x="1016.5" y="307.0669">view_assignment</text></g><!--link browsing_courses to viewing_course--><g id="link_browsing_courses_viewing_course"><path d="M224.141,594.847 C220.579,579.837 219.278,560.993 229.5,548 C248.418,523.954 324.927,509.323 383.099,501.465 " fill="none" id="browsing_courses-to-viewing_course" style="stroke:#181818;stroke-width:1.0;"/><polygon fill="#181818" points="388.314,500.772,378.8655,497.9925,383.3576,501.4307,379.9194,505.9227,388.314,500.772" style="stroke:#181818;stroke-width:1.0;"/><text fill="#000000" font-family="sans-serif" font-size="13" lengthAdjust="spacing" textLength="80" x="230.5" y="561.0669">view_course</text></g><!--link viewing_course to browsing_courses--><g id="link_viewing_course_browsing_courses"><path d="M403.726,518.086 C385.874,527.162 365.617,537.769 347.5,548 C322.791,561.953 295.763,578.568 274.121,592.216 " fill="none" id="viewing_course-to-browsing_courses" style="stroke:#181818;stroke-width:1.0;"/><polygon fill="#181818" points="269.867,594.905,279.6123,593.4806,274.0943,592.2349,275.3401,586.7169,269.867,594.905" style="stroke:#181818;stroke-width:1.0;"/><text fill="#000000" font-family="sans-serif" font-size="13" lengthAdjust="spacing" textLength="104" x="348.5" y="561.0669">back_to_browse</text></g><!--link viewing_course to enrolled_course--><g id="link_viewing_course_enrolled_course"><path d="M516.816,510.884 C526.1,513.291 535.542,515.721 544.5,518 C598.196,531.66 615.489,524.152 665.5,548 C688.84,559.13 712.055,576.585 729.575,591.403 " fill="none" id="viewing_course-to-enrolled_course" style="stroke:#181818;stroke-width:1.0;"/><polygon fill="#181818" points="733.45,594.715,729.2083,585.8264,729.6495,591.466,724.0099,591.9072,733.45,594.715" style="stroke:#181818;stroke-width:1.0;"/><text fill="#000000" font-family="sans-serif" font-size="13" lengthAdjust="spacing" textLength="85" x="694.5" y="561.0669">enroll_course</text></g><!--link enrolled_course to viewing_course--><g id="link_enrolled_course_viewing_course"><path d="M692.594,603.468 C657.091,594.211 613.144,581.115 575.5,565 C567.344,561.509 529.483,539.502 497.895,520.903 " fill="none" id="enrolled_course-to-viewing_course" style="stroke:#181818;stroke-width:1.0;"/><polygon fill="#181818" points="493.284,518.186,499.0065,526.2018,497.5915,520.7248,503.0685,519.3098,493.284,518.186" style="stroke:#181818;stroke-width:1.0;"/><text fill="#000000" font-family="sans-serif" font-size="13" lengthAdjust="spacing" textLength="80" x="576.5" y="561.0669">view_course</text></g><!--link viewing_course to viewing_assignment--><g id="link_viewing_course_viewing_assignment"><path d="M443.851,467.878 C440.077,452.69 438.65,433.636 449.5,421 C483.045,381.934 621.68,370.829 714.903,367.848 " fill="none" id="viewing_course-to-viewing_assignment" style="stroke:#181818;stroke-width:1.0;"/><polygon fill="#181818" points="720.141,367.688,711.0218,363.9676,715.1434,367.8423,711.2687,371.9638,720.141,367.688" style="stroke:#181818;stroke-width:1.0;"/><text fill="#000000" font-family="sans-serif" font-size="13" lengthAdjust="spacing" textLength="112" x="450.5" y="434.0669">view_assignment</text></g><!--link viewing_assignment to viewing_course--><g id="link_viewing_assignment_viewing_course"><path d="M720.449,370.588 C592.606,377.031 357.816,392.609 332.5,421 C310.683,445.467 345.527,463.916 383.191,475.868 " fill="none" id="viewing_assignment-to-viewing_course" style="stroke:#181818;stroke-width:1.0;"/><polygon fill="#181818" points="388.276,477.438,380.8575,470.9598,383.4987,475.9623,378.4963,478.6035,388.276,477.438" style="stroke:#181818;stroke-width:1.0;"/><text fill="#000000" font-family="sans-serif" font-size="13" lengthAdjust="spacing" textLength="100" x="333.5" y="434.0669">back_to_course</text></g><!--link enrolled_course to viewing_assignment--><g id="link_enrolled_course_viewing_assignment"><path d="M781.095,594.923 C791.695,580.129 799.97,561.492 788.5,548 C760.882,515.514 525.413,597.125 604.5,468 C628.856,428.234 674.337,403.505 715.572,388.478 " fill="none" id="enrolled_course-to-viewing_assignment" style="stroke:#181818;stroke-width:1.0;"/><polygon fill="#181818" points="720.319,386.784,710.498,386.0437,715.6102,388.4655,713.1884,393.5777,720.319,386.784" style="stroke:#181818;stroke-width:1.0;"/><text fill="#000000" font-family="sans-serif" font-size="13" lengthAdjust="spacing" textLength="112" x="605.5" y="497.5669">view_assignment</text></g><!--link viewing_assignment to enrolled_course--><g id="link_viewing_assignment_enrolled_course"><path d="M831.758,391.152 C863.685,420.609 907.508,472.154 885.5,518 C870.126,550.028 839.099,575.096 811.682,592.246 " fill="none" id="viewing_assignment-to-enrolled_course" style="stroke:#181818;stroke-width:1.0;"/><polygon fill="#181818" points="807.316,594.931,817.078,593.6257,811.5756,592.3127,812.8886,586.8103,807.316,594.931" style="stroke:#181818;stroke-width:1.0;"/><text fill="#000000" font-family="sans-serif" font-size="13" lengthAdjust="spacing" textLength="98" x="892.5" y="497.5669">do_assignment</text></g><!--link logged_out to *end*--><g id="link_logged_out_*end*"><path d="M1470.82,137.221 C1483.75,145.471 1497.1,155.545 1507.5,167 C1523.11,184.197 1534.11,209.196 1539.86,224.484 " fill="none" id="logged_out-to-*end*" style="stroke:#181818;stroke-width:1.0;"/><polygon fill="#181818" points="1541.61,229.271,1542.2813,219.445,1539.8954,224.5742,1534.7663,222.1883,1541.61,229.271" style="stroke:#181818;stroke-width:1.0;"/></g><!--SRC=[ZLBB3eGW3BptApoR-0CSzaUC8Jw8CUj20hh-_YgYiD2gdWfEcPbsohpAYkALZQhlHSVLF070UbYBvDxLW-IZgBKKsY8QhHOZUAjcROH1GEktuOJKQXmTZePrYjV63Bty23dHC2UHkGB0oXXaVmYngEyWbeCHO3jv128g0ZYgfcxVV59yDqg0B5CW761_UXKVq8Lwul-eVmAKiXsg_2No6WAAF9wpEhST1I7OX9szFyDbGCBDiFlC-Drux-msGiTe8eyicHVU6ZX-aAiW0-nliMJCQ2j82pQroo0-Day5apHqrN39H8GodSPjJ56DIMY31TgECgz-]--></g></svg>