<?xml version="1.0" encoding="us-ascii" standalone="no"?><svg xmlns="http://www.w3.org/2000/svg" xmlns:xlink="http://www.w3.org/1999/xlink" contentStyleType="text/css" height="651px" preserveAspectRatio="none" style="width:790px;height:651px;background:#FFFFFF;" version="1.1" viewBox="0 0 790 651" width="790px" zoomAndPan="magnify"><defs/><g><ellipse cx="175" cy="16" fill="#181818" rx="10" ry="10" style="stroke:none;stroke-width:1.0;"/><g id="logged_out"><rect fill="#F1F1F1" height="50" rx="12.5" ry="12.5" style="stroke:#181818;stroke-width:0.5;" width="100" x="125" y="87"/><line style="stroke:#181818;stroke-width:0.5;" x1="125" x2="225" y1="113.2969" y2="113.2969"/><text fill="#000000" font-family="sans-serif" font-size="14" lengthAdjust="spacing" textLength="80" x="135" y="104.9951">logged_out</text></g><g id="logout"><rect fill="#F1F1F1" height="50" rx="12.5" ry="12.5" style="stroke:#181818;stroke-width:0.5;" width="66" x="7" y="341"/><line style="stroke:#181818;stroke-width:0.5;" x1="7" x2="73" y1="367.2969" y2="367.2969"/><text fill="#000000" font-family="sans-serif" font-size="14" lengthAdjust="spacing" textLength="46" x="17" y="358.9951">logout</text></g><g id="logged_in_learner"><rect fill="#F1F1F1" height="50" rx="12.5" ry="12.5" style="stroke:#181818;stroke-width:0.5;" width="147" x="101.5" y="214"/><line style="stroke:#181818;stroke-width:0.5;" x1="101.5" x2="248.5" y1="240.2969" y2="240.2969"/><text fill="#000000" font-family="sans-serif" font-size="14" lengthAdjust="spacing" textLength="127" x="111.5" y="231.9951">logged_in_learner</text></g><g id="browse_courses"><rect fill="#F1F1F1" height="50" rx="12.5" ry="12.5" style="stroke:#181818;stroke-width:0.5;" width="133" x="108.5" y="341"/><line style="stroke:#181818;stroke-width:0.5;" x1="108.5" x2="241.5" y1="367.2969" y2="367.2969"/><text fill="#000000" font-family="sans-serif" font-size="14" lengthAdjust="spacing" textLength="113" x="118.5" y="358.9951">browse_courses</text></g><g id="view_profile"><rect fill="#F1F1F1" height="50" rx="12.5" ry="12.5" style="stroke:#181818;stroke-width:0.5;" width="107" x="276.5" y="341"/><line style="stroke:#181818;stroke-width:0.5;" x1="276.5" x2="383.5" y1="367.2969" y2="367.2969"/><text fill="#000000" font-family="sans-serif" font-size="14" lengthAdjust="spacing" textLength="87" x="286.5" y="358.9951">view_profile</text></g><g id="viewing_profile"><rect fill="#F1F1F1" height="50" rx="12.5" ry="12.5" style="stroke:#181818;stroke-width:0.5;" width="129" x="418.5" y="341"/><line style="stroke:#181818;stroke-width:0.5;" x1="418.5" x2="547.5" y1="367.2969" y2="367.2969"/><text fill="#000000" font-family="sans-serif" font-size="14" lengthAdjust="spacing" textLength="109" x="428.5" y="358.9951">viewing_profile</text></g><g id="edit_profile"><rect fill="#F1F1F1" height="50" rx="12.5" ry="12.5" style="stroke:#181818;stroke-width:0.5;" width="104" x="166" y="468"/><line style="stroke:#181818;stroke-width:0.5;" x1="166" x2="270" y1="494.2969" y2="494.2969"/><text fill="#000000" font-family="sans-serif" font-size="14" lengthAdjust="spacing" textLength="84" x="176" y="485.9951">edit_profile</text></g><g id="back_to_home"><rect fill="#F1F1F1" height="50" rx="12.5" ry="12.5" style="stroke:#181818;stroke-width:0.5;" width="126" x="305" y="468"/><line style="stroke:#181818;stroke-width:0.5;" x1="305" x2="431" y1="494.2969" y2="494.2969"/><text fill="#000000" font-family="sans-serif" font-size="14" lengthAdjust="spacing" textLength="106" x="315" y="485.9951">back_to_home</text></g><g id="editing_profile"><rect fill="#F1F1F1" height="50" rx="12.5" ry="12.5" style="stroke:#181818;stroke-width:0.5;" width="126" x="466" y="468"/><line style="stroke:#181818;stroke-width:0.5;" x1="466" x2="592" y1="494.2969" y2="494.2969"/><text fill="#000000" font-family="sans-serif" font-size="14" lengthAdjust="spacing" textLength="106" x="476" y="485.9951">editing_profile</text></g><g id="save_changes"><rect fill="#F1F1F1" height="50" rx="12.5" ry="12.5" style="stroke:#181818;stroke-width:0.5;" width="118" x="266" y="595"/><line style="stroke:#181818;stroke-width:0.5;" x1="266" x2="384" y1="621.2969" y2="621.2969"/><text fill="#000000" font-family="sans-serif" font-size="14" lengthAdjust="spacing" textLength="98" x="276" y="612.9951">save_changes</text></g><g id="back_to_profile"><rect fill="#F1F1F1" height="50" rx="12.5" ry="12.5" style="stroke:#181818;stroke-width:0.5;" width="133" x="419.5" y="595"/><line style="stroke:#181818;stroke-width:0.5;" x1="419.5" x2="552.5" y1="621.2969" y2="621.2969"/><text fill="#000000" font-family="sans-serif" font-size="14" lengthAdjust="spacing" textLength="113" x="429.5" y="612.9951">back_to_profile</text></g><g id="saving_changes"><rect fill="#F1F1F1" height="50" rx="12.5" ry="12.5" style="stroke:#181818;stroke-width:0.5;" width="131" x="591.5" y="595"/><line style="stroke:#181818;stroke-width:0.5;" x1="591.5" x2="722.5" y1="621.2969" y2="621.2969"/><text fill="#000000" font-family="sans-serif" font-size="14" lengthAdjust="spacing" textLength="111" x="601.5" y="612.9951">saving_changes</text></g><g id="logged"><rect fill="#F1F1F1" height="50" rx="12.5" ry="12.5" style="stroke:#181818;stroke-width:0.5;" width="69" x="714.5" y="468"/><line style="stroke:#181818;stroke-width:0.5;" x1="714.5" x2="783.5" y1="494.2969" y2="494.2969"/><text fill="#000000" font-family="sans-serif" font-size="14" lengthAdjust="spacing" textLength="49" x="724.5" y="485.9951">logged</text></g><ellipse cx="294" cy="239" fill="none" rx="10" ry="10" style="stroke:#181818;stroke-width:1.0;"/><ellipse cx="294.5" cy="239.5" fill="#181818" rx="6" ry="6" style="stroke:none;stroke-width:1.0;"/><!--link *start* to logged_out--><g id="link_*start*_logged_out"><path d="M175,26.013 C175,38.698 175,62.409 175,81.57 " fill="none" id="*start*-to-logged_out" style="stroke:#181818;stroke-width:1.0;"/><polygon fill="#181818" points="175,86.84,179,77.84,175,81.84,171,77.84,175,86.84" style="stroke:#181818;stroke-width:1.0;"/></g><!--link logout to logged_out--><g id="link_logout_logged_out"><path d="M43.5779,340.954 C48.9247,310.03 60.9366,255.382 84,214 C99.5117,186.168 123.97,159.603 143.625,140.708 " fill="none" id="logout-to-logged_out" style="stroke:#181818;stroke-width:1.0;"/><polygon fill="#181818" points="147.488,137.033,138.2106,140.339,143.8657,140.4796,143.7251,146.1347,147.488,137.033" style="stroke:#181818;stroke-width:1.0;"/></g><!--link logged_in_learner to browse_courses--><g id="link_logged_in_learner_browse_courses"><path d="M175,264.101 C175,284.593 175,314.076 175,335.884 " fill="none" id="logged_in_learner-to-browse_courses" style="stroke:#181818;stroke-width:1.0;"/><polygon fill="#181818" points="175,340.973,179,331.973,175,335.973,171,331.973,175,340.973" style="stroke:#181818;stroke-width:1.0;"/></g><!--link logged_in_learner to view_profile--><g id="link_logged_in_learner_view_profile"><path d="M204.886,264.101 C231.046,285.198 269.024,315.826 296.267,337.796 " fill="none" id="logged_in_learner-to-view_profile" style="stroke:#181818;stroke-width:1.0;"/><polygon fill="#181818" points="300.206,340.973,295.7117,332.2094,296.3141,337.834,290.6894,338.4364,300.206,340.973" style="stroke:#181818;stroke-width:1.0;"/></g><!--link logged_in_learner to logout--><g id="link_logged_in_learner_logout"><path d="M148.971,264.101 C126.279,285.112 93.379,315.575 69.6723,337.526 " fill="none" id="logged_in_learner-to-logout" style="stroke:#181818;stroke-width:1.0;"/><polygon fill="#181818" points="65.9494,340.973,75.2707,337.7929,69.618,337.5758,69.8352,331.9231,65.9494,340.973" style="stroke:#181818;stroke-width:1.0;"/><text fill="#000000" font-family="sans-serif" font-size="13" lengthAdjust="spacing" textLength="40" x="117" y="307.0669">logout</text></g><!--link logged_out to logged_in_learner--><g id="link_logged_out_logged_in_learner"><path d="M175,137.101 C175,157.593 175,187.076 175,208.884 " fill="none" id="logged_out-to-logged_in_learner" style="stroke:#181818;stroke-width:1.0;"/><polygon fill="#181818" points="175,213.973,179,204.973,175,208.973,171,204.973,175,213.973" style="stroke:#181818;stroke-width:1.0;"/><text fill="#000000" font-family="sans-serif" font-size="13" lengthAdjust="spacing" textLength="82" x="176" y="180.0669">login_learner</text></g><!--link logged_in_learner to viewing_profile--><g id="link_logged_in_learner_viewing_profile"><path d="M234.385,264.101 C287.327,285.587 364.627,316.959 418.943,339.003 " fill="none" id="logged_in_learner-to-viewing_profile" style="stroke:#181818;stroke-width:1.0;"/><polygon fill="#181818" points="423.797,340.973,416.9616,333.8824,419.1639,339.0929,413.9534,341.2953,423.797,340.973" style="stroke:#181818;stroke-width:1.0;"/><text fill="#000000" font-family="sans-serif" font-size="13" lengthAdjust="spacing" textLength="77" x="349" y="307.0669">view_profile</text></g><!--link viewing_profile to edit_profile--><g id="link_viewing_profile_edit_profile"><path d="M431.905,391.101 C386.538,412.501 320.382,443.707 273.679,465.736 " fill="none" id="viewing_profile-to-edit_profile" style="stroke:#181818;stroke-width:1.0;"/><polygon fill="#181818" points="268.938,467.973,278.7843,467.7484,273.4596,465.8386,275.3693,460.5139,268.938,467.973" style="stroke:#181818;stroke-width:1.0;"/></g><!--link viewing_profile to back_to_home--><g id="link_viewing_profile_back_to_home"><path d="M445.21,391.155 C433.448,399.725 420.964,409.998 411,421 C399.615,433.572 389.609,449.591 382.121,463.23 " fill="none" id="viewing_profile-to-back_to_home" style="stroke:#181818;stroke-width:1.0;"/><polygon fill="#181818" points="379.68,467.756,387.4726,461.7331,382.0533,463.3552,380.4313,457.9358,379.68,467.756" style="stroke:#181818;stroke-width:1.0;"/></g><!--link editing_profile to save_changes--><g id="link_editing_profile_save_changes"><path d="M489.667,518.101 C454.954,539.371 404.432,570.3286 368.518,592.3347 " fill="none" id="editing_profile-to-save_changes" style="stroke:#181818;stroke-width:1.0;"/><polygon fill="#181818" points="364.213,594.9727,373.9767,593.6803,368.4761,592.36,369.7963,586.8594,364.213,594.9727" style="stroke:#181818;stroke-width:1.0;"/></g><!--link editing_profile to back_to_profile--><g id="link_editing_profile_back_to_profile"><path d="M519.226,518.058 C515.558,527.358 511.446,538.123 508,548 C503.234,561.6607 498.423,576.9741 494.52,589.8723 " fill="none" id="editing_profile-to-back_to_profile" style="stroke:#181818;stroke-width:1.0;"/><polygon fill="#181818" points="493.016,594.8716,499.439,587.4053,494.4563,590.0835,491.778,585.1009,493.016,594.8716" style="stroke:#181818;stroke-width:1.0;"/></g><!--link saving_changes to viewing_profile--><g id="link_saving_changes_viewing_profile"><path d="M658.659,594.9202 C660.131,554.2801 657.231,471.573 615,421 C599.146,402.015 575.566,389.624 552.704,381.571 " fill="none" id="saving_changes-to-viewing_profile" style="stroke:#181818;stroke-width:1.0;"/><polygon fill="#181818" points="547.839,379.918,555.0737,386.6007,552.5732,381.5265,557.6474,379.026,547.839,379.918" style="stroke:#181818;stroke-width:1.0;"/></g><!--link viewing_profile to editing_profile--><g id="link_viewing_profile_editing_profile"><path d="M442.436,391.196 C425.856,404.301 412.712,421.213 423,438 C431.9,452.522 446.066,463.292 461.182,471.22 " fill="none" id="viewing_profile-to-editing_profile" style="stroke:#181818;stroke-width:1.0;"/><polygon fill="#181818" points="465.899,473.59,459.6545,465.9738,461.4317,471.3442,456.0613,473.1214,465.899,473.59" style="stroke:#181818;stroke-width:1.0;"/><text fill="#000000" font-family="sans-serif" font-size="13" lengthAdjust="spacing" textLength="71" x="424" y="434.0669">edit_profile</text></g><!--link editing_profile to viewing_profile--><g id="link_editing_profile_viewing_profile"><path d="M520.158,467.973 C512.593,447.416 501.684,417.772 493.642,395.919 " fill="none" id="editing_profile-to-viewing_profile" style="stroke:#181818;stroke-width:1.0;"/><polygon fill="#181818" points="491.869,391.101,491.2246,400.9288,493.5964,395.7931,498.732,398.1649,491.869,391.101" style="stroke:#181818;stroke-width:1.0;"/><text fill="#000000" font-family="sans-serif" font-size="13" lengthAdjust="spacing" textLength="97" x="509" y="434.0669">back_to_profile</text></g><!--link viewing_profile to logged--><g id="link_viewing_profile_logged"><path d="M547.551,374.141 C589.747,381.111 644.676,394.708 687,421 C704.408,431.814 719.62,449.037 730.62,463.812 " fill="none" id="viewing_profile-to-logged" style="stroke:#181818;stroke-width:1.0;"/><polygon fill="#181818" points="733.609,467.907,731.5348,458.279,730.6616,463.8681,725.0726,462.9949,733.609,467.907" style="stroke:#181818;stroke-width:1.0;"/></g><!--link editing_profile to saving_changes--><g id="link_editing_profile_saving_changes"><path d="M527.668,518.263 C528.076,533.129 530.921,551.7766 541,565 C552.509,580.0992 569.262,591.1353 586.475,599.1383 " fill="none" id="editing_profile-to-saving_changes" style="stroke:#181818;stroke-width:1.0;"/><polygon fill="#181818" points="591.338,601.3159,584.758,593.9877,586.7744,599.2729,581.4892,601.2894,591.338,601.3159" style="stroke:#181818;stroke-width:1.0;"/><text fill="#000000" font-family="sans-serif" font-size="13" lengthAdjust="spacing" textLength="92" x="542" y="561.0669">save_changes</text></g><!--link logged_out to *end*--><g id="link_logged_out_*end*"><path d="M225.396,134.532 C240.373,142.892 255.762,153.704 267,167 C280.951,183.505 288.104,207.973 291.447,223.446 " fill="none" id="logged_out-to-*end*" style="stroke:#181818;stroke-width:1.0;"/><polygon fill="#181818" points="292.511,228.708,294.6467,219.0935,291.5194,223.8073,286.8056,220.68,292.511,228.708" style="stroke:#181818;stroke-width:1.0;"/></g><!--SRC=[VP5D3eCW58JtdCArYHTmqOiOGr1VaTH20_vSlmz4XO9bzP0P_6PeohQegaSnASvXe6gP2I6umI7vxcSXwGHCIz1EqMcr6Q2zMhG1an7XihfLm4O_MZt51EHUvlzT-u6uTL64K87PoQ_z7Qjb498V66YBg7wFhGK6CP-2v8ATkMFzYywAZkgDqOYrH2AhCMp5aaOcEPQKAE9xpfO8kgpE-ufSY5lgE6YK8sVP6qlGF7j8KVyFaoywpHOyglCqPVi5]--></g></svg>