<?xml version="1.0" encoding="us-ascii" standalone="no"?><svg xmlns="http://www.w3.org/2000/svg" xmlns:xlink="http://www.w3.org/1999/xlink" contentStyleType="text/css" height="428px" preserveAspectRatio="none" style="width:963px;height:428px;background:#FFFFFF;" version="1.1" viewBox="0 0 963 428" width="963px" zoomAndPan="magnify"><defs/><g><ellipse cx="357.5" cy="32" fill="#181818" rx="10" ry="10" style="stroke:none;stroke-width:1.0;"/><g id="logged_out"><rect fill="#F1F1F1" height="50" rx="12.5" ry="12.5" style="stroke:#181818;stroke-width:0.5;" width="100" x="346.5" y="118"/><line style="stroke:#181818;stroke-width:0.5;" x1="346.5" x2="446.5" y1="144.2969" y2="144.2969"/><text fill="#000000" font-family="sans-serif" font-size="14" lengthAdjust="spacing" textLength="80" x="356.5" y="135.9951">logged_out</text></g><g id="register"><rect fill="#F1F1F1" height="50" rx="12.5" ry="12.5" style="stroke:#181818;stroke-width:0.5;" width="77" x="7" y="245"/><line style="stroke:#181818;stroke-width:0.5;" x1="7" x2="84" y1="271.2969" y2="271.2969"/><text fill="#000000" font-family="sans-serif" font-size="14" lengthAdjust="spacing" textLength="57" x="17" y="262.9951">register</text></g><g id="logout"><rect fill="#F1F1F1" height="50" rx="12.5" ry="12.5" style="stroke:#181818;stroke-width:0.5;" width="66" x="402.5" y="7"/><line style="stroke:#181818;stroke-width:0.5;" x1="402.5" x2="468.5" y1="33.2969" y2="33.2969"/><text fill="#000000" font-family="sans-serif" font-size="14" lengthAdjust="spacing" textLength="46" x="412.5" y="24.9951">logout</text></g><g id="registered"><rect fill="#F1F1F1" height="50" rx="12.5" ry="12.5" style="stroke:#181818;stroke-width:0.5;" width="95" x="509" y="245"/><line style="stroke:#181818;stroke-width:0.5;" x1="509" x2="604" y1="271.2969" y2="271.2969"/><text fill="#000000" font-family="sans-serif" font-size="14" lengthAdjust="spacing" textLength="75" x="519" y="262.9951">registered</text></g><g id="logged_in_instructor"><rect fill="#F1F1F1" height="50" rx="12.5" ry="12.5" style="stroke:#181818;stroke-width:0.5;" width="167" x="103" y="372"/><line style="stroke:#181818;stroke-width:0.5;" x1="103" x2="270" y1="398.2969" y2="398.2969"/><text fill="#000000" font-family="sans-serif" font-size="14" lengthAdjust="spacing" textLength="147" x="113" y="389.9951">logged_in_instructor</text></g><g id="logged_in_learner"><rect fill="#F1F1F1" height="50" rx="12.5" ry="12.5" style="stroke:#181818;stroke-width:0.5;" width="147" x="652" y="372"/><line style="stroke:#181818;stroke-width:0.5;" x1="652" x2="799" y1="398.2969" y2="398.2969"/><text fill="#000000" font-family="sans-serif" font-size="14" lengthAdjust="spacing" textLength="127" x="662" y="389.9951">logged_in_learner</text></g><g id="logged_in_premium_learner"><rect fill="#F1F1F1" height="50" rx="12.5" ry="12.5" style="stroke:#181818;stroke-width:0.5;" width="219" x="367" y="372"/><line style="stroke:#181818;stroke-width:0.5;" x1="367" x2="586" y1="398.2969" y2="398.2969"/><text fill="#000000" font-family="sans-serif" font-size="14" lengthAdjust="spacing" textLength="199" x="377" y="389.9951">logged_in_premium_learner</text></g><ellipse cx="947.5" cy="270" fill="none" rx="10" ry="10" style="stroke:#181818;stroke-width:1.0;"/><ellipse cx="948" cy="270.5" fill="#181818" rx="6" ry="6" style="stroke:none;stroke-width:1.0;"/><!--link *start* to logged_out--><g id="link_*start*_logged_out"><path d="M360.56,41.553 C365.992,56.734 377.55,89.037 386.099,112.932 " fill="none" id="*start*-to-logged_out" style="stroke:#181818;stroke-width:1.0;"/><polygon fill="#181818" points="387.875,117.894,388.6091,108.0725,386.1905,113.1863,381.0768,110.7677,387.875,117.894" style="stroke:#181818;stroke-width:1.0;"/></g><!--link logged_out to register--><g id="link_logged_out_register"><path d="M346.431,146.558 C290.715,151.075 199.227,163.553 128.5,198 C106.8117,208.563 86.1818,226.162 70.9145,241.194 " fill="none" id="logged_out-to-register" style="stroke:#181818;stroke-width:1.0;"/><polygon fill="#181818" points="67.1512,244.955,76.3449,241.423,70.6881,241.4208,70.6903,235.764,67.1512,244.955" style="stroke:#181818;stroke-width:1.0;"/></g><!--link logout to logged_out--><g id="link_logout_logged_out"><path d="M426.845,57.191 C420.937,73.701 413.082,95.654 406.845,113.088 " fill="none" id="logout-to-logged_out" style="stroke:#181818;stroke-width:1.0;"/><polygon fill="#181818" points="405.131,117.877,411.9292,110.7507,406.8155,113.1693,404.3969,108.0555,405.131,117.877" style="stroke:#181818;stroke-width:1.0;"/></g><!--link logged_out to registered--><g id="link_logged_out_registered"><path d="M427.35,168.101 C454.354,189.198 493.557,219.826 521.679,241.796 " fill="none" id="logged_out-to-registered" style="stroke:#181818;stroke-width:1.0;"/><polygon fill="#181818" points="525.745,244.973,521.1125,236.2816,521.8039,241.8961,516.1894,242.5875,525.745,244.973" style="stroke:#181818;stroke-width:1.0;"/><text fill="#000000" font-family="sans-serif" font-size="13" lengthAdjust="spacing" textLength="49" x="487.5" y="211.0669">register</text></g><!--link logged_out to logged_in_instructor--><g id="link_logged_out_logged_in_instructor"><path d="M346.152,160.898 C306.946,176.627 254.19,203.895 223.5,245 C196.6,281.029 189.042,334.1092 187.043,366.7922 " fill="none" id="logged_out-to-logged_in_instructor" style="stroke:#181818;stroke-width:1.0;"/><polygon fill="#181818" points="186.768,371.8568,191.2504,363.0871,187.0393,366.8642,183.2622,362.653,186.768,371.8568" style="stroke:#181818;stroke-width:1.0;"/><text fill="#000000" font-family="sans-serif" font-size="13" lengthAdjust="spacing" textLength="98" x="224.5" y="274.5669">login_instructor</text></g><!--link logged_out to logged_in_learner--><g id="link_logged_out_logged_in_learner"><path d="M446.523,149.934 C533.563,163.3 710.456,204.657 782.5,325 C791.629,340.2483 781.745,355.7975 767.788,368.4422 " fill="none" id="logged_out-to-logged_in_learner" style="stroke:#181818;stroke-width:1.0;"/><polygon fill="#181818" points="763.756,371.929,773.1797,369.0664,767.5376,368.6579,767.946,363.0159,763.756,371.929" style="stroke:#181818;stroke-width:1.0;"/><text fill="#000000" font-family="sans-serif" font-size="13" lengthAdjust="spacing" textLength="82" x="762.5" y="274.5669">login_learner</text></g><!--link logged_out to logged_in_premium_learner--><g id="link_logged_out_logged_in_premium_learner"><path d="M378.82,168.051 C351.856,207.926 307.491,288.611 346.5,342 C354.782,353.3357 365.894,362.3032 378.147,369.3944 " fill="none" id="logged_out-to-logged_in_premium_learner" style="stroke:#181818;stroke-width:1.0;"/><polygon fill="#181818" points="382.71,371.923,376.7758,364.0627,378.3363,369.5,372.899,371.0606,382.71,371.923" style="stroke:#181818;stroke-width:1.0;"/><text fill="#000000" font-family="sans-serif" font-size="13" lengthAdjust="spacing" textLength="147" x="340.5" y="274.5669">login_premium_learner</text></g><!--link registered to logged_in_instructor--><g id="link_registered_logged_in_instructor"><path d="M508.886,287.086 C446.53,308.152 336.466,345.3357 262.513,370.3199 " fill="none" id="registered-to-logged_in_instructor" style="stroke:#181818;stroke-width:1.0;"/><polygon fill="#181818" points="257.695,371.9476,267.5018,372.8571,262.4321,370.3475,264.9417,365.2778,257.695,371.9476" style="stroke:#181818;stroke-width:1.0;"/><text fill="#000000" font-family="sans-serif" font-size="13" lengthAdjust="spacing" textLength="98" x="395.5" y="338.0669">login_instructor</text></g><!--link registered to logged_in_learner--><g id="link_registered_logged_in_learner"><path d="M604.122,286.971 C626.37,295.916 652.333,308.605 672.5,325 C686.994,336.7835 699.663,353.3642 708.977,367.5394 " fill="none" id="registered-to-logged_in_learner" style="stroke:#181818;stroke-width:1.0;"/><polygon fill="#181818" points="711.759,371.8533,710.2432,362.1218,709.0493,367.6512,703.5199,366.4573,711.759,371.8533" style="stroke:#181818;stroke-width:1.0;"/><text fill="#000000" font-family="sans-serif" font-size="13" lengthAdjust="spacing" textLength="82" x="691.5" y="338.0669">login_learner</text></g><!--link registered to logged_in_premium_learner--><g id="link_registered_logged_in_premium_learner"><path d="M539.446,295.267 C533.071,304.499 525.843,315.162 519.5,325 C510.59,338.8199 501.081,354.4251 493.276,367.4788 " fill="none" id="registered-to-logged_in_premium_learner" style="stroke:#181818;stroke-width:1.0;"/><polygon fill="#181818" points="490.698,371.8016,498.7434,366.1208,493.2591,367.5073,491.8726,362.023,490.698,371.8016" style="stroke:#181818;stroke-width:1.0;"/><text fill="#000000" font-family="sans-serif" font-size="13" lengthAdjust="spacing" textLength="147" x="520.5" y="338.0669">login_premium_learner</text></g><!--link logged_out to *end*--><g id="link_logged_out_*end*"><path d="M446.572,147.006 C547.659,153.566 772.603,170.795 844.5,198 C881.952,212.172 918.884,242.758 936.619,258.764 " fill="none" id="logged_out-to-*end*" style="stroke:#181818;stroke-width:1.0;"/><polygon fill="#181818" points="940.702,262.501,936.7615,253.4748,937.0129,259.1261,931.3616,259.3774,940.702,262.501" style="stroke:#181818;stroke-width:1.0;"/></g><!--SRC=[YzQALT3LjLF8oKzFJqs9poyjuU92iC5IHQdfcSKbgKLW2PWWidgSEb9J5AmGsj4KGRcPUK1KN59KcboINmHK3XH64SAjBISriIWl5Q47oiUjeQ0eDJUpD1T38veu5vBpIN4eJcsu78fJ0x4EHGbui1dHMh40]--></g></svg>